<svg width="50" height="50" viewBox="0 0 50 50" fill="none" xmlns="http://www.w3.org/2000/svg">
<path d="M25 49.5056C24.0119 48.2775 20.3125 43.5287 20.3125 41.25C20.3125 38.7756 22.2837 36.9794 25 36.9794C27.7162 36.9794 29.6875 38.7756 29.6875 41.25C29.6875 43.5294 25.9881 48.2775 25 49.5056Z" fill="#F78F8F"/>
<path d="M25 37.2919C27.535 37.2919 29.375 38.9569 29.375 41.25C29.375 43.1137 26.5556 47.05 25 49.0087C23.4444 47.0506 20.625 43.115 20.625 41.25C20.625 38.9562 22.465 37.2919 25 37.2919ZM25 36.6669C22.2387 36.6669 20 38.4887 20 41.25C20 44.0112 25 50 25 50C25 50 30 44.0112 30 41.25C30 38.4887 27.7613 36.6669 25 36.6669Z" fill="#C74343"/>
<path d="M26.6669 41.25C26.6669 42.1706 25 45 25 45C25 45 23.3331 42.1706 23.3331 41.25C23.3331 40.3294 24.0794 40 25 40C25.9206 40 26.6669 40.3294 26.6669 41.25Z" fill="#FFEEA3"/>
<path d="M20 40.9375C19.4831 40.9375 19.0625 40.5169 19.0625 40V32.8125H30.9375V40C30.9375 40.5169 30.5169 40.9375 30 40.9375H20Z" fill="#8BB7F0"/>
<path d="M30.625 33.125V40C30.625 40.3444 30.3444 40.625 30 40.625H20C19.6556 40.625 19.375 40.3444 19.375 40V33.125H30.625ZM31.25 32.5H18.75V40C18.75 40.6906 19.3094 41.25 20 41.25H30C30.6906 41.25 31.25 40.6906 31.25 40V32.5Z" fill="#4E7AB5"/>
<path d="M33.7887 37.1875H16.2112L11.5625 38.3494V32.4237C11.5625 31.2712 12.135 30.2025 13.0931 29.5637L16.3294 27.8125H33.6706L36.9312 29.5781C37.865 30.2025 38.4375 31.2712 38.4375 32.4237V38.3494L33.7887 37.1875Z" fill="#8BB7F0"/>
<path d="M33.5919 28.125L36.7563 29.8388C37.6138 30.4213 38.125 31.3856 38.125 32.4237V37.9494L33.9019 36.8937L33.8269 36.875H33.75H16.25H16.1731L16.0987 36.8937L11.875 37.9494V32.4231C11.875 31.385 12.3863 30.4213 13.2438 29.8381L16.4081 28.125H33.5919ZM33.75 27.5H16.25L12.92 29.3031C11.8769 29.9987 11.25 31.17 11.25 32.4237V38.75L16.25 37.5H33.75L38.75 38.75V32.4237C38.75 31.17 38.1231 29.9988 37.08 29.3038L33.75 27.5Z" fill="#4E7AB5"/>
<path d="M16.5625 38.4375V12.5C16.5625 8.01126 23.7037 1.54938 25.0012 0.412506C26.3012 1.53938 33.4375 7.93376 33.4375 12.5V38.4375H16.5625Z" fill="#C2E8FF"/>
<path d="M25.0025 0.828125C26.6931 2.31813 33.125 8.26437 33.125 12.5V38.125H16.875V12.5C16.875 8.3375 23.3138 2.33125 25.0025 0.828125ZM25 0C25 0 16.25 7.38375 16.25 12.5C16.25 17.6162 16.25 38.75 16.25 38.75H33.75C33.75 38.75 33.75 17.7044 33.75 12.5C33.75 7.29563 25 0 25 0Z" fill="#7496C4"/>
<path d="M25 10.3125C24.6307 10.3125 24.2649 10.3852 23.9237 10.5266C23.5825 10.6679 23.2724 10.8751 23.0113 11.1363C22.7501 11.3974 22.5429 11.7075 22.4016 12.0487C22.2602 12.3899 22.1875 12.7557 22.1875 13.125C22.1875 13.4943 22.2602 13.8601 22.4016 14.2013C22.5429 14.5425 22.7501 14.8526 23.0113 15.1137C23.2724 15.3749 23.5825 15.5821 23.9237 15.7234C24.2649 15.8648 24.6307 15.9375 25 15.9375C25.3693 15.9375 25.7351 15.8648 26.0763 15.7234C26.4175 15.5821 26.7276 15.3749 26.9887 15.1137C27.2499 14.8526 27.4571 14.5425 27.5984 14.2013C27.7398 13.8601 27.8125 13.4943 27.8125 13.125C27.8125 12.7557 27.7398 12.3899 27.5984 12.0487C27.4571 11.7075 27.2499 11.3974 26.9887 11.1363C26.7276 10.8751 26.4175 10.6679 26.0763 10.5266C25.7351 10.3852 25.3693 10.3125 25 10.3125Z" fill="#8BB7F0"/>
<path d="M25 10.625C26.3787 10.625 27.5 11.7469 27.5 13.125C27.5 14.5031 26.3787 15.625 25 15.625C23.6212 15.625 22.5 14.5031 22.5 13.125C22.5 11.7469 23.6212 10.625 25 10.625ZM25 10C23.2744 10 21.875 11.3994 21.875 13.125C21.875 14.8506 23.2744 16.25 25 16.25C26.7256 16.25 28.125 14.8506 28.125 13.125C28.125 11.3994 26.7256 10 25 10Z" fill="#4E7AB5"/>
<path d="M25 20.9375C24.2541 20.9375 23.5387 21.2338 23.0113 21.7613C22.4838 22.2887 22.1875 23.0041 22.1875 23.75C22.1875 24.4959 22.4838 25.2113 23.0113 25.7387C23.5387 26.2662 24.2541 26.5625 25 26.5625C25.7459 26.5625 26.4613 26.2662 26.9887 25.7387C27.5162 25.2113 27.8125 24.4959 27.8125 23.75C27.8125 23.0041 27.5162 22.2887 26.9887 21.7613C26.4613 21.2338 25.7459 20.9375 25 20.9375Z" fill="#8BB7F0"/>
<path d="M25 21.25C26.3787 21.25 27.5 22.3719 27.5 23.75C27.5 25.1281 26.3787 26.25 25 26.25C23.6212 26.25 22.5 25.1281 22.5 23.75C22.5 22.3719 23.6212 21.25 25 21.25ZM25 20.625C23.2744 20.625 21.875 22.0244 21.875 23.75C21.875 25.4756 23.2744 26.875 25 26.875C26.7256 26.875 28.125 25.4756 28.125 23.75C28.125 22.0244 26.7256 20.625 25 20.625Z" fill="#4E7AB5"/>
</svg>
