<svg width="40" height="40" viewBox="0 0 40 40" fill="none" xmlns="http://www.w3.org/2000/svg">
<g clip-path="url(#clip0)">
<path d="M20 20.5C14.762 20.5 10.5 16.238 10.5 11C10.5 5.762 14.762 1.5 20 1.5C25.238 1.5 29.5 5.762 29.5 11C29.5 16.238 25.238 20.5 20 20.5Z" fill="#DFF0FE"/>
<path d="M20 2C24.963 2 29 6.037 29 11C29 15.963 24.963 20 20 20C15.037 20 11 15.963 11 11C11 6.037 15.037 2 20 2ZM20 1C14.477 1 10 5.477 10 11C10 16.523 14.477 21 20 21C25.523 21 30 16.523 30 11C30 5.477 25.523 1 20 1Z" fill="#4788C7"/>
<path d="M2.5 38.5V36.201C2.5 28.593 13.657 25.711 14.521 25.5H25.48C26.343 25.711 37.5 28.592 37.5 36.201V38.5H2.5Z" fill="#B6DCFE"/>
<path d="M25.419 26C26.572 26.289 37 29.106 37 36.201V38H3V36.201C3 29.106 13.428 26.289 14.581 26H25.419ZM25.538 25H14.462C14.462 25 2 27.827 2 36.201C2 36.201 2 37.405 2 39H38C38 37.405 38 36.201 38 36.201C38 27.827 25.538 25 25.538 25Z" fill="#4788C7"/>
</g>
<defs>
<clipPath id="clip0">
<rect width="40" height="40" fill="white"/>
</clipPath>
</defs>
</svg>
