<svg width="20" height="20" viewBox="0 0 20 20" fill="none" xmlns="http://www.w3.org/2000/svg">
<path d="M1.25 4.25C1.25 2.59315 2.59315 1.25 4.25 1.25H15.75C17.4069 1.25 18.75 2.59315 18.75 4.25V15.75C18.75 17.4069 17.4069 18.75 15.75 18.75H4.25C2.59315 18.75 1.25 17.4069 1.25 15.75V4.25Z" fill="#98CCFD"/>
<path d="M15.5 1.5C17.1569 1.5 18.5 2.84315 18.5 4.5V15.5C18.5 17.1569 17.1569 18.5 15.5 18.5H4.5C2.84315 18.5 1.5 17.1569 1.5 15.5V4.5C1.5 2.84315 2.84315 1.5 4.5 1.5H15.5ZM19 4C19 2.34315 17.6569 1 16 1H4C2.34315 1 1 2.34315 1 4V16C1 17.6569 2.34315 19 4 19H16C17.6569 19 19 17.6569 19 16V4Z" fill="#4788C7"/>
<path d="M15.5 9.5H10.5V4.5H9.5V9.5H4.5V10.5H9.5V15.5H10.5V10.5H15.5V9.5Z" fill="white"/>
</svg>
