<svg width="19" height="23" viewBox="0 0 19 23" fill="none" xmlns="http://www.w3.org/2000/svg">
<path d="M12.1041 1.08334H3.24996C2.69742 1.08334 2.16752 1.30283 1.77682 1.69353C1.38612 2.08423 1.16663 2.61413 1.16663 3.16667V19.8333C1.16663 20.3859 1.38612 20.9158 1.77682 21.3065C2.16752 21.6972 2.69742 21.9167 3.24996 21.9167H15.75C16.3025 21.9167 16.8324 21.6972 17.2231 21.3065C17.6138 20.9158 17.8333 20.3859 17.8333 19.8333V6.8125L12.1041 1.08334Z" stroke="#4788C7" stroke-linecap="round" stroke-linejoin="round"/>
<path d="M11.5833 1.08334V7.33334H17.8333M7.41659 11.5C7.14032 11.5 6.87537 11.6097 6.68002 11.8051C6.48467 12.0004 6.37492 12.2654 6.37492 12.5417V13.5833C6.37492 13.8596 6.26517 14.1246 6.06982 14.3199C5.87447 14.5153 5.60952 14.625 5.33325 14.625C5.60952 14.625 5.87447 14.7347 6.06982 14.9301C6.26517 15.1254 6.37492 15.3904 6.37492 15.6667V16.7083C6.37492 16.9846 6.48467 17.2496 6.68002 17.4449C6.87537 17.6403 7.14032 17.75 7.41659 17.75M11.5833 17.75C11.8595 17.75 12.1245 17.6403 12.3198 17.4449C12.5152 17.2496 12.6249 16.9846 12.6249 16.7083V15.6667C12.6249 15.3904 12.7347 15.1254 12.93 14.9301C13.1254 14.7347 13.3903 14.625 13.6666 14.625C13.3903 14.625 13.1254 14.5153 12.93 14.3199C12.7347 14.1246 12.6249 13.8596 12.6249 13.5833V12.5417C12.6249 12.2654 12.5152 12.0004 12.3198 11.8051C12.1245 11.6097 11.8595 11.5 11.5833 11.5" stroke="#4788C7" stroke-linecap="round" stroke-linejoin="round"/>
</svg>
