<svg width="40" height="40" viewBox="0 0 40 40" fill="none" xmlns="http://www.w3.org/2000/svg">
<path d="M2.5 2.5H37.5V37.5H2.5V2.5Z" fill="white"/>
<path d="M37 3V37H3V3H37ZM38 2H2V38H38V2Z" fill="#4788C7"/>
<path d="M2.5 2.5H37.5V7.5H2.5V2.5Z" fill="#B6DCFE"/>
<path d="M37 3V7H3V3H37ZM38 2H2V8H38V2Z" fill="#4788C7"/>
<path d="M3 34H37V37H3V34Z" fill="#B6DCFE"/>
<path d="M12.539 29.25C11.8745 29.25 11.288 28.9015 10.9705 28.3175C10.653 27.734 10.679 27.052 11.04 26.494L17.25 19.1905V12.25H17C16.5865 12.25 16.25 11.9135 16.25 11.5C16.25 11.0865 16.5865 10.75 17 10.75H23C23.4135 10.75 23.75 11.0865 23.75 11.5C23.75 11.9135 23.4135 12.25 23 12.25H22.75V19.1905L28.9795 26.52C29.321 27.052 29.347 27.7335 29.0295 28.3175C28.712 28.9015 28.1255 29.25 27.461 29.25H12.539Z" fill="#DFF0FE"/>
<path d="M23 11C23.2755 11 23.5 11.2245 23.5 11.5C23.5 11.7755 23.2755 12 23 12H22.5V12.5V19.099V19.283L22.619 19.423L28.7665 26.656C29.0615 27.131 29.078 27.7055 28.81 28.1985C28.537 28.7005 28.0325 29 27.461 29H12.539C11.9675 29 11.463 28.7005 11.19 28.198C10.9215 27.705 10.9385 27.1305 11.2335 26.6555L17.381 19.4225L17.5 19.2825V19.0985V12.5V12H17C16.7245 12 16.5 11.7755 16.5 11.5C16.5 11.2245 16.7245 11 17 11H23ZM23 10.5H17C16.45 10.5 16 10.95 16 11.5C16 12.05 16.45 12.5 17 12.5V19.099L10.83 26.3585C9.9535 27.713 10.926 29.5 12.539 29.5H27.461C29.0745 29.5 30.0465 27.713 29.17 26.3585L23 19.099V12.5C23.55 12.5 24 12.05 24 11.5C24 10.95 23.55 10.5 23 10.5Z" fill="#4788C7"/>
<path d="M19 15C18.8674 15 18.7402 15.0527 18.6465 15.1465C18.5527 15.2402 18.5 15.3674 18.5 15.5C18.5 15.6326 18.5527 15.7598 18.6465 15.8535C18.7402 15.9473 18.8674 16 19 16C19.1326 16 19.2598 15.9473 19.3535 15.8535C19.4473 15.7598 19.5 15.6326 19.5 15.5C19.5 15.3674 19.4473 15.2402 19.3535 15.1465C19.2598 15.0527 19.1326 15 19 15ZM20.5 18.5C20.2348 18.5 19.9804 18.6054 19.7929 18.7929C19.6054 18.9804 19.5 19.2348 19.5 19.5C19.5 19.7652 19.6054 20.0196 19.7929 20.2071C19.9804 20.3946 20.2348 20.5 20.5 20.5C20.7652 20.5 21.0196 20.3946 21.2071 20.2071C21.3946 20.0196 21.5 19.7652 21.5 19.5C21.5 19.2348 21.3946 18.9804 21.2071 18.7929C21.0196 18.6054 20.7652 18.5 20.5 18.5Z" fill="#4788C7"/>
<path d="M12.539 29.25C11.8745 29.25 11.288 28.9015 10.9705 28.3175C10.653 27.734 10.679 27.052 11.04 26.494L14.65 22.25H25.35L28.9795 26.5205C29.321 27.0525 29.347 27.734 29.0295 28.318C28.712 28.902 28.1255 29.2505 27.461 29.2505H12.539V29.25Z" fill="#98CCFD"/>
<path d="M25.2345 22.5L28.7665 26.6555C29.0615 27.1305 29.078 27.705 28.81 28.198C28.537 28.7005 28.0325 29 27.461 29H12.539C11.9675 29 11.463 28.7005 11.19 28.198C10.9215 27.705 10.9385 27.1305 11.2335 26.6555L14.7655 22.5H25.2345ZM25.466 22H14.534L10.83 26.3585C9.9535 27.713 10.926 29.5 12.539 29.5H27.461C29.0745 29.5 30.0465 27.713 29.17 26.3585L25.466 22Z" fill="#4788C7"/>
<path d="M22.25 26C22.0511 26 21.8603 26.079 21.7197 26.2197C21.579 26.3603 21.5 26.5511 21.5 26.75C21.5 26.9489 21.579 27.1397 21.7197 27.2803C21.8603 27.421 22.0511 27.5 22.25 27.5C22.4489 27.5 22.6397 27.421 22.7803 27.2803C22.921 27.1397 23 26.9489 23 26.75C23 26.5511 22.921 26.3603 22.7803 26.2197C22.6397 26.079 22.4489 26 22.25 26ZM17.75 24C17.4185 24 17.1005 24.1317 16.8661 24.3661C16.6317 24.6005 16.5 24.9185 16.5 25.25C16.5 25.5815 16.6317 25.8995 16.8661 26.1339C17.1005 26.3683 17.4185 26.5 17.75 26.5C18.0815 26.5 18.3995 26.3683 18.6339 26.1339C18.8683 25.8995 19 25.5815 19 25.25C19 24.9185 18.8683 24.6005 18.6339 24.3661C18.3995 24.1317 18.0815 24 17.75 24Z" fill="#4788C7"/>
</svg>
