<svg width="40" height="40" viewBox="0 0 40 40" fill="none" xmlns="http://www.w3.org/2000/svg">
<path d="M32.306 14.125H38.978V17H28.509V15.815C28.509 10.085 35.466 9.347 35.466 5.807C35.466 3.953 33.933 3.766 33.15 3.766C31.797 3.766 30.502 4.304 29.265 5.379V2.328C30.634 1.443 32.178 1 33.897 1C38.782 1 39 4.786 39 5.466C39 10.596 32.306 11.958 32.306 14.125Z" fill="#4788C7"/>
<path d="M8.5 34.5V32.93L11.5 32.18V8.5H3.359L2.609 11.5H1.5V5.5H26.5V11.5H25.391L24.641 8.5H16.5V32.18L19.5 32.93V34.5H8.5Z" fill="#DFF0FE"/>
<path d="M26 6V11H25.781L25.22 8.757L25.031 8H24.25H17H16V9V31.79V32.571L16.757 32.76L19 33.32V34H9V33.32L11.243 32.759L12 32.57V31.79V9V8H11H3.75H2.969L2.78 8.757L2.219 11H2V6H26ZM27 5H1V12H3L3.75 9H11V31.79L8 32.54V35H20V32.54L17 31.79V9H24.25L25 12H27V5Z" fill="#4788C7"/>
</svg>
