<svg width="146" height="131" viewBox="0 0 146 131" fill="none" xmlns="http://www.w3.org/2000/svg">
<path d="M29.1495 62.4091C35.3927 62.4091 38.4207 59.2875 38.4207 55.6353C38.4207 47.6128 25.7157 50.391 25.7157 46.3641C25.7157 44.9906 26.8707 43.8668 29.8675 43.8668C31.8029 43.8668 33.8943 44.4287 35.9234 45.5837L37.4842 41.7442C35.4551 40.4643 32.6457 39.8088 29.8987 39.8088C23.6867 39.8088 20.69 42.8992 20.69 46.6139C20.69 54.73 33.3949 51.9206 33.3949 56.0099C33.3949 57.3521 32.1775 58.3511 29.1807 58.3511C26.5586 58.3511 23.8116 57.4146 21.9698 56.0723L20.253 59.8806C22.1883 61.379 25.6845 62.4091 29.1495 62.4091ZM63.2591 61.6912C62.2289 62.7837 61.0427 63.3144 59.7004 63.3144C58.6079 63.3144 57.6714 62.9086 56.6101 61.7848C61.2612 60.2865 64.4141 56.2284 64.4141 51.109C64.4141 44.5848 59.3258 39.8088 52.4583 39.8088C45.5596 39.8088 40.5026 44.616 40.5026 51.109C40.5026 57.04 44.7168 61.5663 50.7102 62.3155C54.0816 65.8741 56.3603 67.0603 59.6068 67.0603C62.0104 67.0603 64.0707 66.1238 65.5066 64.3757L63.2591 61.6912ZM45.622 51.109C45.622 46.9572 48.5563 44.1166 52.4583 44.1166C56.3603 44.1166 59.2946 46.9572 59.2946 51.109C59.2946 55.2607 56.3603 58.1013 52.4583 58.1013C48.5563 58.1013 45.622 55.2607 45.622 51.109ZM68.2146 62.0345H84.2284V57.914H73.2716V40.1834H68.2146V62.0345ZM94.1117 62.4091C100.355 62.4091 103.383 59.2875 103.383 55.6353C103.383 47.6128 90.6779 50.391 90.6779 46.3641C90.6779 44.9906 91.8329 43.8668 94.8296 43.8668C96.765 43.8668 98.8565 44.4287 100.886 45.5837L102.446 41.7442C100.417 40.4643 97.6079 39.8088 94.8608 39.8088C88.6489 39.8088 85.6521 42.8992 85.6521 46.6139C85.6521 54.73 98.357 51.9206 98.357 56.0099C98.357 57.3521 97.1396 58.3511 94.1429 58.3511C91.5207 58.3511 88.7737 57.4146 86.932 56.0723L85.2151 59.8806C87.1505 61.379 90.6467 62.4091 94.1117 62.4091ZM116.297 40.1834H106.838V62.0345H111.895V56.0099H116.297C122.134 56.0099 125.786 52.9819 125.786 48.1122C125.786 43.2113 122.134 40.1834 116.297 40.1834ZM116.016 51.8894H111.895V44.3039H116.016C119.106 44.3039 120.667 45.7086 120.667 48.1122C120.667 50.4846 119.106 51.8894 116.016 51.8894Z" fill="#98CCFD"/>
<path d="M35.9234 45.5837L35.6894 45.9948L36.1583 46.2617L36.3615 45.7618L35.9234 45.5837ZM37.4842 41.7442L37.9223 41.9223L38.0715 41.5554L37.7365 41.3441L37.4842 41.7442ZM21.9698 56.0723L22.2484 55.6901L21.7779 55.3472L21.5387 55.8779L21.9698 56.0723ZM20.253 59.8806L19.8218 59.6863L19.6685 60.0263L19.9634 60.2546L20.253 59.8806ZM29.1495 62.8821C32.3459 62.8821 34.7788 62.083 36.4228 60.7603C38.0743 59.4315 38.8936 57.6013 38.8936 55.6353H37.9477C37.9477 57.3215 37.253 58.8782 35.8298 60.0233C34.399 61.1745 32.1963 61.9362 29.1495 61.9362V62.8821ZM38.8936 55.6353C38.8936 53.4791 38.0286 52.0129 36.7267 50.9957C35.4532 50.0007 33.7825 49.4512 32.1853 49.0431C30.5413 48.623 29.0265 48.3603 27.8619 47.9387C27.2897 47.7315 26.8634 47.505 26.5848 47.2442C26.3223 46.9986 26.1887 46.7226 26.1887 46.3641H25.2428C25.2428 47.0124 25.5063 47.5305 25.9385 47.9349C26.3547 48.3244 26.921 48.6041 27.5399 48.8281C28.7575 49.2689 30.4189 49.568 31.9511 49.9596C33.5302 50.3631 35.0356 50.8749 36.1443 51.7411C37.2246 52.5852 37.9477 53.7802 37.9477 55.6353H38.8936ZM26.1887 46.3641C26.1887 45.8288 26.4042 45.3529 26.9344 44.9911C27.4878 44.6135 28.4173 44.3398 29.8675 44.3398V43.3939C28.3209 43.3939 27.1746 43.6821 26.4013 44.2097C25.6048 44.7532 25.2428 45.5259 25.2428 46.3641H26.1887ZM29.8675 44.3398C31.7119 44.3398 33.7235 44.8757 35.6894 45.9948L36.1574 45.1727C34.0651 43.9817 31.8938 43.3939 29.8675 43.3939V44.3398ZM36.3615 45.7618L37.9223 41.9223L37.046 41.566L35.4852 45.4056L36.3615 45.7618ZM37.7365 41.3441C35.6127 40.0045 32.7091 39.3358 29.8987 39.3358V40.2817C32.5823 40.2817 35.2976 40.9241 37.2318 42.1442L37.7365 41.3441ZM29.8987 39.3358C26.7186 39.3358 24.3002 40.1268 22.667 41.4509C21.0256 42.7816 20.217 44.6203 20.217 46.6139H21.1629C21.1629 44.8927 21.8527 43.3288 23.2627 42.1857C24.6809 41.0359 26.8668 40.2817 29.8987 40.2817V39.3358ZM20.217 46.6139C20.217 48.7912 21.0802 50.2727 22.3818 51.3019C23.6553 52.3089 25.3264 52.8657 26.9238 53.2798C27.7231 53.487 28.5325 53.665 29.2651 53.8399C30.0077 54.0172 30.679 54.1929 31.2463 54.4017C31.818 54.6122 32.2441 54.8424 32.523 55.1077C32.7862 55.3579 32.9219 55.641 32.9219 56.0099H33.8679C33.8679 55.3564 33.6066 54.8327 33.1749 54.4222C32.759 54.0267 32.1925 53.7421 31.5731 53.5141C30.9493 53.2844 30.2311 53.098 29.4848 52.9198C28.7286 52.7393 27.9499 52.5685 27.1611 52.3641C25.5823 51.9548 24.0771 51.4366 22.9685 50.5599C21.8879 49.7054 21.1629 48.4945 21.1629 46.6139H20.217ZM32.9219 56.0099C32.9219 56.5108 32.708 56.9463 32.1638 57.2809C31.5914 57.6329 30.6389 57.8781 29.1807 57.8781V58.824C30.7192 58.824 31.8739 58.5697 32.6593 58.0867C33.4731 57.5863 33.8679 56.8513 33.8679 56.0099H32.9219ZM29.1807 57.8781C26.657 57.8781 24.0079 56.9724 22.2484 55.6901L21.6913 56.4545C23.6153 57.8568 26.4602 58.824 29.1807 58.824V57.8781ZM21.5387 55.8779L19.8218 59.6863L20.6841 60.075L22.401 56.2667L21.5387 55.8779ZM19.9634 60.2546C22.006 61.836 25.6153 62.8821 29.1495 62.8821V61.9362C25.7538 61.9362 22.3707 60.922 20.5425 59.5067L19.9634 60.2546ZM63.2591 61.6912L63.6217 61.3876L63.2801 60.9795L62.9149 61.3667L63.2591 61.6912ZM56.6101 61.7848L56.465 61.3346L55.7514 61.5645L56.2662 62.1096L56.6101 61.7848ZM50.7102 62.3155L51.0536 61.9902L50.937 61.8672L50.7689 61.8462L50.7102 62.3155ZM65.5066 64.3757L65.8721 64.676L66.121 64.3729L65.8693 64.0721L65.5066 64.3757ZM62.9149 61.3667C61.9652 62.3741 60.8999 62.8414 59.7004 62.8414V63.7874C61.1856 63.7874 62.4927 63.1934 63.6032 62.0156L62.9149 61.3667ZM59.7004 62.8414C58.7648 62.8414 57.9462 62.5107 56.9539 61.4601L56.2662 62.1096C57.3966 63.3065 58.4509 63.7874 59.7004 63.7874V62.8414ZM56.7551 62.235C61.5943 60.676 64.887 56.4413 64.887 51.109H63.9411C63.9411 56.0154 60.9281 59.8969 56.465 61.3346L56.7551 62.235ZM64.887 51.109C64.887 44.2979 59.5606 39.3358 52.4583 39.3358V40.2817C59.0911 40.2817 63.9411 44.8717 63.9411 51.109H64.887ZM52.4583 39.3358C45.3231 39.3358 40.0296 44.3308 40.0296 51.109H40.9756C40.9756 44.9013 45.7961 40.2817 52.4583 40.2817V39.3358ZM40.0296 51.109C40.0296 57.2941 44.4372 62.008 50.6516 62.7848L50.7689 61.8462C44.9963 61.1246 40.9756 56.7859 40.9756 51.109H40.0296ZM50.3669 62.6408C52.0672 64.4356 53.5209 65.6639 54.9836 66.4402C56.4583 67.2228 57.9178 67.5333 59.6068 67.5333V66.5873C58.0493 66.5873 56.7462 66.3047 55.4271 65.6046C54.0959 64.8981 52.7246 63.754 51.0536 61.9902L50.3669 62.6408ZM59.6068 67.5333C62.1416 67.5333 64.3399 66.5412 65.8721 64.676L65.1411 64.0755C63.8014 65.7065 61.8793 66.5873 59.6068 66.5873V67.5333ZM65.8693 64.0721L63.6217 61.3876L62.8964 61.9948L65.144 64.6794L65.8693 64.0721ZM46.095 51.109C46.095 47.2156 48.8204 44.5895 52.4583 44.5895V43.6436C48.2923 43.6436 45.1491 46.6989 45.1491 51.109H46.095ZM52.4583 44.5895C56.0963 44.5895 58.8217 47.2156 58.8217 51.109H59.7676C59.7676 46.6989 56.6244 43.6436 52.4583 43.6436V44.5895ZM58.8217 51.109C58.8217 55.0023 56.0963 57.6284 52.4583 57.6284V58.5743C56.6244 58.5743 59.7676 55.519 59.7676 51.109H58.8217ZM52.4583 57.6284C48.8204 57.6284 46.095 55.0023 46.095 51.109H45.1491C45.1491 55.519 48.2923 58.5743 52.4583 58.5743V57.6284ZM68.2146 62.0345H67.7416V62.5075H68.2146V62.0345ZM84.2284 62.0345V62.5075H84.7014V62.0345H84.2284ZM84.2284 57.914H84.7014V57.4411H84.2284V57.914ZM73.2716 57.914H72.7986V58.387H73.2716V57.914ZM73.2716 40.1834H73.7446V39.7104H73.2716V40.1834ZM68.2146 40.1834V39.7104H67.7416V40.1834H68.2146ZM68.2146 62.5075H84.2284V61.5616H68.2146V62.5075ZM84.7014 62.0345V57.914H83.7554V62.0345H84.7014ZM84.2284 57.4411H73.2716V58.387H84.2284V57.4411ZM73.7446 57.914V40.1834H72.7986V57.914H73.7446ZM73.2716 39.7104H68.2146V40.6563H73.2716V39.7104ZM67.7416 40.1834V62.0345H68.6876V40.1834H67.7416ZM100.886 45.5837L100.652 45.9948L101.12 46.2617L101.324 45.7618L100.886 45.5837ZM102.446 41.7442L102.884 41.9223L103.034 41.5554L102.699 41.3441L102.446 41.7442ZM86.932 56.0723L87.2106 55.6901L86.7401 55.3472L86.5008 55.8779L86.932 56.0723ZM85.2151 59.8806L84.7839 59.6863L84.6306 60.0263L84.9256 60.2546L85.2151 59.8806ZM94.1117 62.8821C97.3081 62.8821 99.7409 62.083 101.385 60.7603C103.036 59.4315 103.856 57.6013 103.856 55.6353H102.91C102.91 57.3215 102.215 58.8782 100.792 60.0233C99.3612 61.1745 97.1585 61.9362 94.1117 61.9362V62.8821ZM103.856 55.6353C103.856 53.4791 102.991 52.0129 101.689 50.9957C100.415 50.0007 98.7446 49.4512 97.1475 49.0431C95.5035 48.623 93.9886 48.3603 92.824 47.9387C92.2518 47.7315 91.8256 47.505 91.547 47.2442C91.2844 46.9986 91.1509 46.7226 91.1509 46.3641H90.2049C90.2049 47.0124 90.4684 47.5305 90.9007 47.9349C91.3168 48.3244 91.8832 48.6041 92.5021 48.8281C93.7197 49.2689 95.381 49.568 96.9133 49.9596C98.4923 50.3631 99.9978 50.8749 101.106 51.7411C102.187 52.5852 102.91 53.7802 102.91 55.6353H103.856ZM91.1509 46.3641C91.1509 45.8288 91.3663 45.3529 91.8966 44.9911C92.4499 44.6135 93.3795 44.3398 94.8296 44.3398V43.3939C93.2831 43.3939 92.1367 43.6821 91.3634 44.2097C90.567 44.7532 90.2049 45.5259 90.2049 46.3641H91.1509ZM94.8296 44.3398C96.6741 44.3398 98.6857 44.8757 100.652 45.9948L101.12 45.1727C99.0273 43.9817 96.8559 43.3939 94.8296 43.3939V44.3398ZM101.324 45.7618L102.884 41.9223L102.008 41.566L100.447 45.4056L101.324 45.7618ZM102.699 41.3441C100.575 40.0045 97.6713 39.3358 94.8608 39.3358V40.2817C97.5445 40.2817 100.26 40.9241 102.194 42.1442L102.699 41.3441ZM94.8608 39.3358C91.6807 39.3358 89.2623 40.1268 87.6291 41.4509C85.9878 42.7816 85.1792 44.6203 85.1792 46.6139H86.1251C86.1251 44.8927 86.8149 43.3288 88.2249 42.1857C89.643 41.0359 91.829 40.2817 94.8608 40.2817V39.3358ZM85.1792 46.6139C85.1792 48.7912 86.0423 50.2727 87.3439 51.3019C88.6174 52.3089 90.2885 52.8657 91.8859 53.2798C92.6853 53.487 93.4946 53.665 94.2273 53.8399C94.9698 54.0172 95.6412 54.1929 96.2085 54.4017C96.7802 54.6122 97.2063 54.8424 97.4852 55.1077C97.7483 55.3579 97.8841 55.641 97.8841 56.0099H98.83C98.83 55.3564 98.5687 54.8327 98.1371 54.4222C97.7212 54.0267 97.1547 53.7421 96.5353 53.5141C95.9115 53.2844 95.1933 53.098 94.447 52.9198C93.6908 52.7393 92.912 52.5685 92.1233 52.3641C90.5444 51.9548 89.0393 51.4366 87.9306 50.5599C86.85 49.7054 86.1251 48.4945 86.1251 46.6139H85.1792ZM97.8841 56.0099C97.8841 56.5108 97.6701 56.9463 97.126 57.2809C96.5536 57.6329 95.6011 57.8781 94.1429 57.8781V58.824C95.6814 58.824 96.836 58.5697 97.6215 58.0867C98.4352 57.5863 98.83 56.8513 98.83 56.0099H97.8841ZM94.1429 57.8781C91.6191 57.8781 88.97 56.9724 87.2106 55.6901L86.6534 56.4545C88.5775 57.8568 91.4223 58.824 94.1429 58.824V57.8781ZM86.5008 55.8779L84.7839 59.6863L85.6463 60.075L87.3632 56.2667L86.5008 55.8779ZM84.9256 60.2546C86.9682 61.836 90.5774 62.8821 94.1117 62.8821V61.9362C90.7159 61.9362 87.3329 60.922 85.5047 59.5067L84.9256 60.2546ZM106.838 40.1834V39.7104H106.365V40.1834H106.838ZM106.838 62.0345H106.365V62.5075H106.838V62.0345ZM111.895 62.0345V62.5075H112.368V62.0345H111.895ZM111.895 56.0099V55.5369H111.422V56.0099H111.895ZM111.895 51.8894H111.422V52.3623H111.895V51.8894ZM111.895 44.3039V43.8309H111.422V44.3039H111.895ZM116.297 39.7104H106.838V40.6563H116.297V39.7104ZM106.365 40.1834V62.0345H107.311V40.1834H106.365ZM106.838 62.5075H111.895V61.5616H106.838V62.5075ZM112.368 62.0345V56.0099H111.422V62.0345H112.368ZM111.895 56.4828H116.297V55.5369H111.895V56.4828ZM116.297 56.4828C119.293 56.4828 121.783 55.7059 123.533 54.2509C125.293 52.7876 126.259 50.675 126.259 48.1122H125.313C125.313 50.4191 124.454 52.2554 122.928 53.5235C121.393 54.7998 119.138 55.5369 116.297 55.5369V56.4828ZM126.259 48.1122C126.259 45.5347 125.294 43.4143 123.533 41.9467C121.783 40.4873 119.293 39.7104 116.297 39.7104V40.6563C119.138 40.6563 121.393 41.3934 122.928 42.6732C124.453 43.9448 125.313 45.7888 125.313 48.1122H126.259ZM116.016 51.4164H111.895V52.3623H116.016V51.4164ZM112.368 51.8894V44.3039H111.422V51.8894H112.368ZM111.895 44.7768H116.016V43.8309H111.895V44.7768ZM116.016 44.7768C117.498 44.7768 118.536 45.1146 119.196 45.669C119.844 46.2122 120.194 47.0185 120.194 48.1122H121.14C121.14 46.8023 120.71 45.7044 119.804 44.9444C118.912 44.1955 117.624 43.8309 116.016 43.8309V44.7768ZM120.194 48.1122C120.194 49.1884 119.845 49.9871 119.197 50.5272C118.536 51.0787 117.498 51.4164 116.016 51.4164V52.3623C117.624 52.3623 118.911 51.9977 119.803 51.2536C120.709 50.4983 121.14 49.4084 121.14 48.1122H120.194Z" fill="#4788C7"/>
<path d="M144.05 7.57007C142.64 3.53007 138.98 0.839961 134.72 0.709961C134.48 0.699961 134.24 0.700073 134 0.700073H12.6502C5.53021 0.700073 1.4502 4.80006 1.4502 11.9401V90.75C1.4502 97.91 5.5802 102.01 12.7702 102.01H49.4602V118.13H38.4702C35.5702 118.13 32.6802 118.13 29.7802 118.14C27.6002 118.15 25.6102 119.17 24.4602 120.88C23.3502 122.52 23.1502 124.54 23.9102 126.42C24.8002 128.63 26.6302 129.99 29.0802 130.25C29.3402 130.28 29.6002 130.29 29.8702 130.29L30.6502 130.28H116.07C116.56 130.28 117.14 130.26 117.74 130.14C120.78 129.51 122.9 126.64 122.58 123.59C122.25 120.44 119.65 118.15 116.41 118.13C113.36 118.12 110.32 118.12 107.27 118.12H96.6002V102H132.64C139.33 102 142.1 100.11 144.49 93.9301L144.63 93.5801V9.14001L144.05 7.57007ZM61.8202 118.06V102.11H84.2902V118.06H61.8202ZM132.4 12.92V89.76H13.7002V12.92H132.4Z" fill="#98CCFD" stroke="#4788C7" stroke-miterlimit="10"/>
</svg>
