<svg width="141" height="127" viewBox="0 0 141 127" fill="none" xmlns="http://www.w3.org/2000/svg">
<path d="M140.18 7.80005V91.52C138.07 96.97 136.08 98.3101 130.19 98.3101C118.05 98.3101 105.91 98.3101 93.77 98.3101H92.15V118.43C92.73 118.43 93.22 118.43 93.71 118.43C100.46 118.43 107.21 118.42 113.96 118.43C116.21 118.43 117.92 119.98 118.14 122.1C118.35 124.12 116.95 126.05 114.88 126.48C114.27 126.61 113.62 126.58 112.99 126.58C84.73 126.58 56.46 126.58 28.2 126.58C27.75 126.58 27.29 126.61 26.84 126.56C25.17 126.38 23.95 125.54 23.32 123.97C22.22 121.23 24.23 118.44 27.34 118.43C34.09 118.41 40.84 118.43 47.59 118.43H49.01V98.3101H47.28C34.96 98.3101 22.64 98.3101 10.32 98.3101C4.21001 98.3101 1 95.12 1 89.05C1 62.78 1 36.51 1 10.24C1 4.22999 4.22001 1 10.2 1C50.47 1 90.73 1 131 1C131.41 1 131.82 1 132.22 1C135.66 1.1 138.58 3.26002 139.71 6.52002C139.86 6.94002 140.01 7.37004 140.17 7.79004L140.18 7.80005ZM9.26001 9.21997V90.0601H131.96V9.21997H9.26001ZM83.86 98.41H57.39V118.36H83.86V98.41Z" fill="#9DC9EC" stroke="#1C75BC" stroke-width="0.5" stroke-miterlimit="10"/>
<path d="M28.0465 60.8547C34.6258 60.8547 37.8167 57.5651 37.8167 53.7162C37.8167 45.2619 24.4279 48.1896 24.4279 43.946C24.4279 42.4986 25.6451 41.3143 28.8032 41.3143C30.8427 41.3143 33.0468 41.9065 35.185 43.1236L36.8298 39.0774C34.6916 37.7286 31.7309 37.0378 28.8361 37.0378C22.2897 37.0378 19.1316 40.2945 19.1316 44.2092C19.1316 52.7622 32.5204 49.8016 32.5204 54.111C32.5204 55.5255 31.2375 56.5782 28.0794 56.5782C25.3161 56.5782 22.4213 55.5913 20.4804 54.1768L18.6711 58.1901C20.7107 59.7691 24.3951 60.8547 28.0465 60.8547ZM63.9922 60.0981C62.9066 61.2495 61.6565 61.8087 60.242 61.8087C59.0906 61.8087 58.1037 61.3811 56.9853 60.1968C61.8868 58.6178 65.2093 54.3413 65.2093 48.9463C65.2093 42.0709 59.8472 37.0378 52.61 37.0378C45.34 37.0378 40.0108 42.1038 40.0108 48.9463C40.0108 55.1966 44.4518 59.9665 50.7679 60.756C54.3207 64.5062 56.7221 65.7563 60.1433 65.7563C62.6763 65.7563 64.8475 64.7694 66.3607 62.9272L63.9922 60.0981ZM45.4058 48.9463C45.4058 44.5711 48.498 41.5775 52.61 41.5775C56.7221 41.5775 59.8143 44.5711 59.8143 48.9463C59.8143 53.3215 56.7221 56.315 52.61 56.315C48.498 56.315 45.4058 53.3215 45.4058 48.9463ZM69.2144 60.46H86.0902V56.1177H74.5436V37.4326H69.2144V60.46ZM96.5055 60.8547C103.085 60.8547 106.276 57.5651 106.276 53.7162C106.276 45.2619 92.8869 48.1896 92.8869 43.946C92.8869 42.4986 94.1041 41.3143 97.2621 41.3143C99.3017 41.3143 101.506 41.9065 103.644 43.1236L105.289 39.0774C103.151 37.7286 100.19 37.0378 97.295 37.0378C90.7487 37.0378 87.5906 40.2945 87.5906 44.2092C87.5906 52.7622 100.979 49.8016 100.979 54.111C100.979 55.5255 99.6965 56.5782 96.5384 56.5782C93.7751 56.5782 90.8803 55.5913 88.9394 54.1768L87.1301 58.1901C89.1696 59.7691 92.854 60.8547 96.5055 60.8547ZM119.885 37.4326H109.917V60.46H115.246V54.111H119.885C126.036 54.111 129.885 50.92 129.885 45.7882C129.885 40.6235 126.036 37.4326 119.885 37.4326ZM119.589 49.7687H115.246V41.7749H119.589C122.845 41.7749 124.49 43.2552 124.49 45.7882C124.49 48.2883 122.845 49.7687 119.589 49.7687Z" fill="#9DC9EC"/>
<path d="M35.185 43.1236L35.0684 43.3286L35.3022 43.4617L35.4035 43.2124L35.185 43.1236ZM36.8298 39.0774L37.0483 39.1662L37.1227 38.9832L36.9557 38.8779L36.8298 39.0774ZM20.4804 54.1768L20.6193 53.9862L20.3847 53.8152L20.2654 54.0798L20.4804 54.1768ZM18.6711 58.1901L18.4561 58.0932L18.3796 58.2627L18.5267 58.3766L18.6711 58.1901ZM28.0465 61.0906C31.3735 61.0906 33.8734 60.2588 35.5467 58.9125C37.2238 57.5632 38.0526 55.7104 38.0526 53.7162H37.5809C37.5809 55.5709 36.8142 57.2873 35.251 58.545C33.684 59.8058 31.2989 60.6189 28.0465 60.6189V61.0906ZM38.0526 53.7162C38.0526 51.5276 37.1804 50.0577 35.8699 49.0339C34.5737 48.021 32.8588 47.4524 31.1807 47.0236C29.4793 46.5888 27.8422 46.3018 26.6002 45.8522C25.9842 45.6293 25.4962 45.3757 25.1644 45.0652C24.8406 44.7623 24.6638 44.4042 24.6638 43.946H24.1921C24.1921 44.5487 24.4337 45.0275 24.8421 45.4097C25.2425 45.7843 25.8004 46.0644 26.4397 46.2958C27.7081 46.7549 29.4182 47.0601 31.064 47.4806C32.733 47.9071 34.3654 48.4569 35.5795 49.4056C36.7795 50.3431 37.5809 51.6777 37.5809 53.7162H38.0526ZM24.6638 43.946C24.6638 43.2978 24.9315 42.7139 25.5642 42.2822C26.2084 41.8426 27.2482 41.5502 28.8032 41.5502V41.0785C27.2001 41.0785 26.0522 41.3781 25.2984 41.8926C24.5329 42.4149 24.1921 43.1468 24.1921 43.946H24.6638ZM28.8032 41.5502C30.7974 41.5502 32.9616 42.1294 35.0684 43.3286L35.3017 42.9186C33.132 41.6836 30.8881 41.0785 28.8032 41.0785V41.5502ZM35.4035 43.2124L37.0483 39.1662L36.6114 38.9886L34.9665 43.0348L35.4035 43.2124ZM36.9557 38.8779C34.7701 37.4993 31.7625 36.802 28.8361 36.802V37.2737C31.6993 37.2737 34.613 37.9579 36.704 39.2769L36.9557 38.8779ZM28.8361 36.802C25.5259 36.802 23.0419 37.6253 21.3804 38.9723C19.7149 40.3226 18.8958 42.184 18.8958 44.2092H19.3675C19.3675 42.3198 20.1274 40.5955 21.6775 39.3387C23.2317 38.0787 25.5998 37.2737 28.8361 37.2737V36.802ZM18.8958 44.2092C18.8958 46.4214 19.7671 47.9075 21.0774 48.9436C22.3737 49.9687 24.0886 50.5447 25.7669 50.9797C26.6063 51.1973 27.4507 51.3829 28.2294 51.5688C29.0129 51.7559 29.7334 51.944 30.347 52.1699C30.9627 52.3966 31.4507 52.6543 31.7826 52.9699C32.1067 53.2782 32.2846 53.6433 32.2846 54.111H32.7563C32.7563 53.5013 32.5158 53.0163 32.1077 52.6281C31.7074 52.2475 31.1494 51.9627 30.5099 51.7272C29.8682 51.491 29.1243 51.2975 28.3389 51.11C27.5485 50.9213 26.7194 50.7394 25.8852 50.5231C24.2162 50.0905 22.584 49.5337 21.3699 48.5736C20.1698 47.6247 19.3675 46.2735 19.3675 44.2092H18.8958ZM32.2846 54.111C32.2846 54.7334 32.0089 55.2755 31.3607 55.6741C30.6983 56.0815 29.6384 56.3423 28.0794 56.3423V56.814C29.6785 56.814 30.8391 56.5486 31.6077 56.0759C32.3905 55.5946 32.7563 54.9031 32.7563 54.111H32.2846ZM28.0794 56.3423C25.3652 56.3423 22.5191 55.3708 20.6193 53.9862L20.3415 54.3674C22.3234 55.8118 25.2671 56.814 28.0794 56.814V56.3423ZM20.2654 54.0798L18.4561 58.0932L18.8861 58.287L20.6954 54.2737L20.2654 54.0798ZM18.5267 58.3766C20.6197 59.997 24.3605 61.0906 28.0465 61.0906V60.6189C24.4296 60.6189 20.8016 59.5413 18.8155 58.0036L18.5267 58.3766ZM63.9922 60.0981L64.173 59.9467L64.0026 59.7432L63.8206 59.9363L63.9922 60.0981ZM56.9853 60.1968L56.9129 59.9723L56.5571 60.0869L56.8138 60.3587L56.9853 60.1968ZM50.7679 60.756L50.9391 60.5938L50.881 60.5325L50.7971 60.522L50.7679 60.756ZM66.3607 62.9272L66.5429 63.0769L66.6671 62.9258L66.5415 62.7758L66.3607 62.9272ZM63.8206 59.9363C62.775 61.0452 61.5853 61.5729 60.242 61.5729V62.0446C61.7278 62.0446 63.0381 61.4538 64.1638 60.2599L63.8206 59.9363ZM60.242 61.5729C59.1689 61.5729 58.2407 61.1826 57.1567 60.0349L56.8138 60.3587C57.9667 61.5795 59.0123 62.0446 60.242 62.0446V61.5729ZM57.0576 60.4213C62.0529 58.812 65.4452 54.4475 65.4452 48.9463H64.9735C64.9735 54.2351 61.7207 58.4235 56.9129 59.9723L57.0576 60.4213ZM65.4452 48.9463C65.4452 41.9279 59.9643 36.802 52.61 36.802V37.2737C59.7302 37.2737 64.9735 42.214 64.9735 48.9463H65.4452ZM52.61 36.802C45.222 36.802 39.7749 41.9616 39.7749 48.9463H40.2466C40.2466 42.2461 45.4579 37.2737 52.61 37.2737V36.802ZM39.7749 48.9463C39.7749 55.3233 44.3124 60.1868 50.7386 60.9901L50.7971 60.522C44.5912 59.7463 40.2466 55.0698 40.2466 48.9463H39.7749ZM50.5966 60.9182C52.3804 62.801 53.8895 64.0721 55.3944 64.8708C56.9053 65.6727 58.3999 65.9921 60.1433 65.9921V65.5204C58.4655 65.5204 57.0488 65.2148 55.6155 64.4541C54.1762 63.6903 52.7081 62.4612 50.9391 60.5938L50.5966 60.9182ZM60.1433 65.9921C62.7417 65.9921 64.9817 64.9775 66.5429 63.0769L66.1784 62.7775C64.7132 64.5613 62.6109 65.5204 60.1433 65.5204V65.9921ZM66.5415 62.7758L64.173 59.9467L63.8113 60.2495L66.1799 63.0786L66.5415 62.7758ZM45.6416 48.9463C45.6416 44.6999 48.6297 41.8133 52.61 41.8133V41.3416C48.3663 41.3416 45.1699 44.4422 45.1699 48.9463H45.6416ZM52.61 41.8133C56.5904 41.8133 59.5785 44.6999 59.5785 48.9463H60.0502C60.0502 44.4422 56.8538 41.3416 52.61 41.3416V41.8133ZM59.5785 48.9463C59.5785 53.1926 56.5904 56.0792 52.61 56.0792V56.5509C56.8538 56.5509 60.0502 53.4503 60.0502 48.9463H59.5785ZM52.61 56.0792C48.6297 56.0792 45.6416 53.1926 45.6416 48.9463H45.1699C45.1699 53.4503 48.3663 56.5509 52.61 56.5509V56.0792ZM69.2144 60.46H68.9786V60.6958H69.2144V60.46ZM86.0902 60.46V60.6958H86.3261V60.46H86.0902ZM86.0902 56.1177H86.3261V55.8818H86.0902V56.1177ZM74.5436 56.1177H74.3078V56.3535H74.5436V56.1177ZM74.5436 37.4326H74.7795V37.1967H74.5436V37.4326ZM69.2144 37.4326V37.1967H68.9786V37.4326H69.2144ZM69.2144 60.6958H86.0902V60.2241H69.2144V60.6958ZM86.3261 60.46V56.1177H85.8544V60.46H86.3261ZM86.0902 55.8818H74.5436V56.3535H86.0902V55.8818ZM74.7795 56.1177V37.4326H74.3078V56.1177H74.7795ZM74.5436 37.1967H69.2144V37.6684H74.5436V37.1967ZM68.9786 37.4326V60.46H69.4503V37.4326H68.9786ZM103.644 43.1236L103.527 43.3286L103.761 43.4617L103.862 43.2124L103.644 43.1236ZM105.289 39.0774L105.507 39.1662L105.582 38.9832L105.415 38.8779L105.289 39.0774ZM88.9394 54.1768L89.0783 53.9862L88.8437 53.8152L88.7244 54.0798L88.9394 54.1768ZM87.1301 58.1901L86.9151 58.0932L86.8386 58.2627L86.9857 58.3766L87.1301 58.1901ZM96.5055 61.0906C99.8325 61.0906 102.332 60.2588 104.006 58.9125C105.683 57.5632 106.512 55.7104 106.512 53.7162H106.04C106.04 55.5709 105.273 57.2873 103.71 58.545C102.143 59.8058 99.7578 60.6189 96.5055 60.6189V61.0906ZM106.512 53.7162C106.512 51.5276 105.639 50.0577 104.329 49.0339C103.033 48.021 101.318 47.4524 99.6397 47.0236C97.9383 46.5888 96.3012 46.3018 95.0592 45.8522C94.4432 45.6293 93.9552 45.3757 93.6234 45.0652C93.2996 44.7623 93.1228 44.4042 93.1228 43.946H92.6511C92.6511 44.5487 92.8927 45.0275 93.3011 45.4097C93.7015 45.7843 94.2594 46.0644 94.8986 46.2958C96.1671 46.7549 97.8772 47.0601 99.5229 47.4806C101.192 47.9071 102.824 48.4569 104.039 49.4056C105.238 50.3431 106.04 51.6777 106.04 53.7162H106.512ZM93.1228 43.946C93.1228 43.2978 93.3905 42.7139 94.0232 42.2822C94.6674 41.8426 95.7071 41.5502 97.2621 41.5502V41.0785C95.6591 41.0785 94.5112 41.3781 93.7573 41.8926C92.9919 42.4149 92.6511 43.1468 92.6511 43.946H93.1228ZM97.2621 41.5502C99.2564 41.5502 101.421 42.1294 103.527 43.3286L103.761 42.9186C101.591 41.6836 99.347 41.0785 97.2621 41.0785V41.5502ZM103.862 43.2124L105.507 39.1662L105.07 38.9886L103.426 43.0348L103.862 43.2124ZM105.415 38.8779C103.229 37.4993 100.222 36.802 97.295 36.802V37.2737C100.158 37.2737 103.072 37.9579 105.163 39.2769L105.415 38.8779ZM97.295 36.802C93.9849 36.802 91.5008 37.6253 89.8394 38.9723C88.1739 40.3226 87.3548 42.184 87.3548 44.2092H87.8265C87.8265 42.3198 88.5863 40.5955 90.1365 39.3387C91.6907 38.0787 94.0588 37.2737 97.295 37.2737V36.802ZM87.3548 44.2092C87.3548 46.4214 88.226 47.9075 89.5363 48.9436C90.8326 49.9687 92.5476 50.5447 94.2258 50.9797C95.0653 51.1973 95.9097 51.3829 96.6883 51.5688C97.4719 51.7559 98.1924 51.944 98.8059 52.1699C99.4216 52.3966 99.9096 52.6543 100.242 52.9699C100.566 53.2782 100.744 53.6433 100.744 54.111H101.215C101.215 53.5013 100.975 53.0163 100.567 52.6281C100.166 52.2475 99.6084 51.9627 98.9689 51.7272C98.3272 51.491 97.5833 51.2975 96.7979 51.11C96.0075 50.9213 95.1784 50.7394 94.3442 50.5231C92.6752 50.0905 91.043 49.5337 89.8289 48.5736C88.6288 47.6247 87.8265 46.2735 87.8265 44.2092H87.3548ZM100.744 54.111C100.744 54.7334 100.468 55.2755 99.8196 55.6741C99.1573 56.0815 98.0974 56.3423 96.5384 56.3423V56.814C98.1375 56.814 99.2981 56.5486 100.067 56.0759C100.849 55.5946 101.215 54.9031 101.215 54.111H100.744ZM96.5384 56.3423C93.8242 56.3423 90.9781 55.3708 89.0783 53.9862L88.8005 54.3674C90.7824 55.8118 93.7261 56.814 96.5384 56.814V56.3423ZM88.7244 54.0798L86.9151 58.0932L87.3451 58.287L89.1544 54.2737L88.7244 54.0798ZM86.9857 58.3766C89.0787 59.997 92.8195 61.0906 96.5055 61.0906V60.6189C92.8886 60.6189 89.2606 59.5413 87.2745 58.0036L86.9857 58.3766ZM109.917 37.4326V37.1967H109.681V37.4326H109.917ZM109.917 60.46H109.681V60.6958H109.917V60.46ZM115.246 60.46V60.6958H115.482V60.46H115.246ZM115.246 54.111V53.8751H115.011V54.111H115.246ZM115.246 49.7687H115.011V50.0045H115.246V49.7687ZM115.246 41.7749V41.539H115.011V41.7749H115.246ZM119.885 37.1967H109.917V37.6684H119.885V37.1967ZM109.681 37.4326V60.46H110.153V37.4326H109.681ZM109.917 60.6958H115.246V60.2241H109.917V60.6958ZM115.482 60.46V54.111H115.011V60.46H115.482ZM115.246 54.3468H119.885V53.8751H115.246V54.3468ZM119.885 54.3468C122.999 54.3468 125.558 53.5391 127.343 52.0554C129.132 50.5675 130.121 48.4179 130.121 45.7882H129.649C129.649 48.2903 128.714 50.3021 127.041 51.6927C125.363 53.0873 122.922 53.8751 119.885 53.8751V54.3468ZM130.121 45.7882C130.121 43.1425 129.133 40.9847 127.343 39.4925C125.558 38.0044 122.999 37.1967 119.885 37.1967V37.6684C122.922 37.6684 125.363 38.4562 127.041 39.8548C128.713 41.2492 129.649 43.2692 129.649 45.7882H130.121ZM119.589 49.5328H115.246V50.0045H119.589V49.5328ZM115.482 49.7687V41.7749H115.011V49.7687H115.482ZM115.246 42.0107H119.589V41.539H115.246V42.0107ZM119.589 42.0107C121.186 42.0107 122.349 42.3741 123.109 43.0123C123.863 43.645 124.254 44.5756 124.254 45.7882H124.726C124.726 44.4678 124.295 43.3918 123.412 42.651C122.536 41.9158 121.249 41.539 119.589 41.539V42.0107ZM124.254 45.7882C124.254 46.9834 123.864 47.9059 123.11 48.5349C122.349 49.1695 121.185 49.5328 119.589 49.5328V50.0045C121.249 50.0045 122.536 49.6277 123.412 48.8971C124.294 48.1608 124.726 47.0931 124.726 45.7882H124.254Z" fill="#1C75BC"/>
</svg>
