<svg width="60" height="60" viewBox="0 0 60 60" fill="none" xmlns="http://www.w3.org/2000/svg">
<path d="M17.9043 29.9004C16.5098 29.9004 15.5488 29.2852 15.4668 28.3242H12.2617C12.3145 30.8672 14.4238 32.4434 17.7637 32.4434C21.2266 32.4434 23.3301 30.7793 23.3301 28.0195C23.3301 25.9219 22.1582 24.7441 19.5508 24.2402L17.8457 23.9121C16.4512 23.6367 15.8652 23.2148 15.8652 22.4941C15.8652 21.6152 16.6445 21.0586 17.8223 21.0586C19 21.0586 19.8906 21.709 19.9668 22.6406H23.0723C23.0195 20.1973 20.875 18.5215 17.7813 18.5215C14.5938 18.5215 12.5254 20.2148 12.5254 22.7988C12.5254 24.8789 13.7676 26.1973 16.1875 26.6543L17.9277 27C19.4395 27.3047 20.0137 27.6973 20.0137 28.4297C20.0195 29.291 19.1641 29.9004 17.9043 29.9004Z" fill="#98CCFD" stroke="#4788C7" stroke-width="0.5"/>
<path d="M54.1429 7H5.85714C4.82991 7 4 7.88414 4 8.97849V39.6452C4 40.7395 4.82991 41.6237 5.85714 41.6237H27.9107V48.5484H17.9286C17.4179 48.5484 17 48.9935 17 49.5376V52.5054C17 52.7774 17.2089 53 17.4643 53H42.5357C42.7911 53 43 52.7774 43 52.5054V49.5376C43 48.9935 42.5821 48.5484 42.0714 48.5484H32.0893V41.6237H54.1429C55.1701 41.6237 56 40.7395 56 39.6452V8.97849C56 7.88414 55.1701 7 54.1429 7ZM51.8214 37.172H8.17857V11.4516H51.8214V37.172Z" fill="#98CCFD" stroke="#4788C7" stroke-width="0.5"/>
<path d="M48.7949 29.3145H43.1817V18.873H39.8184V32.0859H48.7949V29.3145ZM31.2988 32.4434C32.125 32.4434 32.8926 32.3262 33.5899 32.1035L34.3692 33.293H37.4922L35.8692 30.7383C37.1055 29.5664 37.8027 27.7441 37.8027 25.4766C37.8027 21.1816 35.2656 18.5156 31.3047 18.5156C27.3438 18.5156 24.7891 21.1699 24.7891 25.4766C24.7832 29.7949 27.3086 32.4434 31.2988 32.4434ZM31.2988 21.3105C33.1504 21.3105 34.3867 22.9336 34.3867 25.4766C34.3867 26.4551 34.1758 27.2695 33.8008 27.8496L33.4961 27.4453H30.6367L32.0078 29.5664C31.7793 29.6191 31.5391 29.6484 31.293 29.6484C29.4356 29.6484 28.1992 28.0371 28.1992 25.4766C28.2051 22.9219 29.4414 21.3105 31.2988 21.3105Z" fill="#98CCFD" stroke="#4788C7" stroke-width="0.5"/>
</svg>
