<svg width="20" height="20" viewBox="0 0 20 20" fill="none" xmlns="http://www.w3.org/2000/svg">
<path d="M10 11.6465L4.00002 17.6465L2.35352 16L8.35352 10L2.35352 4.00002L4.00002 2.35352L10 8.35352L16 2.35352L17.6465 4.00002L11.6465 10L17.6465 16L16 17.6465L10 11.6465Z" fill="#DFF0FE"/>
<path d="M16 2.707L17.293 4L11.6465 9.6465L11.293 10L11.6465 10.3535L17.293 16L16 17.293L10.3535 11.6465L10 11.293L9.6465 11.6465L4 17.293L2.707 16L8.3535 10.3535L8.707 10L8.3535 9.6465L2.707 4L4 2.707L9.6465 8.3535L10 8.707L10.3535 8.3535L16 2.707ZM16 2L10 8L4 2L2 4L8 10L2 16L4 18L10 12L16 18L18 16L12 10L18 4L16 2Z" fill="#4788C7"/>
</svg>
