<svg width="80" height="80" viewBox="0 0 80 80" fill="none" xmlns="http://www.w3.org/2000/svg">
<path d="M77 48L61 32V43H58.66V42.992C55.538 42.992 53 40.044 53 36.42V33.256V28.402V23.43C53 14.448 46.016 7.14001 37.432 7.14001C32.432 7.14001 27.89 9.13001 24.782 12.698C21.884 16.022 20.562 20.402 21.156 24.712C21.782 29.246 24.008 34.788 26.482 40.6C28.49 45.32 30.568 50.202 31.066 53.296C31.338 54.992 30.656 56.216 30.036 56.944C28.846 58.34 26.854 59 24.57 59C21.5 59 19.002 56.318 19.002 52.85V52.084V42.554V39.572C19.002 30.434 11.636 23 3.002 23V33C6.124 33 9.002 35.948 9.002 39.572V42.554V52.084V52.85C9.002 61.832 15.986 68.966 24.57 68.966C29.788 68.966 34.394 67.004 37.486 63.374C40.254 60.126 41.452 55.854 40.778 51.652C40.086 47.356 38.032 42.2 35.684 36.684C33.576 31.732 31.498 26.638 31.056 23.426C30.854 21.958 31.2 20.484 32.214 19.322C33.44 17.914 35.294 17.14 37.434 17.14C40.504 17.14 43.002 19.962 43.002 23.43V28.402V33.256V36.42C43.002 45.466 49.892 52.834 58.408 52.978V53H61V64L77 48Z" fill="#DFF0FE"/>
<path d="M24.568 69.966C15.432 69.966 8 62.408 8 52.876V39.574C8 36.604 5.664 34 3 34C2.448 34 2 33.552 2 33V23C2 22.448 2.448 22 3 22C12.214 22 20 30.046 20 39.572V52.85C20 55.766 22.048 58 24.568 58C26.558 58 28.276 57.466 29.274 56.294C29.978 55.468 30.246 54.512 30.076 53.452C29.6 50.488 27.554 45.678 25.576 41.028C23.058 35.11 20.808 29.512 20.164 24.848C19.532 20.25 20.94 15.582 24.028 12.04C27.324 8.25601 32.142 6.14001 37.432 6.14001C46.568 6.14001 54 13.896 54 23.43V36.42C54 39.492 56.09 41.992 58.66 41.992C58.702 41.992 58.744 41.994 58.786 42H60V32C60 31.596 60.244 31.23 60.618 31.076C60.99 30.92 61.422 31.008 61.708 31.292L77.708 47.292C78.098 47.682 78.098 48.316 77.708 48.706L61.708 64.706C61.42 64.992 60.99 65.08 60.618 64.922C60.244 64.77 60 64.404 60 64V54H58.406C58.326 54 58.25 53.992 58.176 53.974C49.236 53.7 42.062 45.89 42.062 36.438L42 23.43C42 20.514 39.952 18.14 37.432 18.14C35.586 18.14 33.998 18.794 32.966 19.98C32.146 20.92 31.884 22.11 32.044 23.29C32.47 26.374 34.522 31.404 36.602 36.292C38.974 41.864 41.052 47.072 41.762 51.492C42.484 55.984 41.204 60.55 38.246 64.022C34.962 67.876 30.082 69.966 24.568 69.966ZM4 32.082C7.342 32.624 10 35.834 10 39.574V52.852C10 61.282 16.536 67.968 24.568 67.968C29.494 67.968 33.984 66.188 36.884 62.782C39.462 59.758 40.418 55.726 39.788 51.814C39.114 47.634 37.082 42.536 34.76 37.078C32.628 32.07 30.524 26.914 30.06 23.566C29.818 21.804 30.25 20.048 31.454 18.668C32.874 17.04 34.996 16.142 37.428 16.142C41.052 16.14 44 19.41 44 23.43V36.42C44 44.864 50.47 51.842 58.424 51.978C58.488 51.978 58.552 51.986 58.614 52H61C61.552 52 62 52.448 62 53V61.586L75.586 48L62 34.414V43C62 43.552 61.552 44 61 44H58.66C58.614 44 58.568 43.998 58.522 43.99C54.914 43.908 52 40.542 52 36.42V23.43C52 15 45.464 8.14002 37.432 8.14002C32.722 8.14002 28.454 10.006 25.536 13.354C22.828 16.46 21.59 20.55 22.146 24.574C22.754 28.974 24.952 34.452 27.398 40.196C29.442 45.006 31.536 49.928 32.052 53.134C32.384 55.206 31.554 56.7 30.798 57.59C29.416 59.21 27.146 60 24.568 60C20.948 60 18 56.87 18 52.85V39.572C18 31.48 11.686 24.59 4 24.036V32.082Z" fill="#4788C7"/>
</svg>
