<svg width="50" height="50" viewBox="0 0 50 50" fill="none" xmlns="http://www.w3.org/2000/svg">
<path d="M7.5 44.375C5.77625 44.375 4.375 42.9737 4.375 41.25V7.5C4.375 5.77625 5.77625 4.375 7.5 4.375H41.25C42.9737 4.375 44.375 5.77625 44.375 7.5V41.25C44.375 42.9737 42.9737 44.375 41.25 44.375H7.5Z" fill="#DFF0FE"/>
<path d="M41.25 5C42.6288 5 43.75 6.12125 43.75 7.5V41.25C43.75 42.6288 42.6288 43.75 41.25 43.75H7.5C6.12125 43.75 5 42.6288 5 41.25V7.5C5 6.12125 6.12125 5 7.5 5H41.25ZM41.25 3.75H7.5C5.42875 3.75 3.75 5.42875 3.75 7.5V41.25C3.75 43.3212 5.42875 45 7.5 45H41.25C43.3212 45 45 43.3212 45 41.25V7.5C45 5.42875 43.3212 3.75 41.25 3.75Z" fill="#4788C7"/>
<path d="M11.25 16.875C10.2162 16.875 9.375 16.0338 9.375 15V11.25C9.375 10.2162 10.2162 9.375 11.25 9.375H15C16.0338 9.375 16.875 10.2162 16.875 11.25V15C16.875 16.0338 16.0338 16.875 15 16.875H11.25Z" fill="#98CCFD"/>
<path d="M15 10C15.6887 10 16.25 10.5613 16.25 11.25V15C16.25 15.6887 15.6887 16.25 15 16.25H11.25C10.5613 16.25 10 15.6887 10 15V11.25C10 10.5613 10.5613 10 11.25 10H15ZM15 8.75H11.25C9.86875 8.75 8.75 9.86875 8.75 11.25V15C8.75 16.3813 9.86875 17.5 11.25 17.5H15C16.3813 17.5 17.5 16.3813 17.5 15V11.25C17.5 9.86875 16.3813 8.75 15 8.75Z" fill="#4788C7"/>
<path d="M22.5 16.875C21.4662 16.875 20.625 16.0338 20.625 15V11.25C20.625 10.2162 21.4662 9.375 22.5 9.375H26.25C27.2838 9.375 28.125 10.2162 28.125 11.25V15C28.125 16.0338 27.2838 16.875 26.25 16.875H22.5Z" fill="#98CCFD"/>
<path d="M26.25 10C26.9387 10 27.5 10.5613 27.5 11.25V15C27.5 15.6887 26.9387 16.25 26.25 16.25H22.5C21.8113 16.25 21.25 15.6887 21.25 15V11.25C21.25 10.5613 21.8113 10 22.5 10H26.25ZM26.25 8.75H22.5C21.1187 8.75 20 9.86875 20 11.25V15C20 16.3813 21.1187 17.5 22.5 17.5H26.25C27.6313 17.5 28.75 16.3813 28.75 15V11.25C28.75 9.86875 27.6313 8.75 26.25 8.75Z" fill="#4788C7"/>
<path d="M33.75 16.875C32.7162 16.875 31.875 16.0338 31.875 15V11.25C31.875 10.2162 32.7162 9.375 33.75 9.375H37.5C38.5338 9.375 39.375 10.2162 39.375 11.25V15C39.375 16.0338 38.5338 16.875 37.5 16.875H33.75Z" fill="#98CCFD"/>
<path d="M37.5 10C38.1887 10 38.75 10.5613 38.75 11.25V15C38.75 15.6887 38.1887 16.25 37.5 16.25H33.75C33.0613 16.25 32.5 15.6887 32.5 15V11.25C32.5 10.5613 33.0613 10 33.75 10H37.5ZM37.5 8.75H33.75C32.3687 8.75 31.25 9.86875 31.25 11.25V15C31.25 16.3813 32.3687 17.5 33.75 17.5H37.5C38.8813 17.5 40 16.3813 40 15V11.25C40 9.86875 38.8813 8.75 37.5 8.75Z" fill="#4788C7"/>
<path d="M11.25 28.125C10.2162 28.125 9.375 27.2838 9.375 26.25V22.5C9.375 21.4662 10.2162 20.625 11.25 20.625H15C16.0338 20.625 16.875 21.4662 16.875 22.5V26.25C16.875 27.2838 16.0338 28.125 15 28.125H11.25Z" fill="#98CCFD"/>
<path d="M15 21.25C15.6887 21.25 16.25 21.8113 16.25 22.5V26.25C16.25 26.9387 15.6887 27.5 15 27.5H11.25C10.5613 27.5 10 26.9387 10 26.25V22.5C10 21.8113 10.5613 21.25 11.25 21.25H15ZM15 20H11.25C9.86875 20 8.75 21.1187 8.75 22.5V26.25C8.75 27.6313 9.86875 28.75 11.25 28.75H15C16.3813 28.75 17.5 27.6313 17.5 26.25V22.5C17.5 21.1187 16.3813 20 15 20Z" fill="#4788C7"/>
<path d="M22.5 28.125C21.4662 28.125 20.625 27.2838 20.625 26.25V22.5C20.625 21.4662 21.4662 20.625 22.5 20.625H26.25C27.2838 20.625 28.125 21.4662 28.125 22.5V26.25C28.125 27.2838 27.2838 28.125 26.25 28.125H22.5Z" fill="#98CCFD"/>
<path d="M26.25 21.25C26.9387 21.25 27.5 21.8113 27.5 22.5V26.25C27.5 26.9387 26.9387 27.5 26.25 27.5H22.5C21.8113 27.5 21.25 26.9387 21.25 26.25V22.5C21.25 21.8113 21.8113 21.25 22.5 21.25H26.25ZM26.25 20H22.5C21.1187 20 20 21.1187 20 22.5V26.25C20 27.6313 21.1187 28.75 22.5 28.75H26.25C27.6313 28.75 28.75 27.6313 28.75 26.25V22.5C28.75 21.1187 27.6313 20 26.25 20Z" fill="#4788C7"/>
<path d="M33.75 28.125C32.7162 28.125 31.875 27.2838 31.875 26.25V22.5C31.875 21.4662 32.7162 20.625 33.75 20.625H37.5C38.5338 20.625 39.375 21.4662 39.375 22.5V26.25C39.375 27.2838 38.5338 28.125 37.5 28.125H33.75Z" fill="#98CCFD"/>
<path d="M37.5 21.25C38.1887 21.25 38.75 21.8113 38.75 22.5V26.25C38.75 26.9387 38.1887 27.5 37.5 27.5H33.75C33.0613 27.5 32.5 26.9387 32.5 26.25V22.5C32.5 21.8113 33.0613 21.25 33.75 21.25H37.5ZM37.5 20H33.75C32.3687 20 31.25 21.1187 31.25 22.5V26.25C31.25 27.6313 32.3687 28.75 33.75 28.75H37.5C38.8813 28.75 40 27.6313 40 26.25V22.5C40 21.1187 38.8813 20 37.5 20Z" fill="#4788C7"/>
<path d="M11.25 39.375C10.2162 39.375 9.375 38.5338 9.375 37.5V33.75C9.375 32.7162 10.2162 31.875 11.25 31.875H15C16.0338 31.875 16.875 32.7162 16.875 33.75V37.5C16.875 38.5338 16.0338 39.375 15 39.375H11.25Z" fill="#98CCFD"/>
<path d="M15 32.5C15.6887 32.5 16.25 33.0613 16.25 33.75V37.5C16.25 38.1887 15.6887 38.75 15 38.75H11.25C10.5613 38.75 10 38.1887 10 37.5V33.75C10 33.0613 10.5613 32.5 11.25 32.5H15ZM15 31.25H11.25C9.86875 31.25 8.75 32.3687 8.75 33.75V37.5C8.75 38.8813 9.86875 40 11.25 40H15C16.3813 40 17.5 38.8813 17.5 37.5V33.75C17.5 32.3687 16.3813 31.25 15 31.25Z" fill="#4788C7"/>
<path d="M22.5 39.375C21.4662 39.375 20.625 38.5338 20.625 37.5V33.75C20.625 32.7162 21.4662 31.875 22.5 31.875H26.25C27.2838 31.875 28.125 32.7162 28.125 33.75V37.5C28.125 38.5338 27.2838 39.375 26.25 39.375H22.5Z" fill="#98CCFD"/>
<path d="M26.25 32.5C26.9387 32.5 27.5 33.0613 27.5 33.75V37.5C27.5 38.1887 26.9387 38.75 26.25 38.75H22.5C21.8113 38.75 21.25 38.1887 21.25 37.5V33.75C21.25 33.0613 21.8113 32.5 22.5 32.5H26.25ZM26.25 31.25H22.5C21.1187 31.25 20 32.3687 20 33.75V37.5C20 38.8813 21.1187 40 22.5 40H26.25C27.6313 40 28.75 38.8813 28.75 37.5V33.75C28.75 32.3687 27.6313 31.25 26.25 31.25Z" fill="#4788C7"/>
<path d="M33.75 39.375C32.7162 39.375 31.875 38.5338 31.875 37.5V33.75C31.875 32.7162 32.7162 31.875 33.75 31.875H37.5C38.5338 31.875 39.375 32.7162 39.375 33.75V37.5C39.375 38.5338 38.5338 39.375 37.5 39.375H33.75Z" fill="#98CCFD"/>
<path d="M37.5 32.5C38.1887 32.5 38.75 33.0613 38.75 33.75V37.5C38.75 38.1887 38.1887 38.75 37.5 38.75H33.75C33.0613 38.75 32.5 38.1887 32.5 37.5V33.75C32.5 33.0613 33.0613 32.5 33.75 32.5H37.5ZM37.5 31.25H33.75C32.3687 31.25 31.25 32.3687 31.25 33.75V37.5C31.25 38.8813 32.3687 40 33.75 40H37.5C38.8813 40 40 38.8813 40 37.5V33.75C40 32.3687 38.8813 31.25 37.5 31.25Z" fill="#4788C7"/>
</svg>
