<svg width="50" height="50" viewBox="0 0 50 50" fill="none" xmlns="http://www.w3.org/2000/svg">
<path d="M22.095 48.125L20.6888 42.4987L20.3338 42.4038C17.2613 41.5812 14.4638 39.9712 12.2425 37.7487L11.9825 37.4888L6.42627 39.0775L3.52127 34.0462L7.69002 30.015L7.59502 29.66C7.17627 28.0938 6.96377 26.525 6.96377 25C6.96377 23.475 7.17627 21.9062 7.59377 20.3387L7.68877 19.9838L3.52002 15.9525L6.42502 10.9213L11.9813 12.51L12.2413 12.25C14.4638 10.0262 17.2613 8.4175 20.3325 7.595L20.6875 7.5L22.095 1.875H27.9038L29.31 7.50125L29.665 7.59625C32.7363 8.4175 35.5338 10.0275 37.7563 12.2512L38.0163 12.5112L43.5725 10.9225L46.4775 15.9537L42.3088 19.985L42.4038 20.34C42.8225 21.9062 43.035 23.4737 43.035 25C43.035 26.525 42.8225 28.0938 42.405 29.6613L42.31 30.0163L46.4788 34.0462L43.5738 39.0788L38.0175 37.4888L37.7575 37.7487C35.5363 39.9725 32.7375 41.5812 29.6663 42.4038L29.3113 42.4987L27.905 48.125H22.095Z" fill="#98CCFD"/>
<path d="M27.4162 2.5L28.615 7.29625L28.7937 8.01L29.505 8.2C32.47 8.99375 35.17 10.5475 37.315 12.6925L37.835 13.2137L38.5425 13.0113L43.2762 11.6575L45.6937 15.8438L42.14 19.28L41.6112 19.7913L41.8012 20.5012C42.2062 22.015 42.4112 23.5287 42.4112 25C42.4112 26.4713 42.2062 27.985 41.8012 29.4988L41.6112 30.2087L42.14 30.72L45.6937 34.1562L43.2762 38.3425L38.5425 36.9888L37.835 36.7863L37.315 37.3075C35.1712 39.4525 32.47 41.0062 29.505 41.8L28.7937 41.99L28.615 42.7037L27.4175 47.5H22.5837L21.385 42.7037L21.2062 41.99L20.495 41.8C17.53 41.0062 14.8287 39.4525 12.685 37.3075L12.165 36.7863L11.4575 36.9888L6.72374 38.3425L4.30624 34.1562L7.85999 30.72L8.38873 30.2087L8.19874 29.4988C7.79374 27.985 7.58874 26.4713 7.58874 25C7.58874 23.5287 7.79374 22.015 8.19874 20.5012L8.38873 19.7913L7.85999 19.28L4.30624 15.8438L6.72374 11.6575L11.4575 13.0113L12.165 13.2137L12.685 12.6925C14.8287 10.5475 17.53 8.99375 20.495 8.2L21.2062 8.01L21.385 7.29625L22.5825 2.5H27.4162ZM28.3925 1.25H21.6062L20.17 6.9925C16.9587 7.8525 14.0812 9.52625 11.8 11.8087L6.12874 10.1863L2.73624 16.0625L6.99249 20.1775C6.57999 21.7188 6.33874 23.33 6.33874 25C6.33874 26.67 6.57874 28.2812 6.99124 29.8213L2.73499 33.9362L6.12749 39.8125L11.8 38.19C14.0812 40.4725 16.96 42.1462 20.1712 43.0062L21.6075 48.75H28.3937L29.8287 43.0075C33.04 42.1475 35.9187 40.4738 38.2 38.1912L43.8725 39.8138L47.265 33.9375L43.0087 29.8225C43.42 28.2825 43.6612 26.6712 43.6612 25.0012C43.6612 23.3312 43.4212 21.72 43.0087 20.18L47.265 16.065L43.8725 10.1888L38.2 11.8113C35.9187 9.52875 33.0412 7.855 29.83 6.995L28.3925 1.25Z" fill="#4788C7"/>
<path d="M23.75 18.99C24.4338 18.8425 25.3575 18.75 26.28 18.75C27.7213 18.75 28.9462 18.9537 29.74 19.71C30.4788 20.3562 30.8113 21.39 30.8113 22.4425C30.8113 23.7913 30.4062 24.75 29.76 25.4338C28.985 26.265 27.7475 26.6337 26.7313 26.6337C26.5662 26.6337 26.4175 26.6337 26.2512 26.615V31.25H23.7512V18.99H23.75ZM26.25 24.6587C26.3787 24.6775 26.5088 24.6775 26.6563 24.6775C27.875 24.6775 28.4113 23.8088 28.4113 22.6463C28.4113 21.5563 27.9675 20.7075 26.8412 20.7075C26.6212 20.7075 26.3988 20.7437 26.25 20.8V24.6587ZM32.5 18.75H35V31.25H32.5V18.75ZM19.94 31.25H22.5L19.8588 18.75H16.6937L13.75 31.25H16.31L16.855 28.75H19.4138L19.94 31.25ZM18.165 21.0488H18.225C18.3463 21.865 18.5275 23.1262 18.6688 23.8862L19.07 26.25H17.2263L17.6825 23.8875C17.8225 23.1638 18.0237 21.8838 18.165 21.0488Z" fill="white"/>
</svg>
