<svg width="114" height="114" viewBox="0 0 114 114" fill="none" xmlns="http://www.w3.org/2000/svg">
<path d="M74.7145 98.2896C78.1941 98.2896 80.7722 95.8698 80.7722 92.5641C80.7722 89.2585 78.1941 86.8386 74.7145 86.8386C71.2191 86.8386 68.6569 89.2744 68.6569 92.5641C68.6569 95.8539 71.2191 98.2896 74.7145 98.2896ZM74.7145 96.107C72.7375 96.107 71.2508 94.6677 71.2508 92.5641C71.2508 90.4606 72.7375 89.0213 74.7145 89.0213C76.6916 89.0213 78.1783 90.4606 78.1783 92.5641C78.1783 94.6677 76.6916 96.107 74.7145 96.107ZM87.4901 87.0284H82.6978V98.0999H85.26V95.0473H87.4901C90.4478 95.0473 92.2983 93.5131 92.2983 91.0458C92.2983 88.5626 90.4478 87.0284 87.4901 87.0284ZM87.3478 92.9596H85.26V89.1162H87.3478C88.9136 89.1162 89.7044 89.8279 89.7044 91.0458C89.7044 92.2478 88.9136 92.9596 87.3478 92.9596ZM97.9198 98.2896C101.083 98.2896 102.617 96.708 102.617 94.8575C102.617 90.7927 96.18 92.2004 96.18 90.1601C96.18 89.4641 96.7652 88.8948 98.2835 88.8948C99.2642 88.8948 100.324 89.1795 101.352 89.7647L102.143 87.8193C101.115 87.1708 99.6912 86.8386 98.2994 86.8386C95.1519 86.8386 93.6336 88.4045 93.6336 90.2866C93.6336 94.3988 100.071 92.9754 100.071 95.0473C100.071 95.7274 99.454 96.2335 97.9356 96.2335C96.607 96.2335 95.2152 95.759 94.282 95.0789L93.4121 97.0085C94.3927 97.7677 96.1642 98.2896 97.9198 98.2896Z" fill="#9DC9EC"/>
<path d="M74.7145 98.5281C78.3125 98.5281 81.0107 96.0144 81.0107 92.5641H80.5337C80.5337 95.7251 78.0757 98.0512 74.7145 98.0512V98.5281ZM81.0107 92.5641C81.0107 89.1139 78.3125 86.6002 74.7145 86.6002V87.0771C78.0757 87.0771 80.5337 89.4032 80.5337 92.5641H81.0107ZM74.7145 86.6002C71.0999 86.6002 68.4184 89.1305 68.4184 92.5641H68.8954C68.8954 89.4182 71.3384 87.0771 74.7145 87.0771V86.6002ZM68.4184 92.5641C68.4184 95.9978 71.0999 98.5281 74.7145 98.5281V98.0512C71.3384 98.0512 68.8954 95.7101 68.8954 92.5641H68.4184ZM74.7145 95.8685C72.8706 95.8685 71.4892 94.5374 71.4892 92.5641H71.0123C71.0123 94.798 72.6043 96.3455 74.7145 96.3455V95.8685ZM71.4892 92.5641C71.4892 90.5909 72.8706 89.2598 74.7145 89.2598V88.7828C72.6043 88.7828 71.0123 90.3303 71.0123 92.5641H71.4892ZM74.7145 89.2598C76.5584 89.2598 77.9398 90.5909 77.9398 92.5641H78.4168C78.4168 90.3303 76.8247 88.7828 74.7145 88.7828V89.2598ZM77.9398 92.5641C77.9398 94.5374 76.5584 95.8685 74.7145 95.8685V96.3455C76.8247 96.3455 78.4168 94.798 78.4168 92.5641H77.9398ZM82.6978 87.0284V86.7899H82.4593V87.0284H82.6978ZM82.6978 98.0999H82.4593V98.3383H82.6978V98.0999ZM85.26 98.0999V98.3383H85.4985V98.0999H85.26ZM85.26 95.0473V94.8088H85.0216V95.0473H85.26ZM85.26 92.9596H85.0216V93.198H85.26V92.9596ZM85.26 89.1162V88.8777H85.0216V89.1162H85.26ZM87.4901 86.7899H82.6978V87.2669H87.4901V86.7899ZM82.4593 87.0284V98.0999H82.9363V87.0284H82.4593ZM82.6978 98.3383H85.26V97.8614H82.6978V98.3383ZM85.4985 98.0999V95.0473H85.0216V98.0999H85.4985ZM85.26 95.2858H87.4901V94.8088H85.26V95.2858ZM87.4901 95.2858C89.0079 95.2858 90.2693 94.8922 91.1558 94.1552C92.0473 93.414 92.5368 92.344 92.5368 91.0458H92.0598C92.0598 92.2149 91.624 93.1457 90.8509 93.7884C90.0727 94.4353 88.9301 94.8088 87.4901 94.8088V95.2858ZM92.5368 91.0458C92.5368 89.7401 92.0477 88.6661 91.1561 87.9227C90.2694 87.1836 89.0079 86.7899 87.4901 86.7899V87.2669C88.9301 87.2669 90.0726 87.6404 90.8506 88.2891C91.6237 88.9336 92.0598 89.8683 92.0598 91.0458H92.5368ZM87.3478 92.7211H85.26V93.198H87.3478V92.7211ZM85.4985 92.9596V89.1162H85.0216V92.9596H85.4985ZM85.26 89.3547H87.3478V88.8777H85.26V89.3547ZM87.3478 89.3547C88.0988 89.3547 88.625 89.5258 88.96 89.807C89.2883 90.0825 89.4659 90.4914 89.4659 91.0458H89.9429C89.9429 90.3823 89.7252 89.8264 89.2666 89.4416C88.8148 89.0624 88.1626 88.8777 87.3478 88.8777V89.3547ZM89.4659 91.0458C89.4659 91.5913 89.2889 91.9964 88.9605 92.2703C88.6253 92.5499 88.0988 92.7211 87.3478 92.7211V93.198C88.1626 93.198 88.8144 93.0133 89.2661 92.6366C89.7245 92.2541 89.9429 91.7023 89.9429 91.0458H89.4659ZM101.352 89.7647L101.234 89.9719L101.47 90.1065L101.573 89.8545L101.352 89.7647ZM102.143 87.8193L102.364 87.9091L102.439 87.7241L102.27 87.6175L102.143 87.8193ZM94.282 95.0789L94.4225 94.8862L94.1853 94.7133L94.0646 94.9809L94.282 95.0789ZM93.4121 97.0085L93.1947 96.9105L93.1174 97.082L93.2661 97.1971L93.4121 97.0085ZM97.9198 98.5281C99.5391 98.5281 100.772 98.1233 101.604 97.4533C102.441 96.7803 102.856 95.8533 102.856 94.8575H102.379C102.379 95.7122 102.027 96.5013 101.305 97.0817C100.58 97.6652 99.4637 98.0512 97.9198 98.0512V98.5281ZM102.856 94.8575C102.856 93.7654 102.418 93.0229 101.758 92.5077C101.113 92.0037 100.267 91.7253 99.4576 91.5185C98.6248 91.3057 97.8571 91.1726 97.267 90.9589C96.977 90.854 96.7609 90.7391 96.6195 90.6068C96.4863 90.4822 96.4185 90.342 96.4185 90.1601H95.9415C95.9415 90.4882 96.0748 90.7504 96.2936 90.9551C96.5043 91.1523 96.7911 91.2939 97.1046 91.4074C97.7215 91.6307 98.5631 91.7823 99.3396 91.9807C100.14 92.1851 100.903 92.4445 101.465 92.8835C102.012 93.3114 102.379 93.9172 102.379 94.8575H102.856ZM96.4185 90.1601C96.4185 89.8885 96.5278 89.647 96.7968 89.4634C97.0774 89.2719 97.5487 89.1332 98.2835 89.1332V88.6563C97.5001 88.6563 96.9195 88.8023 96.528 89.0694C96.1247 89.3446 95.9415 89.7357 95.9415 90.1601H96.4185ZM98.2835 89.1332C99.2183 89.1332 100.238 89.4048 101.234 89.9719L101.47 89.5574C100.41 88.9541 99.31 88.6563 98.2835 88.6563V89.1332ZM101.573 89.8545L102.364 87.9091L101.922 87.7294L101.131 89.6748L101.573 89.8545ZM102.27 87.6175C101.194 86.9389 99.7232 86.6002 98.2994 86.6002V87.0771C99.6592 87.0771 101.035 87.4026 102.015 88.021L102.27 87.6175ZM98.2994 86.6002C96.6883 86.6002 95.4632 87.0009 94.636 87.6716C93.8046 88.3456 93.3951 89.2769 93.3951 90.2866H93.872C93.872 89.4142 94.2217 88.6215 94.9364 88.0421C95.6552 87.4593 96.763 87.0771 98.2994 87.0771V86.6002ZM93.3951 90.2866C93.3951 91.3895 93.8322 92.1397 94.4914 92.661C95.1365 93.1711 95.983 93.4531 96.7923 93.6629C97.1973 93.7679 97.6074 93.8581 97.9786 93.9467C98.3549 94.0365 98.6951 94.1256 98.9826 94.2314C99.2723 94.3381 99.4884 94.4548 99.6298 94.5893C99.7634 94.7164 99.8323 94.8601 99.8323 95.0473H100.309C100.309 94.7166 100.177 94.4515 99.9585 94.2437C99.748 94.0435 99.4611 93.8993 99.1474 93.7838C98.8314 93.6675 98.4675 93.5731 98.0894 93.4828C97.7063 93.3913 97.3117 93.3048 96.912 93.2012C96.112 92.9938 95.3492 92.7312 94.7873 92.2869C94.2395 91.8537 93.872 91.2399 93.872 90.2866H93.3951ZM99.8323 95.0473C99.8323 95.3015 99.7237 95.5226 99.4477 95.6923C99.1574 95.8708 98.6745 95.995 97.9356 95.995V96.472C98.715 96.472 99.2998 96.3432 99.6975 96.0986C100.109 95.8453 100.309 95.4732 100.309 95.0473H99.8323ZM97.9356 95.995C96.6566 95.995 95.3142 95.5361 94.4225 94.8862L94.1416 95.2717C95.1162 95.982 96.5574 96.472 97.9356 96.472V95.995ZM94.0646 94.9809L93.1947 96.9105L93.6295 97.1065L94.4994 95.177L94.0646 94.9809ZM93.2661 97.1971C94.3008 97.9981 96.1292 98.5281 97.9198 98.5281V98.0512C96.1991 98.0512 94.4847 97.5373 93.5581 96.82L93.2661 97.1971Z" fill="#1C75BC"/>
<path d="M23.9546 32.4278C28.0853 32.4278 30.0886 30.3625 30.0886 27.9461C30.0886 22.6382 21.6828 24.4763 21.6828 21.8121C21.6828 20.9034 22.447 20.1599 24.4297 20.1599C25.7102 20.1599 27.0939 20.5316 28.4364 21.2958L29.469 18.7554C28.1266 17.9087 26.2678 17.475 24.4503 17.475C20.3404 17.475 18.3577 19.5196 18.3577 21.9773C18.3577 27.3471 26.7635 25.4883 26.7635 28.1939C26.7635 29.082 25.958 29.7429 23.9753 29.7429C22.2404 29.7429 20.423 29.1233 19.2044 28.2352L18.0685 30.7549C19.349 31.7462 21.6622 32.4278 23.9546 32.4278ZM39.2936 32.4278C41.8132 32.4278 43.8992 31.519 45.2623 29.8461L43.1144 27.8634C42.1437 28.9994 40.9252 29.5776 39.4794 29.5776C36.7739 29.5776 34.8532 27.6776 34.8532 24.9514C34.8532 22.2252 36.7739 20.3251 39.4794 20.3251C40.9252 20.3251 42.1437 20.9034 43.1144 22.0186L45.2623 20.0359C43.8992 18.3837 41.8132 17.475 39.3142 17.475C34.8119 17.475 31.4661 20.5936 31.4661 24.9514C31.4661 29.3092 34.8119 32.4278 39.2936 32.4278ZM60.3266 32.1799L57.0841 27.533C58.9635 26.7275 60.0581 25.1372 60.0581 22.9687C60.0581 19.7261 57.6417 17.7228 53.7796 17.7228H47.5217V32.1799H50.8675V28.1526H53.7796H53.9448L56.733 32.1799H60.3266ZM56.671 22.9687C56.671 24.5383 55.6384 25.4883 53.5937 25.4883H50.8675V20.449H53.5937C55.6384 20.449 56.671 21.3784 56.671 22.9687ZM66.0341 29.495V26.1492H72.7464V23.547H66.0341V20.4077H73.6344V17.7228H62.709V32.1799H73.9029V29.495H66.0341ZM79.8902 29.495V26.1492H86.6025V23.547H79.8902V20.4077H87.4905V17.7228H76.5651V32.1799H87.759V29.495H79.8902ZM100.376 17.7228V26.5003L93.1887 17.7228H90.4212V32.1799H93.7257V23.4024L100.934 32.1799H103.68V17.7228H100.376Z" fill="#9DC9EC"/>
<path d="M28.4364 21.2958L28.3145 21.5098L28.5587 21.6487L28.6644 21.3885L28.4364 21.2958ZM29.469 18.7554L29.6971 18.8482L29.7747 18.6572L29.6004 18.5472L29.469 18.7554ZM19.2044 28.2352L19.3495 28.0362L19.1045 27.8577L18.98 28.134L19.2044 28.2352ZM18.0685 30.7549L17.8441 30.6537L17.7643 30.8307L17.9178 30.9496L18.0685 30.7549ZM23.9546 32.674C26.0589 32.674 27.6523 32.1479 28.7249 31.2849C29.8015 30.4187 30.3348 29.2271 30.3348 27.9461H29.8424C29.8424 29.0814 29.374 30.1307 28.4163 30.9012C27.4546 31.675 25.981 32.1815 23.9546 32.1815V32.674ZM30.3348 27.9461C30.3348 26.5407 29.7725 25.5898 28.9268 24.929C28.0959 24.2798 27.0021 23.9189 25.9467 23.6492C24.8669 23.3733 23.8543 23.1968 23.08 22.9166C22.6981 22.7783 22.4063 22.6247 22.2122 22.4431C22.0265 22.2694 21.929 22.0697 21.929 21.8121H21.4366C21.4366 22.2206 21.6017 22.5463 21.8758 22.8027C22.1414 23.0513 22.5062 23.2326 22.9124 23.3796C23.7142 23.6699 24.8031 23.8652 25.8247 24.1263C26.8708 24.3936 27.8784 24.7349 28.6236 25.3171C29.354 25.8877 29.8424 26.6975 29.8424 27.9461H30.3348ZM21.929 21.8121C21.929 21.4366 22.0819 21.1008 22.4515 20.8486C22.8331 20.5882 23.4634 20.4061 24.4297 20.4061V19.9136C23.4132 19.9136 22.6701 20.1033 22.1739 20.4418C21.6658 20.7886 21.4366 21.2789 21.4366 21.8121H21.929ZM24.4297 20.4061C25.6628 20.4061 27.005 20.7643 28.3145 21.5098L28.5582 21.0818C27.1828 20.2989 25.7575 19.9136 24.4297 19.9136V20.4061ZM28.6644 21.3885L29.6971 18.8482L29.2409 18.6627L28.2083 21.203L28.6644 21.3885ZM29.6004 18.5472C28.2086 17.6693 26.3008 17.2287 24.4503 17.2287V17.7212C26.2348 17.7212 28.0446 18.1481 29.3376 18.9637L29.6004 18.5472ZM24.4503 17.2287C22.3567 17.2287 20.7731 17.7495 19.7077 18.6132C18.6381 19.4804 18.1114 20.6776 18.1114 21.9773H18.6039C18.6039 20.8193 19.0686 19.7653 20.0178 18.9958C20.9713 18.2228 22.4339 17.7212 24.4503 17.7212V17.2287ZM18.1114 21.9773C18.1114 23.397 18.6728 24.3581 19.5183 25.0267C20.3493 25.6838 21.4432 26.0494 22.4988 26.323C23.0269 26.4599 23.5602 26.5772 24.0466 26.6933C24.5382 26.8107 24.9857 26.9277 25.365 27.0673C25.7466 27.2078 26.0384 27.364 26.2326 27.5486C26.4186 27.7255 26.5172 27.9298 26.5172 28.1939H27.0097C27.0097 27.7816 26.8457 27.4521 26.572 27.1918C26.3064 26.9393 25.9416 26.7548 25.5351 26.6052C25.1264 26.4547 24.6545 26.3322 24.161 26.2143C23.6623 26.0953 23.1449 25.9818 22.6223 25.8464C21.5764 25.5752 20.5689 25.2297 19.8238 24.6404C19.0933 24.0628 18.6039 23.2425 18.6039 21.9773H18.1114ZM26.5172 28.1939C26.5172 28.5493 26.3629 28.8586 25.9839 29.0917C25.5902 29.3338 24.9457 29.4966 23.9753 29.4966V29.9891C24.9875 29.9891 25.7372 29.8215 26.2419 29.5112C26.7612 29.1918 27.0097 28.7266 27.0097 28.1939H26.5172ZM23.9753 29.4966C22.2917 29.4966 20.5251 28.8931 19.3495 28.0362L19.0594 28.4342C20.3208 29.3535 22.1892 29.9891 23.9753 29.9891V29.4966ZM18.98 28.134L17.8441 30.6537L18.293 30.8561L19.4289 28.3364L18.98 28.134ZM17.9178 30.9496C19.2541 31.9841 21.6261 32.674 23.9546 32.674V32.1815C21.6982 32.1815 19.4439 31.5083 18.2193 30.5602L17.9178 30.9496ZM45.2623 29.8461L45.4532 30.0017L45.5994 29.8222L45.4293 29.6652L45.2623 29.8461ZM43.1144 27.8634L43.2814 27.6825L43.0934 27.509L42.9272 27.7035L43.1144 27.8634ZM43.1144 22.0186L42.9287 22.1803L43.0951 22.3715L43.2814 22.1996L43.1144 22.0186ZM45.2623 20.0359L45.4293 20.2169L45.6004 20.0589L45.4522 19.8792L45.2623 20.0359ZM39.2936 32.674C41.8742 32.674 44.0357 31.7414 45.4532 30.0017L45.0714 29.6906C43.7627 31.2967 41.7523 32.1815 39.2936 32.1815V32.674ZM45.4293 29.6652L43.2814 27.6825L42.9474 28.0444L45.0953 30.0271L45.4293 29.6652ZM42.9272 27.7035C42.001 28.7873 40.8498 29.3314 39.4794 29.3314V29.8239C41.0005 29.8239 42.2863 29.2114 43.3016 28.0234L42.9272 27.7035ZM39.4794 29.3314C38.1858 29.3314 37.0936 28.8781 36.3256 28.1125C35.5576 27.3469 35.0994 26.255 35.0994 24.9514H34.6069C34.6069 26.3739 35.1091 27.5952 35.9779 28.4612C36.8466 29.3271 38.0676 29.8239 39.4794 29.8239V29.3314ZM35.0994 24.9514C35.0994 23.6477 35.5576 22.5558 36.3256 21.7903C37.0936 21.0246 38.1858 20.5713 39.4794 20.5713V20.0789C38.0676 20.0789 36.8466 20.5756 35.9779 21.4415C35.1091 22.3076 34.6069 23.5288 34.6069 24.9514H35.0994ZM39.4794 20.5713C40.8502 20.5713 42.0022 21.1159 42.9287 22.1803L43.3001 21.857C42.2852 20.6909 41.0001 20.0789 39.4794 20.0789V20.5713ZM43.2814 22.1996L45.4293 20.2169L45.0953 19.855L42.9474 21.8377L43.2814 22.1996ZM45.4522 19.8792C44.035 18.1614 41.8744 17.2287 39.3142 17.2287V17.7212C41.7521 17.7212 43.7634 18.6059 45.0724 20.1926L45.4522 19.8792ZM39.3142 17.2287C34.6888 17.2287 31.2198 20.445 31.2198 24.9514H31.7123C31.7123 20.7421 34.9349 17.7212 39.3142 17.7212V17.2287ZM31.2198 24.9514C31.2198 29.4573 34.6884 32.674 39.2936 32.674V32.1815C34.9353 32.1815 31.7123 29.161 31.7123 24.9514H31.2198ZM60.3266 32.1799V32.4262H60.7987L60.5285 32.039L60.3266 32.1799ZM57.0841 27.533L56.9871 27.3067L56.7091 27.4258L56.8822 27.6739L57.0841 27.533ZM47.5217 17.7228V17.4766H47.2755V17.7228H47.5217ZM47.5217 32.1799H47.2755V32.4262H47.5217V32.1799ZM50.8675 32.1799V32.4262H51.1137V32.1799H50.8675ZM50.8675 28.1526V27.9064H50.6213V28.1526H50.8675ZM53.9448 28.1526L54.1473 28.0124L54.0738 27.9064H53.9448V28.1526ZM56.733 32.1799L56.5305 32.3201L56.604 32.4262H56.733V32.1799ZM50.8675 25.4883H50.6213V25.7346H50.8675V25.4883ZM50.8675 20.449V20.2028H50.6213V20.449H50.8675ZM60.5285 32.039L57.286 27.3921L56.8822 27.6739L60.1247 32.3208L60.5285 32.039ZM57.1811 27.7593C59.1506 26.9152 60.3043 25.2362 60.3043 22.9687H59.8119C59.8119 25.0383 58.7764 26.5398 56.9871 27.3067L57.1811 27.7593ZM60.3043 22.9687C60.3043 21.2813 59.6729 19.8979 58.5248 18.9407C57.3819 17.9878 55.7508 17.4766 53.7796 17.4766V17.969C55.6705 17.969 57.1787 18.4595 58.2095 19.3189C59.2351 20.174 59.8119 21.4135 59.8119 22.9687H60.3043ZM53.7796 17.4766H47.5217V17.969H53.7796V17.4766ZM47.2755 17.7228V32.1799H47.7679V17.7228H47.2755ZM47.5217 32.4262H50.8675V31.9337H47.5217V32.4262ZM51.1137 32.1799V28.1526H50.6213V32.1799H51.1137ZM50.8675 28.3988H53.7796V27.9064H50.8675V28.3988ZM53.7796 28.3988H53.9448V27.9064H53.7796V28.3988ZM53.7424 28.2927L56.5305 32.3201L56.9354 32.0398L54.1473 28.0124L53.7424 28.2927ZM56.733 32.4262H60.3266V31.9337H56.733V32.4262ZM56.4248 22.9687C56.4248 23.6964 56.1878 24.2512 55.7403 24.629C55.2864 25.0122 54.5819 25.2421 53.5937 25.2421V25.7346C54.6502 25.7346 55.4844 25.4895 56.0579 25.0053C56.6379 24.5156 56.9172 23.8105 56.9172 22.9687H56.4248ZM53.5937 25.2421H50.8675V25.7346H53.5937V25.2421ZM51.1137 25.4883V20.449H50.6213V25.4883H51.1137ZM50.8675 20.6952H53.5937V20.2028H50.8675V20.6952ZM53.5937 20.6952C54.5831 20.6952 55.2874 20.9206 55.7408 21.3011C56.1873 21.6758 56.4248 22.2298 56.4248 22.9687H56.9172C56.9172 22.1172 56.6384 21.4114 56.0574 20.9239C55.4833 20.4421 54.649 20.2028 53.5937 20.2028V20.6952ZM66.0341 29.495H65.7879V29.7413H66.0341V29.495ZM66.0341 26.1492V25.903H65.7879V26.1492H66.0341ZM72.7464 26.1492V26.3955H72.9926V26.1492H72.7464ZM72.7464 23.547H72.9926V23.3007H72.7464V23.547ZM66.0341 23.547H65.7879V23.7932H66.0341V23.547ZM66.0341 20.4077V20.1615H65.7879V20.4077H66.0341ZM73.6344 20.4077V20.6539H73.8807V20.4077H73.6344ZM73.6344 17.7228H73.8807V17.4766H73.6344V17.7228ZM62.709 17.7228V17.4766H62.4627V17.7228H62.709ZM62.709 32.1799H62.4627V32.4262H62.709V32.1799ZM73.9029 32.1799V32.4262H74.1491V32.1799H73.9029ZM73.9029 29.495H74.1491V29.2488H73.9029V29.495ZM66.2803 29.495V26.1492H65.7879V29.495H66.2803ZM66.0341 26.3955H72.7464V25.903H66.0341V26.3955ZM72.9926 26.1492V23.547H72.5001V26.1492H72.9926ZM72.7464 23.3007H66.0341V23.7932H72.7464V23.3007ZM66.2803 23.547V20.4077H65.7879V23.547H66.2803ZM66.0341 20.6539H73.6344V20.1615H66.0341V20.6539ZM73.8807 20.4077V17.7228H73.3882V20.4077H73.8807ZM73.6344 17.4766H62.709V17.969H73.6344V17.4766ZM62.4627 17.7228V32.1799H62.9552V17.7228H62.4627ZM62.709 32.4262H73.9029V31.9337H62.709V32.4262ZM74.1491 32.1799V29.495H73.6567V32.1799H74.1491ZM73.9029 29.2488H66.0341V29.7413H73.9029V29.2488ZM79.8902 29.495H79.644V29.7413H79.8902V29.495ZM79.8902 26.1492V25.903H79.644V26.1492H79.8902ZM86.6025 26.1492V26.3955H86.8487V26.1492H86.6025ZM86.6025 23.547H86.8487V23.3007H86.6025V23.547ZM79.8902 23.547H79.644V23.7932H79.8902V23.547ZM79.8902 20.4077V20.1615H79.644V20.4077H79.8902ZM87.4905 20.4077V20.6539H87.7368V20.4077H87.4905ZM87.4905 17.7228H87.7368V17.4766H87.4905V17.7228ZM76.5651 17.7228V17.4766H76.3189V17.7228H76.5651ZM76.5651 32.1799H76.3189V32.4262H76.5651V32.1799ZM87.759 32.1799V32.4262H88.0052V32.1799H87.759ZM87.759 29.495H88.0052V29.2488H87.759V29.495ZM80.1364 29.495V26.1492H79.644V29.495H80.1364ZM79.8902 26.3955H86.6025V25.903H79.8902V26.3955ZM86.8487 26.1492V23.547H86.3562V26.1492H86.8487ZM86.6025 23.3007H79.8902V23.7932H86.6025V23.3007ZM80.1364 23.547V20.4077H79.644V23.547H80.1364ZM79.8902 20.6539H87.4905V20.1615H79.8902V20.6539ZM87.7368 20.4077V17.7228H87.2443V20.4077H87.7368ZM87.4905 17.4766H76.5651V17.969H87.4905V17.4766ZM76.3189 17.7228V32.1799H76.8113V17.7228H76.3189ZM76.5651 32.4262H87.759V31.9337H76.5651V32.4262ZM88.0052 32.1799V29.495H87.5128V32.1799H88.0052ZM87.759 29.2488H79.8902V29.7413H87.759V29.2488ZM100.376 17.7228V17.4766H100.13V17.7228H100.376ZM100.376 26.5003L100.185 26.6563L100.622 27.1897V26.5003H100.376ZM93.1887 17.7228L93.3792 17.5668L93.3053 17.4766H93.1887V17.7228ZM90.4212 17.7228V17.4766H90.1749V17.7228H90.4212ZM90.4212 32.1799H90.1749V32.4262H90.4212V32.1799ZM93.7257 32.1799V32.4262H93.9719V32.1799H93.7257ZM93.7257 23.4024L93.9159 23.2461L93.4794 22.7146V23.4024H93.7257ZM100.934 32.1799L100.743 32.3362L100.817 32.4262H100.934V32.1799ZM103.68 32.1799V32.4262H103.927V32.1799H103.68ZM103.68 17.7228H103.927V17.4766H103.68V17.7228ZM100.13 17.7228V26.5003H100.622V17.7228H100.13ZM100.566 26.3444L93.3792 17.5668L92.9982 17.8788L100.185 26.6563L100.566 26.3444ZM93.1887 17.4766H90.4212V17.969H93.1887V17.4766ZM90.1749 17.7228V32.1799H90.6674V17.7228H90.1749ZM90.4212 32.4262H93.7257V31.9337H90.4212V32.4262ZM93.9719 32.1799V23.4024H93.4794V32.1799H93.9719ZM93.5354 23.5586L100.743 32.3362L101.124 32.0237L93.9159 23.2461L93.5354 23.5586ZM100.934 32.4262H103.68V31.9337H100.934V32.4262ZM103.927 32.1799V17.7228H103.434V32.1799H103.927ZM103.68 17.4766H100.376V17.969H103.68V17.4766Z" fill="#1C75BC"/>
<path d="M42.9399 1.01001V6.58984H6.53992V43H0.899902V1.01001H42.9399Z" fill="#9DC9EC" stroke="#1C75BC" stroke-width="0.5" stroke-miterlimit="10"/>
<path d="M113.01 43.05H107.41V6.63989H70.97V1H113.01V43.04V43.05Z" fill="#9DC9EC" stroke="#1C75BC" stroke-width="0.5" stroke-miterlimit="10"/>
<path d="M113.01 113.12H71.04V107.52H107.36V71.0798H113.01V113.12Z" fill="#9DC9EC" stroke="#1C75BC" stroke-width="0.5" stroke-miterlimit="10"/>
<path d="M6.51996 107.49H42.88V113.03H0.969971V71.1399H6.51996V107.5V107.49Z" fill="#9DC9EC" stroke="#1C75BC" stroke-width="0.5" stroke-miterlimit="10"/>
</svg>
