<svg width="118" height="118" viewBox="0 0 118 118" fill="none" xmlns="http://www.w3.org/2000/svg">
<path d="M36.7916 70.8613C43.9168 70.8613 49.196 65.906 49.196 59.137C49.196 52.368 43.9168 47.4127 36.7916 47.4127C29.6339 47.4127 24.3871 52.4004 24.3871 59.137C24.3871 65.8736 29.6339 70.8613 36.7916 70.8613ZM36.7916 66.3918C32.7431 66.3918 29.6987 63.4446 29.6987 59.137C29.6987 54.8295 32.7431 51.8822 36.7916 51.8822C40.84 51.8822 43.8845 54.8295 43.8845 59.137C43.8845 63.4446 40.84 66.3918 36.7916 66.3918ZM62.9526 47.8014H53.1392V70.4727H58.386V64.2219H62.9526C69.0091 64.2219 72.7985 61.0803 72.7985 56.0278C72.7985 50.943 69.0091 47.8014 62.9526 47.8014ZM62.6611 59.9467H58.386V52.0765H62.6611C65.8675 52.0765 67.4869 53.534 67.4869 56.0278C67.4869 58.4893 65.8675 59.9467 62.6611 59.9467ZM84.3097 70.8613C90.7872 70.8613 93.9288 67.6226 93.9288 63.8332C93.9288 55.5096 80.7471 58.3921 80.7471 54.2141C80.7471 52.789 81.9454 51.6231 85.0546 51.6231C87.0626 51.6231 89.2326 52.2061 91.3378 53.4044L92.9572 49.4207C90.852 48.0928 87.9371 47.4127 85.087 47.4127C78.6419 47.4127 75.5327 50.6191 75.5327 54.4732C75.5327 62.894 88.7144 59.9791 88.7144 64.2219C88.7144 65.6145 87.4513 66.6509 84.3421 66.6509C81.6215 66.6509 78.7714 65.6793 76.8606 64.2866L75.0792 68.2379C77.0873 69.7925 80.7147 70.8613 84.3097 70.8613Z" fill="#98CCFD"/>
<path d="M36.7916 71.3376C44.1533 71.3376 49.6723 66.1949 49.6723 59.137H48.7197C48.7197 65.6171 43.6804 70.385 36.7916 70.385V71.3376ZM49.6723 59.137C49.6723 52.0791 44.1533 46.9364 36.7916 46.9364V47.889C43.6804 47.889 48.7197 52.6569 48.7197 59.137H49.6723ZM36.7916 46.9364C29.3958 46.9364 23.9109 52.1131 23.9109 59.137H24.8634C24.8634 52.6876 29.8721 47.889 36.7916 47.889V46.9364ZM23.9109 59.137C23.9109 66.1609 29.3958 71.3376 36.7916 71.3376V70.385C29.8721 70.385 24.8634 65.5864 24.8634 59.137H23.9109ZM36.7916 65.9155C33.009 65.9155 30.175 63.1844 30.175 59.137H29.2224C29.2224 63.7047 32.4772 66.8681 36.7916 66.8681V65.9155ZM30.175 59.137C30.175 55.0896 33.009 52.3585 36.7916 52.3585V51.4059C32.4772 51.4059 29.2224 54.5693 29.2224 59.137H30.175ZM36.7916 52.3585C40.5741 52.3585 43.4082 55.0896 43.4082 59.137H44.3607C44.3607 54.5693 41.1059 51.4059 36.7916 51.4059V52.3585ZM43.4082 59.137C43.4082 63.1844 40.5741 65.9155 36.7916 65.9155V66.8681C41.1059 66.8681 44.3607 63.7047 44.3607 59.137H43.4082ZM53.1392 47.8014V47.3251H52.6629V47.8014H53.1392ZM53.1392 70.4727H52.6629V70.9489H53.1392V70.4727ZM58.386 70.4727V70.9489H58.8623V70.4727H58.386ZM58.386 64.2219V63.7456H57.9097V64.2219H58.386ZM58.386 59.9467H57.9097V60.423H58.386V59.9467ZM58.386 52.0765V51.6002H57.9097V52.0765H58.386ZM62.9526 47.3251H53.1392V48.2776H62.9526V47.3251ZM52.6629 47.8014V70.4727H53.6155V47.8014H52.6629ZM53.1392 70.9489H58.386V69.9964H53.1392V70.9489ZM58.8623 70.4727V64.2219H57.9097V70.4727H58.8623ZM58.386 64.6981H62.9526V63.7456H58.386V64.6981ZM62.9526 64.6981C66.0585 64.6981 68.6386 63.8927 70.4512 62.3858C72.2738 60.8705 73.2747 58.6829 73.2747 56.0278H72.3222C72.3222 58.4252 71.4284 60.3346 69.8422 61.6532C68.246 62.9803 65.9032 63.7456 62.9526 63.7456V64.6981ZM73.2747 56.0278C73.2747 53.3574 72.2745 51.1617 70.4517 49.6419C68.6389 48.1306 66.0585 47.3251 62.9526 47.3251V48.2776C65.9032 48.2776 68.2457 49.043 69.8417 50.3736C71.4277 51.6959 72.3222 53.6133 72.3222 56.0278H73.2747ZM62.6611 59.4704H58.386V60.423H62.6611V59.4704ZM58.8623 59.9467V52.0765H57.9097V59.9467H58.8623ZM58.386 52.5528H62.6611V51.6002H58.386V52.5528ZM62.6611 52.5528C64.2006 52.5528 65.2812 52.9036 65.9702 53.4818C66.6458 54.0487 67.0106 54.8898 67.0106 56.0278H67.9632C67.9632 54.672 67.5183 53.5374 66.5826 52.7521C65.6603 51.9781 64.328 51.6002 62.6611 51.6002V52.5528ZM67.0106 56.0278C67.0106 57.1478 66.647 57.9809 65.9713 58.5446C65.2819 59.1196 64.2005 59.4704 62.6611 59.4704V60.423C64.3281 60.423 65.6596 60.045 66.5815 59.276C67.517 58.4956 67.9632 57.3693 67.9632 56.0278H67.0106ZM91.3378 53.4044L91.1022 53.8183L91.5744 54.0871L91.779 53.5838L91.3378 53.4044ZM92.9572 49.4207L93.3984 49.6001L93.5486 49.2307L93.2113 49.0179L92.9572 49.4207ZM76.8606 64.2866L77.1411 63.9017L76.6673 63.5564L76.4264 64.0909L76.8606 64.2866ZM75.0792 68.2379L74.645 68.0422L74.4907 68.3846L74.7877 68.6145L75.0792 68.2379ZM84.3097 71.3376C87.6238 71.3376 90.1445 70.5091 91.8469 69.1394C93.5569 67.7635 94.4051 65.8687 94.4051 63.8332H93.4525C93.4525 65.587 92.7299 67.2063 91.2498 68.3972C89.762 69.5942 87.4731 70.385 84.3097 70.385V71.3376ZM94.4051 63.8332C94.4051 61.6007 93.5098 60.0836 92.1624 59.0309C90.8437 58.0005 89.1127 57.431 87.4559 57.0076C85.7519 56.5722 84.1779 56.299 82.9688 55.8613C82.3744 55.6461 81.9301 55.4103 81.6389 55.1378C81.3639 54.8805 81.2234 54.5904 81.2234 54.2141H80.2708C80.2708 54.8823 80.5422 55.4161 80.988 55.8333C81.4177 56.2354 82.0032 56.5248 82.6446 56.757C83.9071 57.214 85.6286 57.5238 87.22 57.9305C88.8586 58.3492 90.4231 58.8808 91.5759 59.7815C92.7002 60.6599 93.4525 61.9039 93.4525 63.8332H94.4051ZM81.2234 54.2141C81.2234 53.6541 81.4492 53.1558 82.0033 52.7776C82.5808 52.3836 83.5486 52.0994 85.0546 52.0994V51.1468C83.4515 51.1468 82.2654 51.4456 81.4664 51.9908C80.6442 52.5519 80.2708 53.3491 80.2708 54.2141H81.2234ZM85.0546 52.0994C86.9711 52.0994 89.0606 52.6562 91.1022 53.8183L91.5734 52.9905C89.4046 51.7559 87.1542 51.1468 85.0546 51.1468V52.0994ZM91.779 53.5838L93.3984 49.6001L92.516 49.2414L90.8966 53.225L91.779 53.5838ZM93.2113 49.0179C91.0106 47.6298 88.001 46.9364 85.087 46.9364V47.889C87.8733 47.889 90.6934 48.5559 92.7031 49.8236L93.2113 49.0179ZM85.087 46.9364C81.7898 46.9364 79.2842 47.7566 77.593 49.1277C75.8935 50.5055 75.0564 52.409 75.0564 54.4732H76.009C76.009 52.6833 76.7264 51.0565 78.1929 49.8676C79.6675 48.6721 81.9391 47.889 85.087 47.889V46.9364ZM75.0564 54.4732C75.0564 56.7278 75.9499 58.2607 77.2969 59.3259C78.6157 60.3687 80.347 60.9458 82.004 61.3753C82.8332 61.5903 83.6725 61.7748 84.433 61.9564C85.2035 62.1403 85.9008 62.3228 86.4902 62.5398C87.0841 62.7585 87.5283 62.9982 87.8198 63.2753C88.0954 63.5375 88.2381 63.8348 88.2381 64.2219H89.1907C89.1907 63.5482 88.9215 63.0085 88.4762 62.5851C88.0468 62.1767 87.4612 61.8822 86.8193 61.6459C86.173 61.408 85.4285 61.2147 84.6542 61.0299C83.87 60.8427 83.0616 60.6654 82.2431 60.4532C80.6047 60.0285 79.0405 59.4903 77.8877 58.5787C76.7632 57.6895 76.009 56.429 76.009 54.4732H75.0564ZM88.2381 64.2219C88.2381 64.7467 88.0134 65.2032 87.4447 65.5529C86.8476 65.9201 85.8563 66.1746 84.3421 66.1746V67.1272C85.9371 67.1272 87.132 66.8635 87.9437 66.3644C88.7839 65.8477 89.1907 65.0896 89.1907 64.2219H88.2381ZM84.3421 66.1746C81.7206 66.1746 78.9691 65.234 77.1411 63.9017L76.58 64.6715C78.5738 66.1246 81.5224 67.1272 84.3421 67.1272V66.1746ZM76.4264 64.0909L74.645 68.0422L75.5135 68.4337L77.2948 64.4824L76.4264 64.0909ZM74.7877 68.6145C76.9036 70.2527 80.645 71.3376 84.3097 71.3376V70.385C80.7844 70.385 77.2709 69.3323 75.3708 67.8613L74.7877 68.6145Z" fill="#4788C7"/>
<path d="M0.530273 47.26H10.1703V10.8501H46.5703V1.27002H0.530273V47.26Z" fill="#98CCFD" stroke="#4788C7" stroke-miterlimit="10"/>
<path d="M70.6003 1.27002V10.8999H107.04V47.3101H116.64V1.27002H70.6003Z" fill="#98CCFD" stroke="#4788C7" stroke-miterlimit="10"/>
<path d="M106.99 107.78H70.6704V117.38H116.64V71.3401H106.99V107.78Z" fill="#98CCFD" stroke="#4788C7" stroke-miterlimit="10"/>
<path d="M10.1503 71.3999H0.610352V117.29H46.5104V107.75H10.1503V71.3999Z" fill="#98CCFD" stroke="#4788C7" stroke-miterlimit="10"/>
</svg>
