<svg width="52" height="52" viewBox="0 0 52 52" fill="none" xmlns="http://www.w3.org/2000/svg">
<path d="M21.375 21.1111C26.1155 21.1111 29.9584 17.2682 29.9584 12.5278C29.9584 7.78735 26.1155 3.94446 21.375 3.94446C16.6346 3.94446 12.7917 7.78735 12.7917 12.5278C12.7917 17.2682 16.6346 21.1111 21.375 21.1111Z" fill="#98CCFD" stroke="#4788C7" stroke-width="0.5"/>
<path d="M23.8333 45.4444H24.4416L24.0091 45.0167C23.5886 44.6007 23.3141 44.0597 23.227 43.4746C23.1398 42.8896 23.2445 42.292 23.5255 41.7715L23.5264 41.7698L24.2626 40.381L24.4048 40.1126L24.1141 40.0246L22.6024 39.567C22.6021 39.5668 22.6017 39.5667 22.6013 39.5666C22.0363 39.3895 21.5445 39.033 21.2004 38.5513C20.8561 38.0692 20.6784 37.4879 20.6943 36.8956L20.6944 36.8956V36.8889V34.0417V34.0412C20.6934 33.4511 20.8822 32.8762 21.2329 32.4016C21.5837 31.9271 22.0777 31.578 22.642 31.4059C22.6421 31.4058 22.6423 31.4058 22.6424 31.4058L24.1558 30.9476L24.4441 30.8603L24.3051 30.593L23.5829 29.2041L23.5819 29.2021C23.3089 28.6883 23.205 28.1014 23.285 27.5251C23.3651 26.9488 23.625 26.4124 24.0277 25.9925L24.3697 25.6358L23.8797 25.5716C22.8017 25.4302 21.716 25.3553 20.6289 25.3472C17.4099 25.2718 14.2139 25.9074 11.2687 27.2088C8.32295 28.5105 5.7007 30.4461 3.58901 32.8777L3.52777 32.9483V33.0417V43.8055C3.52777 44.2402 3.70044 44.6571 4.00779 44.9644C4.31514 45.2718 4.732 45.4444 5.16666 45.4444H23.8333Z" fill="#98CCFD" stroke="#4788C7" stroke-width="0.5"/>
<path d="M47.9052 33.3522L47.9304 33.3668C48.057 33.4397 48.1613 33.5457 48.2323 33.6734C48.3025 33.7998 48.3374 33.9427 48.3333 34.0872V36.9583V36.972L48.333 36.972C48.3242 37.132 48.2672 37.2855 48.1693 37.4124C48.0714 37.5392 47.9374 37.6334 47.7849 37.6824L47.7813 37.6836L47.7813 37.6836L45.1317 38.4917C44.9498 39.0852 44.7123 39.6601 44.4224 40.2089L45.7485 42.7021L45.7485 42.7021C45.8251 42.8462 45.8544 43.0106 45.8324 43.1722C45.8103 43.3338 45.7381 43.4844 45.6257 43.6027L45.6207 43.608L45.6206 43.6079L43.5928 45.6218L43.5889 45.6258L43.5888 45.6257C43.4705 45.7381 43.3199 45.8103 43.1583 45.8324C42.9968 45.8544 42.8325 45.8251 42.6886 45.7487L42.6886 45.7488L42.8056 45.5278L42.6882 45.7486L47.9052 33.3522ZM47.9052 33.3522L47.8774 33.3439M47.9052 33.3522L47.8774 33.3439M47.8774 33.3439L45.2302 32.5497C45.0485 31.9364 44.806 31.3427 44.5062 30.7776L45.8304 28.3145C45.9108 28.1698 45.9401 28.0022 45.9135 27.8387C45.8871 27.6768 45.8075 27.5284 45.6872 27.417L43.6774 25.3933L43.6774 25.3933M47.8774 33.3439L43.6774 25.3933M43.6774 25.3933L43.6744 25.3903M43.6774 25.3933L43.6744 25.3903M43.6744 25.3903C43.5601 25.279 43.4143 25.2056 43.2569 25.18C43.0994 25.1544 42.9379 25.1778 42.7943 25.247L42.7941 25.2468M43.6744 25.3903L42.7941 25.2468M42.7941 25.2468L42.7839 25.2523M42.7941 25.2468L42.7839 25.2523M42.7839 25.2523L40.3327 26.5773C39.7609 26.2757 39.1637 26.0252 38.5478 25.8286L37.7391 23.1771L37.7395 23.177M42.7839 25.2523L37.7395 23.177M37.7395 23.177L37.7349 23.1645L37.7395 23.177ZM34.1111 22.6527V22.6528H36.9991H37V22.9028L34.1111 22.6527ZM34.1111 22.6527L34.1041 22.6529M34.1111 22.6527L34.1041 22.6529M34.1041 22.6529C33.9446 22.6573 33.7902 22.7108 33.662 22.806C33.5339 22.9012 33.4381 23.0335 33.3878 23.185L33.3877 23.185M34.1041 22.6529L33.3877 23.185M33.3877 23.185L33.3855 23.1921M33.3877 23.185L33.3855 23.1921M33.3855 23.1921L32.591 25.8407C31.9624 26.0332 31.3548 26.2886 30.7776 26.6032L28.3848 25.2812L28.3848 25.2812M33.3855 23.1921L28.3848 25.2812M28.3848 25.2812L28.3812 25.2792M28.3848 25.2812L28.3812 25.2792M28.3812 25.2792C28.2372 25.2027 28.0727 25.1734 27.9111 25.1954C27.7495 25.2174 27.5989 25.2897 27.4806 25.4021L27.4806 25.402M28.3812 25.2792L27.4806 25.402M27.4806 25.402L27.4778 25.4048M27.4806 25.402L27.4778 25.4048M27.4778 25.4048L25.4368 27.4041C25.3178 27.5192 25.2393 27.6698 25.2133 27.8333C25.1872 27.9972 25.2153 28.1652 25.2931 28.3117L25.2931 28.3118M27.4778 25.4048L25.2931 28.3118M25.2931 28.3118L25.2948 28.3148M25.2931 28.3118L25.2948 28.3148M25.2948 28.3148L26.6155 30.7185C26.2887 31.2874 26.017 31.8862 25.804 32.5067L23.1508 33.316C22.994 33.3618 22.8565 33.4575 22.759 33.5887C22.6615 33.7199 22.6096 33.8795 22.6111 34.043M25.2948 28.3148L22.8611 34.0417M27.4367 45.6236L27.4368 45.6236L25.3682 43.6106C25.368 43.6104 25.3679 43.6103 25.3677 43.6101C25.2485 43.495 25.1699 43.3442 25.1439 43.1806C25.1178 43.0168 25.1457 42.8491 25.2234 42.7027C25.2235 42.7025 25.2236 42.7023 25.2237 42.7022L26.5496 40.1829C26.2464 39.6205 25.9957 39.0313 25.8009 38.4229L23.1508 37.6146C22.994 37.5688 22.8565 37.4731 22.759 37.3419C22.6615 37.2106 22.6096 37.0511 22.6111 36.8876M27.4367 45.6236L22.8611 36.8889M27.4367 45.6236L27.439 45.6257M27.4367 45.6236L27.439 45.6257M22.6111 36.8876C22.6111 36.8871 22.6111 36.8865 22.6111 36.886L22.8611 36.8889M22.6111 36.8876V36.8889H22.8611M22.6111 36.8876V34.043M22.8611 36.8889V34.0417M22.6111 34.043C22.6111 34.0435 22.6111 34.044 22.6111 34.0446L22.8611 34.0417M22.6111 34.043V34.0417H22.8611M27.439 45.6257C27.5572 45.7381 27.7078 45.8103 27.8695 45.8324C28.0311 45.8544 28.1955 45.8251 28.3396 45.7486L28.3401 45.7482M27.439 45.6257L28.3401 45.7482M28.3401 45.7482L30.8201 44.4221C31.3775 44.7123 31.9607 44.9499 32.5623 45.1318L33.3573 47.848L33.3571 47.8481M28.3401 45.7482L33.3571 47.8481M33.3571 47.8481L33.36 47.8567M33.3571 47.8481L33.36 47.8567M33.36 47.8567C33.4115 48.0115 33.5104 48.1461 33.6426 48.2416C33.7748 48.3371 33.9338 48.3887 34.0969 48.3889H34.0972M33.36 47.8567L34.0972 48.3889M34.0972 48.3889H36.9444V48.389M34.0972 48.3889L36.9444 48.389M36.9444 48.389L36.9514 48.3888M36.9444 48.389L36.9514 48.3888M36.9514 48.3888C37.111 48.3843 37.2654 48.3309 37.3935 48.2357C37.5217 48.1405 37.6174 48.0081 37.6678 47.8566L37.668 47.8567M36.9514 48.3888L37.668 47.8567M37.668 47.8567L37.6705 47.848M37.668 47.8567L37.6705 47.848M37.6705 47.848L38.4655 45.1317L37.6705 47.848ZM40.182 44.4225C40.2219 44.4012 40.2616 44.3797 40.3012 44.3578L40.1806 44.1389L40.0636 44.3599L40.182 44.4225ZM35.5409 39.8889C34.6723 39.8915 33.8225 39.6363 33.099 39.1556C32.3755 38.675 31.811 37.9904 31.4768 37.1887C31.1426 36.387 31.0538 35.5041 31.2216 34.6519C31.3895 33.7996 31.8064 33.0164 32.4197 32.4013C33.033 31.7862 33.815 31.3669 34.6667 31.1964C35.5184 31.026 36.4016 31.1122 37.2043 31.444C38.007 31.7758 38.6932 32.3383 39.1761 33.0603C39.6589 33.7823 39.9167 34.6314 39.9167 35.5C39.9167 36.6617 39.4561 37.7761 38.6358 38.5988C37.8156 39.4215 36.7027 39.8854 35.5409 39.8889Z" fill="#98CCFD" stroke="#4788C7" stroke-width="0.5"/>
<rect x="0.5" y="0.5" width="51" height="51" rx="5.5" stroke="#4788C7"/>
</svg>
