<svg width="47" height="47" viewBox="0 0 47 47" fill="none" xmlns="http://www.w3.org/2000/svg">
<path d="M45.6035 19.814L45.6287 19.8285C45.8237 19.9409 45.9844 20.1041 46.0938 20.3008C46.2024 20.4962 46.2562 20.7173 46.2494 20.9407V26.0633V26.077L46.2491 26.0769C46.2356 26.3227 46.1479 26.5585 45.9976 26.7533C45.8472 26.9482 45.6412 27.0928 45.4069 27.1681L45.4033 27.1693L45.4033 27.1693L40.5761 28.6408C40.2415 29.7555 39.7959 30.8338 39.2458 31.8596L41.6607 36.3971L41.6608 36.3972C41.7781 36.6178 41.823 36.8697 41.7892 37.1172C41.7555 37.3647 41.6447 37.5954 41.4726 37.7765L41.4675 37.7818L41.4675 37.7817L37.8497 41.3728L37.8457 41.3768L37.8457 41.3767C37.6644 41.5487 37.4337 41.6594 37.1861 41.6931C36.9386 41.7269 36.6866 41.682 36.466 41.5648L31.9018 39.1511C30.8775 39.7047 29.7984 40.1502 28.6818 40.4807L27.2336 45.4263L27.231 45.435L27.2309 45.435C27.1537 45.667 27.007 45.8697 26.8106 46.0155C26.6143 46.1612 26.3778 46.2431 26.1333 46.2499L26.1264 46.2501V46.25H21.0466H21.0462C20.7964 46.2496 20.5529 46.1708 20.3503 46.0245C20.1477 45.8783 19.9963 45.6721 19.9173 45.4351L19.9144 45.4264L19.9146 45.4263L18.4663 40.4807C17.3358 40.1465 16.2413 39.701 15.1988 39.1507L10.6827 41.5645L10.6822 41.5648C10.4615 41.682 10.2096 41.7269 9.96202 41.6931C9.71444 41.6594 9.48373 41.5487 9.30251 41.3767L9.30029 41.3746L5.60905 37.7844C5.60896 37.7843 5.60888 37.7842 5.60879 37.7841C5.42639 37.6083 5.30618 37.3779 5.26636 37.1278C5.22654 36.8776 5.26928 36.6213 5.38808 36.3976C5.38815 36.3975 5.38821 36.3974 5.38827 36.3973L7.80297 31.8118C7.22896 30.7621 6.75928 29.6588 6.40066 28.5175L1.57493 27.0465C1.57433 27.0463 1.57373 27.0461 1.57313 27.0459C1.33389 26.9764 1.12394 26.8305 0.975318 26.6306L0.975317 26.6306C0.826625 26.4305 0.747513 26.1873 0.75006 25.9381V20.8638C0.747513 20.6146 0.826625 20.3714 0.975318 20.1713M45.6035 19.814L0.975317 20.1713L1.17586 20.3204L0.975318 20.1713M45.6035 19.814L45.5756 19.8057L40.7509 18.359M45.6035 19.814L40.7509 18.359M0.975318 20.1713C1.12392 19.9714 1.33384 19.8255 1.57303 19.756C1.57367 19.7558 1.5743 19.7556 1.57493 19.7554L6.40384 18.2834C6.79608 17.1202 7.30516 15.9998 7.92329 14.9392L5.51385 10.5563L5.51215 10.5533L5.51217 10.5532C5.39322 10.3294 5.35042 10.073 5.39026 9.82274C5.43004 9.5728 5.55007 9.34261 5.73218 9.16687C5.73244 9.16663 5.73269 9.16638 5.73294 9.16614L9.37405 5.60125L9.37683 5.59853L9.37685 5.59855C9.55807 5.42656 9.78878 5.31587 10.0364 5.28213C10.2839 5.24839 10.5359 5.29329 10.7565 5.4105L10.7601 5.4124L10.7601 5.41243L15.1237 7.82196C16.2005 7.22676 17.338 6.7486 18.5168 6.39569L19.9646 1.57207L19.9668 1.56503L19.9669 1.56506C20.044 1.33302 20.1908 1.13036 20.3871 0.984576C20.5835 0.838794 20.8199 0.756946 21.0644 0.750125L21.0714 0.749931V0.750028H26.2246H26.2255V1.00003C26.4199 0.998532 26.6101 1.05725 26.7698 1.16811L0.975318 20.1713ZM40.7509 18.359C40.4177 17.2084 39.9632 16.0964 39.395 15.0417L41.8068 10.5581C41.8072 10.5574 41.8076 10.5567 41.808 10.556C41.9305 10.3362 41.9752 10.0814 41.9347 9.83299C41.8945 9.586 41.7725 9.35976 41.5883 9.19047L37.9996 5.5789L37.9996 5.57887L37.9965 5.57591C37.8214 5.40556 37.5981 5.29315 37.357 5.25391C37.1158 5.21467 36.8684 5.25049 36.6482 5.35652L36.6481 5.35628L36.6379 5.3618L32.1723 7.77432C31.1042 7.20403 29.9851 6.7348 28.8295 6.37275L40.7509 18.359ZM23.6229 31.4847C22.0344 31.4895 20.4802 31.023 19.1571 30.1445C17.8341 29.2659 16.8016 28.0147 16.1904 26.5493C15.5793 25.084 15.4169 23.4703 15.7238 21.9127C16.0308 20.355 16.7933 18.9234 17.9148 17.7991C19.0364 16.6748 20.4665 15.9084 22.0241 15.5969C23.5818 15.2855 25.1968 15.4429 26.6649 16.0494C28.1329 16.6558 29.3879 17.684 30.2708 19.0037C31.1538 20.3234 31.6252 21.8753 31.6252 23.4629C31.6252 25.5862 30.7829 27.6229 29.2829 29.1267C27.7829 30.6304 25.7475 31.4784 23.6229 31.4847Z" fill="#98CCFD" stroke="#4788C7" stroke-width="0.5"/>
</svg>