<svg width="136" height="141" viewBox="0 0 136 141" fill="none" xmlns="http://www.w3.org/2000/svg">
<path d="M8.0631 135.31H14.8563C19.7482 135.31 23.1021 132.362 23.1021 127.833C23.1021 123.304 19.7482 120.356 14.8563 120.356H8.0631V135.31ZM11.5238 132.469V123.198H14.6854C17.6547 123.198 19.5987 124.971 19.5987 127.833C19.5987 130.696 17.6547 132.469 14.6854 132.469H11.5238ZM28.6008 135.31H32.0615V123.176H36.8466V120.356H23.8157V123.176H28.6008V135.31ZM49.13 135.31H52.7616L46.0753 120.356H42.6573L35.9923 135.31H39.5384L40.8629 132.106H47.8056L49.13 135.31ZM41.9737 129.478L44.3449 123.753L46.7161 129.478H41.9737ZM68.7375 135.075C68.0326 135.823 67.2208 136.186 66.3022 136.186C65.5545 136.186 64.9137 135.908 64.1874 135.139C67.3703 134.114 69.5279 131.337 69.5279 127.833C69.5279 123.369 66.0459 120.1 61.3462 120.1C56.6252 120.1 53.1645 123.39 53.1645 127.833C53.1645 131.892 56.0484 134.99 60.1499 135.502C62.457 137.938 64.0165 138.749 66.2381 138.749C67.883 138.749 69.2929 138.108 70.2756 136.912L68.7375 135.075ZM56.6679 127.833C56.6679 124.992 58.6759 123.048 61.3462 123.048C64.0165 123.048 66.0245 124.992 66.0245 127.833C66.0245 130.674 64.0165 132.618 61.3462 132.618C58.6759 132.618 56.6679 130.674 56.6679 127.833Z" fill="#9DC9EC"/>
<path d="M8.0631 135.31H7.81688V135.556H8.0631V135.31ZM8.0631 120.356V120.11H7.81688V120.356H8.0631ZM11.5238 132.469H11.2776V132.715H11.5238V132.469ZM11.5238 123.198V122.951H11.2776V123.198H11.5238ZM8.0631 135.556H14.8563V135.064H8.0631V135.556ZM14.8563 135.556C17.351 135.556 19.4749 134.804 20.9782 133.453C22.4841 132.1 23.3483 130.162 23.3483 127.833H22.8558C22.8558 130.033 22.0431 131.834 20.6491 133.087C19.2525 134.342 17.2534 135.064 14.8563 135.064V135.556ZM23.3483 127.833C23.3483 125.504 22.4841 123.567 20.9782 122.213C19.4749 120.862 17.351 120.11 14.8563 120.11V120.603C17.2534 120.603 19.2525 121.325 20.6491 122.58C22.0431 123.833 22.8558 125.633 22.8558 127.833H23.3483ZM14.8563 120.11H8.0631V120.603H14.8563V120.11ZM7.81688 120.356V135.31H8.30932V120.356H7.81688ZM11.77 132.469V123.198H11.2776V132.469H11.77ZM11.5238 123.444H14.6854V122.951H11.5238V123.444ZM14.6854 123.444C16.1215 123.444 17.2851 123.872 18.0874 124.622C18.8878 125.37 19.3525 126.46 19.3525 127.833H19.8449C19.8449 126.344 19.3376 125.116 18.4236 124.262C17.5117 123.41 16.2186 122.951 14.6854 122.951V123.444ZM19.3525 127.833C19.3525 129.206 18.8878 130.297 18.0874 131.045C17.2851 131.794 16.1215 132.223 14.6854 132.223V132.715C16.2186 132.715 17.5117 132.257 18.4236 131.404C19.3376 130.55 19.8449 129.323 19.8449 127.833H19.3525ZM14.6854 132.223H11.5238V132.715H14.6854V132.223ZM28.6008 135.31H28.3546V135.556H28.6008V135.31ZM32.0615 135.31V135.556H32.3077V135.31H32.0615ZM32.0615 123.176V122.93H31.8153V123.176H32.0615ZM36.8466 123.176V123.423H37.0928V123.176H36.8466ZM36.8466 120.356H37.0928V120.11H36.8466V120.356ZM23.8157 120.356V120.11H23.5695V120.356H23.8157ZM23.8157 123.176H23.5695V123.423H23.8157V123.176ZM28.6008 123.176H28.847V122.93H28.6008V123.176ZM28.6008 135.556H32.0615V135.064H28.6008V135.556ZM32.3077 135.31V123.176H31.8153V135.31H32.3077ZM32.0615 123.423H36.8466V122.93H32.0615V123.423ZM37.0928 123.176V120.356H36.6004V123.176H37.0928ZM36.8466 120.11H23.8157V120.603H36.8466V120.11ZM23.5695 120.356V123.176H24.0619V120.356H23.5695ZM23.8157 123.423H28.6008V122.93H23.8157V123.423ZM28.3546 123.176V135.31H28.847V123.176H28.3546ZM49.13 135.31L48.9025 135.404L48.9654 135.556H49.13V135.31ZM52.7616 135.31V135.556H53.1414L52.9864 135.209L52.7616 135.31ZM46.0753 120.356L46.3 120.256L46.2349 120.11H46.0753V120.356ZM42.6573 120.356V120.11H42.4975L42.4324 120.256L42.6573 120.356ZM35.9923 135.31L35.7674 135.21L35.613 135.556H35.9923V135.31ZM39.5384 135.31V135.556H39.7031L39.766 135.404L39.5384 135.31ZM40.8629 132.106V131.859H40.6982L40.6353 132.012L40.8629 132.106ZM47.8056 132.106L48.0331 132.012L47.9702 131.859H47.8056V132.106ZM41.9737 129.478L41.7462 129.384L41.6052 129.724H41.9737V129.478ZM44.3449 123.753L44.5724 123.659L44.3449 123.11L44.1174 123.659L44.3449 123.753ZM46.7161 129.478V129.724H47.0846L46.9436 129.384L46.7161 129.478ZM49.13 135.556H52.7616V135.064H49.13V135.556ZM52.9864 135.209L46.3 120.256L45.8505 120.457L52.5368 135.411L52.9864 135.209ZM46.0753 120.11H42.6573V120.603H46.0753V120.11ZM42.4324 120.256L35.7674 135.21L36.2172 135.41L42.8822 120.457L42.4324 120.256ZM35.9923 135.556H39.5384V135.064H35.9923V135.556ZM39.766 135.404L41.0904 132.2L40.6353 132.012L39.3109 135.216L39.766 135.404ZM40.8629 132.352H47.8056V131.859H40.8629V132.352ZM47.578 132.2L48.9025 135.404L49.3576 135.216L48.0331 132.012L47.578 132.2ZM42.2012 129.572L44.5724 123.847L44.1174 123.659L41.7462 129.384L42.2012 129.572ZM44.1174 123.847L46.4886 129.572L46.9436 129.384L44.5724 123.659L44.1174 123.847ZM46.7161 129.232H41.9737V129.724H46.7161V129.232ZM68.7375 135.075L68.9263 134.917L68.7484 134.705L68.5584 134.906L68.7375 135.075ZM64.1874 135.139L64.1119 134.905L63.7404 135.024L64.0084 135.308L64.1874 135.139ZM60.1499 135.502L60.3287 135.333L60.268 135.269L60.1805 135.258L60.1499 135.502ZM70.2756 136.912L70.4659 137.068L70.5955 136.911L70.4644 136.754L70.2756 136.912ZM68.5584 134.906C67.8952 135.609 67.1464 135.94 66.3022 135.94V136.432C67.2952 136.432 68.1699 136.036 68.9167 135.244L68.5584 134.906ZM66.3022 135.94C65.6363 135.94 65.0567 135.701 64.3664 134.97L64.0084 135.308C64.7706 136.115 65.4728 136.432 66.3022 136.432V135.94ZM64.2629 135.373C67.5437 134.317 69.7741 131.448 69.7741 127.833H69.2817C69.2817 131.226 67.1969 133.911 64.1119 134.905L64.2629 135.373ZM69.7741 127.833C69.7741 123.219 66.1681 119.854 61.3462 119.854V120.346C65.9237 120.346 69.2817 123.518 69.2817 127.833H69.7741ZM61.3462 119.854C56.502 119.854 52.9183 123.241 52.9183 127.833H53.4107C53.4107 123.538 56.7483 120.346 61.3462 120.346V119.854ZM52.9183 127.833C52.9183 132.024 55.9028 135.22 60.1194 135.747L60.1805 135.258C56.1939 134.76 53.4107 131.76 53.4107 127.833H52.9183ZM59.9712 135.672C61.1324 136.897 62.1205 137.731 63.1106 138.257C64.1071 138.785 65.0931 138.996 66.2381 138.996V138.503C65.1615 138.503 64.257 138.307 63.3415 137.822C62.4198 137.332 61.4746 136.542 60.3287 135.333L59.9712 135.672ZM66.2381 138.996C67.9513 138.996 69.4331 138.326 70.4659 137.068L70.0853 136.756C69.1528 137.891 67.8147 138.503 66.2381 138.503V138.996ZM70.4644 136.754L68.9263 134.917L68.5487 135.233L70.0868 137.07L70.4644 136.754ZM56.9141 127.833C56.9141 125.127 58.8134 123.294 61.3462 123.294V122.802C58.5385 122.802 56.4217 124.858 56.4217 127.833H56.9141ZM61.3462 123.294C63.879 123.294 65.7783 125.127 65.7783 127.833H66.2707C66.2707 124.858 64.1539 122.802 61.3462 122.802V123.294ZM65.7783 127.833C65.7783 130.54 63.879 132.372 61.3462 132.372V132.865C64.1539 132.865 66.2707 130.809 66.2707 127.833H65.7783ZM61.3462 132.372C58.8134 132.372 56.9141 130.54 56.9141 127.833H56.4217C56.4217 130.809 58.5385 132.865 61.3462 132.865V132.372Z" fill="#1C75BC"/>
<path d="M71.46 85.49C71.27 85.63 71.06 85.75 70.89 85.91C61.86 94.09 52.84 102.27 43.82 110.46C43.66 110.61 43.53 110.78 43.44 110.88L38.49 106.41C44.91 100.59 51.41 94.69 57.92 88.79L57.84 88.63H1V82.14H57.86C51.3 76.19 44.8 70.3 38.35 64.45L43.4 59.92C43.45 59.96 43.63 60.11 43.8 60.27C52.81 68.44 61.81 76.61 70.82 84.77C71.01 84.94 71.23 85.08 71.44 85.24V85.49H71.46Z" fill="#9DC9EC" stroke="#1C75BC" stroke-width="0.5" stroke-miterlimit="10"/>
<path d="M78.37 131.71C75.88 130.36 74.9099 128.71 75.4199 126.7C75.9599 124.55 77.5499 123.55 80.4199 123.55C93.4699 123.55 106.53 123.55 119.58 123.55C124.29 123.55 127.1 120.72 127.1 116C127.1 108.09 127.1 100.18 127.1 92.27V90.88H125.38C113.6 90.88 101.82 90.88 90.0399 90.88C89.4499 90.88 88.84 90.88 88.28 90.72C86.36 90.18 85.0599 88.19 85.3299 86.34C85.6499 84.21 87.29 82.73 89.44 82.73C101.47 82.72 113.51 82.73 125.54 82.73C126.03 82.73 126.52 82.73 126.99 82.73V50.06H125.24C97.47 50.06 69.71 50.06 41.94 50.06C38.8 50.06 37.28 48.52 37.28 45.35C37.28 35.53 37.27 25.7 37.28 15.88C37.3 7.78001 43.9599 1.08 52.0399 1.08C74.8699 1.06 97.7099 1.06 120.54 1.08C128.53 1.08 135.23 7.82001 135.23 15.82C135.24 49.55 135.25 83.27 135.22 117C135.22 121.81 133.1 125.66 129.37 128.65C127.34 130.28 124.93 131.05 122.48 131.73H78.34L78.37 131.71ZM127.11 41.84C127.11 41.37 127.11 40.92 127.11 40.47C127.11 32.56 127.11 24.65 127.11 16.75C127.11 12.03 124.29 9.21001 119.58 9.21001C97.3899 9.21001 75.1999 9.21001 53.0099 9.21001C48.2799 9.21001 45.4499 12.02 45.4499 16.71C45.4499 24.66 45.4499 32.61 45.4499 40.56V41.83H127.11V41.84Z" fill="#9DC9EC" stroke="#1C75BC" stroke-width="0.5" stroke-miterlimit="10"/>
<path d="M69.95 28.21C69.93 25.22 67.49 22.78 64.52 22.78C61.54 22.78 58.99 25.35 59.03 28.33C59.07 31.36 61.55 33.75 64.64 33.71C67.62 33.68 69.97 31.25 69.96 28.21H69.95Z" fill="#9DC9EC" stroke="#1C75BC" stroke-width="0.5" stroke-miterlimit="10"/>
<path d="M102.62 28.36C102.65 31.36 105.07 33.72 108.09 33.71C111.13 33.7 113.61 31.19 113.54 28.17C113.48 25.23 110.95 22.76 108.02 22.78C104.99 22.8 102.58 25.28 102.61 28.36H102.62Z" fill="#9DC9EC" stroke="#1C75BC" stroke-width="0.5" stroke-miterlimit="10"/>
<path d="M86.31 33.71C89.32 33.71 91.71 31.32 91.73 28.31C91.75 25.28 89.26 22.77 86.26 22.78C83.29 22.8 80.86 25.24 80.84 28.22C80.81 31.27 83.24 33.71 86.31 33.7V33.71Z" fill="#9DC9EC" stroke="#1C75BC" stroke-width="0.5" stroke-miterlimit="10"/>
</svg>
