<svg width="140" height="141" viewBox="0 0 140 141" fill="none" xmlns="http://www.w3.org/2000/svg">
<path d="M5.32602 137.011H12.1238C17.019 137.011 20.3752 134.061 20.3752 129.529C20.3752 124.997 17.019 122.047 12.1238 122.047H5.32602V137.011ZM8.78903 134.168V124.89H11.9528C14.9241 124.89 16.8694 126.665 16.8694 129.529C16.8694 132.393 14.9241 134.168 11.9528 134.168H8.78903ZM25.8776 137.011H29.3407V124.869H34.129V122.047H21.0893V124.869H25.8776V137.011ZM46.4208 137.011H50.0548L43.3639 122.047H39.9436L33.2741 137.011H36.8226L38.148 133.804H45.0954L46.4208 137.011ZM39.2596 131.175L41.6324 125.446L44.0052 131.175H39.2596ZM66.0415 136.776C65.3361 137.524 64.5238 137.887 63.6046 137.887C62.8564 137.887 62.2151 137.609 61.4883 136.84C64.6734 135.814 66.8324 133.035 66.8324 129.529C66.8324 125.061 63.348 121.791 58.6452 121.791C53.9209 121.791 50.4579 125.083 50.4579 129.529C50.4579 133.591 53.3438 136.69 57.4481 137.203C59.7568 139.64 61.3173 140.452 63.5404 140.452C65.1864 140.452 66.5973 139.811 67.5806 138.614L66.0415 136.776ZM53.9637 129.529C53.9637 126.686 55.9731 124.741 58.6452 124.741C61.3173 124.741 63.3267 126.686 63.3267 129.529C63.3267 132.372 61.3173 134.317 58.6452 134.317C55.9731 134.317 53.9637 132.372 53.9637 129.529Z" fill="#98CCFD"/>
<path d="M5.32602 137.011H4.83317V137.504H5.32602V137.011ZM5.32602 122.047V121.554H4.83317V122.047H5.32602ZM8.78903 134.168H8.29618V134.661H8.78903V134.168ZM8.78903 124.89V124.397H8.29618V124.89H8.78903ZM5.32602 137.504H12.1238V136.518H5.32602V137.504ZM12.1238 137.504C14.6691 137.504 16.8569 136.736 18.4146 135.336C19.9774 133.931 20.868 131.924 20.868 129.529H19.8823C19.8823 131.666 19.0948 133.399 17.7558 134.603C16.4116 135.811 14.4737 136.518 12.1238 136.518V137.504ZM20.868 129.529C20.868 127.134 19.9774 125.127 18.4146 123.722C16.8569 122.322 14.6691 121.554 12.1238 121.554V122.54C14.4737 122.54 16.4116 123.247 17.7558 124.455C19.0948 125.659 19.8823 127.392 19.8823 129.529H20.868ZM12.1238 121.554H5.32602V122.54H12.1238V121.554ZM4.83317 122.047V137.011H5.81887V122.047H4.83317ZM9.28188 134.168V124.89H8.29618V134.168H9.28188ZM8.78903 125.383H11.9528V124.397H8.78903V125.383ZM11.9528 125.383C13.3413 125.383 14.4409 125.796 15.1888 126.496C15.933 127.191 16.3766 128.213 16.3766 129.529H17.3622C17.3622 127.98 16.8332 126.683 15.8619 125.775C14.8944 124.871 13.5356 124.397 11.9528 124.397V125.383ZM16.3766 129.529C16.3766 130.845 15.933 131.867 15.1888 132.562C14.4409 133.261 13.3413 133.675 11.9528 133.675V134.661C13.5356 134.661 14.8944 134.187 15.8619 133.283C16.8332 132.375 17.3622 131.077 17.3622 129.529H16.3766ZM11.9528 133.675H8.78903V134.661H11.9528V133.675ZM25.8776 137.011H25.3848V137.504H25.8776V137.011ZM29.3407 137.011V137.504H29.8335V137.011H29.3407ZM29.3407 124.869V124.376H28.8478V124.869H29.3407ZM34.129 124.869V125.362H34.6219V124.869H34.129ZM34.129 122.047H34.6219V121.554H34.129V122.047ZM21.0893 122.047V121.554H20.5964V122.047H21.0893ZM21.0893 124.869H20.5964V125.362H21.0893V124.869ZM25.8776 124.869H26.3705V124.376H25.8776V124.869ZM25.8776 137.504H29.3407V136.518H25.8776V137.504ZM29.8335 137.011V124.869H28.8478V137.011H29.8335ZM29.3407 125.362H34.129V124.376H29.3407V125.362ZM34.6219 124.869V122.047H33.6362V124.869H34.6219ZM34.129 121.554H21.0893V122.54H34.129V121.554ZM20.5964 122.047V124.869H21.5821V122.047H20.5964ZM21.0893 125.362H25.8776V124.376H21.0893V125.362ZM25.3848 124.869V137.011H26.3705V124.869H25.3848ZM46.4208 137.011L45.9653 137.199L46.0912 137.504H46.4208V137.011ZM50.0548 137.011V137.504H50.815L50.5047 136.81L50.0548 137.011ZM43.3639 122.047L43.8138 121.846L43.6834 121.554H43.3639V122.047ZM39.9436 122.047V121.554H39.6237L39.4935 121.847L39.9436 122.047ZM33.2741 137.011L32.824 136.81L32.5149 137.504H33.2741V137.011ZM36.8226 137.011V137.504H37.1522L37.2781 137.199L36.8226 137.011ZM38.148 133.804V133.311H37.8184L37.6925 133.616L38.148 133.804ZM45.0954 133.804L45.5509 133.616L45.425 133.311H45.0954V133.804ZM39.2596 131.175L38.8042 130.986L38.522 131.668H39.2596V131.175ZM41.6324 125.446L42.0877 125.257L41.6324 124.158L41.177 125.257L41.6324 125.446ZM44.0052 131.175V131.668H44.7428L44.4605 130.986L44.0052 131.175ZM46.4208 137.504H50.0548V136.518H46.4208V137.504ZM50.5047 136.81L43.8138 121.846L42.914 122.248L49.6049 137.212L50.5047 136.81ZM43.3639 121.554H39.9436V122.54H43.3639V121.554ZM39.4935 121.847L32.824 136.81L33.7243 137.211L40.3938 122.248L39.4935 121.847ZM33.2741 137.504H36.8226V136.518H33.2741V137.504ZM37.2781 137.199L38.6035 133.993L37.6925 133.616L36.3672 136.823L37.2781 137.199ZM38.148 134.297H45.0954V133.311H38.148V134.297ZM44.6399 133.993L45.9653 137.199L46.8762 136.823L45.5509 133.616L44.6399 133.993ZM39.7149 131.364L42.0877 125.635L41.177 125.257L38.8042 130.986L39.7149 131.364ZM41.177 125.635L43.5499 131.364L44.4605 130.986L42.0877 125.257L41.177 125.635ZM44.0052 130.682H39.2596V131.668H44.0052V130.682ZM66.0415 136.776L66.4194 136.459L66.0634 136.034L65.6829 136.438L66.0415 136.776ZM61.4883 136.84L61.3372 136.371L60.5936 136.61L61.13 137.178L61.4883 136.84ZM57.4481 137.203L57.8059 136.864L57.6844 136.736L57.5092 136.714L57.4481 137.203ZM67.5806 138.614L67.9614 138.927L68.2209 138.611L67.9585 138.298L67.5806 138.614ZM65.6829 136.438C65.0612 137.097 64.3749 137.394 63.6046 137.394V138.38C64.6726 138.38 65.6109 137.951 66.4001 137.114L65.6829 136.438ZM63.6046 137.394C63.0199 137.394 62.5014 137.195 61.8466 136.501L61.13 137.178C61.9288 138.024 62.6928 138.38 63.6046 138.38V137.394ZM61.6394 137.309C65.0205 136.22 67.3253 133.257 67.3253 129.529H66.3396C66.3396 132.813 64.3263 135.408 61.3372 136.371L61.6394 137.309ZM67.3253 129.529C67.3253 124.762 63.5927 121.298 58.6452 121.298V122.283C63.1034 122.283 66.3396 125.36 66.3396 129.529H67.3253ZM58.6452 121.298C53.6745 121.298 49.9651 124.785 49.9651 129.529H50.9508C50.9508 125.38 54.1674 122.283 58.6452 122.283V121.298ZM49.9651 129.529C49.9651 133.855 53.0525 137.15 57.387 137.692L57.5092 136.714C53.6351 136.23 50.9508 133.326 50.9508 129.529H49.9651ZM57.0903 137.542C58.2599 138.777 59.2701 139.633 60.2953 140.177C61.333 140.728 62.3603 140.945 63.5404 140.945V139.96C62.4974 139.96 61.6329 139.771 60.7574 139.306C59.8693 138.835 58.9449 138.067 57.8059 136.864L57.0903 137.542ZM63.5404 140.945C65.3231 140.945 66.8779 140.246 67.9614 138.927L67.1998 138.301C66.3167 139.376 65.0497 139.96 63.5404 139.96V140.945ZM67.9585 138.298L66.4194 136.459L65.6636 137.092L67.2027 138.93L67.9585 138.298ZM54.4565 129.529C54.4565 126.955 56.2482 125.233 58.6452 125.233V124.248C55.698 124.248 53.4708 126.417 53.4708 129.529H54.4565ZM58.6452 125.233C61.0421 125.233 62.8338 126.955 62.8338 129.529H63.8195C63.8195 126.417 61.5924 124.248 58.6452 124.248V125.233ZM62.8338 129.529C62.8338 132.103 61.0421 133.824 58.6452 133.824V134.81C61.5924 134.81 63.8195 132.641 63.8195 129.529H62.8338ZM58.6452 133.824C56.2482 133.824 54.4565 132.103 54.4565 129.529H53.4708C53.4708 132.641 55.698 134.81 58.6452 134.81V133.824Z" fill="#2698D3"/>
<path d="M46.88 62.41C46.73 62.27 46.57 62.14 46.44 62.03L45.11 60.88L37.1 68.07L54.41 83.77H0.72998V94.26H54.64L37.24 110.04L45.32 117.34L46.66 115.84L46.79 115.69C46.82 115.65 46.85 115.61 46.89 115.57C55.91 107.38 75.78 88.74 75.78 88.74L46.88 62.41Z" fill="#98CCFD" stroke="#4788C7" stroke-miterlimit="10"/>
<path d="M122.29 0.759979C110.95 0.749979 99.62 0.75 88.28 0.75C76.78 0.75 65.28 0.749979 53.78 0.759979C44.56 0.769979 37.04 8.29997 37.02 17.56C37.01 24.64 37.01 31.72 37.01 38.8V47.03C37.01 51.29 39.44 53.74 43.67 53.74H126.72V82.41H117.48C117.48 82.41 97.18 82.41 91.16 82.42C88.04 82.42 85.54 84.61 85.07 87.73C84.64 90.61 86.57 93.51 89.45 94.33C90.28 94.56 91.1 94.56 91.75 94.56C99.77 94.57 107.79 94.57 115.82 94.57H126.81C126.81 94.57 126.81 112.16 126.81 117.69C126.81 121.32 124.9 123.24 121.29 123.24H82.13C77.37 123.24 75.73 125.77 75.19 127.9C74.76 129.58 74.71 132.77 79.13 135.16L79.58 135.4H124.5L124.76 135.33C127.32 134.62 130.02 133.77 132.37 131.88C136.74 128.37 138.96 123.93 138.97 118.67C139 84.94 138.99 51.22 138.98 17.49C138.98 8.43996 131.33 0.769979 122.29 0.759979ZM49.17 18.42C49.17 14.82 51.1 12.91 54.73 12.91H121.3C124.91 12.91 126.83 14.83 126.83 18.45C126.83 23.98 126.83 41.54 126.83 41.54H49.17C49.17 41.54 49.17 23.92 49.17 18.42Z" fill="#98CCFD" stroke="#4788C7" stroke-miterlimit="10"/>
<path d="M66.2301 20.48C64.2701 20.48 62.3401 21.2999 60.9201 22.7399C59.5101 24.1699 58.7101 26.11 58.7401 28.05C58.8001 32.17 62.1101 35.4 66.2801 35.4H66.3701C70.4801 35.35 73.6901 32.05 73.6601 27.89C73.6501 23.81 70.3101 20.48 66.2301 20.48Z" fill="#98CCFD" stroke="#4788C7" stroke-miterlimit="10"/>
<path d="M109.73 20.48C107.74 20.49 105.89 21.2799 104.5 22.6899C103.09 24.1299 102.32 26.04 102.34 28.08C102.38 32.19 105.65 35.41 109.79 35.41H109.82C111.84 35.4 113.74 34.6 115.15 33.14C116.55 31.7 117.3 29.81 117.26 27.83C117.17 23.78 113.82 20.48 109.73 20.48Z" fill="#98CCFD" stroke="#4788C7" stroke-miterlimit="10"/>
<path d="M87.9699 20.48C83.9199 20.5 80.59 23.83 80.56 27.9C80.54 29.91 81.3 31.79 82.7 33.2C84.11 34.62 85.99 35.4 88.01 35.4H88.03C92.16 35.39 95.42 32.15 95.45 28.02C95.47 26.02 94.69 24.1199 93.26 22.6799C91.85 21.2699 89.9899 20.48 87.9699 20.48Z" fill="#98CCFD" stroke="#4788C7" stroke-miterlimit="10"/>
</svg>
