<svg width="113" height="114" viewBox="0 0 113 114" fill="none" xmlns="http://www.w3.org/2000/svg">
<path d="M68.3488 98.0999L65.8657 94.5412C67.305 93.9243 68.1432 92.7065 68.1432 91.0458C68.1432 88.5626 66.2927 87.0284 63.3351 87.0284H58.5427V98.0999H61.105V95.0157H63.3351H63.4616L65.5968 98.0999H68.3488ZM65.5494 91.0458C65.5494 92.2478 64.7585 92.9754 63.1927 92.9754H61.105V89.1162H63.1927C64.7585 89.1162 65.5494 89.8279 65.5494 91.0458ZM72.7197 96.0437V93.4815H77.86V91.4886H72.7197V89.0846H78.5401V87.0284H70.1733V98.0999H78.7457V96.0437H72.7197ZM89.0564 98.0999H91.7451L86.7946 87.0284H84.264L79.3293 98.0999H81.9548L82.9354 95.7274H88.0757L89.0564 98.0999ZM83.7579 93.782L85.5135 89.5432L87.2691 93.782H83.7579ZM92.8938 98.0999H97.9234C101.545 98.0999 104.028 95.9172 104.028 92.5641C104.028 89.2111 101.545 87.0284 97.9234 87.0284H92.8938V98.0999ZM95.456 95.9963V89.132H97.7968C99.9953 89.132 101.435 90.4448 101.435 92.5641C101.435 94.6835 99.9953 95.9963 97.7968 95.9963H95.456Z" fill="#9DC9EC"/>
<path d="M68.3488 98.0999V98.3383H68.8061L68.5444 97.9634L68.3488 98.0999ZM65.8657 94.5412L65.7717 94.322L65.5025 94.4374L65.6701 94.6777L65.8657 94.5412ZM58.5427 87.0284V86.7899H58.3042V87.0284H58.5427ZM58.5427 98.0999H58.3042V98.3383H58.5427V98.0999ZM61.105 98.0999V98.3383H61.3435V98.0999H61.105ZM61.105 95.0157V94.7772H60.8665V95.0157H61.105ZM63.4616 95.0157L63.6577 94.8799L63.5866 94.7772H63.4616V95.0157ZM65.5968 98.0999L65.4007 98.2356L65.4719 98.3383H65.5968V98.0999ZM61.105 92.9754H60.8665V93.2139H61.105V92.9754ZM61.105 89.1162V88.8777H60.8665V89.1162H61.105ZM68.5444 97.9634L66.0613 94.4047L65.6701 94.6777L68.1533 98.2363L68.5444 97.9634ZM65.9596 94.7604C67.4862 94.1061 68.3817 92.8023 68.3817 91.0458H67.9048C67.9048 92.6106 67.1237 93.7425 65.7717 94.322L65.9596 94.7604ZM68.3817 91.0458C68.3817 89.7401 67.8926 88.6661 67.001 87.9227C66.1144 87.1836 64.8528 86.7899 63.3351 86.7899V87.2669C64.775 87.2669 65.9175 87.6404 66.6956 88.2891C67.4686 88.9336 67.9048 89.8683 67.9048 91.0458H68.3817ZM63.3351 86.7899H58.5427V87.2669H63.3351V86.7899ZM58.3042 87.0284V98.0999H58.7812V87.0284H58.3042ZM58.5427 98.3383H61.105V97.8614H58.5427V98.3383ZM61.3435 98.0999V95.0157H60.8665V98.0999H61.3435ZM61.105 95.2542H63.3351V94.7772H61.105V95.2542ZM63.3351 95.2542H63.4616V94.7772H63.3351V95.2542ZM63.2655 95.1514L65.4007 98.2356L65.7929 97.9641L63.6577 94.8799L63.2655 95.1514ZM65.5968 98.3383H68.3488V97.8614H65.5968V98.3383ZM65.3109 91.0458C65.3109 91.5915 65.1337 92.0011 64.8044 92.2791C64.4689 92.5623 63.9426 92.7369 63.1927 92.7369V93.2139C64.0087 93.2139 64.6607 93.0246 65.1121 92.6436C65.5697 92.2573 65.7878 91.7021 65.7878 91.0458H65.3109ZM63.1927 92.7369H61.105V93.2139H63.1927V92.7369ZM61.3435 92.9754V89.1162H60.8665V92.9754H61.3435ZM61.105 89.3547H63.1927V88.8777H61.105V89.3547ZM63.1927 89.3547C63.9437 89.3547 64.4699 89.5258 64.8049 89.807C65.1332 90.0825 65.3109 90.4914 65.3109 91.0458H65.7878C65.7878 90.3823 65.5701 89.8264 65.1115 89.4416C64.6597 89.0624 64.0075 88.8777 63.1927 88.8777V89.3547ZM72.7197 96.0437H72.4812V96.2822H72.7197V96.0437ZM72.7197 93.4815V93.243H72.4812V93.4815H72.7197ZM77.86 93.4815V93.72H78.0985V93.4815H77.86ZM77.86 91.4886H78.0985V91.2501H77.86V91.4886ZM72.7197 91.4886H72.4812V91.7271H72.7197V91.4886ZM72.7197 89.0846V88.8461H72.4812V89.0846H72.7197ZM78.5401 89.0846V89.323H78.7786V89.0846H78.5401ZM78.5401 87.0284H78.7786V86.7899H78.5401V87.0284ZM70.1733 87.0284V86.7899H69.9348V87.0284H70.1733ZM70.1733 98.0999H69.9348V98.3383H70.1733V98.0999ZM78.7457 98.0999V98.3383H78.9842V98.0999H78.7457ZM78.7457 96.0437H78.9842V95.8052H78.7457V96.0437ZM72.9582 96.0437V93.4815H72.4812V96.0437H72.9582ZM72.7197 93.72H77.86V93.243H72.7197V93.72ZM78.0985 93.4815V91.4886H77.6215V93.4815H78.0985ZM77.86 91.2501H72.7197V91.7271H77.86V91.2501ZM72.9582 91.4886V89.0846H72.4812V91.4886H72.9582ZM72.7197 89.323H78.5401V88.8461H72.7197V89.323ZM78.7786 89.0846V87.0284H78.3016V89.0846H78.7786ZM78.5401 86.7899H70.1733V87.2669H78.5401V86.7899ZM69.9348 87.0284V98.0999H70.4118V87.0284H69.9348ZM70.1733 98.3383H78.7457V97.8614H70.1733V98.3383ZM78.9842 98.0999V96.0437H78.5072V98.0999H78.9842ZM78.7457 95.8052H72.7197V96.2822H78.7457V95.8052ZM89.0564 98.0999L88.836 98.191L88.8969 98.3383H89.0564V98.0999ZM91.7451 98.0999V98.3383H92.113L91.9628 98.0025L91.7451 98.0999ZM86.7946 87.0284L87.0123 86.9311L86.9492 86.7899H86.7946V87.0284ZM84.264 87.0284V86.7899H84.1092L84.0462 86.9313L84.264 87.0284ZM79.3293 98.0999L79.1115 98.0028L78.9619 98.3383H79.3293V98.0999ZM81.9548 98.0999V98.3383H82.1143L82.1752 98.191L81.9548 98.0999ZM82.9354 95.7274V95.4889H82.776L82.715 95.6363L82.9354 95.7274ZM88.0757 95.7274L88.2961 95.6363L88.2352 95.4889H88.0757V95.7274ZM83.7579 93.782L83.5376 93.6907L83.401 94.0205H83.7579V93.782ZM85.5135 89.5432L85.7338 89.452L85.5135 88.92L85.2932 89.452L85.5135 89.5432ZM87.2691 93.782V94.0205H87.626L87.4894 93.6907L87.2691 93.782ZM89.0564 98.3383H91.7451V97.8614H89.0564V98.3383ZM91.9628 98.0025L87.0123 86.9311L86.5769 87.1258L91.5274 98.1972L91.9628 98.0025ZM86.7946 86.7899H84.264V87.2669H86.7946V86.7899ZM84.0462 86.9313L79.1115 98.0028L79.5471 98.1969L84.4818 87.1255L84.0462 86.9313ZM79.3293 98.3383H81.9548V97.8614H79.3293V98.3383ZM82.1752 98.191L83.1558 95.8185L82.715 95.6363L81.7344 98.0088L82.1752 98.191ZM82.9354 95.9659H88.0757V95.4889H82.9354V95.9659ZM87.8553 95.8185L88.836 98.191L89.2768 98.0088L88.2961 95.6363L87.8553 95.8185ZM83.9782 93.8733L85.7338 89.6345L85.2932 89.452L83.5376 93.6907L83.9782 93.8733ZM85.2932 89.6345L87.0488 93.8733L87.4894 93.6907L85.7338 89.452L85.2932 89.6345ZM87.2691 93.5435H83.7579V94.0205H87.2691V93.5435ZM92.8938 98.0999H92.6553V98.3383H92.8938V98.0999ZM92.8938 87.0284V86.7899H92.6553V87.0284H92.8938ZM95.456 95.9963H95.2175V96.2348H95.456V95.9963ZM95.456 89.132V88.8935H95.2175V89.132H95.456ZM92.8938 98.3383H97.9234V97.8614H92.8938V98.3383ZM97.9234 98.3383C99.7816 98.3383 101.368 97.778 102.494 96.7668C103.621 95.7533 104.267 94.3031 104.267 92.5641H103.79C103.79 94.1783 103.194 95.4959 102.175 96.412C101.153 97.3304 99.6871 97.8614 97.9234 97.8614V98.3383ZM104.267 92.5641C104.267 90.8252 103.621 89.375 102.494 88.3615C101.368 87.3503 99.7816 86.7899 97.9234 86.7899V87.2669C99.6871 87.2669 101.153 87.7979 102.175 88.7163C103.194 89.6324 103.79 90.95 103.79 92.5641H104.267ZM97.9234 86.7899H92.8938V87.2669H97.9234V86.7899ZM92.6553 87.0284V98.0999H93.1323V87.0284H92.6553ZM95.6945 95.9963V89.132H95.2175V95.9963H95.6945ZM95.456 89.3705H97.7968V88.8935H95.456V89.3705ZM97.7968 89.3705C98.8491 89.3705 99.6958 89.6841 100.277 90.2275C100.857 90.7693 101.196 91.5607 101.196 92.5641H101.673C101.673 91.4482 101.293 90.5236 100.603 89.8791C99.9152 89.2363 98.9431 88.8935 97.7968 88.8935V89.3705ZM101.196 92.5641C101.196 93.5676 100.857 94.359 100.277 94.9007C99.6958 95.4442 98.8491 95.7578 97.7968 95.7578V96.2348C98.9431 96.2348 99.9152 95.892 100.603 95.2492C101.293 94.6047 101.673 93.6801 101.673 92.5641H101.196ZM97.7968 95.7578H95.456V96.2348H97.7968V95.7578Z" fill="#1C75BC"/>
<path d="M23.3843 32.4278C27.5149 32.4278 29.5183 30.3625 29.5183 27.9461C29.5183 22.6382 21.1125 24.4763 21.1125 21.8121C21.1125 20.9034 21.8767 20.1599 23.8593 20.1599C25.1398 20.1599 26.5236 20.5316 27.866 21.2958L28.8987 18.7554C27.5562 17.9087 25.6975 17.475 23.88 17.475C19.77 17.475 17.7874 19.5196 17.7874 21.9773C17.7874 27.3471 26.1931 25.4883 26.1931 28.1939C26.1931 29.082 25.3877 29.7429 23.405 29.7429C21.6701 29.7429 19.8527 29.1233 18.6341 28.2352L17.4982 30.7549C18.7787 31.7462 21.0918 32.4278 23.3843 32.4278ZM38.7233 32.4278C41.2429 32.4278 43.3289 31.519 44.692 29.8461L42.5441 27.8634C41.5734 28.9994 40.3548 29.5776 38.9091 29.5776C36.2036 29.5776 34.2828 27.6776 34.2828 24.9514C34.2828 22.2252 36.2036 20.3251 38.9091 20.3251C40.3548 20.3251 41.5734 20.9034 42.5441 22.0186L44.692 20.0359C43.3289 18.3837 41.2429 17.475 38.7439 17.475C34.2415 17.475 30.8957 20.5936 30.8957 24.9514C30.8957 29.3092 34.2415 32.4278 38.7233 32.4278ZM59.7563 32.1799L56.5138 27.533C58.3932 26.7275 59.4878 25.1372 59.4878 22.9687C59.4878 19.7261 57.0714 17.7228 53.2093 17.7228H46.9514V32.1799H50.2972V28.1526H53.2093H53.3745L56.1627 32.1799H59.7563ZM56.1007 22.9687C56.1007 24.5383 55.0681 25.4883 53.0234 25.4883H50.2972V20.449H53.0234C55.0681 20.449 56.1007 21.3784 56.1007 22.9687ZM65.4638 29.495V26.1492H72.176V23.547H65.4638V20.4077H73.0641V17.7228H62.1387V32.1799H73.3326V29.495H65.4638ZM79.3199 29.495V26.1492H86.0321V23.547H79.3199V20.4077H86.9202V17.7228H75.9948V32.1799H87.1887V29.495H79.3199ZM99.8056 17.7228V26.5003L92.6184 17.7228H89.8509V32.1799H93.1554V23.4024L100.363 32.1799H103.11V17.7228H99.8056Z" fill="#9DC9EC"/>
<path d="M27.866 21.2958L27.7442 21.5098L27.9884 21.6487L28.0941 21.3885L27.866 21.2958ZM28.8987 18.7554L29.1268 18.8482L29.2044 18.6572L29.0301 18.5472L28.8987 18.7554ZM18.6341 28.2352L18.7791 28.0362L18.5342 27.8577L18.4097 28.134L18.6341 28.2352ZM17.4982 30.7549L17.2737 30.6537L17.1939 30.8307L17.3475 30.9496L17.4982 30.7549ZM23.3843 32.674C25.4886 32.674 27.082 32.1479 28.1546 31.2849C29.2312 30.4187 29.7645 29.2271 29.7645 27.9461H29.2721C29.2721 29.0814 28.8037 30.1307 27.8459 30.9012C26.8843 31.675 25.4107 32.1815 23.3843 32.1815V32.674ZM29.7645 27.9461C29.7645 26.5407 29.2022 25.5898 28.3565 24.929C27.5255 24.2798 26.4318 23.9189 25.3763 23.6492C24.2965 23.3733 23.2839 23.1968 22.5097 22.9166C22.1278 22.7783 21.836 22.6247 21.6419 22.4431C21.4562 22.2694 21.3587 22.0697 21.3587 21.8121H20.8663C20.8663 22.2206 21.0314 22.5463 21.3054 22.8027C21.5711 23.0513 21.9359 23.2326 22.3421 23.3796C23.1439 23.6699 24.2328 23.8652 25.2544 24.1263C26.3004 24.3936 27.3081 24.7349 28.0533 25.3171C28.7837 25.8877 29.2721 26.6975 29.2721 27.9461H29.7645ZM21.3587 21.8121C21.3587 21.4366 21.5116 21.1008 21.8812 20.8486C22.2628 20.5882 22.8931 20.4061 23.8593 20.4061V19.9136C22.8429 19.9136 22.0998 20.1033 21.6036 20.4418C21.0955 20.7886 20.8663 21.2789 20.8663 21.8121H21.3587ZM23.8593 20.4061C25.0925 20.4061 26.4347 20.7643 27.7442 21.5098L27.9878 21.0818C26.6125 20.2989 25.1872 19.9136 23.8593 19.9136V20.4061ZM28.0941 21.3885L29.1268 18.8482L28.6706 18.6627L27.6379 21.203L28.0941 21.3885ZM29.0301 18.5472C27.6383 17.6693 25.7305 17.2287 23.88 17.2287V17.7212C25.6645 17.7212 27.4742 18.1481 28.7673 18.9637L29.0301 18.5472ZM23.88 17.2287C21.7864 17.2287 20.2028 17.7495 19.1374 18.6132C18.0677 19.4804 17.5411 20.6776 17.5411 21.9773H18.0336C18.0336 20.8193 18.4983 19.7653 19.4475 18.9958C20.401 18.2228 21.8636 17.7212 23.88 17.7212V17.2287ZM17.5411 21.9773C17.5411 23.397 18.1025 24.3581 18.948 25.0267C19.779 25.6838 20.8729 26.0494 21.9285 26.323C22.4566 26.4599 22.9899 26.5772 23.4763 26.6933C23.9679 26.8107 24.4154 26.9277 24.7947 27.0673C25.1763 27.2078 25.4681 27.364 25.6623 27.5486C25.8483 27.7255 25.9469 27.9298 25.9469 28.1939H26.4394C26.4394 27.7816 26.2753 27.4521 26.0016 27.1918C25.7361 26.9393 25.3712 26.7548 24.9648 26.6052C24.5561 26.4547 24.0842 26.3322 23.5907 26.2143C23.092 26.0953 22.5746 25.9818 22.052 25.8464C21.0061 25.5752 19.9986 25.2297 19.2535 24.6404C18.5229 24.0628 18.0336 23.2425 18.0336 21.9773H17.5411ZM25.9469 28.1939C25.9469 28.5493 25.7926 28.8586 25.4136 29.0917C25.0199 29.3338 24.3754 29.4966 23.405 29.4966V29.9891C24.4172 29.9891 25.1669 29.8215 25.6715 29.5112C26.1909 29.1918 26.4394 28.7266 26.4394 28.1939H25.9469ZM23.405 29.4966C21.7214 29.4966 19.9548 28.8931 18.7791 28.0362L18.4891 28.4342C19.7505 29.3535 21.6189 29.9891 23.405 29.9891V29.4966ZM18.4097 28.134L17.2737 30.6537L17.7227 30.8561L18.8586 28.3364L18.4097 28.134ZM17.3475 30.9496C18.6838 31.9841 21.0558 32.674 23.3843 32.674V32.1815C21.1279 32.1815 18.8736 31.5083 17.6489 30.5602L17.3475 30.9496ZM44.692 29.8461L44.8829 30.0017L45.0291 29.8222L44.859 29.6652L44.692 29.8461ZM42.5441 27.8634L42.7111 27.6825L42.5231 27.509L42.3569 27.7035L42.5441 27.8634ZM42.5441 22.0186L42.3583 22.1803L42.5248 22.3715L42.7111 22.1996L42.5441 22.0186ZM44.692 20.0359L44.859 20.2169L45.0301 20.0589L44.8819 19.8792L44.692 20.0359ZM38.7233 32.674C41.3039 32.674 43.4653 31.7414 44.8829 30.0017L44.5011 29.6906C43.1924 31.2967 41.1819 32.1815 38.7233 32.1815V32.674ZM44.859 29.6652L42.7111 27.6825L42.3771 28.0444L44.525 30.0271L44.859 29.6652ZM42.3569 27.7035C41.4307 28.7873 40.2795 29.3314 38.9091 29.3314V29.8239C40.4302 29.8239 41.716 29.2114 42.7313 28.0234L42.3569 27.7035ZM38.9091 29.3314C37.6154 29.3314 36.5233 28.8781 35.7552 28.1125C34.9873 27.3469 34.5291 26.255 34.5291 24.9514H34.0366C34.0366 26.3739 34.5388 27.5952 35.4076 28.4612C36.2762 29.3271 37.4973 29.8239 38.9091 29.8239V29.3314ZM34.5291 24.9514C34.5291 23.6477 34.9873 22.5558 35.7552 21.7903C36.5233 21.0246 37.6154 20.5713 38.9091 20.5713V20.0789C37.4973 20.0789 36.2762 20.5756 35.4076 21.4415C34.5388 22.3076 34.0366 23.5288 34.0366 24.9514H34.5291ZM38.9091 20.5713C40.2799 20.5713 41.4319 21.1159 42.3583 22.1803L42.7298 21.857C41.7149 20.6909 40.4298 20.0789 38.9091 20.0789V20.5713ZM42.7111 22.1996L44.859 20.2169L44.525 19.855L42.3771 21.8377L42.7111 22.1996ZM44.8819 19.8792C43.4647 18.1614 41.3041 17.2287 38.7439 17.2287V17.7212C41.1818 17.7212 43.193 18.6059 44.5021 20.1926L44.8819 19.8792ZM38.7439 17.2287C34.1185 17.2287 30.6495 20.445 30.6495 24.9514H31.142C31.142 20.7421 34.3646 17.7212 38.7439 17.7212V17.2287ZM30.6495 24.9514C30.6495 29.4573 34.1181 32.674 38.7233 32.674V32.1815C34.365 32.1815 31.142 29.161 31.142 24.9514H30.6495ZM59.7563 32.1799V32.4262H60.2283L59.9582 32.039L59.7563 32.1799ZM56.5138 27.533L56.4168 27.3067L56.1388 27.4258L56.3118 27.6739L56.5138 27.533ZM46.9514 17.7228V17.4766H46.7052V17.7228H46.9514ZM46.9514 32.1799H46.7052V32.4262H46.9514V32.1799ZM50.2972 32.1799V32.4262H50.5434V32.1799H50.2972ZM50.2972 28.1526V27.9064H50.051V28.1526H50.2972ZM53.3745 28.1526L53.5769 28.0124L53.5035 27.9064H53.3745V28.1526ZM56.1627 32.1799L55.9602 32.3201L56.0337 32.4262H56.1627V32.1799ZM50.2972 25.4883H50.051V25.7346H50.2972V25.4883ZM50.2972 20.449V20.2028H50.051V20.449H50.2972ZM59.9582 32.039L56.7157 27.3921L56.3118 27.6739L59.5544 32.3208L59.9582 32.039ZM56.6108 27.7593C58.5803 26.9152 59.734 25.2362 59.734 22.9687H59.2416C59.2416 25.0383 58.2061 26.5398 56.4168 27.3067L56.6108 27.7593ZM59.734 22.9687C59.734 21.2813 59.1026 19.8979 57.9545 18.9407C56.8116 17.9878 55.1805 17.4766 53.2093 17.4766V17.969C55.1002 17.969 56.6083 18.4595 57.6392 19.3189C58.6648 20.174 59.2416 21.4135 59.2416 22.9687H59.734ZM53.2093 17.4766H46.9514V17.969H53.2093V17.4766ZM46.7052 17.7228V32.1799H47.1976V17.7228H46.7052ZM46.9514 32.4262H50.2972V31.9337H46.9514V32.4262ZM50.5434 32.1799V28.1526H50.051V32.1799H50.5434ZM50.2972 28.3988H53.2093V27.9064H50.2972V28.3988ZM53.2093 28.3988H53.3745V27.9064H53.2093V28.3988ZM53.1721 28.2927L55.9602 32.3201L56.3651 32.0398L53.5769 28.0124L53.1721 28.2927ZM56.1627 32.4262H59.7563V31.9337H56.1627V32.4262ZM55.8545 22.9687C55.8545 23.6964 55.6175 24.2512 55.17 24.629C54.7161 25.0122 54.0116 25.2421 53.0234 25.2421V25.7346C54.0799 25.7346 54.914 25.4895 55.4876 25.0053C56.0676 24.5156 56.3469 23.8105 56.3469 22.9687H55.8545ZM53.0234 25.2421H50.2972V25.7346H53.0234V25.2421ZM50.5434 25.4883V20.449H50.051V25.4883H50.5434ZM50.2972 20.6952H53.0234V20.2028H50.2972V20.6952ZM53.0234 20.6952C54.0128 20.6952 54.7171 20.9206 55.1705 21.3011C55.617 21.6758 55.8545 22.2298 55.8545 22.9687H56.3469C56.3469 22.1172 56.0681 21.4114 55.4871 20.9239C54.913 20.4421 54.0787 20.2028 53.0234 20.2028V20.6952ZM65.4638 29.495H65.2176V29.7413H65.4638V29.495ZM65.4638 26.1492V25.903H65.2176V26.1492H65.4638ZM72.176 26.1492V26.3955H72.4223V26.1492H72.176ZM72.176 23.547H72.4223V23.3007H72.176V23.547ZM65.4638 23.547H65.2176V23.7932H65.4638V23.547ZM65.4638 20.4077V20.1615H65.2176V20.4077H65.4638ZM73.0641 20.4077V20.6539H73.3103V20.4077H73.0641ZM73.0641 17.7228H73.3103V17.4766H73.0641V17.7228ZM62.1387 17.7228V17.4766H61.8924V17.7228H62.1387ZM62.1387 32.1799H61.8924V32.4262H62.1387V32.1799ZM73.3326 32.1799V32.4262H73.5788V32.1799H73.3326ZM73.3326 29.495H73.5788V29.2488H73.3326V29.495ZM65.71 29.495V26.1492H65.2176V29.495H65.71ZM65.4638 26.3955H72.176V25.903H65.4638V26.3955ZM72.4223 26.1492V23.547H71.9298V26.1492H72.4223ZM72.176 23.3007H65.4638V23.7932H72.176V23.3007ZM65.71 23.547V20.4077H65.2176V23.547H65.71ZM65.4638 20.6539H73.0641V20.1615H65.4638V20.6539ZM73.3103 20.4077V17.7228H72.8179V20.4077H73.3103ZM73.0641 17.4766H62.1387V17.969H73.0641V17.4766ZM61.8924 17.7228V32.1799H62.3849V17.7228H61.8924ZM62.1387 32.4262H73.3326V31.9337H62.1387V32.4262ZM73.5788 32.1799V29.495H73.0864V32.1799H73.5788ZM73.3326 29.2488H65.4638V29.7413H73.3326V29.2488ZM79.3199 29.495H79.0737V29.7413H79.3199V29.495ZM79.3199 26.1492V25.903H79.0737V26.1492H79.3199ZM86.0321 26.1492V26.3955H86.2784V26.1492H86.0321ZM86.0321 23.547H86.2784V23.3007H86.0321V23.547ZM79.3199 23.547H79.0737V23.7932H79.3199V23.547ZM79.3199 20.4077V20.1615H79.0737V20.4077H79.3199ZM86.9202 20.4077V20.6539H87.1665V20.4077H86.9202ZM86.9202 17.7228H87.1665V17.4766H86.9202V17.7228ZM75.9948 17.7228V17.4766H75.7485V17.7228H75.9948ZM75.9948 32.1799H75.7485V32.4262H75.9948V32.1799ZM87.1887 32.1799V32.4262H87.4349V32.1799H87.1887ZM87.1887 29.495H87.4349V29.2488H87.1887V29.495ZM79.5661 29.495V26.1492H79.0737V29.495H79.5661ZM79.3199 26.3955H86.0321V25.903H79.3199V26.3955ZM86.2784 26.1492V23.547H85.7859V26.1492H86.2784ZM86.0321 23.3007H79.3199V23.7932H86.0321V23.3007ZM79.5661 23.547V20.4077H79.0737V23.547H79.5661ZM79.3199 20.6539H86.9202V20.1615H79.3199V20.6539ZM87.1665 20.4077V17.7228H86.674V20.4077H87.1665ZM86.9202 17.4766H75.9948V17.969H86.9202V17.4766ZM75.7485 17.7228V32.1799H76.241V17.7228H75.7485ZM75.9948 32.4262H87.1887V31.9337H75.9948V32.4262ZM87.4349 32.1799V29.495H86.9425V32.1799H87.4349ZM87.1887 29.2488H79.3199V29.7413H87.1887V29.2488ZM99.8056 17.7228V17.4766H99.5594V17.7228H99.8056ZM99.8056 26.5003L99.6151 26.6563L100.052 27.1897V26.5003H99.8056ZM92.6184 17.7228L92.8089 17.5668L92.735 17.4766H92.6184V17.7228ZM89.8509 17.7228V17.4766H89.6046V17.7228H89.8509ZM89.8509 32.1799H89.6046V32.4262H89.8509V32.1799ZM93.1553 32.1799V32.4262H93.4016V32.1799H93.1553ZM93.1553 23.4024L93.3456 23.2461L92.9091 22.7146V23.4024H93.1553ZM100.363 32.1799L100.173 32.3362L100.247 32.4262H100.363V32.1799ZM103.11 32.1799V32.4262H103.356V32.1799H103.11ZM103.11 17.7228H103.356V17.4766H103.11V17.7228ZM99.5594 17.7228V26.5003H100.052V17.7228H99.5594ZM99.9961 26.3444L92.8089 17.5668L92.4279 17.8788L99.6151 26.6563L99.9961 26.3444ZM92.6184 17.4766H89.8509V17.969H92.6184V17.4766ZM89.6046 17.7228V32.1799H90.0971V17.7228H89.6046ZM89.8509 32.4262H93.1553V31.9337H89.8509V32.4262ZM93.4016 32.1799V23.4024H92.9091V32.1799H93.4016ZM92.9651 23.5586L100.173 32.3362L100.554 32.0237L93.3456 23.2461L92.9651 23.5586ZM100.363 32.4262H103.11V31.9337H100.363V32.4262ZM103.356 32.1799V17.7228H102.864V32.1799H103.356ZM103.11 17.4766H99.8056V17.969H103.11V17.4766Z" fill="#1C75BC"/>
<path d="M42.3701 1.01001V6.58984H5.97006V43H0.330078V1.01001H42.3701Z" fill="#9DC9EC" stroke="#1C75BC" stroke-width="0.5" stroke-miterlimit="10"/>
<path d="M112.44 43.05H106.84V6.63989H70.4001V1H112.44V43.04V43.05Z" fill="#9DC9EC" stroke="#1C75BC" stroke-width="0.5" stroke-miterlimit="10"/>
<path d="M112.44 113.12H70.47V107.52H106.79V71.0798H112.44V113.12Z" fill="#9DC9EC" stroke="#1C75BC" stroke-width="0.5" stroke-miterlimit="10"/>
<path d="M5.95016 107.49H42.3102V113.03H0.400146V71.1399H5.95016V107.5V107.49Z" fill="#9DC9EC" stroke="#1C75BC" stroke-width="0.5" stroke-miterlimit="10"/>
</svg>
