<svg width="118" height="118" viewBox="0 0 118 118" fill="none" xmlns="http://www.w3.org/2000/svg">
<path d="M35.1967 68.3254L30.411 61.4669C33.1849 60.2781 34.8004 57.9309 34.8004 54.7303C34.8004 49.9445 31.234 46.9877 25.5338 46.9877H16.2976V68.3254H21.2358V62.3814H25.5338H25.7777L29.8928 68.3254H35.1967ZM29.8013 54.7303C29.8013 57.0469 28.2772 58.4491 25.2594 58.4491H21.2358V51.0114H25.2594C28.2772 51.0114 29.8013 52.3831 29.8013 54.7303ZM43.6206 64.3627V59.4246H53.5274V55.5838H43.6206V50.9505H54.8381V46.9877H38.7129V68.3254H55.2344V64.3627H43.6206ZM75.1058 68.3254H80.2878L70.7468 46.9877H65.8696L56.3591 68.3254H61.4192L63.3091 63.7531H73.2159L75.1058 68.3254ZM64.8942 60.0037L68.2778 51.8345L71.6613 60.0037H64.8942ZM82.5016 68.3254H92.195C99.1755 68.3254 103.961 64.1189 103.961 57.6566C103.961 51.1943 99.1755 46.9877 92.195 46.9877H82.5016V68.3254ZM87.4398 64.2713V51.0419H91.9512C96.1882 51.0419 98.9621 53.572 98.9621 57.6566C98.9621 61.7412 96.1882 64.2713 91.9512 64.2713H87.4398Z" fill="#98CCFD"/>
<path d="M35.1967 68.3254V68.8017H36.1098L35.5873 68.0529L35.1967 68.3254ZM30.411 61.4669L30.2234 61.0291L29.6856 61.2596L30.0204 61.7394L30.411 61.4669ZM16.2976 46.9877V46.5115H15.8213V46.9877H16.2976ZM16.2976 68.3254H15.8213V68.8017H16.2976V68.3254ZM21.2358 68.3254V68.8017H21.7121V68.3254H21.2358ZM21.2358 62.3814V61.9051H20.7595V62.3814H21.2358ZM25.7776 62.3814L26.1693 62.1103L26.0272 61.9051H25.7776V62.3814ZM29.8928 68.3254L29.5012 68.5965L29.6432 68.8017H29.8928V68.3254ZM21.2358 58.4491H20.7595V58.9254H21.2358V58.4491ZM21.2358 51.0114V50.5351H20.7595V51.0114H21.2358ZM35.5873 68.0529L30.8016 61.1943L30.0204 61.7394L34.8061 68.598L35.5873 68.0529ZM30.5986 61.9047C33.5468 60.6412 35.2767 58.1224 35.2767 54.7303H34.3242C34.3242 57.7395 32.823 59.915 30.2234 61.0291L30.5986 61.9047ZM35.2767 54.7303C35.2767 52.2095 34.3322 50.1347 32.6097 48.6985C30.8972 47.2707 28.4616 46.5115 25.5338 46.5115V47.464C28.3062 47.464 30.504 48.1832 31.9997 49.4302C33.4854 50.6689 34.3242 52.4653 34.3242 54.7303H35.2767ZM25.5338 46.5115H16.2976V47.464H25.5338V46.5115ZM15.8213 46.9877V68.3254H16.7739V46.9877H15.8213ZM16.2976 68.8017H21.2358V67.8492H16.2976V68.8017ZM21.7121 68.3254V62.3814H20.7595V68.3254H21.7121ZM21.2358 62.8577H25.5338V61.9051H21.2358V62.8577ZM25.5338 62.8577H25.7776V61.9051H25.5338V62.8577ZM25.3861 62.6525L29.5012 68.5965L30.2844 68.0543L26.1693 62.1103L25.3861 62.6525ZM29.8928 68.8017H35.1967V67.8492H29.8928V68.8017ZM29.325 54.7303C29.325 55.7782 28.9849 56.5626 28.3548 57.0945C27.7123 57.6369 26.7023 57.9728 25.2594 57.9728V58.9254C26.8344 58.9254 28.0953 58.5602 28.9693 57.8224C29.8557 57.0741 30.2776 55.999 30.2776 54.7303H29.325ZM25.2594 57.9728H21.2358V58.9254H25.2594V57.9728ZM21.7121 58.4491V51.0114H20.7595V58.4491H21.7121ZM21.2358 51.4877H25.2594V50.5351H21.2358V51.4877ZM25.2594 51.4877C26.7046 51.4877 27.7143 51.8171 28.3559 52.3555C28.984 52.8827 29.325 53.6656 29.325 54.7303H30.2776C30.2776 53.4478 29.8566 52.3713 28.9682 51.6258C28.0933 50.8916 26.832 50.5351 25.2594 50.5351V51.4877ZM43.6206 64.3627H43.1443V64.839H43.6206V64.3627ZM43.6206 59.4246V58.9483H43.1443V59.4246H43.6206ZM53.5274 59.4246V59.9009H54.0037V59.4246H53.5274ZM53.5274 55.5838H54.0037V55.1075H53.5274V55.5838ZM43.6206 55.5838H43.1443V56.0601H43.6206V55.5838ZM43.6206 50.9505V50.4742H43.1443V50.9505H43.6206ZM54.8381 50.9505V51.4267H55.3144V50.9505H54.8381ZM54.8381 46.9877H55.3144V46.5115H54.8381V46.9877ZM38.7129 46.9877V46.5115H38.2366V46.9877H38.7129ZM38.7129 68.3254H38.2366V68.8017H38.7129V68.3254ZM55.2344 68.3254V68.8017H55.7107V68.3254H55.2344ZM55.2344 64.3627H55.7107V63.8864H55.2344V64.3627ZM44.0969 64.3627V59.4246H43.1443V64.3627H44.0969ZM43.6206 59.9009H53.5274V58.9483H43.6206V59.9009ZM54.0037 59.4246V55.5838H53.0511V59.4246H54.0037ZM53.5274 55.1075H43.6206V56.0601H53.5274V55.1075ZM44.0969 55.5838V50.9505H43.1443V55.5838H44.0969ZM43.6206 51.4267H54.8381V50.4742H43.6206V51.4267ZM55.3144 50.9505V46.9877H54.3618V50.9505H55.3144ZM54.8381 46.5115H38.7129V47.464H54.8381V46.5115ZM38.2366 46.9877V68.3254H39.1892V46.9877H38.2366ZM38.7129 68.8017H55.2344V67.8492H38.7129V68.8017ZM55.7107 68.3254V64.3627H54.7581V68.3254H55.7107ZM55.2344 63.8864H43.6206V64.839H55.2344V63.8864ZM75.1058 68.3254L74.6656 68.5074L74.7873 68.8017H75.1058V68.3254ZM80.2878 68.3254V68.8017H81.0225L80.7226 68.131L80.2878 68.3254ZM70.7468 46.9877L71.1816 46.7933L71.0556 46.5115H70.7468V46.9877ZM65.8696 46.9877V46.5115H65.5605L65.4346 46.7938L65.8696 46.9877ZM56.3591 68.3254L55.9241 68.1315L55.6254 68.8017H56.3591V68.3254ZM61.4192 68.3254V68.8017H61.7377L61.8594 68.5074L61.4192 68.3254ZM63.3091 63.7531V63.2768H62.9906L62.869 63.5711L63.3091 63.7531ZM73.2159 63.7531L73.6561 63.5711L73.5344 63.2768H73.2159V63.7531ZM64.8942 60.0037L64.4542 59.8215L64.1814 60.48H64.8942V60.0037ZM68.2778 51.8345L68.7178 51.6522L68.2778 50.5898L67.8377 51.6522L68.2778 51.8345ZM71.6613 60.0037V60.48H72.3741L72.1013 59.8215L71.6613 60.0037ZM75.1058 68.8017H80.2878V67.8492H75.1058V68.8017ZM80.7226 68.131L71.1816 46.7933L70.312 47.1822L79.853 68.5199L80.7226 68.131ZM70.7468 46.5115H65.8696V47.464H70.7468V46.5115ZM65.4346 46.7938L55.9241 68.1315L56.7942 68.5193L66.3047 47.1816L65.4346 46.7938ZM56.3591 68.8017H61.4192V67.8492H56.3591V68.8017ZM61.8594 68.5074L63.7493 63.935L62.869 63.5711L60.979 68.1435L61.8594 68.5074ZM63.3091 64.2294H73.2159V63.2768H63.3091V64.2294ZM72.7757 63.935L74.6656 68.5074L75.546 68.1435L73.6561 63.5711L72.7757 63.935ZM65.3342 60.186L68.7178 52.0167L67.8377 51.6522L64.4542 59.8215L65.3342 60.186ZM67.8377 52.0167L71.2213 60.186L72.1013 59.8215L68.7178 51.6522L67.8377 52.0167ZM71.6613 59.5275H64.8942V60.48H71.6613V59.5275ZM82.5016 68.3254H82.0253V68.8017H82.5016V68.3254ZM82.5016 46.9877V46.5115H82.0253V46.9877H82.5016ZM87.4398 64.2713H86.9635V64.7476H87.4398V64.2713ZM87.4398 51.0419V50.5656H86.9635V51.0419H87.4398ZM82.5016 68.8017H92.195V67.8492H82.5016V68.8017ZM92.195 68.8017C95.7796 68.8017 98.8419 67.7208 101.014 65.7686C103.191 63.812 104.438 61.0123 104.438 57.6566H103.485C103.485 60.7632 102.338 63.2979 100.377 65.0601C98.4117 66.8268 95.5909 67.8492 92.195 67.8492V68.8017ZM104.438 57.6566C104.438 54.3009 103.191 51.5012 101.014 49.5446C98.8419 47.5924 95.7796 46.5115 92.195 46.5115V47.464C95.5909 47.464 98.4117 48.4864 100.377 50.2531C102.338 52.0153 103.485 54.55 103.485 57.6566H104.438ZM92.195 46.5115H82.5016V47.464H92.195V46.5115ZM82.0253 46.9877V68.3254H82.9779V46.9877H82.0253ZM87.9161 64.2713V51.0419H86.9635V64.2713H87.9161ZM87.4398 51.5182H91.9512V50.5656H87.4398V51.5182ZM91.9512 51.5182C93.9758 51.5182 95.6033 52.1215 96.7203 53.1655C97.8336 54.206 98.4858 55.7266 98.4858 57.6566H99.4384C99.4384 55.5019 98.7036 53.7152 97.3708 52.4695C96.0416 51.2273 94.1635 50.5656 91.9512 50.5656V51.5182ZM98.4858 57.6566C98.4858 59.5866 97.8336 61.1072 96.7203 62.1477C95.6033 63.1917 93.9758 63.795 91.9512 63.795V64.7476C94.1635 64.7476 96.0416 64.0859 97.3708 62.8437C98.7036 61.598 99.4384 59.8113 99.4384 57.6566H98.4858ZM91.9512 63.795H87.4398V64.7476H91.9512V63.795Z" fill="#4788C7"/>
<path d="M1.13965 47.3401H10.7796V10.9199H47.1796V1.34009H1.13965V47.3401Z" fill="#98CCFD" stroke="#4788C7" stroke-miterlimit="10"/>
<path d="M71.2095 1.34009V10.98H107.649V47.3801H117.25V1.34009H71.2095Z" fill="#98CCFD" stroke="#4788C7" stroke-miterlimit="10"/>
<path d="M107.6 107.85H71.2795V117.45H117.25V71.4099H107.6V107.85Z" fill="#98CCFD" stroke="#4788C7" stroke-miterlimit="10"/>
<path d="M10.7595 71.47H1.20947V117.36H47.1195V107.83H10.7595V71.47Z" fill="#98CCFD" stroke="#4788C7" stroke-miterlimit="10"/>
</svg>
