<svg width="50" height="50" viewBox="0 0 50 50" fill="none" xmlns="http://www.w3.org/2000/svg">
<path d="M3.125 3.125H46.875V46.875H3.125V3.125Z" fill="white"/>
<path d="M46.25 3.75V46.25H3.75V3.75H46.25ZM47.5 2.5H2.5V47.5H47.5V2.5Z" fill="#4788C7"/>
<path d="M12.5 3.75L12.5 46.25H11.25L11.25 3.75H12.5Z" fill="#98CCFD"/>
<path d="M21.25 3.75L21.25 46.25H20L20 3.75H21.25Z" fill="#98CCFD"/>
<path d="M30 3.75L30 46.25H28.75L28.75 3.75H30Z" fill="#98CCFD"/>
<path d="M38.75 3.75V46.25H37.5V3.75H38.75Z" fill="#98CCFD"/>
<path d="M46.25 12.5L3.75 12.5V11.25L46.25 11.25V12.5Z" fill="#98CCFD"/>
<path d="M46.25 21.25L3.75 21.25V20L46.25 20V21.25Z" fill="#98CCFD"/>
<path d="M46.25 30L3.75 30V28.75L46.25 28.75V30Z" fill="#98CCFD"/>
<path d="M46.25 38.75L3.75 38.75V37.5L46.25 37.5V38.75Z" fill="#98CCFD"/>
</svg>
