<svg width="118" height="118" viewBox="0 0 118 118" fill="none" xmlns="http://www.w3.org/2000/svg">
<path d="M32.6774 68.3389H38.7986L28.8557 55.7725L38.2481 45.6676H32.4183L22.3782 56.2583V45.6676H17.1638V68.3389H22.3782V62.6063L25.4226 59.4323L32.6774 68.3389ZM46.3525 64.1285V58.8817H56.8785V54.8009H46.3525V49.878H58.2712V45.6676H41.1381V68.3389H58.6922V64.1285H46.3525ZM82.3372 45.6676H77.1875L71.1311 55.7401L65.0746 45.6676H59.5039L68.2809 60.242V68.3389H73.5277V60.3068L82.3372 45.6676ZM91.5071 68.7275C97.9846 68.7275 101.126 65.4888 101.126 61.6994C101.126 53.3758 87.9445 56.2583 87.9445 52.0803C87.9445 50.6553 89.1428 49.4893 92.2521 49.4893C94.2601 49.4893 96.43 50.0723 98.5352 51.2706L100.155 47.2869C98.0494 45.9591 95.1345 45.2789 92.2844 45.2789C85.8393 45.2789 82.7301 48.4853 82.7301 52.3394C82.7301 60.7602 95.9118 57.8453 95.9118 62.0881C95.9118 63.4807 94.6487 64.5171 91.5395 64.5171C88.819 64.5171 85.9689 63.5455 84.058 62.1528L82.2767 66.1041C84.2847 67.6587 87.9121 68.7275 91.5071 68.7275Z" fill="#98CCFD"/>
<path d="M32.6774 68.3389L32.3081 68.6397L32.4511 68.8152H32.6774V68.3389ZM38.7986 68.3389V68.8152H39.7829L39.1722 68.0433L38.7986 68.3389ZM28.8557 55.7725L28.5068 55.4482L28.2286 55.7476L28.4822 56.068L28.8557 55.7725ZM38.2481 45.6676L38.5969 45.9918L39.341 45.1913H38.2481V45.6676ZM32.4183 45.6676V45.1913H32.2135L32.0726 45.3399L32.4183 45.6676ZM22.3782 56.2583H21.9019V57.453L22.7238 56.586L22.3782 56.2583ZM22.3782 45.6676H22.8544V45.1913H22.3782V45.6676ZM17.1638 45.6676V45.1913H16.6875V45.6676H17.1638ZM17.1638 68.3389H16.6875V68.8152H17.1638V68.3389ZM22.3782 68.3389V68.8152H22.8544V68.3389H22.3782ZM22.3782 62.6063L22.0344 62.2766L21.9019 62.4148V62.6063H22.3782ZM25.4226 59.4323L25.7919 59.1315L25.4517 58.7139L25.0789 59.1026L25.4226 59.4323ZM32.6774 68.8152H38.7986V67.8626H32.6774V68.8152ZM39.1722 68.0433L29.2292 55.477L28.4822 56.068L38.4251 68.6344L39.1722 68.0433ZM29.2045 56.0968L38.5969 45.9918L37.8992 45.3433L28.5068 55.4482L29.2045 56.0968ZM38.2481 45.1913H32.4183V46.1439H38.2481V45.1913ZM32.0726 45.3399L22.0325 55.9306L22.7238 56.586L32.7639 45.9953L32.0726 45.3399ZM22.8544 56.2583V45.6676H21.9019V56.2583H22.8544ZM22.3782 45.1913H17.1638V46.1439H22.3782V45.1913ZM16.6875 45.6676V68.3389H17.64V45.6676H16.6875ZM17.1638 68.8152H22.3782V67.8626H17.1638V68.8152ZM22.8544 68.3389V62.6063H21.9019V68.3389H22.8544ZM22.7219 62.936L25.7663 59.762L25.0789 59.1026L22.0344 62.2766L22.7219 62.936ZM25.0533 59.7331L32.3081 68.6397L33.0467 68.0381L25.7919 59.1315L25.0533 59.7331ZM46.3525 64.1285H45.8763V64.6048H46.3525V64.1285ZM46.3525 58.8817V58.4054H45.8763V58.8817H46.3525ZM56.8785 58.8817V59.358H57.3548V58.8817H56.8785ZM56.8785 54.8009H57.3548V54.3246H56.8785V54.8009ZM46.3525 54.8009H45.8763V55.2772H46.3525V54.8009ZM46.3525 49.878V49.4017H45.8763V49.878H46.3525ZM58.2712 49.878V50.3542H58.7475V49.878H58.2712ZM58.2712 45.6676H58.7475V45.1913H58.2712V45.6676ZM41.1381 45.6676V45.1913H40.6619V45.6676H41.1381ZM41.1381 68.3389H40.6619V68.8152H41.1381V68.3389ZM58.6922 68.3389V68.8152H59.1685V68.3389H58.6922ZM58.6922 64.1285H59.1685V63.6522H58.6922V64.1285ZM46.8288 64.1285V58.8817H45.8763V64.1285H46.8288ZM46.3525 59.358H56.8785V58.4054H46.3525V59.358ZM57.3548 58.8817V54.8009H56.4022V58.8817H57.3548ZM56.8785 54.3246H46.3525V55.2772H56.8785V54.3246ZM46.8288 54.8009V49.878H45.8763V54.8009H46.8288ZM46.3525 50.3542H58.2712V49.4017H46.3525V50.3542ZM58.7475 49.878V45.6676H57.7949V49.878H58.7475ZM58.2712 45.1913H41.1381V46.1439H58.2712V45.1913ZM40.6619 45.6676V68.3389H41.6144V45.6676H40.6619ZM41.1381 68.8152H58.6922V67.8626H41.1381V68.8152ZM59.1685 68.3389V64.1285H58.2159V68.3389H59.1685ZM58.6922 63.6522H46.3525V64.6048H58.6922V63.6522ZM82.3372 45.6676L82.7452 45.9131L83.1796 45.1913H82.3372V45.6676ZM77.1875 45.6676V45.1913H76.9182L76.7793 45.4221L77.1875 45.6676ZM71.1311 55.7401L70.7229 55.9855L71.1311 56.6644L71.5392 55.9855L71.1311 55.7401ZM65.0746 45.6676L65.4828 45.4221L65.344 45.1913H65.0746V45.6676ZM59.5039 45.6676V45.1913H58.6611L59.0959 45.9133L59.5039 45.6676ZM68.2809 60.242H68.7572V60.1096L68.689 59.9963L68.2809 60.242ZM68.2809 68.3389H67.8047V68.8152H68.2809V68.3389ZM73.5277 68.3389V68.8152H74.004V68.3389H73.5277ZM73.5277 60.3068L73.1196 60.0612L73.0514 60.1745V60.3068H73.5277ZM82.3372 45.1913H77.1875V46.1439H82.3372V45.1913ZM76.7793 45.4221L70.7229 55.4947L71.5392 55.9855L77.5957 45.913L76.7793 45.4221ZM71.5392 55.4947L65.4828 45.4221L64.6664 45.913L70.7229 55.9855L71.5392 55.4947ZM65.0746 45.1913H59.5039V46.1439H65.0746V45.1913ZM59.0959 45.9133L67.8729 60.4877L68.689 59.9963L59.9119 45.4219L59.0959 45.9133ZM67.8047 60.242V68.3389H68.7572V60.242H67.8047ZM68.2809 68.8152H73.5277V67.8626H68.2809V68.8152ZM74.004 68.3389V60.3068H73.0514V68.3389H74.004ZM73.9358 60.5523L82.7452 45.9131L81.9291 45.422L73.1196 60.0612L73.9358 60.5523ZM98.5352 51.2706L98.2996 51.6845L98.7718 51.9533L98.9765 51.45L98.5352 51.2706ZM100.155 47.2869L100.596 47.4663L100.746 47.0969L100.409 46.8841L100.155 47.2869ZM84.058 62.1528L84.3385 61.7679L83.8647 61.4226L83.6238 61.9571L84.058 62.1528ZM82.2767 66.1041L81.8425 65.9084L81.6881 66.2508L81.9851 66.4807L82.2767 66.1041ZM91.5071 69.2038C94.8212 69.2038 97.3419 68.3753 99.0443 67.0056C100.754 65.6297 101.603 63.7349 101.603 61.6994H100.65C100.65 63.4532 99.9273 65.0725 98.4472 66.2634C96.9594 67.4604 94.6706 68.2512 91.5071 68.2512V69.2038ZM101.603 61.6994C101.603 59.4669 100.707 57.9498 99.3598 56.8971C98.0411 55.8667 96.3101 55.2972 94.6533 54.8738C92.9493 54.4384 91.3754 54.1652 90.1663 53.7275C89.5719 53.5124 89.1275 53.2765 88.8363 53.004C88.5613 52.7467 88.4208 52.4567 88.4208 52.0803H87.4682C87.4682 52.7485 87.7396 53.2823 88.1855 53.6995C88.6152 54.1016 89.2007 54.3911 89.842 54.6232C91.1045 55.0802 92.826 55.3901 94.4175 55.7967C96.0561 56.2154 97.6205 56.747 98.7734 57.6478C99.8976 58.5261 100.65 59.7701 100.65 61.6994H101.603ZM88.4208 52.0803C88.4208 51.5203 88.6466 51.022 89.2008 50.6438C89.7783 50.2498 90.746 49.9656 92.2521 49.9656V49.013C90.6489 49.013 89.4629 49.3118 88.6639 49.857C87.8416 50.4181 87.4682 51.2153 87.4682 52.0803H88.4208ZM92.2521 49.9656C94.1685 49.9656 96.258 50.5224 98.2996 51.6845L98.7709 50.8567C96.6021 49.6221 94.3516 49.013 92.2521 49.013V49.9656ZM98.9765 51.45L100.596 47.4663L99.7134 47.1076L98.094 51.0913L98.9765 51.45ZM100.409 46.8841C98.2081 45.496 95.1984 44.8026 92.2844 44.8026V45.7552C95.0707 45.7552 97.8908 46.4221 99.9005 47.6898L100.409 46.8841ZM92.2844 44.8026C88.9872 44.8026 86.4816 45.6228 84.7904 46.9939C83.091 48.3717 82.2538 50.2752 82.2538 52.3394H83.2064C83.2064 50.5495 83.9238 48.9228 85.3903 47.7338C86.865 46.5383 89.1365 45.7552 92.2844 45.7552V44.8026ZM82.2538 52.3394C82.2538 54.594 83.1473 56.1269 84.4943 57.1921C85.8131 58.2349 87.5444 58.812 89.2015 59.2415C90.0307 59.4565 90.8699 59.6411 91.6305 59.8226C92.4009 60.0066 93.0982 60.1891 93.6877 60.4061C94.2815 60.6247 94.7258 60.8644 95.0172 61.1416C95.2928 61.4037 95.4356 61.701 95.4356 62.0881H96.3881C96.3881 61.4144 96.1189 60.8748 95.6737 60.4513C95.2442 60.0429 94.6587 59.7484 94.0167 59.5121C93.3704 59.2742 92.6259 59.0809 91.8517 58.8961C91.0675 58.7089 90.259 58.5316 89.4405 58.3194C87.8021 57.8947 86.238 57.3565 85.0852 56.4449C83.9606 55.5557 83.2064 54.2952 83.2064 52.3394H82.2538ZM95.4356 62.0881C95.4356 62.613 95.2108 63.0694 94.6421 63.4191C94.045 63.7863 93.0537 64.0408 91.5395 64.0408V64.9934C93.1346 64.9934 94.3294 64.7297 95.1411 64.2306C95.9813 63.7139 96.3881 62.9558 96.3881 62.0881H95.4356ZM91.5395 64.0408C88.9181 64.0408 86.1665 63.1002 84.3385 61.7679L83.7775 62.5378C85.7712 63.9908 88.7199 64.9934 91.5395 64.9934V64.0408ZM83.6238 61.9571L81.8425 65.9084L82.7109 66.2999L84.4922 62.3486L83.6238 61.9571ZM81.9851 66.4807C84.1011 68.1189 87.8424 69.2038 91.5071 69.2038V68.2512C87.9818 68.2512 84.4683 67.1985 82.5683 65.7275L81.9851 66.4807Z" fill="#4788C7"/>
<path d="M0.540039 47.26H10.1799V10.8501H46.58V1.27002H0.540039V47.26Z" fill="#98CCFD" stroke="#4788C7" stroke-miterlimit="10"/>
<path d="M70.6099 1.27002V10.8999H107.05V47.3101H116.65V1.27002H70.6099Z" fill="#98CCFD" stroke="#4788C7" stroke-miterlimit="10"/>
<path d="M107 107.78H70.6799V117.38H116.65V71.3401H107V107.78Z" fill="#98CCFD" stroke="#4788C7" stroke-miterlimit="10"/>
<path d="M10.1599 71.3999H0.609863V117.29H46.5199V107.75H10.1599V71.3999Z" fill="#98CCFD" stroke="#4788C7" stroke-miterlimit="10"/>
</svg>
