<svg width="113" height="114" viewBox="0 0 113 114" fill="none" xmlns="http://www.w3.org/2000/svg">
<path d="M67.609 98.0999H70.5983L65.7427 91.9631L70.3294 87.0284H67.4825L62.5794 92.2004V87.0284H60.033V98.0999H62.5794V95.3004L64.0661 93.7504L67.609 98.0999ZM74.2872 96.0437V93.4815H79.4275V91.4886H74.2872V89.0846H80.1076V87.0284H71.7407V98.0999H80.3132V96.0437H74.2872ZM91.8601 87.0284H89.3453L86.3876 91.9473L83.43 87.0284H80.7096L84.9958 94.1458V98.0999H87.558V94.1774L91.8601 87.0284ZM96.3382 98.2896C99.5015 98.2896 101.036 96.708 101.036 94.8575C101.036 90.7927 94.5984 92.2004 94.5984 90.1601C94.5984 89.4641 95.1836 88.8948 96.702 88.8948C97.6826 88.8948 98.7423 89.1795 99.7703 89.7647L100.561 87.8193C99.5331 87.1708 98.1096 86.8386 96.7178 86.8386C93.5703 86.8386 92.052 88.4045 92.052 90.2866C92.052 94.3988 98.4892 92.9754 98.4892 95.0473C98.4892 95.7274 97.8724 96.2335 96.354 96.2335C95.0254 96.2335 93.6336 95.759 92.7004 95.0789L91.8306 97.0085C92.8112 97.7677 94.5826 98.2896 96.3382 98.2896Z" fill="#9DC9EC"/>
<path d="M67.609 98.0999L67.4241 98.2505L67.4957 98.3383H67.609V98.0999ZM70.5983 98.0999V98.3383H71.0911L70.7853 97.9519L70.5983 98.0999ZM65.7427 91.9631L65.568 91.8008L65.4287 91.9506L65.5556 92.1111L65.7427 91.9631ZM70.3294 87.0284L70.5041 87.1908L70.8767 86.7899H70.3294V87.0284ZM67.4825 87.0284V86.7899H67.3799L67.3094 86.8644L67.4825 87.0284ZM62.5794 92.2004H62.3409V92.7986L62.7525 92.3644L62.5794 92.2004ZM62.5794 87.0284H62.8179V86.7899H62.5794V87.0284ZM60.033 87.0284V86.7899H59.7945V87.0284H60.033ZM60.033 98.0999H59.7945V98.3383H60.033V98.0999ZM62.5794 98.0999V98.3383H62.8179V98.0999H62.5794ZM62.5794 95.3004L62.4073 95.1353L62.3409 95.2045V95.3004H62.5794ZM64.0661 93.7504L64.251 93.5998L64.0807 93.3906L63.894 93.5853L64.0661 93.7504ZM67.609 98.3383H70.5983V97.8614H67.609V98.3383ZM70.7853 97.9519L65.9297 91.8151L65.5556 92.1111L70.4112 98.2478L70.7853 97.9519ZM65.9173 92.1255L70.5041 87.1908L70.1547 86.8661L65.568 91.8008L65.9173 92.1255ZM70.3294 86.7899H67.4825V87.2669H70.3294V86.7899ZM67.3094 86.8644L62.4063 92.0363L62.7525 92.3644L67.6555 87.1925L67.3094 86.8644ZM62.8179 92.2004V87.0284H62.3409V92.2004H62.8179ZM62.5794 86.7899H60.033V87.2669H62.5794V86.7899ZM59.7945 87.0284V98.0999H60.2715V87.0284H59.7945ZM60.033 98.3383H62.5794V97.8614H60.033V98.3383ZM62.8179 98.0999V95.3004H62.3409V98.0999H62.8179ZM62.7515 95.4655L64.2382 93.9155L63.894 93.5853L62.4073 95.1353L62.7515 95.4655ZM63.8812 93.901L67.4241 98.2505L67.7939 97.9492L64.251 93.5998L63.8812 93.901ZM74.2872 96.0437H74.0487V96.2822H74.2872V96.0437ZM74.2872 93.4815V93.243H74.0487V93.4815H74.2872ZM79.4275 93.4815V93.72H79.666V93.4815H79.4275ZM79.4275 91.4886H79.666V91.2501H79.4275V91.4886ZM74.2872 91.4886H74.0487V91.7271H74.2872V91.4886ZM74.2872 89.0846V88.8461H74.0487V89.0846H74.2872ZM80.1076 89.0846V89.323H80.3461V89.0846H80.1076ZM80.1076 87.0284H80.3461V86.7899H80.1076V87.0284ZM71.7407 87.0284V86.7899H71.5023V87.0284H71.7407ZM71.7407 98.0999H71.5023V98.3383H71.7407V98.0999ZM80.3132 98.0999V98.3383H80.5517V98.0999H80.3132ZM80.3132 96.0437H80.5517V95.8052H80.3132V96.0437ZM74.5257 96.0437V93.4815H74.0487V96.0437H74.5257ZM74.2872 93.72H79.4275V93.243H74.2872V93.72ZM79.666 93.4815V91.4886H79.189V93.4815H79.666ZM79.4275 91.2501H74.2872V91.7271H79.4275V91.2501ZM74.5257 91.4886V89.0846H74.0487V91.4886H74.5257ZM74.2872 89.323H80.1076V88.8461H74.2872V89.323ZM80.3461 89.0846V87.0284H79.8691V89.0846H80.3461ZM80.1076 86.7899H71.7407V87.2669H80.1076V86.7899ZM71.5023 87.0284V98.0999H71.9792V87.0284H71.5023ZM71.7407 98.3383H80.3132V97.8614H71.7407V98.3383ZM80.5517 98.0999V96.0437H80.0747V98.0999H80.5517ZM80.3132 95.8052H74.2872V96.2822H80.3132V95.8052ZM91.8601 87.0284L92.0644 87.1514L92.2819 86.7899H91.8601V87.0284ZM89.3453 87.0284V86.7899H89.2104L89.1409 86.9055L89.3453 87.0284ZM86.3876 91.9473L86.1833 92.0702L86.3876 92.4101L86.592 92.0702L86.3876 91.9473ZM83.43 87.0284L83.6344 86.9055L83.5649 86.7899H83.43V87.0284ZM80.7096 87.0284V86.7899H80.2876L80.5053 87.1515L80.7096 87.0284ZM84.9958 94.1458H85.2343V94.0795L85.2001 94.0227L84.9958 94.1458ZM84.9958 98.0999H84.7573V98.3383H84.9958V98.0999ZM87.558 98.0999V98.3383H87.7965V98.0999H87.558ZM87.558 94.1774L87.3537 94.0544L87.3196 94.1112V94.1774H87.558ZM91.8601 86.7899H89.3453V87.2669H91.8601V86.7899ZM89.1409 86.9055L86.1833 91.8244L86.592 92.0702L89.5497 87.1513L89.1409 86.9055ZM86.592 91.8244L83.6344 86.9055L83.2256 87.1513L86.1833 92.0702L86.592 91.8244ZM83.43 86.7899H80.7096V87.2669H83.43V86.7899ZM80.5053 87.1515L84.7915 94.2688L85.2001 94.0227L80.9139 86.9054L80.5053 87.1515ZM84.7573 94.1458V98.0999H85.2343V94.1458H84.7573ZM84.9958 98.3383H87.558V97.8614H84.9958V98.3383ZM87.7965 98.0999V94.1774H87.3196V98.0999H87.7965ZM87.7624 94.3004L92.0644 87.1514L91.6557 86.9055L87.3537 94.0544L87.7624 94.3004ZM99.7703 89.7647L99.6524 89.9719L99.8888 90.1065L99.9913 89.8545L99.7703 89.7647ZM100.561 87.8193L100.782 87.9091L100.857 87.7241L100.688 87.6175L100.561 87.8193ZM92.7005 95.0789L92.8409 94.8862L92.6037 94.7133L92.483 94.9809L92.7005 95.0789ZM91.8306 97.0085L91.6131 96.9105L91.5358 97.082L91.6846 97.1971L91.8306 97.0085ZM96.3382 98.5281C97.9576 98.5281 99.1899 98.1233 100.023 97.4533C100.859 96.7803 101.274 95.8533 101.274 94.8575H100.797C100.797 95.7122 100.445 96.5013 99.7236 97.0817C98.9984 97.6652 97.8821 98.0512 96.3382 98.0512V98.5281ZM101.274 94.8575C101.274 93.7654 100.836 93.0229 100.177 92.5077C99.5316 92.0037 98.6853 91.7253 97.8761 91.5185C97.0432 91.3057 96.2755 91.1726 95.6854 90.9589C95.3954 90.854 95.1793 90.7391 95.038 90.6068C94.9047 90.4822 94.8369 90.342 94.8369 90.1601H94.3599C94.3599 90.4882 94.4933 90.7504 94.7121 90.9551C94.9228 91.1523 95.2095 91.2939 95.523 91.4074C96.1399 91.6307 96.9815 91.7823 97.758 91.9807C98.5581 92.1851 99.321 92.4445 99.883 92.8835C100.431 93.3114 100.797 93.9172 100.797 94.8575H101.274ZM94.8369 90.1601C94.8369 89.8885 94.9462 89.647 95.2152 89.4634C95.4959 89.2719 95.9671 89.1332 96.702 89.1332V88.6563C95.9185 88.6563 95.3379 88.8023 94.9464 89.0694C94.5432 89.3446 94.3599 89.7357 94.3599 90.1601H94.8369ZM96.702 89.1332C97.6367 89.1332 98.6562 89.4048 99.6524 89.9719L99.8883 89.5574C98.8284 88.9541 97.7284 88.6563 96.702 88.6563V89.1332ZM99.9913 89.8545L100.782 87.9091L100.34 87.7294L99.5494 89.6748L99.9913 89.8545ZM100.688 87.6175C99.6125 86.9389 98.1416 86.6002 96.7178 86.6002V87.0771C98.0777 87.0771 99.4537 87.4026 100.434 88.021L100.688 87.6175ZM96.7178 86.6002C95.1067 86.6002 93.8816 87.0009 93.0544 87.6716C92.2231 88.3456 91.8135 89.2769 91.8135 90.2866H92.2905C92.2905 89.4142 92.6401 88.6215 93.3548 88.0421C94.0736 87.4593 95.1815 87.0771 96.7178 87.0771V86.6002ZM91.8135 90.2866C91.8135 91.3895 92.2507 92.1397 92.9099 92.661C93.5549 93.1711 94.4014 93.4531 95.2108 93.6629C95.6158 93.7679 96.0258 93.8581 96.3971 93.9467C96.7733 94.0365 97.1135 94.1256 97.401 94.2314C97.6907 94.3381 97.9068 94.4548 98.0483 94.5893C98.1818 94.7164 98.2507 94.8601 98.2507 95.0473H98.7277C98.7277 94.7166 98.5955 94.4515 98.377 94.2437C98.1664 94.0435 97.8796 93.8993 97.5658 93.7838C97.2498 93.6675 96.8859 93.5731 96.5078 93.4828C96.1247 93.3913 95.7301 93.3048 95.3304 93.2012C94.5305 92.9938 93.7677 92.7312 93.2057 92.2869C92.6579 91.8537 92.2905 91.2399 92.2905 90.2866H91.8135ZM98.2507 95.0473C98.2507 95.3015 98.1421 95.5226 97.8661 95.6923C97.5758 95.8708 97.093 95.995 96.354 95.995V96.472C97.1334 96.472 97.7182 96.3432 98.1159 96.0986C98.5279 95.8453 98.7277 95.4732 98.7277 95.0473H98.2507ZM96.354 95.995C95.0751 95.995 93.7326 95.5361 92.8409 94.8862L92.56 95.2717C93.5346 95.982 94.9758 96.472 96.354 96.472V95.995ZM92.483 94.9809L91.6131 96.9105L92.048 97.1065L92.9179 95.177L92.483 94.9809ZM91.6846 97.1971C92.7192 97.9981 94.5477 98.5281 96.3382 98.5281V98.0512C94.6175 98.0512 92.9031 97.5373 91.9765 96.82L91.6846 97.1971Z" fill="#1C75BC"/>
<path d="M23.5342 32.4278C27.6648 32.4278 29.6682 30.3625 29.6682 27.9461C29.6682 22.6382 21.2624 24.4763 21.2624 21.8121C21.2624 20.9034 22.0266 20.1599 24.0093 20.1599C25.2897 20.1599 26.6735 20.5316 28.0159 21.2958L29.0486 18.7554C27.7061 17.9087 25.8474 17.475 24.0299 17.475C19.9199 17.475 17.9373 19.5196 17.9373 21.9773C17.9373 27.3471 26.343 25.4883 26.343 28.1939C26.343 29.082 25.5376 29.7429 23.5549 29.7429C21.82 29.7429 20.0026 29.1233 18.784 28.2352L17.6481 30.7549C18.9286 31.7462 21.2417 32.4278 23.5342 32.4278ZM38.8732 32.4278C41.3928 32.4278 43.4788 31.519 44.8419 29.8461L42.694 27.8634C41.7233 28.9994 40.5047 29.5776 39.059 29.5776C36.3535 29.5776 34.4328 27.6776 34.4328 24.9514C34.4328 22.2252 36.3535 20.3251 39.059 20.3251C40.5047 20.3251 41.7233 20.9034 42.694 22.0186L44.8419 20.0359C43.4788 18.3837 41.3928 17.475 38.8938 17.475C34.3914 17.475 31.0457 20.5936 31.0457 24.9514C31.0457 29.3092 34.3914 32.4278 38.8732 32.4278ZM59.9062 32.1799L56.6637 27.533C58.5431 26.7275 59.6377 25.1372 59.6377 22.9687C59.6377 19.7261 57.2213 17.7228 53.3592 17.7228H47.1013V32.1799H50.4471V28.1526H53.3592H53.5244L56.3126 32.1799H59.9062ZM56.2506 22.9687C56.2506 24.5383 55.218 25.4883 53.1733 25.4883H50.4471V20.449H53.1733C55.218 20.449 56.2506 21.3784 56.2506 22.9687ZM65.6137 29.495V26.1492H72.3259V23.547H65.6137V20.4077H73.214V17.7228H62.2886V32.1799H73.4825V29.495H65.6137ZM79.4698 29.495V26.1492H86.182V23.547H79.4698V20.4077H87.0701V17.7228H76.1447V32.1799H87.3386V29.495H79.4698ZM99.9555 17.7228V26.5003L92.7683 17.7228H90.0008V32.1799H93.3053V23.4024L100.513 32.1799H103.26V17.7228H99.9555Z" fill="#9DC9EC"/>
<path d="M28.0159 21.2958L27.8941 21.5098L28.1383 21.6487L28.244 21.3885L28.0159 21.2958ZM29.0486 18.7554L29.2767 18.8482L29.3543 18.6572L29.18 18.5472L29.0486 18.7554ZM18.784 28.2352L18.929 28.0362L18.6841 27.8577L18.5596 28.134L18.784 28.2352ZM17.6481 30.7549L17.4236 30.6537L17.3438 30.8307L17.4974 30.9496L17.6481 30.7549ZM23.5342 32.674C25.6385 32.674 27.2319 32.1479 28.3045 31.2849C29.3811 30.4187 29.9144 29.2271 29.9144 27.9461H29.422C29.422 29.0814 28.9536 30.1307 27.9958 30.9012C27.0342 31.675 25.5606 32.1815 23.5342 32.1815V32.674ZM29.9144 27.9461C29.9144 26.5407 29.3521 25.5898 28.5064 24.929C27.6754 24.2798 26.5817 23.9189 25.5262 23.6492C24.4464 23.3733 23.4339 23.1968 22.6596 22.9166C22.2777 22.7783 21.9859 22.6247 21.7918 22.4431C21.6061 22.2694 21.5086 22.0697 21.5086 21.8121H21.0162C21.0162 22.2206 21.1813 22.5463 21.4553 22.8027C21.721 23.0513 22.0858 23.2326 22.492 23.3796C23.2938 23.6699 24.3827 23.8652 25.4043 24.1263C26.4503 24.3936 27.458 24.7349 28.2032 25.3171C28.9336 25.8877 29.422 26.6975 29.422 27.9461H29.9144ZM21.5086 21.8121C21.5086 21.4366 21.6615 21.1008 22.0311 20.8486C22.4127 20.5882 23.043 20.4061 24.0093 20.4061V19.9136C22.9928 19.9136 22.2497 20.1033 21.7535 20.4418C21.2454 20.7886 21.0162 21.2789 21.0162 21.8121H21.5086ZM24.0093 20.4061C25.2424 20.4061 26.5846 20.7643 27.8941 21.5098L28.1377 21.0818C26.7624 20.2989 25.3371 19.9136 24.0093 19.9136V20.4061ZM28.244 21.3885L29.2767 18.8482L28.8205 18.6627L27.7878 21.203L28.244 21.3885ZM29.18 18.5472C27.7882 17.6693 25.8804 17.2287 24.0299 17.2287V17.7212C25.8144 17.7212 27.6241 18.1481 28.9172 18.9637L29.18 18.5472ZM24.0299 17.2287C21.9363 17.2287 20.3527 17.7495 19.2873 18.6132C18.2176 19.4804 17.691 20.6776 17.691 21.9773H18.1835C18.1835 20.8193 18.6482 19.7653 19.5974 18.9958C20.5509 18.2228 22.0135 17.7212 24.0299 17.7212V17.2287ZM17.691 21.9773C17.691 23.397 18.2524 24.3581 19.0979 25.0267C19.9289 25.6838 21.0228 26.0494 22.0784 26.323C22.6065 26.4599 23.1398 26.5772 23.6262 26.6933C24.1178 26.8107 24.5653 26.9277 24.9446 27.0673C25.3262 27.2078 25.618 27.364 25.8122 27.5486C25.9982 27.7255 26.0968 27.9298 26.0968 28.1939H26.5893C26.5893 27.7816 26.4252 27.4521 26.1515 27.1918C25.886 26.9393 25.5211 26.7548 25.1147 26.6052C24.706 26.4547 24.2341 26.3322 23.7406 26.2143C23.2419 26.0953 22.7245 25.9818 22.2019 25.8464C21.156 25.5752 20.1485 25.2297 19.4034 24.6404C18.6729 24.0628 18.1835 23.2425 18.1835 21.9773H17.691ZM26.0968 28.1939C26.0968 28.5493 25.9425 28.8586 25.5635 29.0917C25.1698 29.3338 24.5253 29.4966 23.5549 29.4966V29.9891C24.5671 29.9891 25.3168 29.8215 25.8215 29.5112C26.3408 29.1918 26.5893 28.7266 26.5893 28.1939H26.0968ZM23.5549 29.4966C21.8713 29.4966 20.1047 28.8931 18.929 28.0362L18.639 28.4342C19.9004 29.3535 21.7688 29.9891 23.5549 29.9891V29.4966ZM18.5596 28.134L17.4236 30.6537L17.8726 30.8561L19.0085 28.3364L18.5596 28.134ZM17.4974 30.9496C18.8337 31.9841 21.2057 32.674 23.5342 32.674V32.1815C21.2778 32.1815 19.0235 31.5083 17.7988 30.5602L17.4974 30.9496ZM44.8419 29.8461L45.0328 30.0017L45.179 29.8222L45.0089 29.6652L44.8419 29.8461ZM42.694 27.8634L42.861 27.6825L42.673 27.509L42.5068 27.7035L42.694 27.8634ZM42.694 22.0186L42.5082 22.1803L42.6747 22.3715L42.861 22.1996L42.694 22.0186ZM44.8419 20.0359L45.0089 20.2169L45.18 20.0589L45.0318 19.8792L44.8419 20.0359ZM38.8732 32.674C41.4538 32.674 43.6152 31.7414 45.0328 30.0017L44.651 29.6906C43.3423 31.2967 41.3319 32.1815 38.8732 32.1815V32.674ZM45.0089 29.6652L42.861 27.6825L42.527 28.0444L44.6749 30.0271L45.0089 29.6652ZM42.5068 27.7035C41.5806 28.7873 40.4294 29.3314 39.059 29.3314V29.8239C40.5801 29.8239 41.8659 29.2114 42.8812 28.0234L42.5068 27.7035ZM39.059 29.3314C37.7653 29.3314 36.6732 28.8781 35.9051 28.1125C35.1372 27.3469 34.679 26.255 34.679 24.9514H34.1865C34.1865 26.3739 34.6887 27.5952 35.5575 28.4612C36.4261 29.3271 37.6472 29.8239 39.059 29.8239V29.3314ZM34.679 24.9514C34.679 23.6477 35.1372 22.5558 35.9051 21.7903C36.6732 21.0246 37.7653 20.5713 39.059 20.5713V20.0789C37.6472 20.0789 36.4261 20.5756 35.5575 21.4415C34.6887 22.3076 34.1865 23.5288 34.1865 24.9514H34.679ZM39.059 20.5713C40.4298 20.5713 41.5818 21.1159 42.5082 22.1803L42.8797 21.857C41.8648 20.6909 40.5797 20.0789 39.059 20.0789V20.5713ZM42.861 22.1996L45.0089 20.2169L44.6749 19.855L42.527 21.8377L42.861 22.1996ZM45.0318 19.8792C43.6146 18.1614 41.454 17.2287 38.8938 17.2287V17.7212C41.3317 17.7212 43.3429 18.6059 44.652 20.1926L45.0318 19.8792ZM38.8938 17.2287C34.2684 17.2287 30.7994 20.445 30.7994 24.9514H31.2919C31.2919 20.7421 34.5145 17.7212 38.8938 17.7212V17.2287ZM30.7994 24.9514C30.7994 29.4573 34.268 32.674 38.8732 32.674V32.1815C34.5149 32.1815 31.2919 29.161 31.2919 24.9514H30.7994ZM59.9062 32.1799V32.4262H60.3782L60.1081 32.039L59.9062 32.1799ZM56.6637 27.533L56.5667 27.3067L56.2887 27.4258L56.4617 27.6739L56.6637 27.533ZM47.1013 17.7228V17.4766H46.8551V17.7228H47.1013ZM47.1013 32.1799H46.8551V32.4262H47.1013V32.1799ZM50.4471 32.1799V32.4262H50.6933V32.1799H50.4471ZM50.4471 28.1526V27.9064H50.2009V28.1526H50.4471ZM53.5244 28.1526L53.7268 28.0124L53.6534 27.9064H53.5244V28.1526ZM56.3126 32.1799L56.1101 32.3201L56.1836 32.4262H56.3126V32.1799ZM50.4471 25.4883H50.2009V25.7346H50.4471V25.4883ZM50.4471 20.449V20.2028H50.2009V20.449H50.4471ZM60.1081 32.039L56.8656 27.3921L56.4617 27.6739L59.7043 32.3208L60.1081 32.039ZM56.7607 27.7593C58.7302 26.9152 59.8839 25.2362 59.8839 22.9687H59.3915C59.3915 25.0383 58.356 26.5398 56.5667 27.3067L56.7607 27.7593ZM59.8839 22.9687C59.8839 21.2813 59.2525 19.8979 58.1044 18.9407C56.9615 17.9878 55.3304 17.4766 53.3592 17.4766V17.969C55.2501 17.969 56.7582 18.4595 57.7891 19.3189C58.8147 20.174 59.3915 21.4135 59.3915 22.9687H59.8839ZM53.3592 17.4766H47.1013V17.969H53.3592V17.4766ZM46.8551 17.7228V32.1799H47.3475V17.7228H46.8551ZM47.1013 32.4262H50.4471V31.9337H47.1013V32.4262ZM50.6933 32.1799V28.1526H50.2009V32.1799H50.6933ZM50.4471 28.3988H53.3592V27.9064H50.4471V28.3988ZM53.3592 28.3988H53.5244V27.9064H53.3592V28.3988ZM53.322 28.2927L56.1101 32.3201L56.515 32.0398L53.7268 28.0124L53.322 28.2927ZM56.3126 32.4262H59.9062V31.9337H56.3126V32.4262ZM56.0044 22.9687C56.0044 23.6964 55.7674 24.2512 55.3199 24.629C54.866 25.0122 54.1615 25.2421 53.1733 25.2421V25.7346C54.2298 25.7346 55.0639 25.4895 55.6375 25.0053C56.2175 24.5156 56.4968 23.8105 56.4968 22.9687H56.0044ZM53.1733 25.2421H50.4471V25.7346H53.1733V25.2421ZM50.6933 25.4883V20.449H50.2009V25.4883H50.6933ZM50.4471 20.6952H53.1733V20.2028H50.4471V20.6952ZM53.1733 20.6952C54.1627 20.6952 54.867 20.9206 55.3204 21.3011C55.7669 21.6758 56.0044 22.2298 56.0044 22.9687H56.4968C56.4968 22.1172 56.218 21.4114 55.637 20.9239C55.0629 20.4421 54.2286 20.2028 53.1733 20.2028V20.6952ZM65.6137 29.495H65.3675V29.7413H65.6137V29.495ZM65.6137 26.1492V25.903H65.3675V26.1492H65.6137ZM72.3259 26.1492V26.3955H72.5722V26.1492H72.3259ZM72.3259 23.547H72.5722V23.3007H72.3259V23.547ZM65.6137 23.547H65.3675V23.7932H65.6137V23.547ZM65.6137 20.4077V20.1615H65.3675V20.4077H65.6137ZM73.214 20.4077V20.6539H73.4602V20.4077H73.214ZM73.214 17.7228H73.4602V17.4766H73.214V17.7228ZM62.2886 17.7228V17.4766H62.0423V17.7228H62.2886ZM62.2886 32.1799H62.0423V32.4262H62.2886V32.1799ZM73.4825 32.1799V32.4262H73.7287V32.1799H73.4825ZM73.4825 29.495H73.7287V29.2488H73.4825V29.495ZM65.8599 29.495V26.1492H65.3675V29.495H65.8599ZM65.6137 26.3955H72.3259V25.903H65.6137V26.3955ZM72.5722 26.1492V23.547H72.0797V26.1492H72.5722ZM72.3259 23.3007H65.6137V23.7932H72.3259V23.3007ZM65.8599 23.547V20.4077H65.3675V23.547H65.8599ZM65.6137 20.6539H73.214V20.1615H65.6137V20.6539ZM73.4602 20.4077V17.7228H72.9678V20.4077H73.4602ZM73.214 17.4766H62.2886V17.969H73.214V17.4766ZM62.0423 17.7228V32.1799H62.5348V17.7228H62.0423ZM62.2886 32.4262H73.4825V31.9337H62.2886V32.4262ZM73.7287 32.1799V29.495H73.2363V32.1799H73.7287ZM73.4825 29.2488H65.6137V29.7413H73.4825V29.2488ZM79.4698 29.495H79.2236V29.7413H79.4698V29.495ZM79.4698 26.1492V25.903H79.2236V26.1492H79.4698ZM86.182 26.1492V26.3955H86.4283V26.1492H86.182ZM86.182 23.547H86.4283V23.3007H86.182V23.547ZM79.4698 23.547H79.2236V23.7932H79.4698V23.547ZM79.4698 20.4077V20.1615H79.2236V20.4077H79.4698ZM87.0701 20.4077V20.6539H87.3164V20.4077H87.0701ZM87.0701 17.7228H87.3164V17.4766H87.0701V17.7228ZM76.1447 17.7228V17.4766H75.8984V17.7228H76.1447ZM76.1447 32.1799H75.8984V32.4262H76.1447V32.1799ZM87.3386 32.1799V32.4262H87.5848V32.1799H87.3386ZM87.3386 29.495H87.5848V29.2488H87.3386V29.495ZM79.716 29.495V26.1492H79.2236V29.495H79.716ZM79.4698 26.3955H86.182V25.903H79.4698V26.3955ZM86.4283 26.1492V23.547H85.9358V26.1492H86.4283ZM86.182 23.3007H79.4698V23.7932H86.182V23.3007ZM79.716 23.547V20.4077H79.2236V23.547H79.716ZM79.4698 20.6539H87.0701V20.1615H79.4698V20.6539ZM87.3164 20.4077V17.7228H86.8239V20.4077H87.3164ZM87.0701 17.4766H76.1447V17.969H87.0701V17.4766ZM75.8984 17.7228V32.1799H76.3909V17.7228H75.8984ZM76.1447 32.4262H87.3386V31.9337H76.1447V32.4262ZM87.5848 32.1799V29.495H87.0924V32.1799H87.5848ZM87.3386 29.2488H79.4698V29.7413H87.3386V29.2488ZM99.9555 17.7228V17.4766H99.7093V17.7228H99.9555ZM99.9555 26.5003L99.765 26.6563L100.202 27.1897V26.5003H99.9555ZM92.7683 17.7228L92.9588 17.5668L92.8849 17.4766H92.7683V17.7228ZM90.0008 17.7228V17.4766H89.7545V17.7228H90.0008ZM90.0008 32.1799H89.7545V32.4262H90.0008V32.1799ZM93.3053 32.1799V32.4262H93.5515V32.1799H93.3053ZM93.3053 23.4024L93.4955 23.2461L93.059 22.7146V23.4024H93.3053ZM100.513 32.1799L100.323 32.3362L100.397 32.4262H100.513V32.1799ZM103.26 32.1799V32.4262H103.506V32.1799H103.26ZM103.26 17.7228H103.506V17.4766H103.26V17.7228ZM99.7093 17.7228V26.5003H100.202V17.7228H99.7093ZM100.146 26.3444L92.9588 17.5668L92.5778 17.8788L99.765 26.6563L100.146 26.3444ZM92.7683 17.4766H90.0008V17.969H92.7683V17.4766ZM89.7545 17.7228V32.1799H90.247V17.7228H89.7545ZM90.0008 32.4262H93.3053V31.9337H90.0008V32.4262ZM93.5515 32.1799V23.4024H93.059V32.1799H93.5515ZM93.115 23.5586L100.323 32.3362L100.703 32.0237L93.4955 23.2461L93.115 23.5586ZM100.513 32.4262H103.26V31.9337H100.513V32.4262ZM103.506 32.1799V17.7228H103.014V32.1799H103.506ZM103.26 17.4766H99.9555V17.969H103.26V17.4766Z" fill="#1C75BC"/>
<path d="M42.52 1.01001V6.58984H6.12V43H0.47998V1.01001H42.52Z" fill="#9DC9EC" stroke="#1C75BC" stroke-width="0.5" stroke-miterlimit="10"/>
<path d="M112.59 43.05H106.99V6.63989H70.55V1H112.59V43.04V43.05Z" fill="#9DC9EC" stroke="#1C75BC" stroke-width="0.5" stroke-miterlimit="10"/>
<path d="M112.59 113.12H70.6201V107.52H106.94V71.0798H112.59V113.12Z" fill="#9DC9EC" stroke="#1C75BC" stroke-width="0.5" stroke-miterlimit="10"/>
<path d="M6.10004 107.49H42.46V113.03H0.550049V71.1399H6.10004V107.5V107.49Z" fill="#9DC9EC" stroke="#1C75BC" stroke-width="0.5" stroke-miterlimit="10"/>
</svg>
