<svg width="173" height="146" viewBox="0 0 173 146" fill="none" xmlns="http://www.w3.org/2000/svg">
<path d="M167.23 35.5399C166.49 36.3499 165.89 37.4798 164.97 37.9098C162.77 38.9398 160.46 37.2799 160.38 34.7099C160.29 31.7099 160.35 28.7099 160.35 25.7099C160.35 22.1499 159.16 20.9498 155.62 20.9498C138.04 20.9498 120.46 20.9299 102.89 20.9799C100.99 20.9799 99.54 20.3899 98.22 19.0299C94.84 15.5499 91.38 12.1498 87.87 8.62978C87.41 9.03977 87.03 9.36986 86.68 9.71986C83.53 12.8599 80.36 15.9798 77.26 19.1598C76.02 20.4298 74.63 20.9699 72.85 20.9699C55.27 20.9299 37.69 20.9498 20.12 20.9498C16.45 20.9498 15.28 22.1099 15.27 25.7499C15.27 28.4899 15.27 31.2299 15.27 33.9699C15.26 36.6499 13.95 38.2298 11.8 38.1898C9.66002 38.1498 8.41002 36.5698 8.40002 33.8798C8.40002 31.1398 8.40002 28.3998 8.40002 25.6598C8.40002 18.2998 12.58 14.09 19.9 14.09C36.86 14.09 53.82 14.07 70.77 14.12C72.08 14.12 72.97 13.73 73.86 12.81C77.43 9.14995 81.07 5.54983 84.7 1.93983C86.94 -0.290166 88.69 -0.290166 90.94 1.93983C94.6 5.58983 98.28 9.22981 101.89 12.9198C102.71 13.7598 103.53 14.11 104.72 14.11C121.83 14.07 138.95 14.11 156.06 14.07C160.68 14.07 164.14 15.91 166.24 20.08C166.67 20.94 166.91 21.9 167.24 22.82V35.5399H167.23Z" fill="#9DC9EC" stroke="#1C75BC" stroke-width="0.5" stroke-miterlimit="10"/>
<path d="M167.23 122.72C166.3 125.95 164.81 128.86 161.56 130.21C159.8 130.94 157.79 131.38 155.89 131.39C138.83 131.48 121.77 131.45 104.71 131.42C103.52 131.42 102.7 131.77 101.88 132.61C98.26 136.3 94.59 139.94 90.93 143.59C88.68 145.83 86.93 145.83 84.69 143.59C81.03 139.94 77.35 136.3 73.74 132.61C72.92 131.78 72.1 131.41 70.92 131.41C53.96 131.45 37 131.3 20.05 131.5C13.05 131.58 7.99004 126.73 8.37004 119.71C8.51004 117.08 8.39002 114.44 8.39002 111.8C8.39002 108.96 9.61002 107.37 11.79 107.33C13.98 107.29 15.25 108.88 15.26 111.7C15.26 114.54 15.25 117.39 15.26 120.23C15.28 123.23 16.62 124.56 19.64 124.56C37.32 124.56 55 124.58 72.68 124.54C74.58 124.54 76.04 125.1 77.36 126.46C80.74 129.95 84.2 133.35 87.75 136.9C88.22 136.46 88.63 136.1 89.01 135.71C92.08 132.64 95.19 129.61 98.21 126.48C99.52 125.12 100.97 124.52 102.88 124.53C120.41 124.58 137.93 124.56 155.46 124.56C159.23 124.56 160.35 123.43 160.35 119.65C160.35 117.01 160.35 114.38 160.35 111.74C160.35 109.26 161.15 107.92 162.87 107.48C164.78 106.99 166.04 107.71 167.23 109.98V122.7V122.72Z" fill="#9DC9EC" stroke="#1C75BC" stroke-width="0.5" stroke-miterlimit="10"/>
<path d="M8.38396 84.3279C14.1309 84.3279 17.1611 81.3673 17.1611 75.3417V59.5289H2.98531V64.0568H11.5535V75.6552C11.5535 78.3371 10.3693 79.6955 8.10532 79.6955C6.36382 79.6955 4.90096 78.7899 3.57742 77.0136L0.44272 80.7752C2.21905 83.074 5.10994 84.3279 8.38396 84.3279ZM30.7454 84.3279C37.7114 84.3279 41.0899 80.8449 41.0899 76.7698C41.0899 67.8185 26.9141 70.9183 26.9141 66.4253C26.9141 64.8927 28.2028 63.6389 31.5465 63.6389C33.7059 63.6389 36.0395 64.2658 38.3035 65.5545L40.045 61.2704C37.781 59.8424 34.6463 59.111 31.5813 59.111C24.6501 59.111 21.3064 62.5591 21.3064 66.7039C21.3064 75.7597 35.4822 72.625 35.4822 77.1877C35.4822 78.6854 34.1239 79.8 30.7802 79.8C27.8545 79.8 24.7894 78.7551 22.7345 77.2574L20.8188 81.5066C22.9783 83.1785 26.8792 84.3279 30.7454 84.3279ZM56.7528 84.3279C64.4154 84.3279 70.0927 78.9989 70.0927 71.7194C70.0927 64.4399 64.4154 59.111 56.7528 59.111C49.0553 59.111 43.4129 64.4748 43.4129 71.7194C43.4129 78.9641 49.0553 84.3279 56.7528 84.3279ZM56.7528 79.5213C52.399 79.5213 49.125 76.3518 49.125 71.7194C49.125 67.087 52.399 63.9175 56.7528 63.9175C61.1065 63.9175 64.3805 67.087 64.3805 71.7194C64.3805 76.3518 61.1065 79.5213 56.7528 79.5213ZM91.1213 59.5289V74.3317L79.0004 59.5289H74.3332V83.9099H79.906V69.1072L92.0617 83.9099H96.6941V59.5289H91.1213ZM120.679 83.9099H126.6L115.698 59.5289H110.125L99.2582 83.9099H105.04L107.199 78.6854H118.519L120.679 83.9099ZM109.011 74.4013L112.877 65.0669L116.743 74.4013H109.011ZM132.955 83.9099H138.598V64.1265H146.399V59.5289H125.153V64.1265H132.955V83.9099ZM166.427 83.9099H172.348L161.446 59.5289H155.874L145.007 83.9099H150.788L152.948 78.6854H164.268L166.427 83.9099ZM154.759 74.4013L158.625 65.0669L162.491 74.4013H154.759Z" fill="#9DC9EC"/>
<path d="M17.1611 59.5289H17.4111V59.2789H17.1611V59.5289ZM2.98531 59.5289V59.2789H2.73531V59.5289H2.98531ZM2.98531 64.0568H2.73531V64.3068H2.98531V64.0568ZM11.5535 64.0568H11.8035V63.8068H11.5535V64.0568ZM3.57742 77.0136L3.77789 76.8642L3.5884 76.6099L3.38536 76.8535L3.57742 77.0136ZM0.44272 80.7752L0.250665 80.6152L0.122214 80.7693L0.244899 80.9281L0.44272 80.7752ZM8.38396 84.5779C11.2979 84.5779 13.5668 83.8269 15.1055 82.2701C16.6436 80.7138 17.4111 78.3934 17.4111 75.3417H16.9111C16.9111 78.3156 16.1635 80.4883 14.7498 81.9187C13.3366 83.3485 11.217 84.0779 8.38396 84.0779V84.5779ZM17.4111 75.3417V59.5289H16.9111V75.3417H17.4111ZM17.1611 59.2789H2.98531V59.7789H17.1611V59.2789ZM2.73531 59.5289V64.0568H3.23531V59.5289H2.73531ZM2.98531 64.3068H11.5535V63.8068H2.98531V64.3068ZM11.3035 64.0568V75.6552H11.8035V64.0568H11.3035ZM11.3035 75.6552C11.3035 76.9646 11.0138 77.9063 10.4887 78.5183C9.96953 79.1233 9.18588 79.4455 8.10532 79.4455V79.9455C9.28871 79.9455 10.2292 79.5885 10.8681 78.8439C11.5011 78.1061 11.8035 77.0278 11.8035 75.6552H11.3035ZM8.10532 79.4455C6.46844 79.4455 5.07203 78.6011 3.77789 76.8642L3.37695 77.1629C4.72989 78.9787 6.2592 79.9455 8.10532 79.9455V79.4455ZM3.38536 76.8535L0.250665 80.6152L0.634775 80.9353L3.76948 77.1736L3.38536 76.8535ZM0.244899 80.9281C2.07704 83.2991 5.0475 84.5779 8.38396 84.5779V84.0779C5.17238 84.0779 2.36106 82.8489 0.640541 80.6224L0.244899 80.9281ZM38.3035 65.5545L38.1798 65.7718L38.4277 65.9129L38.5351 65.6486L38.3035 65.5545ZM40.045 61.2704L40.2766 61.3646L40.3554 61.1706L40.1784 61.059L40.045 61.2704ZM22.7345 77.2574L22.8817 77.0553L22.633 76.8741L22.5066 77.1546L22.7345 77.2574ZM20.8188 81.5066L20.5909 81.4039L20.5099 81.5836L20.6658 81.7043L20.8188 81.5066ZM30.7454 84.5779C34.2679 84.5779 36.9149 83.6972 38.6866 82.2718C40.4623 80.8431 41.3399 78.8813 41.3399 76.7698H40.8399C40.8399 78.7334 40.0282 80.5506 38.3732 81.8822C36.7141 83.217 34.1888 84.0779 30.7454 84.0779V84.5779ZM41.3399 76.7698C41.3399 74.4524 40.4164 72.8961 39.0288 71.8119C37.6563 70.7395 35.8406 70.1375 34.0639 69.6834C32.2624 69.2231 30.5291 68.9193 29.2141 68.4432C28.562 68.2072 28.0453 67.9388 27.694 67.6101C27.3512 67.2893 27.1641 66.9103 27.1641 66.4253H26.6641C26.6641 67.0635 26.9199 67.5705 27.3524 67.9751C27.7763 68.3719 28.3671 68.6684 29.0439 68.9134C30.3869 69.3995 32.1976 69.7226 33.9401 70.1679C35.7073 70.6194 37.4356 71.2016 38.721 72.2059C39.9914 73.1986 40.8399 74.6115 40.8399 76.7698H41.3399ZM27.1641 66.4253C27.1641 65.739 27.4475 65.1209 28.1173 64.6639C28.7993 64.1985 29.9001 63.8889 31.5465 63.8889V63.3889C29.8491 63.3889 28.6337 63.7061 27.8355 64.2508C27.025 64.8039 26.6641 65.5789 26.6641 66.4253H27.1641ZM31.5465 63.8889C33.6579 63.8889 35.9492 64.5021 38.1798 65.7718L38.4272 65.3372C36.1298 64.0295 33.754 63.3889 31.5465 63.3889V63.8889ZM38.5351 65.6486L40.2766 61.3646L39.8134 61.1763L38.0719 65.4604L38.5351 65.6486ZM40.1784 61.059C37.8643 59.5993 34.6798 58.861 31.5813 58.861V59.361C34.6128 59.361 37.6978 60.0854 39.9116 61.4819L40.1784 61.059ZM31.5813 58.861C28.0765 58.861 25.4464 59.7327 23.6872 61.1589C21.9238 62.5886 21.0564 64.5595 21.0564 66.7039H21.5564C21.5564 64.7035 22.3609 62.8779 24.0021 61.5473C25.6476 60.2133 28.1549 59.361 31.5813 59.361V58.861ZM21.0564 66.7039C21.0564 69.0463 21.979 70.6198 23.3663 71.7169C24.7389 72.8022 26.5547 73.4121 28.3316 73.8727C29.2204 74.1031 30.1145 74.2996 30.9389 74.4964C31.7685 74.6945 32.5313 74.8937 33.1809 75.1328C33.8328 75.3728 34.3494 75.6456 34.7008 75.9798C35.0439 76.3061 35.2322 76.6926 35.2322 77.1877H35.7322C35.7322 76.5422 35.4776 76.0285 35.0454 75.6175C34.6216 75.2144 34.0307 74.9129 33.3536 74.6636C32.6742 74.4135 31.8866 74.2086 31.055 74.0101C30.2182 73.8103 29.3403 73.6176 28.4571 73.3887C26.69 72.9307 24.9619 72.3411 23.6765 71.3247C22.4059 70.32 21.5564 68.8894 21.5564 66.7039H21.0564ZM35.2322 77.1877C35.2322 77.8466 34.9404 78.4205 34.2541 78.8425C33.5529 79.2737 32.4308 79.55 30.7802 79.55V80.05C32.4733 80.05 33.7022 79.7689 34.5161 79.2684C35.3449 78.7588 35.7322 78.0266 35.7322 77.1877H35.2322ZM30.7802 79.55C27.9065 79.55 24.8932 78.5213 22.8817 77.0553L22.5872 77.4594C24.6857 78.9888 27.8025 80.05 30.7802 80.05V79.55ZM22.5066 77.1546L20.5909 81.4039L21.0467 81.6094L22.9624 77.3601L22.5066 77.1546ZM20.6658 81.7043C22.8819 83.42 26.8426 84.5779 30.7454 84.5779V84.0779C26.9158 84.0779 23.0747 82.9369 20.9719 81.309L20.6658 81.7043ZM56.7528 84.5779C64.5395 84.5779 70.3427 79.1505 70.3427 71.7194H69.8427C69.8427 78.8472 64.2913 84.0779 56.7528 84.0779V84.5779ZM70.3427 71.7194C70.3427 64.2883 64.5395 58.861 56.7528 58.861V59.361C64.2913 59.361 69.8427 64.5916 69.8427 71.7194H70.3427ZM56.7528 58.861C48.9303 58.861 43.1629 64.324 43.1629 71.7194H43.6629C43.6629 64.6255 49.1804 59.361 56.7528 59.361V58.861ZM43.1629 71.7194C43.1629 79.1148 48.9303 84.5779 56.7528 84.5779V84.0779C49.1804 84.0779 43.6629 78.8133 43.6629 71.7194H43.1629ZM56.7528 79.2713C52.5386 79.2713 49.375 76.2152 49.375 71.7194H48.875C48.875 76.4884 52.2594 79.7713 56.7528 79.7713V79.2713ZM49.375 71.7194C49.375 67.2236 52.5386 64.1675 56.7528 64.1675V63.6675C52.2594 63.6675 48.875 66.9505 48.875 71.7194H49.375ZM56.7528 64.1675C60.9669 64.1675 64.1305 67.2236 64.1305 71.7194H64.6305C64.6305 66.9505 61.2461 63.6675 56.7528 63.6675V64.1675ZM64.1305 71.7194C64.1305 76.2152 60.9669 79.2713 56.7528 79.2713V79.7713C61.2461 79.7713 64.6305 76.4884 64.6305 71.7194H64.1305ZM91.1213 59.5289V59.2789H90.8713V59.5289H91.1213ZM91.1213 74.3317L90.9278 74.49L91.3713 75.0316V74.3317H91.1213ZM79.0004 59.5289L79.1939 59.3705L79.1188 59.2789H79.0004V59.5289ZM74.3332 59.5289V59.2789H74.0832V59.5289H74.3332ZM74.3332 83.9099H74.0832V84.1599H74.3332V83.9099ZM79.906 83.9099V84.1599H80.156V83.9099H79.906ZM79.906 69.1072L80.0992 68.9485L79.656 68.4088V69.1072H79.906ZM92.0617 83.9099L91.8685 84.0686L91.9435 84.1599H92.0617V83.9099ZM96.6941 83.9099V84.1599H96.9441V83.9099H96.6941ZM96.6941 59.5289H96.9441V59.2789H96.6941V59.5289ZM90.8713 59.5289V74.3317H91.3713V59.5289H90.8713ZM91.3147 74.1733L79.1939 59.3705L78.807 59.6873L90.9278 74.49L91.3147 74.1733ZM79.0004 59.2789H74.3332V59.7789H79.0004V59.2789ZM74.0832 59.5289V83.9099H74.5832V59.5289H74.0832ZM74.3332 84.1599H79.906V83.6599H74.3332V84.1599ZM80.156 83.9099V69.1072H79.656V83.9099H80.156ZM79.7128 69.2658L91.8685 84.0686L92.2549 83.7513L80.0992 68.9485L79.7128 69.2658ZM92.0617 84.1599H96.6941V83.6599H92.0617V84.1599ZM96.9441 83.9099V59.5289H96.4441V83.9099H96.9441ZM96.6941 59.2789H91.1213V59.7789H96.6941V59.2789ZM120.679 83.9099L120.448 84.0054L120.511 84.1599H120.679V83.9099ZM126.6 83.9099V84.1599H126.985L126.828 83.8079L126.6 83.9099ZM115.698 59.5289L115.926 59.4269L115.86 59.2789H115.698V59.5289ZM110.125 59.5289V59.2789H109.963L109.897 59.4271L110.125 59.5289ZM99.2582 83.9099L99.0298 83.8081L98.873 84.1599H99.2582V83.9099ZM105.04 83.9099V84.1599H105.207L105.271 84.0054L105.04 83.9099ZM107.199 78.6854V78.4354H107.032L106.968 78.5899L107.199 78.6854ZM118.519 78.6854L118.75 78.5899L118.686 78.4354H118.519V78.6854ZM109.011 74.4013L108.78 74.3057L108.636 74.6513H109.011V74.4013ZM112.877 65.0669L113.108 64.9712L112.877 64.4136L112.646 64.9712L112.877 65.0669ZM116.743 74.4013V74.6513H117.117L116.974 74.3057L116.743 74.4013ZM120.679 84.1599H126.6V83.6599H120.679V84.1599ZM126.828 83.8079L115.926 59.4269L115.47 59.631L126.371 84.012L126.828 83.8079ZM115.698 59.2789H110.125V59.7789H115.698V59.2789ZM109.897 59.4271L99.0298 83.8081L99.4865 84.0117L110.353 59.6307L109.897 59.4271ZM99.2582 84.1599H105.04V83.6599H99.2582V84.1599ZM105.271 84.0054L107.43 78.7809L106.968 78.5899L104.809 83.8144L105.271 84.0054ZM107.199 78.9354H118.519V78.4354H107.199V78.9354ZM118.288 78.7809L120.448 84.0054L120.91 83.8144L118.75 78.5899L118.288 78.7809ZM109.242 74.497L113.108 65.1625L112.646 64.9712L108.78 74.3057L109.242 74.497ZM112.646 65.1625L116.512 74.497L116.974 74.3057L113.108 64.9712L112.646 65.1625ZM116.743 74.1513H109.011V74.6513H116.743V74.1513ZM132.955 83.9099H132.705V84.1599H132.955V83.9099ZM138.598 83.9099V84.1599H138.848V83.9099H138.598ZM138.598 64.1265V63.8765H138.348V64.1265H138.598ZM146.399 64.1265V64.3765H146.649V64.1265H146.399ZM146.399 59.5289H146.649V59.2789H146.399V59.5289ZM125.153 59.5289V59.2789H124.903V59.5289H125.153ZM125.153 64.1265H124.903V64.3765H125.153V64.1265ZM132.955 64.1265H133.205V63.8765H132.955V64.1265ZM132.955 84.1599H138.598V83.6599H132.955V84.1599ZM138.848 83.9099V64.1265H138.348V83.9099H138.848ZM138.598 64.3765H146.399V63.8765H138.598V64.3765ZM146.649 64.1265V59.5289H146.149V64.1265H146.649ZM146.399 59.2789H125.153V59.7789H146.399V59.2789ZM124.903 59.5289V64.1265H125.403V59.5289H124.903ZM125.153 64.3765H132.955V63.8765H125.153V64.3765ZM132.705 64.1265V83.9099H133.205V64.1265H132.705ZM166.427 83.9099L166.196 84.0054L166.26 84.1599H166.427V83.9099ZM172.348 83.9099V84.1599H172.734L172.576 83.8079L172.348 83.9099ZM161.446 59.5289L161.675 59.4269L161.608 59.2789H161.446V59.5289ZM155.874 59.5289V59.2789H155.711L155.645 59.4271L155.874 59.5289ZM145.007 83.9099L144.778 83.8081L144.621 84.1599H145.007V83.9099ZM150.788 83.9099V84.1599H150.956L151.019 84.0054L150.788 83.9099ZM152.948 78.6854V78.4354H152.781L152.717 78.5899L152.948 78.6854ZM164.268 78.6854L164.499 78.5899L164.435 78.4354H164.268V78.6854ZM154.759 74.4013L154.528 74.3057L154.385 74.6513H154.759V74.4013ZM158.625 65.0669L158.856 64.9712L158.625 64.4136L158.394 64.9712L158.625 65.0669ZM162.491 74.4013V74.6513H162.865L162.722 74.3057L162.491 74.4013ZM166.427 84.1599H172.348V83.6599H166.427V84.1599ZM172.576 83.8079L161.675 59.4269L161.218 59.631L172.12 84.012L172.576 83.8079ZM161.446 59.2789H155.874V59.7789H161.446V59.2789ZM155.645 59.4271L144.778 83.8081L145.235 84.0117L156.102 59.6307L155.645 59.4271ZM145.007 84.1599H150.788V83.6599H145.007V84.1599ZM151.019 84.0054L153.179 78.7809L152.717 78.5899L150.557 83.8144L151.019 84.0054ZM152.948 78.9354H164.268V78.4354H152.948V78.9354ZM164.036 78.7809L166.196 84.0054L166.658 83.8144L164.499 78.5899L164.036 78.7809ZM154.99 74.497L158.856 65.1625L158.394 64.9712L154.528 74.3057L154.99 74.497ZM158.394 65.1625L162.26 74.497L162.722 74.3057L158.856 64.9712L158.394 65.1625ZM162.491 74.1513H154.759V74.6513H162.491V74.1513Z" fill="#1C75BC"/>
</svg>
