<svg width="175" height="151" viewBox="0 0 175 151" fill="none" xmlns="http://www.w3.org/2000/svg">
<path d="M8.41037 87.0378C14.1566 87.0378 17.1864 84.0776 17.1864 78.0528V62.242H3.0124V66.7693H11.5795V78.3662C11.5795 81.0478 10.3954 82.406 8.13177 82.406C6.39049 82.406 4.92781 81.5005 3.60444 79.7244L0.470134 83.4856C2.24624 85.7841 5.13676 87.0378 8.41037 87.0378ZM30.769 87.0378C37.7341 87.0378 41.1122 83.5552 41.1122 79.4806C41.1122 70.5304 26.9381 73.6299 26.9381 69.1374C26.9381 67.6051 28.2267 66.3514 31.5699 66.3514C33.7291 66.3514 36.0624 66.9782 38.3261 68.2668L40.0674 63.9832C37.8037 62.5554 34.6694 61.824 31.6048 61.824C24.6745 61.824 21.3312 65.2718 21.3312 69.416C21.3312 78.4707 35.5052 75.3364 35.5052 79.8985C35.5052 81.396 34.147 82.5105 30.8038 82.5105C27.8784 82.5105 24.8138 81.4657 22.7591 79.9682L20.8437 84.2169C23.0028 85.8885 26.9033 87.0378 30.769 87.0378ZM56.7731 87.0378C64.4347 87.0378 70.1113 81.7095 70.1113 74.4309C70.1113 67.1524 64.4347 61.824 56.7731 61.824C49.0766 61.824 43.4349 67.1872 43.4349 74.4309C43.4349 81.6746 49.0766 87.0378 56.7731 87.0378ZM56.7731 82.2318C52.4199 82.2318 49.1463 79.0627 49.1463 74.4309C49.1463 69.7991 52.4199 66.63 56.7731 66.63C61.1263 66.63 64.3999 69.7991 64.3999 74.4309C64.3999 79.0627 61.1263 82.2318 56.7731 82.2318ZM91.1372 62.242V77.0428L79.0179 62.242H74.3513V86.6199H79.9234V71.819L92.0775 86.6199H96.7093V62.242H91.1372ZM120.691 86.6199H126.611L115.711 62.242H110.139L99.2731 86.6199H105.054L107.213 81.396H118.532L120.691 86.6199ZM109.024 77.1125L112.89 67.7792L116.756 77.1125H109.024ZM132.966 86.6199H138.608V66.8389H146.408V62.242H125.165V66.8389H132.966V86.6199ZM166.433 86.6199H172.354L161.453 62.242H155.881L145.016 86.6199H150.797L152.956 81.396H164.274L166.433 86.6199ZM154.767 77.1125L158.632 67.7792L162.498 77.1125H154.767Z" fill="#98CCFD"/>
<path d="M17.1864 62.242H17.6864V61.742H17.1864V62.242ZM3.0124 62.242V61.742H2.5124V62.242H3.0124ZM3.0124 66.7693H2.5124V67.2693H3.0124V66.7693ZM11.5795 66.7693H12.0795V66.2693H11.5795V66.7693ZM3.60444 79.7244L4.00538 79.4257L3.6264 78.917L3.22033 79.4043L3.60444 79.7244ZM0.470134 83.4856L0.0860234 83.1655L-0.170877 83.4738L0.0744916 83.7913L0.470134 83.4856ZM8.41037 87.5378C11.3643 87.5378 13.7077 86.7762 15.3089 85.1561C16.909 83.537 17.6864 81.143 17.6864 78.0528H16.6864C16.6864 80.9874 15.9489 83.0859 14.5976 84.4531C13.2473 85.8193 11.2026 86.5378 8.41037 86.5378V87.5378ZM17.6864 78.0528V62.242H16.6864V78.0528H17.6864ZM17.1864 61.742H3.0124V62.742H17.1864V61.742ZM2.5124 62.242V66.7693H3.5124V62.242H2.5124ZM3.0124 67.2693H11.5795V66.2693H3.0124V67.2693ZM11.0795 66.7693V78.3662H12.0795V66.7693H11.0795ZM11.0795 78.3662C11.0795 79.6438 10.7961 80.5171 10.3251 81.0661C9.86591 81.6012 9.16076 81.906 8.13177 81.906V82.906C9.36643 82.906 10.3852 82.5317 11.084 81.7173C11.7708 80.9168 12.0795 79.7702 12.0795 78.3662H11.0795ZM8.13177 81.906C6.59972 81.906 5.26995 81.1228 4.00538 79.4257L3.2035 80.0231C4.58567 81.8782 6.18125 82.906 8.13177 82.906V81.906ZM3.22033 79.4043L0.0860234 83.1655L0.854245 83.8057L3.98855 80.0445L3.22033 79.4043ZM0.0744916 83.7913C1.96221 86.2342 5.01188 87.5378 8.41037 87.5378V86.5378C5.26164 86.5378 2.53027 85.3339 0.865777 83.1798L0.0744916 83.7913ZM38.3261 68.2668L38.0788 68.7013L38.5745 68.9835L38.7893 68.4551L38.3261 68.2668ZM40.0674 63.9832L40.5306 64.1715L40.6882 63.7837L40.3341 63.5603L40.0674 63.9832ZM22.7591 79.9682L23.0536 79.5641L22.5562 79.2016L22.3032 79.7627L22.7591 79.9682ZM20.8437 84.2169L20.3878 84.0114L20.2258 84.3709L20.5376 84.6123L20.8437 84.2169ZM30.769 87.5378C34.3306 87.5378 37.0381 86.6474 38.8659 85.1767C40.7018 83.6997 41.6122 81.6658 41.6122 79.4806H40.6122C40.6122 81.3701 39.8335 83.1147 38.239 84.3976C36.6366 85.6869 34.1724 86.5378 30.769 86.5378V87.5378ZM41.6122 79.4806C41.6122 77.084 40.6512 75.4561 39.2053 74.3264C37.7894 73.2201 35.9303 72.6081 34.1489 72.153C32.3181 71.6851 30.6238 71.3909 29.323 70.9201C28.6833 70.6885 28.2037 70.4341 27.8888 70.1395C27.5909 69.8608 27.4381 69.5458 27.4381 69.1374H26.4381C26.4381 69.8522 26.7283 70.4231 27.2055 70.8697C27.6658 71.3004 28.2936 71.6109 28.9826 71.8603C30.3395 72.3515 32.1887 72.6842 33.9014 73.1218C35.6635 73.5721 37.3479 74.1442 38.5896 75.1144C39.8013 76.0611 40.6122 77.4022 40.6122 79.4806H41.6122ZM27.4381 69.1374C27.4381 68.5314 27.6828 67.9917 28.2821 67.5828C28.9059 67.1572 29.9493 66.8514 31.5699 66.8514V65.8514C29.8474 65.8514 28.5748 66.1725 27.7185 66.7568C26.8377 67.3578 26.4381 68.2111 26.4381 69.1374H27.4381ZM31.5699 66.8514C33.633 66.8514 35.8819 67.4508 38.0788 68.7013L38.5735 67.8322C36.243 66.5057 33.8252 65.8514 31.5699 65.8514V66.8514ZM38.7893 68.4551L40.5306 64.1715L39.6042 63.7949L37.8629 68.0785L38.7893 68.4551ZM40.3341 63.5603C37.9702 62.0693 34.7364 61.324 31.6048 61.324V62.324C34.6024 62.324 37.6372 63.0415 39.8006 64.4061L40.3341 63.5603ZM31.6048 61.324C28.0612 61.324 25.37 62.2054 23.5542 63.6776C21.7299 65.1567 20.8312 67.2 20.8312 69.416H21.8312C21.8312 67.4878 22.6042 65.7352 24.184 64.4543C25.7725 63.1665 28.218 62.324 31.6048 62.324V61.324ZM20.8312 69.416C20.8312 71.8365 21.7902 73.4814 23.2358 74.6245C24.6517 75.7442 26.5112 76.3642 28.2928 76.826C29.1842 77.0571 30.0863 77.2554 30.9044 77.4507C31.7329 77.6485 32.4833 77.8449 33.1178 78.0785C33.757 78.3138 34.2365 78.5723 34.5516 78.872C34.8501 79.1559 35.0052 79.4787 35.0052 79.8985H36.0052C36.0052 79.1778 35.7174 78.6006 35.2408 78.1473C34.7808 77.7099 34.1529 77.394 33.4633 77.1401C32.769 76.8845 31.9691 76.6768 31.1366 76.4781C30.2937 76.2768 29.424 76.0861 28.5437 75.858C26.7817 75.4012 25.0977 74.822 23.856 73.8401C22.644 72.8817 21.8312 71.5229 21.8312 69.416H20.8312ZM35.0052 79.8985C35.0052 80.4673 34.7613 80.962 34.1463 81.3401C33.5015 81.7367 32.433 82.0105 30.8038 82.0105V83.0105C32.5179 83.0105 33.8001 82.727 34.6701 82.192C35.5701 81.6385 36.0052 80.8273 36.0052 79.8985H35.0052ZM30.8038 82.0105C27.9825 82.0105 25.0213 80.9982 23.0536 79.5641L22.4646 80.3723C24.6063 81.9332 27.7744 83.0105 30.8038 83.0105V82.0105ZM22.3032 79.7627L20.3878 84.0114L21.2995 84.4224L23.2149 80.1737L22.3032 79.7627ZM20.5376 84.6123C22.8101 86.3716 26.8301 87.5378 30.769 87.5378V86.5378C26.9765 86.5378 23.1956 85.4054 21.1497 83.8215L20.5376 84.6123ZM56.7731 87.5378C64.6829 87.5378 70.6113 82.0127 70.6113 74.4309H69.6113C69.6113 81.4062 64.1865 86.5378 56.7731 86.5378V87.5378ZM70.6113 74.4309C70.6113 66.8491 64.6829 61.324 56.7731 61.324V62.324C64.1865 62.324 69.6113 67.4556 69.6113 74.4309H70.6113ZM56.7731 61.324C48.8266 61.324 42.9349 66.8856 42.9349 74.4309H43.9349C43.9349 67.4887 49.3266 62.324 56.7731 62.324V61.324ZM42.9349 74.4309C42.9349 81.9762 48.8266 87.5378 56.7731 87.5378V86.5378C49.3266 86.5378 43.9349 81.3731 43.9349 74.4309H42.9349ZM56.7731 81.7318C52.699 81.7318 49.6463 78.7896 49.6463 74.4309H48.6463C48.6463 79.3359 52.1407 82.7318 56.7731 82.7318V81.7318ZM49.6463 74.4309C49.6463 70.0722 52.699 67.13 56.7731 67.13V66.13C52.1407 66.13 48.6463 69.526 48.6463 74.4309H49.6463ZM56.7731 67.13C60.8471 67.13 63.8999 70.0722 63.8999 74.4309H64.8999C64.8999 69.526 61.4054 66.13 56.7731 66.13V67.13ZM63.8999 74.4309C63.8999 78.7896 60.8471 81.7318 56.7731 81.7318V82.7318C61.4054 82.7318 64.8999 79.3359 64.8999 74.4309H63.8999ZM91.1372 62.242V61.742H90.6372V62.242H91.1372ZM91.1372 77.0428L90.7504 77.3596L91.6372 78.4427V77.0428H91.1372ZM79.0179 62.242L79.4048 61.9252L79.2547 61.742H79.0179V62.242ZM74.3513 62.242V61.742H73.8513V62.242H74.3513ZM74.3513 86.6199H73.8513V87.1199H74.3513V86.6199ZM79.9234 86.6199V87.1199H80.4234V86.6199H79.9234ZM79.9234 71.819L80.3098 71.5017L79.4234 70.4222V71.819H79.9234ZM92.0775 86.6199L91.6911 86.9372L91.8411 87.1199H92.0775V86.6199ZM96.7093 86.6199V87.1199H97.2093V86.6199H96.7093ZM96.7093 62.242H97.2093V61.742H96.7093V62.242ZM90.6372 62.242V77.0428H91.6372V62.242H90.6372ZM91.5241 76.7261L79.4048 61.9252L78.6311 62.5587L90.7504 77.3596L91.5241 76.7261ZM79.0179 61.742H74.3513V62.742H79.0179V61.742ZM73.8513 62.242V86.6199H74.8513V62.242H73.8513ZM74.3513 87.1199H79.9234V86.1199H74.3513V87.1199ZM80.4234 86.6199V71.819H79.4234V86.6199H80.4234ZM79.537 72.1363L91.6911 86.9372L92.4639 86.3026L80.3098 71.5017L79.537 72.1363ZM92.0775 87.1199H96.7093V86.1199H92.0775V87.1199ZM97.2093 86.6199V62.242H96.2093V86.6199H97.2093ZM96.7093 61.742H91.1372V62.742H96.7093V61.742ZM120.691 86.6199L120.229 86.8109L120.356 87.1199H120.691V86.6199ZM126.611 86.6199V87.1199H127.382L127.068 86.4158L126.611 86.6199ZM115.711 62.242L116.167 62.0379L116.035 61.742H115.711V62.242ZM110.139 62.242V61.742H109.814L109.682 62.0384L110.139 62.242ZM99.2731 86.6199L98.8164 86.4163L98.5028 87.1199H99.2731V86.6199ZM105.054 86.6199V87.1199H105.388L105.516 86.8109L105.054 86.6199ZM107.213 81.396V80.896H106.879L106.751 81.205L107.213 81.396ZM118.532 81.396L118.994 81.205L118.866 80.896H118.532V81.396ZM109.024 77.1125L108.562 76.9212L108.276 77.6125H109.024V77.1125ZM112.89 67.7792L113.352 67.5879L112.89 66.4726L112.428 67.5879L112.89 67.7792ZM116.756 77.1125V77.6125H117.504L117.217 76.9212L116.756 77.1125ZM120.691 87.1199H126.611V86.1199H120.691V87.1199ZM127.068 86.4158L116.167 62.0379L115.254 62.446L126.155 86.824L127.068 86.4158ZM115.711 61.742H110.139V62.742H115.711V61.742ZM109.682 62.0384L98.8164 86.4163L99.7298 86.8234L110.595 62.4455L109.682 62.0384ZM99.2731 87.1199H105.054V86.1199H99.2731V87.1199ZM105.516 86.8109L107.675 81.587L106.751 81.205L104.592 86.4289L105.516 86.8109ZM107.213 81.896H118.532V80.896H107.213V81.896ZM118.07 81.587L120.229 86.8109L121.153 86.4289L118.994 81.205L118.07 81.587ZM109.486 77.3038L113.352 67.9706L112.428 67.5879L108.562 76.9212L109.486 77.3038ZM112.428 67.9706L116.294 77.3038L117.217 76.9212L113.352 67.5879L112.428 67.9706ZM116.756 76.6125H109.024V77.6125H116.756V76.6125ZM132.966 86.6199H132.466V87.1199H132.966V86.6199ZM138.608 86.6199V87.1199H139.108V86.6199H138.608ZM138.608 66.8389V66.3389H138.108V66.8389H138.608ZM146.408 66.8389V67.3389H146.908V66.8389H146.408ZM146.408 62.242H146.908V61.742H146.408V62.242ZM125.165 62.242V61.742H124.665V62.242H125.165ZM125.165 66.8389H124.665V67.3389H125.165V66.8389ZM132.966 66.8389H133.466V66.3389H132.966V66.8389ZM132.966 87.1199H138.608V86.1199H132.966V87.1199ZM139.108 86.6199V66.8389H138.108V86.6199H139.108ZM138.608 67.3389H146.408V66.3389H138.608V67.3389ZM146.908 66.8389V62.242H145.908V66.8389H146.908ZM146.408 61.742H125.165V62.742H146.408V61.742ZM124.665 62.242V66.8389H125.665V62.242H124.665ZM125.165 67.3389H132.966V66.3389H125.165V67.3389ZM132.466 66.8389V86.6199H133.466V66.8389H132.466ZM166.433 86.6199L165.971 86.8109L166.099 87.1199H166.433V86.6199ZM172.354 86.6199V87.1199H173.125L172.81 86.4158L172.354 86.6199ZM161.453 62.242L161.91 62.0379L161.778 61.742H161.453V62.242ZM155.881 62.242V61.742H155.557L155.425 62.0384L155.881 62.242ZM145.016 86.6199L144.559 86.4163L144.245 87.1199H145.016V86.6199ZM150.797 86.6199V87.1199H151.131L151.259 86.8109L150.797 86.6199ZM152.956 81.396V80.896H152.622L152.494 81.205L152.956 81.396ZM164.274 81.396L164.736 81.205L164.609 80.896H164.274V81.396ZM154.767 77.1125L154.305 76.9212L154.019 77.6125H154.767V77.1125ZM158.632 67.7792L159.094 67.5879L158.632 66.4726L158.171 67.5879L158.632 67.7792ZM162.498 77.1125V77.6125H163.246L162.96 76.9212L162.498 77.1125ZM166.433 87.1199H172.354V86.1199H166.433V87.1199ZM172.81 86.4158L161.91 62.0379L160.997 62.446L171.897 86.824L172.81 86.4158ZM161.453 61.742H155.881V62.742H161.453V61.742ZM155.425 62.0384L144.559 86.4163L145.472 86.8234L156.338 62.4455L155.425 62.0384ZM145.016 87.1199H150.797V86.1199H145.016V87.1199ZM151.259 86.8109L153.418 81.587L152.494 81.205L150.335 86.4289L151.259 86.8109ZM152.956 81.896H164.274V80.896H152.956V81.896ZM163.812 81.587L165.971 86.8109L166.896 86.4289L164.736 81.205L163.812 81.587ZM155.229 77.3038L159.094 67.9706L158.171 67.5879L154.305 76.9212L155.229 77.3038ZM158.171 67.9706L162.036 77.3038L162.96 76.9212L159.094 67.5879L158.171 67.9706ZM162.498 76.6125H154.767V77.6125H162.498V76.6125Z" fill="#4788C7"/>
<path d="M173.68 24.8401C173.58 24.5701 173.49 24.3 173.41 24.03C173.18 23.33 172.95 22.6101 172.58 21.8901C170.2 17.1801 166.19 14.79 160.61 14.79C152.43 14.81 144.24 14.8101 136.06 14.8101C127.13 14.8101 118.2 14.8101 109.26 14.8301C108.63 14.8301 108.32 14.7 107.88 14.24C104.76 11.06 101.56 7.87004 98.4602 4.79004L96.9102 3.25C95.9302 2.28 94.4002 0.98999 92.3702 0.98999C90.3402 0.98999 88.8202 2.28 87.8402 3.25L86.0802 5C83.0802 7.98 79.9902 11.0601 76.9802 14.1401C76.4502 14.6901 76.0802 14.8401 75.3302 14.8401C65.2402 14.8101 55.1402 14.8 45.0502 14.8H24.4502C16.0002 14.8 10.9602 19.8801 10.9502 28.3701V30.2C10.9502 32.33 10.9502 34.4601 10.9502 36.6001C10.9602 40.3701 13.0702 42.8499 16.3102 42.9099H16.4202C19.6802 42.9099 21.7902 40.47 21.8102 36.7C21.8202 34.9799 21.8202 33.25 21.8102 31.53V28.47C21.8102 25.93 22.0802 25.6699 24.6602 25.6699H47.6202C57.5402 25.6699 67.4702 25.67 77.4102 25.7C79.7502 25.7 81.6602 24.91 83.2402 23.28C85.5602 20.9 87.9602 18.51 90.2802 16.21L92.3702 14.1301C92.9302 14.6901 93.4802 15.24 94.0402 15.79C96.5702 18.3 98.9502 20.6801 101.34 23.1401C103.03 24.8901 104.96 25.7 107.45 25.7C117.16 25.68 126.87 25.6699 136.59 25.6699H160.18C162.6 25.6699 162.91 25.9799 162.91 28.4299C162.91 29.3499 162.91 30.2699 162.9 31.1899C162.89 33.2499 162.88 35.37 162.94 37.48C163.03 40.53 165.33 42.9299 168.18 42.9299C168.93 42.9299 169.67 42.7599 170.37 42.4299C171.45 41.9299 172.14 41.02 172.7 40.28C172.88 40.04 173.06 39.8001 173.25 39.5901L173.77 39.02V25.1699L173.68 24.8401Z" fill="#98CCFD" stroke="#4788C7" stroke-miterlimit="10"/>
<path d="M168.5 108.05C168 108.05 167.5 108.12 166.95 108.26C165.12 108.73 162.94 110.18 162.93 114.45C162.93 116.1 162.93 122.36 162.93 122.36C162.93 125.05 162.71 125.27 160.04 125.27H136.52C126.84 125.27 117.15 125.26 107.44 125.24C104.98 125.24 103.05 126.05 101.36 127.8C99.1601 130.08 96.8702 132.35 94.6502 134.55L92.3801 136.81C91.8201 136.25 91.2601 135.69 90.7001 135.14C88.1701 132.62 85.7701 130.23 83.3801 127.76C81.7101 126.03 79.7701 125.23 77.2601 125.23C67.5901 125.25 57.9201 125.26 48.2401 125.26L24.2201 125.25C22.3001 125.25 21.8502 124.81 21.8402 122.91C21.8302 121.27 21.8301 119.62 21.8301 117.98C21.8301 116.78 21.8301 115.59 21.8301 114.39C21.8201 110.52 19.7001 108.02 16.4401 108.02H16.3201C13.7301 108.07 10.9601 109.79 10.9501 114.49C10.9501 115.35 10.9601 116.21 10.9701 117.08C10.9901 118.88 11.0201 120.58 10.9301 122.3C10.7201 126.11 11.9301 129.6 14.3301 132.13C16.8201 134.76 20.4001 136.2 24.4201 136.2H24.6201C30.9301 136.13 37.6701 136.09 46.4701 136.09C50.2201 136.09 53.9601 136.09 57.7001 136.1C61.4501 136.11 65.1901 136.11 68.9401 136.11C71.1201 136.11 73.2901 136.11 75.4801 136.1C76.1001 136.1 76.4101 136.23 76.8601 136.7C80.0201 139.93 83.2701 143.16 86.4201 146.29L87.8402 147.7C88.8102 148.67 90.3401 149.96 92.3701 149.96C94.4001 149.96 95.9301 148.67 96.9101 147.7L98.4002 146.22C101.52 143.11 104.75 139.9 107.89 136.7C108.34 136.24 108.65 136.11 109.28 136.11C117.78 136.13 126.28 136.14 134.78 136.14C144.26 136.14 152.67 136.12 160.48 136.08C162.58 136.07 164.86 135.59 166.91 134.74C171.28 132.92 172.9 128.85 173.73 125.95L173.81 125.68V112.18L173.58 111.74C173.09 110.85 171.62 108.05 168.5 108.05Z" fill="#98CCFD" stroke="#4788C7" stroke-miterlimit="10"/>
</svg>
