<svg width="60" height="60" viewBox="0 0 60 60" fill="none" xmlns="http://www.w3.org/2000/svg">
<path d="M30.1767 21.5232L30 21.3465L29.8232 21.5232L22.9299 28.4165L19.7461 25.2349L30 14.9786L40.2539 25.2324L37.07 28.414L30.1767 21.5232ZM29.8232 38.4768L30 38.6535L30.1767 38.4768L37.07 31.586L40.2539 34.7676L30 45.0214L19.7461 34.7651L22.9299 31.5835L29.8232 38.4768Z" fill="#98CCFD" stroke="#4788C7" stroke-width="0.5"/>
<path d="M2.75 12.5C2.75 9.91414 3.77723 7.43419 5.60571 5.60571C7.43419 3.77723 9.91414 2.75 12.5 2.75H47.5C50.0859 2.75 52.5658 3.77723 54.3943 5.60571C56.2228 7.43419 57.25 9.91414 57.25 12.5V47.5C57.25 50.0859 56.2228 52.5658 54.3943 54.3943C52.5658 56.2228 50.0859 57.25 47.5 57.25H12.5C9.91414 57.25 7.43419 56.2228 5.60571 54.3943C3.77723 52.5658 2.75 50.0859 2.75 47.5V12.5ZM47.5 7.25H12.5C11.1076 7.25 9.77225 7.80312 8.78769 8.78769C7.80312 9.77225 7.25 11.1076 7.25 12.5V47.5C7.25 48.8924 7.80312 50.2277 8.78769 51.2123C9.77225 52.1969 11.1076 52.75 12.5 52.75H47.5C48.8924 52.75 50.2277 52.1969 51.2123 51.2123C52.1969 50.2277 52.75 48.8924 52.75 47.5V12.5C52.75 11.1076 52.1969 9.77225 51.2123 8.78769C50.2277 7.80312 48.8924 7.25 47.5 7.25Z" fill="#98CCFD" stroke="#4788C7" stroke-width="0.5"/>
</svg>
