<svg width="40" height="40" viewBox="0 0 40 40" fill="none" xmlns="http://www.w3.org/2000/svg">
<path d="M20 38C10.075 38 2 29.925 2 20C2 10.075 10.075 2 20 2C29.925 2 38 10.075 38 20C38 29.925 29.925 38 20 38Z" fill="#DFF0FE"/>
<path d="M33.7161 31.2H32.7561C29.6381 34.747 25.0821 37 20.0001 37C12.6421 37 6.36208 32.3 4.00208 25.745C3.91308 25.499 2.94208 25.662 3.05908 25.991C3.13108 26.196 3.17408 26.341 3.26808 26.608C5.90108 33.278 12.3941 38 20.0001 38C25.7421 38 30.8451 35.302 34.1401 31.114C33.9581 31.096 33.8041 31.112 33.7161 31.2Z" fill="#4788C7"/>
<path d="M27.207 29.5H34.5V36.793L27.207 29.5Z" fill="#98CCFD"/>
<path d="M33.9999 30V35.586L28.4139 30H33.9999ZM34.9999 29H25.9999L34.9999 38V29ZM3.47189 13.112C3.37889 13.168 3.30389 13.254 3.26189 13.363C3.20889 13.502 2.97689 14.172 2.93289 14.309C2.85089 14.572 2.99689 14.852 3.25889 14.935C3.40089 14.98 3.54889 14.958 3.66789 14.887C3.76889 14.826 3.84889 14.73 3.88689 14.609C3.98189 14.309 4.08489 14.011 4.19689 13.717C4.29489 13.459 4.16489 13.17 3.90589 13.072C3.75689 13.017 3.59789 13.036 3.47189 13.112ZM3.66889 25.112C3.54189 25.036 3.38289 25.016 3.23389 25.073C2.97589 25.171 2.85789 25.455 2.94289 25.718C3.04889 26.045 3.12589 26.309 3.25289 26.61C3.29089 26.731 3.37089 26.827 3.47189 26.888C3.59089 26.959 3.73789 26.981 3.88089 26.936C4.14389 26.853 4.28889 26.573 4.20689 26.31C4.16289 26.172 3.93089 25.502 3.87789 25.364C3.83689 25.255 3.76189 25.168 3.66889 25.112ZM2.41189 17.088C2.28789 17.163 2.19689 17.29 2.17389 17.444C2.16289 17.521 2.06689 18.372 2.06089 18.441C2.03889 18.715 2.24189 18.957 2.51689 18.98C2.62589 18.989 2.72989 18.963 2.81689 18.911C2.94989 18.831 3.04389 18.691 3.05789 18.525C3.08489 18.211 3.11989 17.898 3.16389 17.587C3.20289 17.314 3.01189 17.061 2.73889 17.022C2.62089 17.005 2.50589 17.031 2.41189 17.088ZM2.29689 21.088C2.13889 21.183 2.03989 21.361 2.05589 21.557C2.08289 21.89 2.11989 22.221 2.16589 22.554C2.20489 22.827 2.45689 23.017 2.72989 22.979C2.79889 22.969 2.86189 22.946 2.91889 22.913C3.08589 22.813 3.18489 22.62 3.15689 22.415C3.11389 22.102 3.07889 21.79 3.05289 21.477C3.02989 21.202 2.78889 20.997 2.51389 21.02C2.43389 21.025 2.36089 21.05 2.29689 21.088ZM6.33789 8.8H7.29789C10.4159 5.253 14.9719 3 20.0549 3C27.4129 3 33.6929 7.7 36.0529 14.255C36.1419 14.501 37.1129 14.338 36.9959 14.009C36.9239 13.804 36.8809 13.659 36.7869 13.392C34.1529 6.722 27.6609 2 20.0549 2C14.3119 2 9.20989 4.698 5.91389 8.886C6.09689 8.904 6.24989 8.888 6.33789 8.8Z" fill="#4788C7"/>
<path d="M36.5831 26.888C36.6761 26.832 36.7511 26.746 36.7931 26.637C36.8461 26.498 37.0781 25.828 37.1221 25.691C37.2041 25.428 37.0581 25.148 36.7961 25.065C36.6541 25.02 36.5061 25.042 36.3871 25.113C36.2861 25.174 36.2061 25.27 36.1681 25.391C36.0731 25.691 35.9701 25.989 35.8581 26.283C35.7601 26.541 35.8901 26.83 36.1491 26.928C36.2971 26.983 36.4561 26.964 36.5831 26.888ZM36.3861 14.888C36.5131 14.964 36.6721 14.984 36.8211 14.927C37.0791 14.829 37.1971 14.545 37.1121 14.282C37.0061 13.955 36.9291 13.691 36.8021 13.39C36.7641 13.269 36.6841 13.173 36.5831 13.112C36.4641 13.041 36.3171 13.019 36.1741 13.064C35.9111 13.147 35.7661 13.427 35.8481 13.69C35.8921 13.828 36.1241 14.498 36.1771 14.636C36.2171 14.745 36.2931 14.832 36.3861 14.888ZM37.6431 22.912C37.7671 22.837 37.8581 22.71 37.8811 22.556C37.8921 22.479 37.9881 21.628 37.9941 21.559C38.0161 21.285 37.8131 21.043 37.5381 21.02C37.4291 21.011 37.3251 21.037 37.2381 21.089C37.1051 21.169 37.0111 21.309 36.9971 21.475C36.9701 21.789 36.9351 22.102 36.8911 22.413C36.8521 22.686 37.0431 22.939 37.3161 22.978C37.4341 22.995 37.5481 22.969 37.6431 22.912ZM37.7571 18.912C37.9151 18.817 38.0141 18.639 37.9981 18.443C37.9711 18.11 37.9341 17.779 37.8881 17.446C37.8491 17.173 37.5971 16.983 37.3241 17.021C37.2551 17.031 37.1921 17.054 37.1351 17.087C36.9681 17.187 36.8691 17.38 36.8971 17.585C36.9401 17.898 36.9751 18.21 37.0011 18.523C37.0241 18.798 37.2651 19.003 37.5401 18.98C37.6201 18.975 37.6931 18.95 37.7571 18.912Z" fill="#4788C7"/>
<path d="M5.5 10.5V3.207L12.793 10.5H5.5Z" fill="#98CCFD"/>
<path d="M6 4.414L11.586 10H6V4.414ZM5 2V11H14L5 2Z" fill="#4788C7"/>
</svg>
