<svg width="75" height="75" viewBox="0 0 75 75" fill="none" xmlns="http://www.w3.org/2000/svg">
<path d="M12.3536 37.5L37.5 12.3536L62.6464 37.5L37.5 62.6464L12.3536 37.5Z" fill="#98CCFD" stroke="#4788C7" stroke-width="0.5"/>
<path d="M37.4996 70.0624H37.5005C38.1087 70.0636 38.7111 69.9446 39.2731 69.7122C39.8351 69.4799 40.3457 69.1387 40.7755 68.7084L40.7756 68.7083L68.7081 40.7757C69.5754 39.9061 70.0624 38.728 70.0624 37.4999C70.0624 36.2717 69.5754 35.0937 68.7081 34.2241L40.7758 6.29175L37.4996 70.0624ZM37.4996 70.0624C36.8913 70.0633 36.2888 69.9439 35.7268 69.7112C35.1647 69.4784 34.6542 69.1369 34.2247 68.7062L34.2244 68.7059M37.4996 70.0624L34.2244 68.7059M34.2244 68.7059L6.29186 40.778M34.2244 68.7059L6.29186 40.778M6.29186 40.778C5.42462 39.9084 4.93761 38.7304 4.93761 37.5022C4.93761 36.2742 5.42453 35.0963 6.29163 34.2267L6.29186 40.778ZM65.7455 37.1872L37.8186 9.25555C37.8184 9.25532 37.8181 9.25509 37.8179 9.25487C37.7763 9.21293 37.7269 9.17964 37.6724 9.15692C37.6176 9.13408 37.5587 9.1224 37.4994 9.12255L37.25 9.12317V9.19946C37.2266 9.21502 37.2046 9.2328 37.1844 9.25259L37.1826 9.25437L9.2568 37.1825L9.25564 37.1837C9.17312 37.2673 9.12685 37.3801 9.12685 37.4975C9.12685 37.615 9.17312 37.7278 9.25564 37.8114L9.25679 37.8126L37.1826 65.7454L37.1838 65.7466C37.2674 65.8291 37.3802 65.8754 37.4977 65.8754C37.6151 65.8754 37.7279 65.8291 37.8115 65.7466L37.8127 65.7454L65.7455 37.8173L65.7467 37.8161C65.8292 37.7325 65.8755 37.6197 65.8755 37.5022C65.8755 37.3847 65.8292 37.272 65.7467 37.1884L65.7455 37.1872ZM6.29186 34.2264L34.2242 6.29175C35.0938 5.42451 36.2718 4.9375 37.5 4.9375C38.728 4.9375 39.906 5.42442 40.7756 6.29151L6.29186 34.2264Z" fill="#98CCFD" stroke="#4788C7" stroke-width="0.5"/>
<path d="M22.5156 37.6074C22.5156 36.8424 22.7516 36.1995 23.2236 35.6787C23.7119 35.1416 24.4118 34.873 25.3232 34.873C26.2347 34.873 26.9264 35.1416 27.3984 35.6787C27.8867 36.1995 28.1309 36.8424 28.1309 37.6074C28.1309 38.3561 27.8867 38.9909 27.3984 39.5117C26.9264 40.0326 26.2347 40.293 25.3232 40.293C24.4118 40.293 23.7119 40.0326 23.2236 39.5117C22.7516 38.9909 22.5156 38.3561 22.5156 37.6074ZM35.6992 37.6074C35.6992 36.8424 35.9352 36.1995 36.4072 35.6787C36.8955 35.1416 37.5954 34.873 38.5068 34.873C39.4183 34.873 40.11 35.1416 40.582 35.6787C41.0703 36.1995 41.3145 36.8424 41.3145 37.6074C41.3145 38.3561 41.0703 38.9909 40.582 39.5117C40.11 40.0326 39.4183 40.293 38.5068 40.293C37.5954 40.293 36.8955 40.0326 36.4072 39.5117C35.9352 38.9909 35.6992 38.3561 35.6992 37.6074ZM48.8828 37.6074C48.8828 36.8424 49.1188 36.1995 49.5908 35.6787C50.0791 35.1416 50.779 34.873 51.6904 34.873C52.6019 34.873 53.2936 35.1416 53.7656 35.6787C54.2539 36.1995 54.498 36.8424 54.498 37.6074C54.498 38.3561 54.2539 38.9909 53.7656 39.5117C53.2936 40.0326 52.6019 40.293 51.6904 40.293C50.779 40.293 50.0791 40.0326 49.5908 39.5117C49.1188 38.9909 48.8828 38.3561 48.8828 37.6074Z" fill="white"/>
<path d="M23.2236 35.6787L22.8537 35.3424L22.8531 35.343L23.2236 35.6787ZM27.3984 35.6787L27.0229 36.0088L27.0282 36.0148L27.0337 36.0207L27.3984 35.6787ZM27.3984 39.5117L27.0336 39.1697L27.0279 39.176L27.3984 39.5117ZM23.2236 39.5117L22.8531 39.8475L22.8589 39.8537L23.2236 39.5117ZM23.0156 37.6074C23.0156 36.9547 23.2131 36.4349 23.5941 36.0145L22.8531 35.343C22.2901 35.9642 22.0156 36.7302 22.0156 37.6074H23.0156ZM23.5936 36.015C23.964 35.6077 24.5141 35.373 25.3232 35.373V34.373C24.3095 34.373 23.4599 34.6755 22.8537 35.3424L23.5936 36.015ZM25.3232 35.373C26.1332 35.373 26.6705 35.6079 27.0229 36.0088L27.774 35.3487C27.1823 34.6753 26.3362 34.373 25.3232 34.373V35.373ZM27.0337 36.0207C27.4285 36.4418 27.6309 36.9595 27.6309 37.6074H28.6309C28.6309 36.7254 28.3449 35.9573 27.7632 35.3367L27.0337 36.0207ZM27.6309 37.6074C27.6309 38.2359 27.4305 38.7464 27.0337 39.1697L27.7632 39.8537C28.3429 39.2353 28.6309 38.4763 28.6309 37.6074H27.6309ZM27.0279 39.176C26.6769 39.5633 26.1379 39.793 25.3232 39.793V40.793C26.3315 40.793 27.176 40.5018 27.7689 39.8475L27.0279 39.176ZM25.3232 39.793C24.5095 39.793 23.9576 39.5636 23.5884 39.1697L22.8589 39.8537C23.4662 40.5015 24.3141 40.793 25.3232 40.793V39.793ZM23.5941 39.176C23.2112 38.7534 23.0156 38.2408 23.0156 37.6074H22.0156C22.0156 38.4714 22.292 39.2283 22.8531 39.8475L23.5941 39.176ZM36.4072 35.6787L36.0373 35.3424L36.0367 35.343L36.4072 35.6787ZM40.582 35.6787L40.2064 36.0088L40.2118 36.0148L40.2173 36.0207L40.582 35.6787ZM40.582 39.5117L40.2172 39.1697L40.2115 39.176L40.582 39.5117ZM36.4072 39.5117L36.0367 39.8475L36.0425 39.8537L36.4072 39.5117ZM36.1992 37.6074C36.1992 36.9547 36.3967 36.4349 36.7777 36.0145L36.0367 35.343C35.4737 35.9642 35.1992 36.7302 35.1992 37.6074H36.1992ZM36.7772 36.015C37.1476 35.6077 37.6977 35.373 38.5068 35.373V34.373C37.4931 34.373 36.6435 34.6755 36.0373 35.3424L36.7772 36.015ZM38.5068 35.373C39.3168 35.373 39.8541 35.6079 40.2064 36.0088L40.9576 35.3487C40.3659 34.6753 39.5198 34.373 38.5068 34.373V35.373ZM40.2173 36.0207C40.6121 36.4418 40.8145 36.9595 40.8145 37.6074H41.8145C41.8145 36.7254 41.5285 35.9573 40.9468 35.3367L40.2173 36.0207ZM40.8145 37.6074C40.8145 38.2359 40.6141 38.7464 40.2173 39.1697L40.9468 39.8537C41.5265 39.2353 41.8145 38.4763 41.8145 37.6074H40.8145ZM40.2115 39.176C39.8605 39.5633 39.3215 39.793 38.5068 39.793V40.793C39.515 40.793 40.3595 40.5018 40.9525 39.8475L40.2115 39.176ZM38.5068 39.793C37.6931 39.793 37.1412 39.5636 36.772 39.1697L36.0425 39.8537C36.6498 40.5015 37.4977 40.793 38.5068 40.793V39.793ZM36.7777 39.176C36.3948 38.7534 36.1992 38.2408 36.1992 37.6074H35.1992C35.1992 38.4714 35.4756 39.2283 36.0367 39.8475L36.7777 39.176ZM49.5908 35.6787L49.2208 35.3424L49.2203 35.343L49.5908 35.6787ZM53.7656 35.6787L53.39 36.0088L53.3954 36.0148L53.4009 36.0207L53.7656 35.6787ZM53.7656 39.5117L53.4008 39.1697L53.3951 39.176L53.7656 39.5117ZM49.5908 39.5117L49.2203 39.8475L49.2261 39.8537L49.5908 39.5117ZM49.3828 37.6074C49.3828 36.9547 49.5803 36.4349 49.9613 36.0145L49.2203 35.343C48.6573 35.9642 48.3828 36.7302 48.3828 37.6074H49.3828ZM49.9608 36.015C50.3311 35.6077 50.8813 35.373 51.6904 35.373V34.373C50.6767 34.373 49.8271 34.6755 49.2208 35.3424L49.9608 36.015ZM51.6904 35.373C52.5004 35.373 53.0377 35.6079 53.39 36.0088L54.1412 35.3487C53.5495 34.6753 52.7034 34.373 51.6904 34.373V35.373ZM53.4009 36.0207C53.7957 36.4418 53.998 36.9595 53.998 37.6074H54.998C54.998 36.7254 54.7121 35.9573 54.1304 35.3367L53.4009 36.0207ZM53.998 37.6074C53.998 38.2359 53.7977 38.7464 53.4009 39.1697L54.1304 39.8537C54.7101 39.2353 54.998 38.4763 54.998 37.6074H53.998ZM53.3951 39.176C53.0441 39.5633 52.5051 39.793 51.6904 39.793V40.793C52.6986 40.793 53.5431 40.5018 54.1361 39.8475L53.3951 39.176ZM51.6904 39.793C50.8767 39.793 50.3248 39.5636 49.9556 39.1697L49.2261 39.8537C49.8334 40.5015 50.6813 40.793 51.6904 40.793V39.793ZM49.9613 39.176C49.5784 38.7534 49.3828 38.2408 49.3828 37.6074H48.3828C48.3828 38.4714 48.6592 39.2283 49.2203 39.8475L49.9613 39.176Z" fill="#4788C7"/>
</svg>
