<svg width="138" height="141" viewBox="0 0 138 141" fill="none" xmlns="http://www.w3.org/2000/svg">
<path d="M75.2982 137.472H82.096C86.9912 137.472 90.3473 134.522 90.3473 129.99C90.3473 125.458 86.9912 122.508 82.096 122.508H75.2982V137.472ZM78.7612 134.629V125.352H81.9249C84.8963 125.352 86.8416 127.126 86.8416 129.99C86.8416 132.855 84.8963 134.629 81.9249 134.629H78.7612ZM95.8498 137.472H99.3128V125.33H104.101V122.508H91.0614V125.33H95.8498V137.472ZM116.393 137.472H120.027L113.336 122.508H109.916L103.246 137.472H106.795L108.12 134.266H115.068L116.393 137.472ZM109.232 131.636L111.605 125.907L113.977 131.636H109.232ZM136.014 137.237C135.308 137.985 134.496 138.349 133.577 138.349C132.829 138.349 132.187 138.071 131.46 137.301C134.646 136.275 136.805 133.496 136.805 129.99C136.805 125.523 133.32 122.252 128.617 122.252C123.893 122.252 120.43 125.544 120.43 129.99C120.43 134.052 123.316 137.151 127.42 137.664C129.729 140.101 131.289 140.914 133.513 140.914C135.159 140.914 136.569 140.272 137.553 139.075L136.014 137.237ZM123.936 129.99C123.936 127.147 125.945 125.202 128.617 125.202C131.289 125.202 133.299 127.147 133.299 129.99C133.299 132.833 131.289 134.779 128.617 134.779C125.945 134.779 123.936 132.833 123.936 129.99Z" fill="#98CCFD"/>
<path d="M75.2982 137.472H74.8053V137.965H75.2982V137.472ZM75.2982 122.508V122.016H74.8053V122.508H75.2982ZM78.7612 134.629H78.2684V135.122H78.7612V134.629ZM78.7612 125.352V124.859H78.2684V125.352H78.7612ZM75.2982 137.965H82.096V136.979H75.2982V137.965ZM82.096 137.965C84.6413 137.965 86.829 137.197 88.3868 135.797C89.9496 134.393 90.8402 132.385 90.8402 129.99H89.8545C89.8545 132.127 89.067 133.861 87.7279 135.064C86.3838 136.272 84.4459 136.979 82.096 136.979V137.965ZM90.8402 129.99C90.8402 127.595 89.9496 125.588 88.3868 124.183C86.829 122.783 84.6413 122.016 82.096 122.016V123.001C84.4459 123.001 86.3838 123.709 87.7279 124.916C89.067 126.12 89.8545 127.853 89.8545 129.99H90.8402ZM82.096 122.016H75.2982V123.001H82.096V122.016ZM74.8053 122.508V137.472H75.791V122.508H74.8053ZM79.254 134.629V125.352H78.2684V134.629H79.254ZM78.7612 125.844H81.9249V124.859H78.7612V125.844ZM81.9249 125.844C83.3135 125.844 84.413 126.258 85.161 126.957C85.9051 127.652 86.3487 128.674 86.3487 129.99H87.3344C87.3344 128.442 86.8054 127.144 85.834 126.237C84.8665 125.332 83.5077 124.859 81.9249 124.859V125.844ZM86.3487 129.99C86.3487 131.306 85.9051 132.328 85.161 133.024C84.413 133.723 83.3135 134.136 81.9249 134.136V135.122C83.5077 135.122 84.8665 134.648 85.834 133.744C86.8054 132.836 87.3344 131.539 87.3344 129.99H86.3487ZM81.9249 134.136H78.7612V135.122H81.9249V134.136ZM95.8498 137.472H95.357V137.965H95.8498V137.472ZM99.3128 137.472V137.965H99.8057V137.472H99.3128ZM99.3128 125.33V124.837H98.82V125.33H99.3128ZM104.101 125.33V125.823H104.594V125.33H104.101ZM104.101 122.508H104.594V122.016H104.101V122.508ZM91.0614 122.508V122.016H90.5686V122.508H91.0614ZM91.0614 125.33H90.5686V125.823H91.0614V125.33ZM95.8498 125.33H96.3427V124.837H95.8498V125.33ZM95.8498 137.965H99.3128V136.979H95.8498V137.965ZM99.8057 137.472V125.33H98.82V137.472H99.8057ZM99.3128 125.823H104.101V124.837H99.3128V125.823ZM104.594 125.33V122.508H103.608V125.33H104.594ZM104.101 122.016H91.0614V123.001H104.101V122.016ZM90.5686 122.508V125.33H91.5543V122.508H90.5686ZM91.0614 125.823H95.8498V124.837H91.0614V125.823ZM95.357 125.33V137.472H96.3427V125.33H95.357ZM116.393 137.472L115.937 137.66L116.063 137.965H116.393V137.472ZM120.027 137.472V137.965H120.787L120.477 137.271L120.027 137.472ZM113.336 122.508L113.786 122.307L113.656 122.016H113.336V122.508ZM109.916 122.508V122.016H109.596L109.466 122.308L109.916 122.508ZM103.246 137.472L102.796 137.271L102.487 137.965H103.246V137.472ZM106.795 137.472V137.965H107.124L107.25 137.66L106.795 137.472ZM108.12 134.266V133.773H107.791L107.665 134.077L108.12 134.266ZM115.068 134.266L115.523 134.077L115.397 133.773H115.068V134.266ZM109.232 131.636L108.776 131.448L108.494 132.129H109.232V131.636ZM111.605 125.907L112.06 125.719L111.605 124.619L111.149 125.719L111.605 125.907ZM113.977 131.636V132.129H114.715L114.433 131.448L113.977 131.636ZM116.393 137.965H120.027V136.979H116.393V137.965ZM120.477 137.271L113.786 122.307L112.886 122.71L119.577 137.673L120.477 137.271ZM113.336 122.016H109.916V123.001H113.336V122.016ZM109.466 122.308L102.796 137.271L103.696 137.673L110.366 122.709L109.466 122.308ZM103.246 137.965H106.795V136.979H103.246V137.965ZM107.25 137.66L108.576 134.454L107.665 134.077L106.339 137.284L107.25 137.66ZM108.12 134.758H115.068V133.773H108.12V134.758ZM114.612 134.454L115.937 137.66L116.848 137.284L115.523 134.077L114.612 134.454ZM109.687 131.825L112.06 126.096L111.149 125.719L108.776 131.448L109.687 131.825ZM111.149 126.096L113.522 131.825L114.433 131.448L112.06 125.719L111.149 126.096ZM113.977 131.143H109.232V132.129H113.977V131.143ZM136.014 137.237L136.392 136.921L136.036 136.495L135.655 136.899L136.014 137.237ZM131.46 137.301L131.309 136.832L130.566 137.072L131.102 137.639L131.46 137.301ZM127.42 137.664L127.778 137.326L127.657 137.197L127.481 137.175L127.42 137.664ZM137.553 139.075L137.934 139.388L138.193 139.072L137.931 138.759L137.553 139.075ZM135.655 136.899C135.033 137.558 134.347 137.856 133.577 137.856V138.841C134.645 138.841 135.583 138.412 136.372 137.575L135.655 136.899ZM133.577 137.856C132.992 137.856 132.474 137.656 131.819 136.963L131.102 137.639C131.901 138.485 132.665 138.841 133.577 138.841V137.856ZM131.612 137.77C134.993 136.681 137.297 133.718 137.297 129.99H136.312C136.312 133.274 134.298 135.869 131.309 136.832L131.612 137.77ZM137.297 129.99C137.297 125.224 133.565 121.759 128.617 121.759V122.745C133.076 122.745 136.312 125.822 136.312 129.99H137.297ZM128.617 121.759C123.647 121.759 119.937 125.247 119.937 129.99H120.923C120.923 125.841 124.14 122.745 128.617 122.745V121.759ZM119.937 129.99C119.937 134.317 123.025 137.612 127.359 138.154L127.481 137.175C123.607 136.691 120.923 133.787 120.923 129.99H119.937ZM127.062 138.003C128.232 139.238 129.242 140.094 130.267 140.638C131.305 141.189 132.332 141.407 133.513 141.407V140.421C132.47 140.421 131.605 140.232 130.73 139.768C129.841 139.296 128.917 138.528 127.778 137.326L127.062 138.003ZM133.513 141.407C135.295 141.407 136.85 140.707 137.934 139.388L137.172 138.763C136.289 139.838 135.022 140.421 133.513 140.421V141.407ZM137.931 138.759L136.392 136.921L135.636 137.553L137.175 139.392L137.931 138.759ZM124.429 129.99C124.429 127.416 126.22 125.695 128.617 125.695V124.709C125.67 124.709 123.443 126.878 123.443 129.99H124.429ZM128.617 125.695C131.014 125.695 132.806 127.416 132.806 129.99H133.792C133.792 126.878 131.565 124.709 128.617 124.709V125.695ZM132.806 129.99C132.806 132.564 131.014 134.286 128.617 134.286V135.271C131.565 135.271 133.792 133.103 133.792 129.99H132.806ZM128.617 134.286C126.22 134.286 124.429 132.564 124.429 129.99H123.443C123.443 133.103 125.67 135.271 128.617 135.271V134.286Z" fill="#4788C7"/>
<path d="M57.58 123.71H18.42C14.81 123.71 12.9 121.79 12.89 118.16V95.04C24.58 95.04 36.27 95.04 47.95 95.03C48.61 95.03 49.43 95.03 50.25 94.8C53.14 93.99 55.06 91.09 54.64 88.19C54.17 85.08 51.67 82.9 48.56 82.88H12.99V54.2H96.04C100.28 54.2 102.71 51.76 102.71 47.5V40.13C102.72 32.76 102.72 25.39 102.7 18.02C102.69 8.77002 95.18 1.23003 85.95 1.22003C74.53 1.21003 63.11 1.21002 51.69 1.21002C40.28 1.21002 28.86 1.21003 17.44 1.22003C8.39999 1.23003 0.749976 8.90002 0.739976 17.96C0.729976 51.69 0.719985 85.41 0.749985 119.14C0.759985 124.41 2.97996 128.85 7.34996 132.35C9.69996 134.23 12.4 135.09 14.96 135.8L15.22 135.87H60.14L60.59 135.63C64.78 133.35 65.04 130.42 64.52 128.37C63.99 126.25 62.35 123.71 57.58 123.71ZM12.89 18.91C12.9 15.29 14.81 13.37 18.42 13.37H84.99C88.63 13.37 90.55 15.27 90.55 18.88C90.56 24.18 90.56 29.48 90.56 34.78L90.55 42H12.89V18.91Z" fill="#98CCFD" stroke="#4788C7" stroke-miterlimit="10"/>
<path d="M29.9601 20.94C28.0001 20.94 26.0601 21.77 24.6501 23.2C23.2401 24.63 22.4401 26.57 22.4701 28.52C22.5201 32.64 25.8401 35.87 30.0101 35.87H30.1001C34.2101 35.82 37.4101 32.52 37.3901 28.36C37.3701 24.27 34.0301 20.94 29.9601 20.94Z" fill="#98CCFD" stroke="#4788C7" stroke-miterlimit="10"/>
<path d="M73.46 20.94C71.48 20.96 69.6199 21.74 68.2299 23.16C66.8199 24.59 66.05 26.5 66.07 28.54C66.11 32.65 69.38 35.87 73.52 35.87H73.5499C75.5799 35.86 77.47 35.06 78.89 33.6C80.29 32.16 81.04 30.28 81 28.29C80.91 24.24 77.55 20.94 73.46 20.94Z" fill="#98CCFD" stroke="#4788C7" stroke-miterlimit="10"/>
<path d="M51.69 20.94C47.64 20.97 44.32 24.3 44.28 28.37C44.26 30.38 45.02 32.26 46.42 33.67C47.83 35.09 49.72 35.87 51.74 35.87H51.75C55.88 35.86 59.14 32.62 59.17 28.49C59.19 26.48 58.41 24.59 56.99 23.15C55.57 21.73 53.71 20.94 51.69 20.94Z" fill="#98CCFD" stroke="#4788C7" stroke-miterlimit="10"/>
<path d="M106.6 62.01C106.45 61.87 106.29 61.74 106.16 61.63L104.83 60.48L96.8199 67.67L114.13 83.37H60.45V93.86H114.36L96.96 109.64L105.04 116.94L106.38 115.44L106.51 115.29C106.54 115.25 106.57 115.21 106.61 115.17C115.63 106.98 135.5 88.34 135.5 88.34L106.6 62.01Z" fill="#98CCFD" stroke="#4788C7" stroke-miterlimit="10"/>
</svg>
