<svg width="137" height="140" viewBox="0 0 137 140" fill="none" xmlns="http://www.w3.org/2000/svg">
<path d="M73.5631 134.91H80.3563C85.2482 134.91 88.6021 131.962 88.6021 127.433C88.6021 122.904 85.2482 119.957 80.3563 119.957H73.5631V134.91ZM77.0238 132.069V122.798H80.1854C83.1547 122.798 85.0987 124.571 85.0987 127.433C85.0987 130.296 83.1547 132.069 80.1854 132.069H77.0238ZM94.1008 134.91H97.5615V122.776H102.347V119.957H89.3157V122.776H94.1008V134.91ZM114.63 134.91H118.262L111.575 119.957H108.157L101.492 134.91H105.038L106.363 131.706H113.306L114.63 134.91ZM107.474 129.078L109.845 123.353L112.216 129.078H107.474ZM134.238 134.675C133.533 135.423 132.721 135.786 131.802 135.786C131.055 135.786 130.414 135.508 129.687 134.739C132.87 133.714 135.028 130.937 135.028 127.433C135.028 122.969 131.546 119.7 126.846 119.7C122.125 119.7 118.664 122.99 118.664 127.433C118.664 131.492 121.548 134.59 125.65 135.102C127.957 137.538 129.516 138.349 131.738 138.349C133.383 138.349 134.793 137.708 135.776 136.512L134.238 134.675ZM122.168 127.433C122.168 124.592 124.176 122.648 126.846 122.648C129.516 122.648 131.525 124.592 131.525 127.433C131.525 130.274 129.516 132.218 126.846 132.218C124.176 132.218 122.168 130.274 122.168 127.433Z" fill="#9DC9EC"/>
<path d="M73.5631 134.91H73.3169V135.156H73.5631V134.91ZM73.5631 119.957V119.71H73.3169V119.957H73.5631ZM77.0238 132.069H76.7776V132.315H77.0238V132.069ZM77.0238 122.798V122.551H76.7776V122.798H77.0238ZM73.5631 135.156H80.3563V134.664H73.5631V135.156ZM80.3563 135.156C82.851 135.156 84.9749 134.404 86.4782 133.053C87.9841 131.7 88.8483 129.762 88.8483 127.433H88.3558C88.3558 129.633 87.5431 131.434 86.1491 132.687C84.7525 133.942 82.7534 134.664 80.3563 134.664V135.156ZM88.8483 127.433C88.8483 125.104 87.9841 123.167 86.4782 121.813C84.9749 120.462 82.851 119.71 80.3563 119.71V120.203C82.7534 120.203 84.7525 120.925 86.1491 122.18C87.5431 123.433 88.3558 125.233 88.3558 127.433H88.8483ZM80.3563 119.71H73.5631V120.203H80.3563V119.71ZM73.3169 119.957V134.91H73.8093V119.957H73.3169ZM77.27 132.069V122.798H76.7776V132.069H77.27ZM77.0238 123.044H80.1854V122.551H77.0238V123.044ZM80.1854 123.044C81.6215 123.044 82.7851 123.472 83.5874 124.222C84.3878 124.97 84.8525 126.06 84.8525 127.433H85.3449C85.3449 125.944 84.8376 124.716 83.9236 123.862C83.0117 123.01 81.7186 122.551 80.1854 122.551V123.044ZM84.8525 127.433C84.8525 128.806 84.3878 129.897 83.5874 130.645C82.7851 131.394 81.6215 131.823 80.1854 131.823V132.315C81.7186 132.315 83.0117 131.857 83.9236 131.004C84.8376 130.15 85.3449 128.923 85.3449 127.433H84.8525ZM80.1854 131.823H77.0238V132.315H80.1854V131.823ZM94.1008 134.91H93.8546V135.156H94.1008V134.91ZM97.5615 134.91V135.156H97.8077V134.91H97.5615ZM97.5615 122.776V122.53H97.3153V122.776H97.5615ZM102.347 122.776V123.023H102.593V122.776H102.347ZM102.347 119.957H102.593V119.71H102.347V119.957ZM89.3157 119.957V119.71H89.0695V119.957H89.3157ZM89.3157 122.776H89.0695V123.023H89.3157V122.776ZM94.1008 122.776H94.347V122.53H94.1008V122.776ZM94.1008 135.156H97.5615V134.664H94.1008V135.156ZM97.8077 134.91V122.776H97.3153V134.91H97.8077ZM97.5615 123.023H102.347V122.53H97.5615V123.023ZM102.593 122.776V119.957H102.1V122.776H102.593ZM102.347 119.71H89.3157V120.203H102.347V119.71ZM89.0695 119.957V122.776H89.5619V119.957H89.0695ZM89.3157 123.023H94.1008V122.53H89.3157V123.023ZM93.8546 122.776V134.91H94.347V122.776H93.8546ZM114.63 134.91L114.402 135.004L114.465 135.156H114.63V134.91ZM118.262 134.91V135.156H118.641L118.486 134.81L118.262 134.91ZM111.575 119.957L111.8 119.856L111.735 119.71H111.575V119.957ZM108.157 119.957V119.71H107.997L107.932 119.856L108.157 119.957ZM101.492 134.91L101.267 134.81L101.113 135.156H101.492V134.91ZM105.038 134.91V135.156H105.203L105.266 135.004L105.038 134.91ZM106.363 131.706V131.459H106.198L106.135 131.612L106.363 131.706ZM113.306 131.706L113.533 131.612L113.47 131.459H113.306V131.706ZM107.474 129.078L107.246 128.984L107.105 129.324H107.474V129.078ZM109.845 123.353L110.072 123.259L109.845 122.71L109.617 123.259L109.845 123.353ZM112.216 129.078V129.324H112.585L112.444 128.984L112.216 129.078ZM114.63 135.156H118.262V134.664H114.63V135.156ZM118.486 134.81L111.8 119.856L111.35 120.057L118.037 135.011L118.486 134.81ZM111.575 119.71H108.157V120.203H111.575V119.71ZM107.932 119.856L101.267 134.81L101.717 135.01L108.382 120.057L107.932 119.856ZM101.492 135.156H105.038V134.664H101.492V135.156ZM105.266 135.004L106.59 131.8L106.135 131.612L104.811 134.816L105.266 135.004ZM106.363 131.952H113.306V131.459H106.363V131.952ZM113.078 131.8L114.402 135.004L114.858 134.816L113.533 131.612L113.078 131.8ZM107.701 129.172L110.072 123.447L109.617 123.259L107.246 128.984L107.701 129.172ZM109.617 123.447L111.989 129.172L112.444 128.984L110.072 123.259L109.617 123.447ZM112.216 128.832H107.474V129.324H112.216V128.832ZM134.238 134.675L134.426 134.517L134.248 134.305L134.058 134.506L134.238 134.675ZM129.687 134.739L129.612 134.505L129.24 134.624L129.508 134.908L129.687 134.739ZM125.65 135.102L125.829 134.933L125.768 134.869L125.68 134.858L125.65 135.102ZM135.776 136.512L135.966 136.668L136.095 136.511L135.964 136.354L135.776 136.512ZM134.058 134.506C133.395 135.209 132.646 135.54 131.802 135.54V136.032C132.795 136.032 133.67 135.636 134.417 134.844L134.058 134.506ZM131.802 135.54C131.136 135.54 130.557 135.301 129.866 134.57L129.508 134.908C130.271 135.715 130.973 136.032 131.802 136.032V135.54ZM129.763 134.973C133.044 133.917 135.274 131.048 135.274 127.433H134.782C134.782 130.826 132.697 133.511 129.612 134.505L129.763 134.973ZM135.274 127.433C135.274 122.819 131.668 119.454 126.846 119.454V119.946C131.424 119.946 134.782 123.118 134.782 127.433H135.274ZM126.846 119.454C122.002 119.454 118.418 122.841 118.418 127.433H118.911C118.911 123.138 122.248 119.946 126.846 119.946V119.454ZM118.418 127.433C118.418 131.624 121.403 134.82 125.619 135.347L125.68 134.858C121.694 134.36 118.911 131.36 118.911 127.433H118.418ZM125.471 135.272C126.632 136.497 127.62 137.331 128.611 137.857C129.607 138.385 130.593 138.596 131.738 138.596V138.103C130.662 138.103 129.757 137.907 128.841 137.422C127.92 136.932 126.975 136.143 125.829 134.933L125.471 135.272ZM131.738 138.596C133.451 138.596 134.933 137.926 135.966 136.668L135.585 136.356C134.653 137.491 133.315 138.103 131.738 138.103V138.596ZM135.964 136.354L134.426 134.517L134.049 134.833L135.587 136.67L135.964 136.354ZM122.414 127.433C122.414 124.727 124.313 122.894 126.846 122.894V122.402C124.038 122.402 121.922 124.458 121.922 127.433H122.414ZM126.846 122.894C129.379 122.894 131.278 124.727 131.278 127.433H131.771C131.771 124.458 129.654 122.402 126.846 122.402V122.894ZM131.278 127.433C131.278 130.14 129.379 131.972 126.846 131.972V132.465C129.654 132.465 131.771 130.409 131.771 127.433H131.278ZM126.846 131.972C124.313 131.972 122.414 130.14 122.414 127.433H121.922C121.922 130.409 124.038 132.465 126.846 132.465V131.972Z" fill="#1C75BC"/>
<path d="M134.21 85.1C134.02 85.24 133.81 85.36 133.64 85.52C124.61 93.7 115.59 101.88 106.57 110.07C106.41 110.22 106.28 110.39 106.19 110.49L101.24 106.02C107.66 100.2 114.16 94.3 120.67 88.4L120.59 88.24H63.75V81.75H120.61C114.05 75.8 107.55 69.91 101.1 64.06L106.15 59.53C106.2 59.57 106.38 59.72 106.55 59.88C115.56 68.05 124.56 76.22 133.57 84.38C133.76 84.55 133.98 84.69 134.19 84.85V85.1H134.21Z" fill="#9DC9EC" stroke="#1C75BC" stroke-width="0.5" stroke-miterlimit="10"/>
<path d="M98.97 15.46C98.96 7.37001 92.29 0.67002 84.21 0.66002C61.38 0.64002 38.54 0.64002 15.71 0.66002C7.72001 0.67002 1.02 7.40001 1.01 15.4C0.999995 49.13 0.990005 82.85 1.02 116.58C1.03 121.39 3.14001 125.24 6.87001 128.23C8.90001 129.86 11.31 130.63 13.76 131.31H57.9C60.39 129.96 61.36 128.31 60.85 126.3C60.31 124.15 58.72 123.15 55.85 123.15H16.69C11.98 123.15 9.17002 120.32 9.16002 115.6V90.48H10.88C22.66 90.48 34.44 90.48 46.22 90.47C46.81 90.47 47.42 90.47 47.98 90.31C49.9 89.77 51.2 87.78 50.93 85.93C50.61 83.81 48.96 82.33 46.82 82.32C34.78 82.31 22.75 82.32 10.72 82.32H9.26V49.64H94.31C97.45 49.64 98.98 48.1 98.98 44.94C98.98 35.11 98.98 25.29 98.97 15.46ZM90.82 40.17V41.44H9.16002V16.35C9.17002 11.64 11.98 8.81001 16.69 8.81001H83.26C87.99 8.81001 90.82 11.62 90.82 16.32C90.83 24.27 90.82 32.22 90.82 40.17Z" fill="#9DC9EC" stroke="#1C75BC" stroke-width="0.5" stroke-miterlimit="10"/>
<path d="M33.66 27.81C33.64 24.82 31.2 22.38 28.23 22.38C25.25 22.38 22.7 24.95 22.74 27.93C22.78 30.96 25.26 33.35 28.35 33.31C31.33 33.28 33.68 30.85 33.67 27.81H33.66Z" fill="#9DC9EC" stroke="#1C75BC" stroke-width="0.5" stroke-miterlimit="10"/>
<path d="M66.3301 27.97C66.3601 30.97 68.7801 33.33 71.8001 33.32C74.8401 33.31 77.3201 30.8 77.2501 27.78C77.1901 24.84 74.6601 22.37 71.7301 22.39C68.7001 22.41 66.2901 24.89 66.3201 27.97H66.3301Z" fill="#9DC9EC" stroke="#1C75BC" stroke-width="0.5" stroke-miterlimit="10"/>
<path d="M50.0201 33.31C53.0301 33.31 55.4201 30.92 55.4401 27.91C55.4601 24.88 52.9701 22.37 49.9701 22.38C47.0001 22.4 44.5701 24.84 44.5501 27.82C44.5201 30.87 46.9501 33.31 50.0201 33.3V33.31Z" fill="#9DC9EC" stroke="#1C75BC" stroke-width="0.5" stroke-miterlimit="10"/>
</svg>
