<svg width="24" height="24" viewBox="0 0 24 24" fill="none" xmlns="http://www.w3.org/2000/svg">
<mask id="path-1-inside-1_404_192" fill="white">
<path d="M0.803 14.817C0.803 14.5607 0.904827 14.3148 1.08608 14.1336C1.26734 13.9523 1.51317 13.8505 1.7695 13.8505C2.02583 13.8505 2.27166 13.9523 2.45292 14.1336C2.63417 14.3148 2.736 14.5607 2.736 14.817C2.736 15.0733 2.63417 15.3192 2.45292 15.5004C2.27166 15.6817 2.02583 15.7835 1.7695 15.7835C1.51317 15.7835 1.26734 15.6817 1.08608 15.5004C0.904827 15.3192 0.803 15.0733 0.803 14.817ZM3.539 14.817C3.539 14.621 3.486 14.441 3.427 14.264C3.193 13.562 2.551 13.048 1.77 13.048C1.645 13.048 1.535 13.094 1.417 13.118C0.615 13.286 0 13.965 0 14.817C0.0109841 15.279 0.202235 15.7184 0.532884 16.0413C0.863533 16.3642 1.30735 16.5449 1.7695 16.5449C2.23165 16.5449 2.67547 16.3642 3.00612 16.0413C3.33676 15.7184 3.52802 15.279 3.539 14.817ZM1.769 7.668C1.89599 7.668 2.02173 7.69301 2.13905 7.74161C2.25638 7.7902 2.36298 7.86143 2.45277 7.95123C2.54257 8.04102 2.6138 8.14762 2.66239 8.26494C2.71099 8.38227 2.736 8.50801 2.736 8.635C2.736 8.76199 2.71099 8.88773 2.66239 9.00505C2.6138 9.12238 2.54257 9.22898 2.45277 9.31877C2.36298 9.40857 2.25638 9.47979 2.13905 9.52839C2.02173 9.57699 1.89599 9.602 1.769 9.602C1.51254 9.602 1.26658 9.50012 1.08523 9.31877C0.90388 9.13742 0.802 8.89146 0.802 8.635C0.802 8.37853 0.90388 8.13257 1.08523 7.95123C1.26658 7.76988 1.51254 7.668 1.769 7.668ZM1.769 10.404C2.00144 10.404 2.2316 10.3582 2.44635 10.2693C2.6611 10.1803 2.85622 10.0499 3.02058 9.88558C3.18494 9.72122 3.31532 9.5261 3.40427 9.31135C3.49322 9.0966 3.539 8.86644 3.539 8.634C3.539 8.439 3.486 8.258 3.427 8.082C3.193 7.38 2.55 6.865 1.77 6.865C1.645 6.865 1.535 6.912 1.417 6.937C0.615 7.104 0 7.782 0 8.634C0 9.611 0.792 10.404 1.77 10.404M14.99 4.71C14.8631 4.71 14.7374 4.68498 14.6201 4.63637C14.5028 4.58776 14.3963 4.51652 14.3066 4.42671C14.2169 4.3369 14.1457 4.23029 14.0972 4.11298C14.0488 3.99566 14.0239 3.86994 14.024 3.743C14.024 3.61606 14.049 3.49036 14.0976 3.3731C14.1462 3.25583 14.2175 3.14929 14.3073 3.05958C14.3971 2.96987 14.5037 2.89873 14.621 2.85024C14.7383 2.80176 14.8641 2.77687 14.991 2.777C15.2473 2.777 15.4932 2.87883 15.6744 3.06008C15.8557 3.24133 15.9575 3.48717 15.9575 3.7435C15.9575 3.99983 15.8557 4.24566 15.6744 4.42692C15.4932 4.60817 15.2473 4.71 14.991 4.71M5.391 21.223C5.14005 21.2149 4.90208 21.1096 4.72741 20.9292C4.55275 20.7488 4.45509 20.5076 4.45509 20.2565C4.45509 20.0054 4.55275 19.7642 4.72741 19.5838C4.90208 19.4034 5.14005 19.2981 5.391 19.29C5.51794 19.29 5.64364 19.315 5.7609 19.3636C5.87817 19.4122 5.9847 19.4835 6.07442 19.5733C6.16413 19.6631 6.23527 19.7697 6.28375 19.887C6.33224 20.0043 6.35713 20.1301 6.357 20.257C6.357 20.5132 6.25523 20.7589 6.07407 20.9401C5.89291 21.1212 5.6472 21.223 5.391 21.223ZM14.991 1.974C14.5216 1.974 14.0714 2.16048 13.7394 2.49242C13.4075 2.82436 13.221 3.27457 13.221 3.744C13.221 3.952 13.274 4.146 13.34 4.332L5.039 18.558C4.236 18.726 3.621 19.404 3.621 20.257C3.63198 20.719 3.82324 21.1584 4.15388 21.4813C4.48453 21.8042 4.92835 21.9849 5.3905 21.9849C5.85265 21.9849 6.29647 21.8042 6.62712 21.4813C6.95776 21.1584 7.14902 20.719 7.16 20.257C7.15332 20.0679 7.11583 19.8811 7.049 19.704L15.392 5.431C16.17 5.245 16.76 4.578 16.76 3.743C16.7597 3.27374 16.5731 2.82379 16.2412 2.49207C15.9093 2.16034 15.4593 1.974 14.99 1.974M22.23 4.71C22.1031 4.71 21.9774 4.68498 21.8601 4.63637C21.7428 4.58776 21.6363 4.51652 21.5466 4.42671C21.4569 4.3369 21.3857 4.23029 21.3372 4.11298C21.2888 3.99566 21.2639 3.86994 21.264 3.743C21.264 3.61606 21.289 3.49036 21.3376 3.3731C21.3862 3.25583 21.4575 3.14929 21.5473 3.05958C21.6371 2.96987 21.7437 2.89873 21.861 2.85024C21.9783 2.80176 22.1041 2.77687 22.231 2.777C22.4873 2.777 22.7332 2.87883 22.9144 3.06008C23.0957 3.24133 23.1975 3.48717 23.1975 3.7435C23.1975 3.99983 23.0957 4.24566 22.9144 4.42692C22.7332 4.60817 22.4873 4.71 22.231 4.71M12.631 21.223C12.5041 21.223 12.3784 21.198 12.2611 21.1494C12.1438 21.1008 12.0373 21.0295 11.9476 20.9397C11.8579 20.8499 11.7867 20.7433 11.7382 20.626C11.6898 20.5087 11.6649 20.3829 11.665 20.256C11.665 19.9998 11.7668 19.7541 11.9479 19.5729C12.1291 19.3918 12.3748 19.29 12.631 19.29C12.8873 19.29 13.1332 19.3918 13.3144 19.5731C13.4957 19.7543 13.5975 20.0002 13.5975 20.2565C13.5975 20.5128 13.4957 20.7587 13.3144 20.9399C13.1332 21.1212 12.8873 21.223 12.631 21.223ZM22.231 1.974C21.7616 1.974 21.3114 2.16048 20.9794 2.49242C20.6475 2.82436 20.461 3.27457 20.461 3.744C20.461 3.952 20.514 4.146 20.58 4.332L12.279 18.558C11.477 18.726 10.862 19.404 10.862 20.257C10.8774 20.7159 11.0706 21.1508 11.4006 21.4699C11.7307 21.7891 12.1719 21.9675 12.631 21.9675C13.0901 21.9675 13.5313 21.7891 13.8614 21.4699C14.1914 21.1508 14.3846 20.7159 14.4 20.257C14.4 20.06 14.347 19.881 14.289 19.704L22.632 5.431C23.409 5.245 24 4.578 24 3.743C23.9997 3.27374 23.8131 2.82379 23.4812 2.49207C23.1493 2.16034 22.6993 1.974 22.23 1.974"/>
</mask>
<path d="M0.803 14.817C0.803 14.5607 0.904827 14.3148 1.08608 14.1336C1.26734 13.9523 1.51317 13.8505 1.7695 13.8505C2.02583 13.8505 2.27166 13.9523 2.45292 14.1336C2.63417 14.3148 2.736 14.5607 2.736 14.817C2.736 15.0733 2.63417 15.3192 2.45292 15.5004C2.27166 15.6817 2.02583 15.7835 1.7695 15.7835C1.51317 15.7835 1.26734 15.6817 1.08608 15.5004C0.904827 15.3192 0.803 15.0733 0.803 14.817ZM3.539 14.817C3.539 14.621 3.486 14.441 3.427 14.264C3.193 13.562 2.551 13.048 1.77 13.048C1.645 13.048 1.535 13.094 1.417 13.118C0.615 13.286 0 13.965 0 14.817C0.0109841 15.279 0.202235 15.7184 0.532884 16.0413C0.863533 16.3642 1.30735 16.5449 1.7695 16.5449C2.23165 16.5449 2.67547 16.3642 3.00612 16.0413C3.33676 15.7184 3.52802 15.279 3.539 14.817ZM1.769 7.668C1.89599 7.668 2.02173 7.69301 2.13905 7.74161C2.25638 7.7902 2.36298 7.86143 2.45277 7.95123C2.54257 8.04102 2.6138 8.14762 2.66239 8.26494C2.71099 8.38227 2.736 8.50801 2.736 8.635C2.736 8.76199 2.71099 8.88773 2.66239 9.00505C2.6138 9.12238 2.54257 9.22898 2.45277 9.31877C2.36298 9.40857 2.25638 9.47979 2.13905 9.52839C2.02173 9.57699 1.89599 9.602 1.769 9.602C1.51254 9.602 1.26658 9.50012 1.08523 9.31877C0.90388 9.13742 0.802 8.89146 0.802 8.635C0.802 8.37853 0.90388 8.13257 1.08523 7.95123C1.26658 7.76988 1.51254 7.668 1.769 7.668ZM1.769 10.404C2.00144 10.404 2.2316 10.3582 2.44635 10.2693C2.6611 10.1803 2.85622 10.0499 3.02058 9.88558C3.18494 9.72122 3.31532 9.5261 3.40427 9.31135C3.49322 9.0966 3.539 8.86644 3.539 8.634C3.539 8.439 3.486 8.258 3.427 8.082C3.193 7.38 2.55 6.865 1.77 6.865C1.645 6.865 1.535 6.912 1.417 6.937C0.615 7.104 0 7.782 0 8.634C0 9.611 0.792 10.404 1.77 10.404M14.99 4.71C14.8631 4.71 14.7374 4.68498 14.6201 4.63637C14.5028 4.58776 14.3963 4.51652 14.3066 4.42671C14.2169 4.3369 14.1457 4.23029 14.0972 4.11298C14.0488 3.99566 14.0239 3.86994 14.024 3.743C14.024 3.61606 14.049 3.49036 14.0976 3.3731C14.1462 3.25583 14.2175 3.14929 14.3073 3.05958C14.3971 2.96987 14.5037 2.89873 14.621 2.85024C14.7383 2.80176 14.8641 2.77687 14.991 2.777C15.2473 2.777 15.4932 2.87883 15.6744 3.06008C15.8557 3.24133 15.9575 3.48717 15.9575 3.7435C15.9575 3.99983 15.8557 4.24566 15.6744 4.42692C15.4932 4.60817 15.2473 4.71 14.991 4.71M5.391 21.223C5.14005 21.2149 4.90208 21.1096 4.72741 20.9292C4.55275 20.7488 4.45509 20.5076 4.45509 20.2565C4.45509 20.0054 4.55275 19.7642 4.72741 19.5838C4.90208 19.4034 5.14005 19.2981 5.391 19.29C5.51794 19.29 5.64364 19.315 5.7609 19.3636C5.87817 19.4122 5.9847 19.4835 6.07442 19.5733C6.16413 19.6631 6.23527 19.7697 6.28375 19.887C6.33224 20.0043 6.35713 20.1301 6.357 20.257C6.357 20.5132 6.25523 20.7589 6.07407 20.9401C5.89291 21.1212 5.6472 21.223 5.391 21.223ZM14.991 1.974C14.5216 1.974 14.0714 2.16048 13.7394 2.49242C13.4075 2.82436 13.221 3.27457 13.221 3.744C13.221 3.952 13.274 4.146 13.34 4.332L5.039 18.558C4.236 18.726 3.621 19.404 3.621 20.257C3.63198 20.719 3.82324 21.1584 4.15388 21.4813C4.48453 21.8042 4.92835 21.9849 5.3905 21.9849C5.85265 21.9849 6.29647 21.8042 6.62712 21.4813C6.95776 21.1584 7.14902 20.719 7.16 20.257C7.15332 20.0679 7.11583 19.8811 7.049 19.704L15.392 5.431C16.17 5.245 16.76 4.578 16.76 3.743C16.7597 3.27374 16.5731 2.82379 16.2412 2.49207C15.9093 2.16034 15.4593 1.974 14.99 1.974M22.23 4.71C22.1031 4.71 21.9774 4.68498 21.8601 4.63637C21.7428 4.58776 21.6363 4.51652 21.5466 4.42671C21.4569 4.3369 21.3857 4.23029 21.3372 4.11298C21.2888 3.99566 21.2639 3.86994 21.264 3.743C21.264 3.61606 21.289 3.49036 21.3376 3.3731C21.3862 3.25583 21.4575 3.14929 21.5473 3.05958C21.6371 2.96987 21.7437 2.89873 21.861 2.85024C21.9783 2.80176 22.1041 2.77687 22.231 2.777C22.4873 2.777 22.7332 2.87883 22.9144 3.06008C23.0957 3.24133 23.1975 3.48717 23.1975 3.7435C23.1975 3.99983 23.0957 4.24566 22.9144 4.42692C22.7332 4.60817 22.4873 4.71 22.231 4.71M12.631 21.223C12.5041 21.223 12.3784 21.198 12.2611 21.1494C12.1438 21.1008 12.0373 21.0295 11.9476 20.9397C11.8579 20.8499 11.7867 20.7433 11.7382 20.626C11.6898 20.5087 11.6649 20.3829 11.665 20.256C11.665 19.9998 11.7668 19.7541 11.9479 19.5729C12.1291 19.3918 12.3748 19.29 12.631 19.29C12.8873 19.29 13.1332 19.3918 13.3144 19.5731C13.4957 19.7543 13.5975 20.0002 13.5975 20.2565C13.5975 20.5128 13.4957 20.7587 13.3144 20.9399C13.1332 21.1212 12.8873 21.223 12.631 21.223ZM22.231 1.974C21.7616 1.974 21.3114 2.16048 20.9794 2.49242C20.6475 2.82436 20.461 3.27457 20.461 3.744C20.461 3.952 20.514 4.146 20.58 4.332L12.279 18.558C11.477 18.726 10.862 19.404 10.862 20.257C10.8774 20.7159 11.0706 21.1508 11.4006 21.4699C11.7307 21.7891 12.1719 21.9675 12.631 21.9675C13.0901 21.9675 13.5313 21.7891 13.8614 21.4699C14.1914 21.1508 14.3846 20.7159 14.4 20.257C14.4 20.06 14.347 19.881 14.289 19.704L22.632 5.431C23.409 5.245 24 4.578 24 3.743C23.9997 3.27374 23.8131 2.82379 23.4812 2.49207C23.1493 2.16034 22.6993 1.974 22.23 1.974" fill="#98CCFD"/>
<path d="M2.736 14.817H3.236H2.736ZM3.427 14.264L2.95266 14.4221L3.427 14.264ZM1.417 13.118L1.31734 12.628L1.31449 12.6286L1.417 13.118ZM0 14.817H-0.500141L-0.499859 14.8289L0 14.817ZM1.769 9.602V9.102V9.602ZM3.539 8.634H4.039H3.539ZM3.427 8.082L2.95266 8.24011L2.95293 8.24092L3.427 8.082ZM1.417 6.937L1.51893 7.4265L1.52063 7.42614L1.417 6.937ZM14.024 3.743L14.524 3.74352V3.743L14.024 3.743ZM14.991 2.777L14.9905 3.277H14.991V2.777ZM5.391 21.223L5.37492 21.7227L5.38296 21.723H5.391V21.223ZM4.45509 20.2565H3.95509H4.45509ZM5.391 19.29L5.391 18.79H5.38296L5.37492 18.7903L5.391 19.29ZM6.357 20.257L5.857 20.2565V20.257H6.357ZM13.221 3.744H12.721H13.221ZM13.34 4.332L13.7719 4.58399L13.8888 4.38353L13.8112 4.16479L13.34 4.332ZM5.039 18.558L5.14139 19.0474L5.35887 19.0019L5.47086 18.81L5.039 18.558ZM3.621 20.257H3.12086L3.12114 20.2689L3.621 20.257ZM7.16 20.257L7.65986 20.2689L7.66021 20.2541L7.65969 20.2394L7.16 20.257ZM7.049 19.704L6.61734 19.4517L6.49703 19.6575L6.58121 19.8806L7.049 19.704ZM15.392 5.431L15.2757 4.9447L15.0681 4.99435L14.9603 5.17868L15.392 5.431ZM16.76 3.743H17.26V3.74272L16.76 3.743ZM21.264 3.743L21.764 3.74352V3.743L21.264 3.743ZM22.231 2.777L22.2305 3.277H22.231V2.777ZM11.665 20.256L12.165 20.2565V20.256H11.665ZM12.631 19.29V18.79V19.29ZM20.461 3.744H19.961H20.461ZM20.58 4.332L21.0119 4.58399L21.1288 4.38353L21.0512 4.16479L20.58 4.332ZM12.279 18.558L12.3815 19.0474L12.5989 19.0018L12.7109 18.81L12.279 18.558ZM10.862 20.257H10.362V20.2654L10.3623 20.2738L10.862 20.257ZM14.4 20.257L14.8997 20.2738L14.9 20.2654V20.257H14.4ZM14.289 19.704L13.8573 19.4517L13.7438 19.6459L13.8139 19.8597L14.289 19.704ZM22.632 5.431L22.5156 4.94474L22.308 4.99442L22.2003 5.17868L22.632 5.431ZM24 3.743H24.5V3.74272L24 3.743ZM1.303 14.817C1.303 14.6933 1.35215 14.5746 1.43963 14.4871L0.732528 13.78C0.457506 14.055 0.303 14.4281 0.303 14.817H1.303ZM1.43963 14.4871C1.52712 14.3996 1.64578 14.3505 1.7695 14.3505V13.3505C1.38056 13.3505 1.00755 13.505 0.732528 13.78L1.43963 14.4871ZM1.7695 14.3505C1.89322 14.3505 2.01188 14.3996 2.09937 14.4871L2.80647 13.78C2.53145 13.505 2.15844 13.3505 1.7695 13.3505V14.3505ZM2.09937 14.4871C2.18685 14.5746 2.236 14.6933 2.236 14.817H3.236C3.236 14.4281 3.08149 14.055 2.80647 13.78L2.09937 14.4871ZM2.236 14.817C2.236 14.9407 2.18685 15.0594 2.09937 15.1469L2.80647 15.854C3.08149 15.5789 3.236 15.2059 3.236 14.817H2.236ZM2.09937 15.1469C2.01188 15.2344 1.89322 15.2835 1.7695 15.2835V16.2835C2.15844 16.2835 2.53145 16.129 2.80647 15.854L2.09937 15.1469ZM1.7695 15.2835C1.64578 15.2835 1.52712 15.2344 1.43963 15.1469L0.732528 15.854C1.00755 16.129 1.38056 16.2835 1.7695 16.2835V15.2835ZM1.43963 15.1469C1.35215 15.0594 1.303 14.9407 1.303 14.817H0.303C0.303 15.2059 0.457506 15.5789 0.732528 15.854L1.43963 15.1469ZM4.039 14.817C4.039 14.534 3.962 14.2879 3.90134 14.1059L2.95266 14.4221C3.01 14.5941 3.039 14.708 3.039 14.817H4.039ZM3.90134 14.1059C3.60471 13.216 2.78288 12.548 1.77 12.548V13.548C2.31912 13.548 2.78129 13.908 2.95266 14.4221L3.90134 14.1059ZM1.77 12.548C1.64703 12.548 1.54209 12.5708 1.46936 12.589C1.37461 12.6127 1.36491 12.6184 1.31735 12.628L1.51665 13.608C1.56099 13.599 1.60143 13.5885 1.63306 13.5801C1.66939 13.5704 1.68808 13.5651 1.71239 13.559C1.75541 13.5482 1.76797 13.548 1.77 13.548V12.548ZM1.31449 12.6286C0.302173 12.8407 -0.5 13.7073 -0.5 14.817H0.5C0.5 14.2227 0.927827 13.7313 1.51951 13.6074L1.31449 12.6286ZM-0.499859 14.8289C-0.485772 15.4214 -0.240495 15.9849 0.183557 16.399L0.88221 15.6836C0.644965 15.4519 0.50774 15.1366 0.499859 14.8051L-0.499859 14.8289ZM0.183557 16.399C0.607609 16.8131 1.1768 17.0449 1.7695 17.0449V16.0449C1.4379 16.0449 1.11946 15.9152 0.88221 15.6836L0.183557 16.399ZM1.7695 17.0449C2.3622 17.0449 2.93139 16.8131 3.35544 16.399L2.65679 15.6836C2.41954 15.9152 2.1011 16.0449 1.7695 16.0449V17.0449ZM3.35544 16.399C3.77949 15.9849 4.02477 15.4214 4.03886 14.8289L3.03914 14.8051C3.03126 15.1366 2.89403 15.4519 2.65679 15.6836L3.35544 16.399ZM1.769 8.168C1.83033 8.168 1.89105 8.18008 1.94771 8.20355L2.3304 7.27967C2.15241 7.20594 1.96165 7.168 1.769 7.168V8.168ZM1.94771 8.20355C2.00437 8.22702 2.05585 8.26142 2.09922 8.30478L2.80633 7.59767C2.6701 7.46145 2.50838 7.35339 2.3304 7.27967L1.94771 8.20355ZM2.09922 8.30478C2.14258 8.34814 2.17698 8.39963 2.20045 8.45629L3.12433 8.0736C3.05061 7.89562 2.94255 7.7339 2.80633 7.59767L2.09922 8.30478ZM2.20045 8.45629C2.22392 8.51295 2.236 8.57367 2.236 8.635H3.236C3.236 8.44235 3.19805 8.25159 3.12433 8.0736L2.20045 8.45629ZM2.236 8.635C2.236 8.69633 2.22392 8.75705 2.20045 8.81371L3.12433 9.1964C3.19805 9.01841 3.236 8.82765 3.236 8.635H2.236ZM2.20045 8.81371C2.17698 8.87037 2.14258 8.92185 2.09922 8.96522L2.80633 9.67232C2.94255 9.5361 3.05061 9.37438 3.12433 9.1964L2.20045 8.81371ZM2.09922 8.96522C2.05585 9.00858 2.00437 9.04298 1.94771 9.06645L2.3304 9.99033C2.50838 9.91661 2.6701 9.80855 2.80633 9.67232L2.09922 8.96522ZM1.94771 9.06645C1.89105 9.08992 1.83033 9.102 1.769 9.102V10.102C1.96165 10.102 2.15241 10.0641 2.3304 9.99033L1.94771 9.06645ZM1.769 9.102C1.64514 9.102 1.52636 9.0528 1.43878 8.96522L0.731674 9.67232C1.00679 9.94744 1.37993 10.102 1.769 10.102V9.102ZM1.43878 8.96522C1.3512 8.87764 1.302 8.75886 1.302 8.635H0.302C0.302 9.02407 0.456558 9.39721 0.731674 9.67232L1.43878 8.96522ZM1.302 8.635C1.302 8.51114 1.3512 8.39236 1.43878 8.30478L0.731674 7.59767C0.456558 7.87279 0.302 8.24593 0.302 8.635H1.302ZM1.43878 8.30478C1.52636 8.2172 1.64514 8.168 1.769 8.168V7.168C1.37993 7.168 1.00679 7.32256 0.731674 7.59767L1.43878 8.30478ZM1.769 10.904C2.0671 10.904 2.36228 10.8453 2.63769 10.7312L2.25501 9.80733C2.10092 9.87115 1.93578 9.904 1.769 9.904V10.904ZM2.63769 10.7312C2.9131 10.6171 3.16334 10.4499 3.37413 10.2391L2.66703 9.53202C2.5491 9.64996 2.40909 9.7435 2.25501 9.80733L2.63769 10.7312ZM3.37413 10.2391C3.58492 10.0283 3.75213 9.7781 3.86621 9.50269L2.94233 9.12001C2.8785 9.27409 2.78496 9.41409 2.66703 9.53202L3.37413 10.2391ZM3.86621 9.50269C3.98028 9.22728 4.039 8.9321 4.039 8.634H3.039C3.039 8.80078 3.00615 8.96592 2.94233 9.12001L3.86621 9.50269ZM4.039 8.634C4.039 8.35205 3.96209 8.10511 3.90107 7.92308L2.95293 8.24092C3.00991 8.41089 3.039 8.52595 3.039 8.634H4.039ZM3.90134 7.92388C3.6048 7.03426 2.78216 6.365 1.77 6.365V7.365C2.31784 7.365 2.7812 7.72574 2.95266 8.24011L3.90134 7.92388ZM1.77 6.365C1.64567 6.365 1.53972 6.38852 1.46641 6.40736C1.36962 6.43224 1.36247 6.43745 1.31337 6.44786L1.52063 7.42614C1.5649 7.41676 1.60529 7.40599 1.63671 7.39737C1.6726 7.38751 1.6916 7.38199 1.71534 7.37588C1.73606 7.37056 1.74916 7.36783 1.75834 7.36635C1.76696 7.36496 1.77024 7.365 1.77 7.365V6.365ZM1.31507 6.4475C0.302518 6.65834 -0.5 7.52401 -0.5 8.634H0.5C0.5 8.03998 0.927482 7.54966 1.51893 7.4265L1.31507 6.4475ZM-0.5 8.634C-0.5 9.88696 0.515674 10.904 1.77 10.904V9.904C1.06833 9.904 0.5 9.33504 0.5 8.634H-0.5ZM14.99 4.21C14.9288 4.21 14.8681 4.19793 14.8116 4.17448L14.4286 5.09826C14.6066 5.17203 14.7974 5.21 14.99 5.21V4.21ZM14.8116 4.17448C14.755 4.15103 14.7036 4.11666 14.6603 4.07334L13.9528 4.78008C14.089 4.91637 14.2507 5.02449 14.4286 5.09826L14.8116 4.17448ZM14.6603 4.07334C14.617 4.03002 14.5827 3.97859 14.5593 3.922L13.6352 4.30396C13.7087 4.482 13.8167 4.64379 13.9528 4.78008L14.6603 4.07334ZM14.5593 3.922C14.5359 3.8654 14.5239 3.80475 14.524 3.74352L13.524 3.74248C13.5238 3.93513 13.5616 4.12592 13.6352 4.30396L14.5593 3.922ZM14.524 3.743C14.524 3.68176 14.5361 3.62112 14.5595 3.56456L13.6357 3.18163C13.562 3.3596 13.524 3.55035 13.524 3.743L14.524 3.743ZM14.5595 3.56456C14.583 3.50799 14.6173 3.45659 14.6607 3.41332L13.9539 2.70584C13.8176 2.84199 13.7095 3.00367 13.6357 3.18163L14.5595 3.56456ZM14.6607 3.41332C14.704 3.37004 14.7554 3.33572 14.812 3.31233L14.43 2.38816C14.252 2.46174 14.0902 2.56969 13.9539 2.70584L14.6607 3.41332ZM14.812 3.31233C14.8686 3.28894 14.9292 3.27694 14.9905 3.277L14.9915 2.277C14.7989 2.2768 14.6081 2.31457 14.43 2.38816L14.812 3.31233ZM14.991 3.277C15.1147 3.277 15.2334 3.32615 15.3209 3.41363L16.028 2.70653C15.7529 2.4315 15.3799 2.277 14.991 2.277V3.277ZM15.3209 3.41363C15.4084 3.50112 15.4575 3.61978 15.4575 3.7435H16.4575C16.4575 3.35456 16.303 2.98155 16.028 2.70653L15.3209 3.41363ZM15.4575 3.7435C15.4575 3.86722 15.4084 3.98588 15.3209 4.07336L16.028 4.78047C16.303 4.50545 16.4575 4.13244 16.4575 3.7435H15.4575ZM15.3209 4.07336C15.2334 4.16085 15.1147 4.21 14.991 4.21V5.21C15.3799 5.21 15.7529 5.05549 16.028 4.78047L15.3209 4.07336ZM5.40708 20.7233C5.28588 20.7194 5.17096 20.6685 5.08661 20.5814L4.36822 21.277C4.6332 21.5506 4.99422 21.7105 5.37492 21.7227L5.40708 20.7233ZM5.08661 20.5814C5.00226 20.4943 4.95509 20.3778 4.95509 20.2565H3.95509C3.95509 20.6374 4.10325 21.0034 4.36822 21.277L5.08661 20.5814ZM4.95509 20.2565C4.95509 20.1352 5.00226 20.0187 5.08661 19.9316L4.36822 19.236C4.10325 19.5096 3.95509 19.8756 3.95509 20.2565H4.95509ZM5.08661 19.9316C5.17096 19.8445 5.28588 19.7936 5.40708 19.7897L5.37492 18.7903C4.99422 18.8025 4.6332 18.9624 4.36822 19.236L5.08661 19.9316ZM5.391 19.79C5.45224 19.79 5.51287 19.8021 5.56944 19.8255L5.95236 18.9017C5.7744 18.828 5.58364 18.79 5.391 18.79L5.391 19.79ZM5.56944 19.8255C5.62601 19.849 5.67741 19.8833 5.72068 19.9267L6.42816 19.2199C6.292 19.0836 6.13032 18.9755 5.95236 18.9017L5.56944 19.8255ZM5.72068 19.9267C5.76396 19.97 5.79828 20.0214 5.82167 20.078L6.74584 19.696C6.67226 19.518 6.56431 19.3562 6.42816 19.2199L5.72068 19.9267ZM5.82167 20.078C5.84506 20.1346 5.85706 20.1952 5.857 20.2565L6.857 20.2575C6.8572 20.0649 6.81943 19.8741 6.74584 19.696L5.82167 20.078ZM5.857 20.257C5.857 20.3806 5.8079 20.4991 5.72051 20.5865L6.42762 21.2936C6.70255 21.0187 6.857 20.6458 6.857 20.257H5.857ZM5.72051 20.5865C5.63312 20.6739 5.51459 20.723 5.391 20.723V21.723C5.77981 21.723 6.15269 21.5685 6.42762 21.2936L5.72051 20.5865ZM14.991 1.474C14.389 1.474 13.8116 1.71316 13.3859 2.13887L14.093 2.84597C14.3311 2.6078 14.6542 2.474 14.991 2.474V1.474ZM13.3859 2.13887C12.9602 2.56457 12.721 3.14196 12.721 3.744H13.721C13.721 3.40717 13.8548 3.08414 14.093 2.84597L13.3859 2.13887ZM12.721 3.744C12.721 4.03592 12.7955 4.29276 12.8688 4.4992L13.8112 4.16479C13.7525 3.99924 13.721 3.86807 13.721 3.744H12.721ZM12.9081 4.08001L4.60714 18.306L5.47086 18.81L13.7719 4.58399L12.9081 4.08001ZM4.93661 18.0686C3.92352 18.2806 3.121 19.146 3.121 20.257H4.121C4.121 19.662 4.54848 19.1715 5.14139 19.0474L4.93661 18.0686ZM3.12114 20.2689C3.13523 20.8614 3.38051 21.4249 3.80456 21.839L4.50321 21.1236C4.26597 20.8919 4.12874 20.5766 4.12086 20.2451L3.12114 20.2689ZM3.80456 21.839C4.22861 22.2531 4.7978 22.4849 5.3905 22.4849V21.4849C5.0589 21.4849 4.74046 21.3552 4.50321 21.1236L3.80456 21.839ZM5.3905 22.4849C5.9832 22.4849 6.55239 22.2531 6.97644 21.839L6.27779 21.1236C6.04054 21.3552 5.7221 21.4849 5.3905 21.4849V22.4849ZM6.97644 21.839C7.4005 21.4249 7.64577 20.8614 7.65986 20.2689L6.66014 20.2451C6.65226 20.5766 6.51503 20.8919 6.27779 21.1236L6.97644 21.839ZM7.65969 20.2394C7.65109 19.9959 7.60282 19.7554 7.51679 19.5274L6.58121 19.8806C6.62883 20.0067 6.65555 20.1399 6.66031 20.2746L7.65969 20.2394ZM7.48066 19.9563L15.8237 5.68332L14.9603 5.17868L6.61734 19.4517L7.48066 19.9563ZM15.5083 5.91729C16.4898 5.68262 17.26 4.8307 17.26 3.743H16.26C16.26 4.3253 15.8502 4.80737 15.2757 4.9447L15.5083 5.91729ZM17.26 3.74272C17.2597 3.1409 17.0204 2.56384 16.5947 2.13841L15.8878 2.84572C16.1259 3.08374 16.2598 3.40658 16.26 3.74328L17.26 3.74272ZM16.5947 2.13841C16.169 1.71298 15.5918 1.474 14.99 1.474V2.474C15.3267 2.474 15.6496 2.6077 15.8878 2.84572L16.5947 2.13841ZM22.23 4.21C22.1688 4.21 22.1081 4.19793 22.0516 4.17448L21.6686 5.09826C21.8466 5.17203 22.0374 5.21 22.23 5.21V4.21ZM22.0516 4.17448C21.995 4.15103 21.9436 4.11666 21.9003 4.07334L21.1928 4.78008C21.329 4.91637 21.4907 5.02449 21.6686 5.09826L22.0516 4.17448ZM21.9003 4.07334C21.857 4.03002 21.8227 3.97859 21.7993 3.922L20.8752 4.30396C20.9487 4.482 21.0567 4.64379 21.1928 4.78008L21.9003 4.07334ZM21.7993 3.922C21.7759 3.8654 21.7639 3.80475 21.764 3.74352L20.764 3.74248C20.7638 3.93513 20.8016 4.12593 20.8752 4.30396L21.7993 3.922ZM21.764 3.743C21.764 3.68176 21.7761 3.62112 21.7995 3.56456L20.8757 3.18163C20.802 3.3596 20.764 3.55035 20.764 3.743L21.764 3.743ZM21.7995 3.56456C21.823 3.50799 21.8573 3.4566 21.9007 3.41332L21.1939 2.70584C21.0576 2.84199 20.9495 3.00367 20.8757 3.18163L21.7995 3.56456ZM21.9007 3.41332C21.944 3.37004 21.9954 3.33572 22.052 3.31233L21.67 2.38816C21.492 2.46174 21.3302 2.56969 21.1939 2.70584L21.9007 3.41332ZM22.052 3.31233C22.1086 3.28894 22.1692 3.27694 22.2305 3.277L22.2315 2.277C22.0389 2.2768 21.8481 2.31457 21.67 2.38816L22.052 3.31233ZM22.231 3.277C22.3547 3.277 22.4734 3.32615 22.5609 3.41363L23.268 2.70653C22.993 2.4315 22.6199 2.277 22.231 2.277V3.277ZM22.5609 3.41363C22.6484 3.50112 22.6975 3.61978 22.6975 3.7435H23.6975C23.6975 3.35456 23.543 2.98155 23.268 2.70653L22.5609 3.41363ZM22.6975 3.7435C22.6975 3.86722 22.6484 3.98588 22.5609 4.07336L23.268 4.78047C23.543 4.50545 23.6975 4.13244 23.6975 3.7435H22.6975ZM22.5609 4.07336C22.4734 4.16085 22.3547 4.21 22.231 4.21V5.21C22.6199 5.21 22.993 5.05549 23.268 4.78047L22.5609 4.07336ZM12.631 20.723C12.5698 20.723 12.5091 20.7109 12.4526 20.6875L12.0696 21.6113C12.2476 21.685 12.4384 21.723 12.631 21.723V20.723ZM12.4526 20.6875C12.396 20.664 12.3446 20.6297 12.3013 20.5863L11.5938 21.2931C11.73 21.4294 11.8917 21.5375 12.0696 21.6113L12.4526 20.6875ZM12.3013 20.5863C12.258 20.543 12.2237 20.4916 12.2003 20.435L11.2762 20.817C11.3497 20.995 11.4577 21.1568 11.5938 21.2931L12.3013 20.5863ZM12.2003 20.435C12.1769 20.3784 12.1649 20.3178 12.165 20.2565L11.165 20.2555C11.1648 20.4481 11.2026 20.6389 11.2762 20.817L12.2003 20.435ZM12.165 20.256C12.165 20.1324 12.2141 20.0139 12.3015 19.9265L11.5944 19.2194C11.3195 19.4943 11.165 19.8672 11.165 20.256H12.165ZM12.3015 19.9265C12.3889 19.8391 12.5074 19.79 12.631 19.79V18.79C12.2422 18.79 11.8693 18.9445 11.5944 19.2194L12.3015 19.9265ZM12.631 19.79C12.7547 19.79 12.8734 19.8391 12.9609 19.9266L13.668 19.2195C13.393 18.9445 13.0199 18.79 12.631 18.79V19.79ZM12.9609 19.9266C13.0484 20.0141 13.0975 20.1328 13.0975 20.2565H14.0975C14.0975 19.8676 13.943 19.4946 13.668 19.2195L12.9609 19.9266ZM13.0975 20.2565C13.0975 20.3802 13.0484 20.4989 12.9609 20.5864L13.668 21.2935C13.943 21.0184 14.0975 20.6454 14.0975 20.2565H13.0975ZM12.9609 20.5864C12.8734 20.6739 12.7547 20.723 12.631 20.723V21.723C13.0199 21.723 13.393 21.5685 13.668 21.2935L12.9609 20.5864ZM22.231 1.474C21.629 1.474 21.0516 1.71316 20.6259 2.13887L21.333 2.84597C21.5711 2.6078 21.8942 2.474 22.231 2.474V1.474ZM20.6259 2.13887C20.2002 2.56457 19.961 3.14196 19.961 3.744H20.961C20.961 3.40717 21.0948 3.08414 21.333 2.84597L20.6259 2.13887ZM19.961 3.744C19.961 4.03592 20.0355 4.29276 20.1088 4.4992L21.0512 4.16479C20.9925 3.99924 20.961 3.86808 20.961 3.744H19.961ZM20.1481 4.08001L11.8471 18.306L12.7109 18.81L21.0119 4.58399L20.1481 4.08001ZM12.1765 18.0686C11.1644 18.2806 10.362 19.1461 10.362 20.257H11.362C11.362 19.6619 11.7896 19.1714 12.3815 19.0474L12.1765 18.0686ZM10.3623 20.2738C10.3821 20.8623 10.6298 21.4201 11.0531 21.8294L11.7482 21.1105C11.5114 20.8815 11.3728 20.5694 11.3617 20.2402L10.3623 20.2738ZM11.0531 21.8294C11.4764 22.2387 12.0422 22.4675 12.631 22.4675V21.4675C12.3016 21.4675 11.985 21.3395 11.7482 21.1105L11.0531 21.8294ZM12.631 22.4675C13.2198 22.4675 13.7856 22.2387 14.2089 21.8294L13.5138 21.1105C13.277 21.3395 12.9604 21.4675 12.631 21.4675V22.4675ZM14.2089 21.8294C14.6322 21.4201 14.8799 20.8623 14.8997 20.2738L13.9003 20.2402C13.8892 20.5694 13.7506 20.8815 13.5138 21.1105L14.2089 21.8294ZM14.9 20.257C14.9 19.9734 14.823 19.728 14.7641 19.5483L13.8139 19.8597C13.871 20.034 13.9 20.1466 13.9 20.257H14.9ZM14.7207 19.9563L23.0637 5.68332L22.2003 5.17868L13.8573 19.4517L14.7207 19.9563ZM22.7484 5.91726C23.7286 5.68262 24.5 4.83097 24.5 3.743H23.5C23.5 4.32503 23.0894 4.80737 22.5156 4.94474L22.7484 5.91726ZM24.5 3.74272C24.4997 3.1409 24.2604 2.56384 23.8347 2.13841L23.1278 2.84572C23.3659 3.08374 23.4998 3.40658 23.5 3.74328L24.5 3.74272ZM23.8347 2.13841C23.409 1.71298 22.8318 1.474 22.23 1.474V2.474C22.5667 2.474 22.8896 2.6077 23.1278 2.84572L23.8347 2.13841Z" fill="#4788C7" mask="url(#path-1-inside-1_404_192)"/>
</svg>
