<svg width="25" height="25" viewBox="0 0 25 25" fill="none" xmlns="http://www.w3.org/2000/svg">
<g clip-path="url(#clip0_404_194)">
<path d="M8.06196 19.3261C8.06196 19.3261 6.77309 19.8806 8.97924 20.0683C11.652 20.2939 13.0179 20.2616 15.9633 19.8491C15.9633 19.8491 16.7377 20.2083 17.8191 20.5195C11.2165 22.6132 2.87583 20.3982 8.06196 19.3261ZM7.25512 16.5939C7.25512 16.5939 5.80952 17.3856 8.01733 17.5546C10.8724 17.7725 13.1271 17.7903 17.0287 17.2345C17.0287 17.2345 17.5683 17.6392 18.4168 17.8606C10.4337 19.5878 1.54204 17.9968 7.25512 16.5939Z" fill="#5382A1"/>
<path d="M14.0568 11.9592C15.6838 13.3451 13.6294 14.5922 13.6294 14.5922C13.6294 14.5922 17.7603 13.0144 15.8632 11.0385C14.0913 9.19601 12.7324 8.2804 20.0885 5.1239C20.0885 5.1239 8.54187 7.25757 14.0568 11.9592" fill="#E76F00"/>
<path d="M22.7894 21.347C22.7894 21.347 23.7432 21.9285 21.7389 22.3783C17.9278 23.2326 5.87641 23.4905 2.52856 22.4123C1.32514 22.0251 3.58198 21.4875 4.29184 21.3746C5.03217 21.2558 5.45532 21.278 5.45532 21.278C4.11694 20.5804 -3.19537 22.6477 1.74106 23.2397C15.2033 24.855 26.2813 22.5124 22.7894 21.347ZM8.68159 13.7631C8.68159 13.7631 2.55161 14.8404 6.51088 15.2315C8.18256 15.3971 11.5151 15.3597 14.6193 15.1672C17.1562 15.0089 19.7036 14.6722 19.7036 14.6722C19.7036 14.6722 18.809 14.9557 18.1619 15.2826C11.9369 16.494 -0.0887253 15.9305 3.37329 14.6914C6.30112 13.6443 8.68169 13.7631 8.68169 13.7631M19.6783 18.3109C26.0064 15.8779 23.0805 13.5399 21.0383 13.855C20.5377 13.932 20.3146 13.9988 20.3146 13.9988C20.3146 13.9988 20.5004 13.7834 20.8553 13.6902C24.8954 12.6393 28.0025 16.7897 19.5511 18.4335C19.5511 18.4336 19.6491 18.3688 19.6783 18.3109Z" fill="#5382A1"/>
<path d="M15.8632 0.0268057C15.8632 0.0268057 19.3678 2.62074 12.5393 6.60925C7.06359 9.80882 11.2906 11.6331 12.537 13.7174C9.34074 11.5837 6.99504 9.70542 8.56877 7.9573C10.8784 5.39104 17.2772 4.14689 15.8632 0.0267334" fill="#E76F00"/>
<path d="M9.30349 24.9036C15.3776 25.1913 24.7051 24.7439 24.926 22.6174C24.926 22.6174 24.5013 23.4236 19.906 24.0638C14.7217 24.7856 8.32751 24.7014 4.53503 24.2387C4.53513 24.2387 5.3114 24.7142 9.30359 24.9036" fill="#5382A1"/>
</g>
<defs>
<clipPath id="clip0_404_194">
<rect width="25" height="25" fill="white"/>
</clipPath>
</defs>
</svg>
