<svg width="25" height="25" viewBox="0 0 25 25" fill="none" xmlns="http://www.w3.org/2000/svg">
<g clip-path="url(#clip0_404_200)">
<path d="M12.5 24.8047C12.1261 24.8047 11.7467 24.7168 11.4174 24.5508L7.97433 22.7686C7.46094 22.5146 7.71205 22.4268 7.87946 22.3779C8.56585 22.168 8.70536 22.124 9.43638 21.7578C9.51451 21.7188 9.61496 21.7334 9.69308 21.7773L12.3382 23.1494C12.433 23.1982 12.567 23.1982 12.6563 23.1494L22.9632 17.9443C23.058 17.8955 23.1194 17.7979 23.1194 17.7002V7.29004C23.1194 7.1875 23.058 7.09473 22.9576 7.04102L12.6563 1.84082C12.5614 1.79199 12.433 1.79199 12.3382 1.84082L2.04241 7.0459C1.94196 7.09473 1.88058 7.19238 1.88058 7.29492V17.7002C1.88058 17.7979 1.94196 17.8955 2.04241 17.9395L4.86607 19.3652C6.40067 20.0342 7.33817 19.248 7.33817 18.4521V8.17871C7.33817 8.03223 7.4721 7.91992 7.63951 7.91992H8.94531C9.10714 7.91992 9.24665 8.03223 9.24665 8.17871V18.457C9.24665 20.2441 8.13058 21.2695 6.1942 21.2695C5.5971 21.2695 5.12835 21.2695 3.82254 20.7031L1.12165 19.3408C0.452009 19.0039 0.0390625 18.374 0.0390625 17.6953V7.29004C0.0390625 6.61621 0.452009 5.98145 1.12165 5.64453L11.4174 0.439453C12.0703 0.117187 12.9353 0.117187 13.5826 0.439453L23.8895 5.64941C24.5592 5.98633 24.9721 6.61621 24.9721 7.29492V17.7002C24.9721 18.374 24.5592 19.0039 23.8895 19.3457L13.5826 24.5508C13.2533 24.7168 12.8795 24.8047 12.5 24.8047ZM20.8203 14.5459C20.8203 12.5977 19.3136 12.0801 16.1496 11.7139C12.9464 11.3428 12.6228 11.1523 12.6228 10.498C12.6228 9.95605 12.8962 9.2334 15.2679 9.2334C17.3828 9.2334 18.1641 9.63379 18.4877 10.8838C18.5156 11.001 18.6384 11.0889 18.7779 11.0889H20.1172C20.2009 11.0889 20.279 11.0596 20.3348 11.0059C20.3906 10.9521 20.4185 10.8789 20.4129 10.8057C20.2065 8.65234 18.5714 7.65137 15.2679 7.65137C12.327 7.65137 10.5748 8.73535 10.5748 10.5566C10.5748 12.5293 12.3214 13.0762 15.1395 13.3203C18.5156 13.6084 18.7779 14.043 18.7779 14.624C18.7779 15.6299 17.8516 16.0596 15.6808 16.0596C12.952 16.0596 12.3549 15.459 12.154 14.2725C12.1317 14.1455 12.0089 14.0527 11.8583 14.0527H10.5246C10.3571 14.0527 10.2288 14.1699 10.2288 14.3115C10.2288 15.8301 11.1719 17.6416 15.6864 17.6416C18.9453 17.6367 20.8203 16.5088 20.8203 14.5459V14.5459Z" fill="#88C249"/>
</g>
<defs>
<clipPath id="clip0_404_200">
<rect width="25" height="25" fill="white"/>
</clipPath>
</defs>
</svg>
