<svg xmlns="http://www.w3.org/2000/svg"  viewBox="0 0 40 40" width="40px" height="40px"><path fill="#fff" d="M2.5 2.5H37.5V37.5H2.5z"/><path fill="#4788c7" d="M37,3v34H3V3H37 M38,2H2v36h36V2L38,2z"/><path fill="#b6dcfe" d="M2.5 2.5H37.5V7.5H2.5z"/><path fill="#4788c7" d="M37,3v4H3V3H37 M38,2H2v6h36V2L38,2z"/><path fill="#b6dcfe" d="M3 34H37V37H3z"/><path fill="#fff" d="M31 16H38V26H31z"/><path fill="#4788c7" d="M33,20H13c-0.552,0-1,0.448-1,1v0c0,0.552,0.448,1,1,1h20v5l6-6l-6-6V20z"/><g><path fill="#4788c7" d="M37.5,13L37.5,13c0.275,0,0.5,0.225,0.5,0.5v3c0,0.275-0.225,0.5-0.5,0.5l0,0 c-0.275,0-0.5-0.225-0.5-0.5v-3C37,13.225,37.225,13,37.5,13z"/></g><g><path fill="#4788c7" d="M37.5,25L37.5,25c0.275,0,0.5,0.225,0.5,0.5v3c0,0.275-0.225,0.5-0.5,0.5l0,0 c-0.275,0-0.5-0.225-0.5-0.5v-3C37,25.225,37.225,25,37.5,25z"/></g></svg>