<svg width="80" height="80" viewBox="0 0 80 80" fill="none" xmlns="http://www.w3.org/2000/svg">
<path d="M40 76.96C19.598 76.96 3 60.362 3 39.96C3 19.558 19.598 2.95996 40 2.95996C60.402 2.95996 77 19.558 77 39.96C77 60.362 60.402 76.96 40 76.96Z" fill="#98CCFD"/>
<path d="M40 3.95996C59.85 3.95996 76 20.11 76 39.96C76 59.81 59.85 75.96 40 75.96C20.15 75.96 4 59.81 4 39.96C4 20.11 20.15 3.95996 40 3.95996ZM40 1.95996C19.014 1.95996 2 18.974 2 39.96C2 60.946 19.014 77.96 40 77.96C60.986 77.96 78 60.946 78 39.96C78 18.974 60.986 1.95996 40 1.95996Z" fill="#4788C7"/>
<path d="M44 30V62H36V30H26L40 16L54 30H44Z" fill="white"/>
</svg>
