<svg width="155" height="138" viewBox="0 0 155 138" fill="none" xmlns="http://www.w3.org/2000/svg">
<path d="M153.76 13.0601C153.23 10.7601 152.19 7.40003 149.33 4.78003C146.5 2.19003 142.94 0.869995 138.74 0.869995L75.1899 0.859985C55.6099 0.859985 36.0299 0.860005 16.4499 0.880005C7.60988 0.890005 1.42986 6.98007 1.42986 15.7001C1.41986 51.2801 1.41986 86.8601 1.42986 122.44C1.42986 129.63 5.51988 134.99 12.3799 136.78C13.6299 137.11 15.0199 137.26 16.7499 137.26C32.9799 137.27 49.2099 137.27 65.4399 137.27C89.7799 137.27 114.12 137.27 138.46 137.3H138.48C146.19 137.3 152.34 132.51 153.58 125.59L153.82 125.22V13.28L153.76 13.0601ZM56.6999 127.23C43.4699 127.23 30.2399 127.23 17.0099 127.22C16.1099 127.22 15.1799 127.19 14.4399 126.97C12.8699 126.5 12.0098 125.53 11.7198 123.9C11.6298 123.39 11.5899 122.81 11.5899 122.01C11.5799 86.72 11.5799 51.43 11.5899 16.13C11.5899 15.34 11.6399 14.68 11.7399 14.1C12.0399 12.44 13.5399 11.13 15.3199 10.98C15.7899 10.94 16.2699 10.9301 16.7499 10.9301H58.4698C85.1298 10.9301 111.79 10.9301 138.44 10.9401C139.19 10.9401 140.04 10.97 140.73 11.17C142.35 11.65 143.24 12.6501 143.52 14.3101C143.63 14.9601 143.64 15.67 143.64 16.22C143.65 51.47 143.65 86.71 143.64 121.96C143.64 122.83 143.59 123.52 143.48 124.12C143.18 125.71 141.68 127.03 139.98 127.18C139.36 127.23 138.69 127.23 137.98 127.23H56.6999Z" fill="#98CCFD" stroke="#4788C7" stroke-miterlimit="10"/>
<path d="M136.61 34.02C136.22 33.99 135.84 33.98 135.45 33.98H20.1098C19.4898 33.98 18.7998 33.98 18.0798 34.09C15.7498 34.44 14.0198 36.3 13.8598 38.62C13.6998 41.03 15.1398 43.0601 17.4298 43.6801C18.3598 43.9301 19.2997 43.97 20.0997 43.97C34.1397 43.98 48.1797 43.98 62.2197 43.98H134.98H135.67C135.98 43.98 136.4 43.97 136.83 43.92C139.57 43.57 141.44 41.49 141.39 38.86C141.33 36.2 139.41 34.26 136.61 34.02Z" fill="#98CCFD" stroke="#4788C7" stroke-miterlimit="10"/>
<path d="M25.3501 17.22C24.4401 17.09 23.5001 17.03 22.5601 17.03C21.6301 17.03 20.7001 17.09 19.7901 17.22C17.4201 17.55 15.7601 19.81 16.0001 22.36C16.2201 24.7 17.9201 26.4901 20.2501 26.8201C20.8201 26.9001 21.3701 26.9201 21.8601 26.9301C22.0601 26.9401 22.5601 26.96 22.5601 26.96C22.5601 26.96 23.0601 26.9401 23.2601 26.9301C23.7701 26.9201 24.2901 26.9001 24.8601 26.8201C27.2301 26.4901 28.9401 24.7 29.1301 22.35C29.3201 19.75 27.7001 17.55 25.3501 17.22Z" fill="#98CCFD" stroke="#4788C7" stroke-miterlimit="10"/>
<path d="M40.7802 17.21C39.8802 17.09 38.9602 17.02 38.0302 17.02C37.0802 17.02 36.1302 17.09 35.2202 17.22C32.8702 17.56 31.2502 19.77 31.4702 22.36C31.6602 24.7 33.3802 26.4901 35.7502 26.8201C36.2802 26.8901 36.8002 26.91 37.2502 26.92C37.4302 26.93 37.8902 26.9501 37.8902 26.9501C37.8902 26.9501 38.4102 26.93 38.6202 26.92C39.1702 26.91 39.7402 26.8901 40.3402 26.8101C42.6702 26.4801 44.3702 24.6801 44.5802 22.3301C44.8102 19.7801 43.1402 17.53 40.7802 17.21Z" fill="#98CCFD" stroke="#4788C7" stroke-miterlimit="10"/>
<path d="M133.17 17.1C132.42 17.01 131.65 16.97 130.89 16.97C129.92 16.97 128.96 17.0401 128.04 17.1901C125.58 17.5801 123.97 19.78 124.22 22.42C124.44 24.74 126.17 26.5101 128.54 26.8301C129.07 26.9001 129.56 26.9101 130.03 26.9301C130.21 26.9401 130.39 26.9401 130.57 26.9501L132.67 26.98V26.86C132.7 26.86 132.72 26.86 132.75 26.85C135.3 26.6 137.15 24.76 137.33 22.27C137.54 19.67 135.7 17.4 133.17 17.1Z" fill="#98CCFD" stroke="#4788C7" stroke-miterlimit="10"/>
<path d="M51.8923 87.6652L46.0882 79.3472C49.4524 77.9054 51.4117 75.0588 51.4117 71.1771C51.4117 65.373 47.0864 61.7871 40.1732 61.7871H28.9717V87.6652H34.9607V80.4563H40.1732H40.469L45.4598 87.6652H51.8923ZM45.3489 71.1771C45.3489 73.9867 43.5004 75.6873 39.8405 75.6873H34.9607V66.6669H39.8405C43.5004 66.6669 45.3489 68.3305 45.3489 71.1771ZM62.1087 82.8592V76.8703H74.1235V72.2122H62.1087V66.593H75.7132V61.7871H56.1567V87.6652H76.1937V82.8592H62.1087ZM89.4618 88.1088C96.8555 88.1088 100.441 84.4119 100.441 80.0866C100.441 70.5856 85.3952 73.8758 85.3952 69.1069C85.3952 67.4803 86.763 66.1494 90.312 66.1494C92.6041 66.1494 95.081 66.8148 97.484 68.1827L99.3324 63.6355C96.9294 62.1198 93.6023 61.3434 90.349 61.3434C82.9922 61.3434 79.4432 65.0033 79.4432 69.4026C79.4432 79.0145 94.4895 75.6873 94.4895 80.5302C94.4895 82.1199 93.0477 83.3029 89.4987 83.3029C86.3934 83.3029 83.1401 82.1938 80.959 80.6041L78.9257 85.1143C81.2177 86.8888 85.3582 88.1088 89.4618 88.1088ZM109.533 87.6652H115.522V66.6669H123.803V61.7871H101.252V66.6669H109.533V87.6652Z" fill="#98CCFD"/>
<path d="M51.8923 87.6652V88.1652H52.8509L52.3024 87.379L51.8923 87.6652ZM46.0882 79.3472L45.8913 78.8876L45.3267 79.1296L45.6782 79.6333L46.0882 79.3472ZM28.9717 61.7871V61.2871H28.4717V61.7871H28.9717ZM28.9717 87.6652H28.4717V88.1652H28.9717V87.6652ZM34.9607 87.6652V88.1652H35.4607V87.6652H34.9607ZM34.9607 80.4563V79.9563H34.4607V80.4563H34.9607ZM40.469 80.4563L40.8801 80.1717L40.731 79.9563H40.469V80.4563ZM45.4598 87.6652L45.0487 87.9498L45.1978 88.1652H45.4598V87.6652ZM34.9607 75.6873H34.4607V76.1873H34.9607V75.6873ZM34.9607 66.6669V66.1669H34.4607V66.6669H34.9607ZM52.3024 87.379L46.4983 79.0611L45.6782 79.6333L51.4823 87.9513L52.3024 87.379ZM46.2852 79.8068C49.8323 78.2866 51.9117 75.2598 51.9117 71.1771H50.9117C50.9117 74.8579 49.0724 77.5243 45.8913 78.8876L46.2852 79.8068ZM51.9117 71.1771C51.9117 68.1408 50.7749 65.6472 48.7051 63.9215C46.6458 62.2046 43.7113 61.2871 40.1732 61.2871V62.2871C43.5483 62.2871 46.2331 63.1625 48.0647 64.6896C49.8859 66.208 50.9117 68.4094 50.9117 71.1771H51.9117ZM40.1732 61.2871H28.9717V62.2871H40.1732V61.2871ZM28.4717 61.7871V87.6652H29.4717V61.7871H28.4717ZM28.9717 88.1652H34.9607V87.1652H28.9717V88.1652ZM35.4607 87.6652V80.4563H34.4607V87.6652H35.4607ZM34.9607 80.9563H40.1732V79.9563H34.9607V80.9563ZM40.1732 80.9563H40.469V79.9563H40.1732V80.9563ZM40.0579 80.7409L45.0487 87.9498L45.8709 87.3806L40.8801 80.1717L40.0579 80.7409ZM45.4598 88.1652H51.8923V87.1652H45.4598V88.1652ZM44.8489 71.1771C44.8489 72.4661 44.4297 73.441 43.6446 74.1038C42.8465 74.7775 41.6011 75.1873 39.8405 75.1873V76.1873C41.7398 76.1873 43.2486 75.7468 44.2897 74.8679C45.3438 73.978 45.8489 72.6978 45.8489 71.1771H44.8489ZM39.8405 75.1873H34.9607V76.1873H39.8405V75.1873ZM35.4607 75.6873V66.6669H34.4607V75.6873H35.4607ZM34.9607 67.1669H39.8405V66.1669H34.9607V67.1669ZM39.8405 67.1669C41.6036 67.1669 42.8486 67.5686 43.6457 68.2376C44.4288 68.8947 44.8489 69.8681 44.8489 71.1771H45.8489C45.8489 69.6395 45.3447 68.3579 44.2886 67.4716C43.2465 66.5971 41.7373 66.1669 39.8405 66.1669V67.1669ZM62.1087 82.8592H61.6087V83.3592H62.1087V82.8592ZM62.1087 76.8703V76.3703H61.6087V76.8703H62.1087ZM74.1235 76.8703V77.3703H74.6235V76.8703H74.1235ZM74.1235 72.2122H74.6235V71.7122H74.1235V72.2122ZM62.1087 72.2122H61.6087V72.7122H62.1087V72.2122ZM62.1087 66.593V66.093H61.6087V66.593H62.1087ZM75.7132 66.593V67.093H76.2132V66.593H75.7132ZM75.7132 61.7871H76.2132V61.2871H75.7132V61.7871ZM56.1567 61.7871V61.2871H55.6567V61.7871H56.1567ZM56.1567 87.6652H55.6567V88.1652H56.1567V87.6652ZM76.1937 87.6652V88.1652H76.6937V87.6652H76.1937ZM76.1937 82.8592H76.6937V82.3592H76.1937V82.8592ZM62.6087 82.8592V76.8703H61.6087V82.8592H62.6087ZM62.1087 77.3703H74.1235V76.3703H62.1087V77.3703ZM74.6235 76.8703V72.2122H73.6235V76.8703H74.6235ZM74.1235 71.7122H62.1087V72.7122H74.1235V71.7122ZM62.6087 72.2122V66.593H61.6087V72.2122H62.6087ZM62.1087 67.093H75.7132V66.093H62.1087V67.093ZM76.2132 66.593V61.7871H75.2132V66.593H76.2132ZM75.7132 61.2871H56.1567V62.2871H75.7132V61.2871ZM55.6567 61.7871V87.6652H56.6567V61.7871H55.6567ZM56.1567 88.1652H76.1937V87.1652H56.1567V88.1652ZM76.6937 87.6652V82.8592H75.6937V87.6652H76.6937ZM76.1937 82.3592H62.1087V83.3592H76.1937V82.3592ZM97.484 68.1827L97.2366 68.6172L97.7324 68.8994L97.9472 68.3709L97.484 68.1827ZM99.3324 63.6355L99.7956 63.8238L99.9533 63.436L99.5992 63.2126L99.3324 63.6355ZM80.959 80.6041L81.2535 80.2001L80.7561 79.8376L80.5031 80.3986L80.959 80.6041ZM78.9257 85.1143L78.4699 84.9088L78.3078 85.2683L78.6196 85.5097L78.9257 85.1143ZM89.4618 88.6088C93.2377 88.6088 96.1043 87.6648 98.0377 86.1092C99.9791 84.5473 100.941 82.3971 100.941 80.0866H99.9415C99.9415 82.1014 99.1108 83.9623 97.4108 85.3301C95.7028 86.7043 93.0795 87.6088 89.4618 87.6088V88.6088ZM100.941 80.0866C100.941 77.5522 99.926 75.833 98.3983 74.6394C96.9006 73.4692 94.9325 72.8208 93.0421 72.3378C91.1023 71.8421 89.2989 71.5286 87.9164 71.0281C87.2357 70.7817 86.7221 70.5101 86.3834 70.1931C86.0616 69.892 85.8952 69.5498 85.8952 69.1069H84.8952C84.8952 69.8562 85.199 70.4543 85.7001 70.9233C86.1842 71.3763 86.8461 71.7042 87.576 71.9684C89.0146 72.4892 90.9728 72.8412 92.7945 73.3067C94.6658 73.7848 96.4592 74.3933 97.7826 75.4274C99.0761 76.438 99.9415 77.8705 99.9415 80.0866H100.941ZM85.8952 69.1069C85.8952 68.4537 86.1597 67.8712 86.8046 67.4312C87.4739 66.9744 88.5885 66.6494 90.312 66.6494V65.6494C88.4866 65.6494 87.1428 65.9897 86.2409 66.6051C85.3146 67.2372 84.8952 68.1334 84.8952 69.1069H85.8952ZM90.312 66.6494C92.508 66.6494 94.9004 67.2874 97.2366 68.6172L97.7313 67.7481C95.2616 66.3423 92.7002 65.6494 90.312 65.6494V66.6494ZM97.9472 68.3709L99.7956 63.8238L98.8692 63.4472L97.0208 67.9944L97.9472 68.3709ZM99.5992 63.2126C97.096 61.6337 93.6693 60.8434 90.349 60.8434V61.8434C93.5352 61.8434 96.7629 62.6059 99.0657 64.0584L99.5992 63.2126ZM90.349 60.8434C86.5922 60.8434 83.743 61.7779 81.8225 63.3349C79.8933 64.8989 78.9432 67.059 78.9432 69.4026H79.9432C79.9432 67.3469 80.7677 65.4774 82.4522 64.1117C84.1454 62.739 86.749 61.8434 90.349 61.8434V60.8434ZM78.9432 69.4026C78.9432 71.9624 79.9567 73.6997 81.4841 74.9075C82.9818 76.0918 84.9503 76.7487 86.8409 77.2388C87.7869 77.484 88.7435 77.6943 89.6127 77.9018C90.4923 78.1118 91.2904 78.3206 91.9658 78.5693C92.6459 78.8197 93.1594 79.0958 93.4984 79.4182C93.8208 79.7248 93.9895 80.0753 93.9895 80.5302H94.9895C94.9895 79.7744 94.688 79.1695 94.1876 78.6935C93.7037 78.2334 93.0418 77.8998 92.3113 77.6309C91.5761 77.3602 90.7285 77.1401 89.8449 76.9292C88.9508 76.7157 88.0266 76.5131 87.0918 76.2708C85.2209 75.7858 83.4278 75.1696 82.1044 74.1231C80.8106 73.1 79.9432 71.6488 79.9432 69.4026H78.9432ZM93.9895 80.5302C93.9895 81.1451 93.7246 81.6799 93.0631 82.0867C92.3716 82.5119 91.2308 82.8029 89.4987 82.8029V83.8029C91.3157 83.8029 92.6702 83.5023 93.5869 82.9386C94.5335 82.3565 94.9895 81.505 94.9895 80.5302H93.9895ZM89.4987 82.8029C86.4974 82.8029 83.3476 81.7263 81.2535 80.2001L80.6645 81.0082C82.9326 82.6613 86.2893 83.8029 89.4987 83.8029V82.8029ZM80.5031 80.3986L78.4699 84.9088L79.3815 85.3198L81.4148 80.8096L80.5031 80.3986ZM78.6196 85.5097C81.025 87.3719 85.285 88.6088 89.4618 88.6088V87.6088C85.4314 87.6088 81.4105 86.4057 79.2318 84.719L78.6196 85.5097ZM109.533 87.6652H109.033V88.1652H109.533V87.6652ZM115.522 87.6652V88.1652H116.022V87.6652H115.522ZM115.522 66.6669V66.1669H115.022V66.6669H115.522ZM123.803 66.6669V67.1669H124.303V66.6669H123.803ZM123.803 61.7871H124.303V61.2871H123.803V61.7871ZM101.252 61.7871V61.2871H100.752V61.7871H101.252ZM101.252 66.6669H100.752V67.1669H101.252V66.6669ZM109.533 66.6669H110.033V66.1669H109.533V66.6669ZM109.533 88.1652H115.522V87.1652H109.533V88.1652ZM116.022 87.6652V66.6669H115.022V87.6652H116.022ZM115.522 67.1669H123.803V66.1669H115.522V67.1669ZM124.303 66.6669V61.7871H123.303V66.6669H124.303ZM123.803 61.2871H101.252V62.2871H123.803V61.2871ZM100.752 61.7871V66.6669H101.752V61.7871H100.752ZM101.252 67.1669H109.533V66.1669H101.252V67.1669ZM109.033 66.6669V87.6652H110.033V66.6669H109.033Z" fill="#4788C7"/>
</svg>
