<svg width="150" height="134" viewBox="0 0 150 134" fill="none" xmlns="http://www.w3.org/2000/svg">
<path d="M149.39 11.81V122.93C149.34 123.01 149.26 123.08 149.24 123.17C148.35 129.15 143.23 133.6 136.03 133.6C95.46 133.56 54.89 133.58 14.32 133.56C13.03 133.56 11.69 133.47 10.45 133.15C4.41998 131.57 1 127.05 1 120.74C1 85.16 1 49.58 1 14C1 6.36999 6.2 1.18998 14.03 1.17998C54.79 1.14998 95.56 1.15997 136.32 1.16997C139.83 1.16997 142.96 2.16997 145.56 4.54997C147.72 6.52997 148.76 9.06998 149.39 11.81ZM75.15 127.52C95.29 127.52 115.43 127.52 135.56 127.52C136.28 127.52 137.01 127.52 137.73 127.46C140.32 127.23 142.56 125.27 143.02 122.78C143.17 121.95 143.22 121.1 143.22 120.26C143.22 85.01 143.22 49.77 143.22 14.52C143.22 13.77 143.19 13.01 143.07 12.28C142.66 9.88001 141.25 8.25998 138.87 7.55998C137.97 7.28998 136.97 7.24999 136.02 7.24999C95.46 7.23999 54.89 7.23998 14.33 7.23998C13.8 7.23998 13.27 7.24997 12.74 7.29997C10.07 7.51997 7.81999 9.48998 7.35999 12.06C7.21999 12.84 7.16998 13.65 7.16998 14.44C7.16998 49.73 7.16998 85.02 7.16998 120.32C7.16998 121.07 7.19999 121.83 7.32999 122.56C7.74999 124.89 9.12998 126.5 11.45 127.19C12.44 127.48 13.54 127.52 14.59 127.53C34.78 127.55 54.96 127.54 75.15 127.54V127.52Z" fill="#9DC9EC" stroke="#1C75BC" stroke-width="0.5" stroke-miterlimit="10"/>
<path d="M75.04 31.27C55.92 31.27 36.79 31.27 17.67 31.27C16.95 31.27 16.21 31.24 15.53 31.05C14.13 30.67 13.34 29.47 13.43 28.05C13.52 26.67 14.52 25.58 15.95 25.37C16.52 25.29 17.1 25.29 17.68 25.29C56.02 25.29 94.3601 25.29 132.71 25.29C133.14 25.29 133.58 25.29 134.01 25.32C135.78 25.47 136.93 26.6 136.96 28.21C136.99 29.8 135.89 31.02 134.15 31.24C133.63 31.31 133.09 31.28 132.56 31.28C113.39 31.28 94.22 31.28 75.05 31.28L75.04 31.27Z" fill="#9DC9EC" stroke="#1C75BC" stroke-width="0.5" stroke-miterlimit="10"/>
<path d="M21.08 19.25C20.4 19.22 19.72 19.23 19.06 19.14C17.64 18.94 16.65 17.87 16.52 16.47C16.39 15.12 17.2 13.69 18.59 13.5C20.23 13.27 21.95 13.27 23.59 13.5C25 13.7 25.76 15.08 25.65 16.49C25.54 17.87 24.54 18.94 23.1 19.14C22.43 19.23 21.75 19.22 21.08 19.25Z" fill="#9DC9EC" stroke="#1C75BC" stroke-width="0.5" stroke-miterlimit="10"/>
<path d="M36.42 19.25C35.79 19.22 35.16 19.23 34.54 19.14C33.1 18.94 32.09 17.88 31.98 16.5C31.86 15.09 32.62 13.7 34.02 13.5C35.66 13.27 37.38 13.27 39.02 13.5C40.42 13.69 41.23 15.12 41.11 16.47C40.99 17.86 39.99 18.95 38.58 19.15C37.87 19.25 37.14 19.23 36.41 19.26L36.42 19.25Z" fill="#9DC9EC" stroke="#1C75BC" stroke-width="0.5" stroke-miterlimit="10"/>
<path d="M129.21 19.25C128.58 19.22 127.95 19.23 127.33 19.15C125.88 18.96 124.86 17.92 124.74 16.54C124.6 15.06 125.39 13.7 126.88 13.47C128.38 13.23 129.96 13.22 131.47 13.4C133.04 13.58 133.99 14.97 133.88 16.43C133.77 17.92 132.69 19.02 131.09 19.17C130.47 19.23 129.84 19.18 129.21 19.18V19.25V19.25Z" fill="#9DC9EC" stroke="#1C75BC" stroke-width="0.5" stroke-miterlimit="10"/>
<path d="M51.5899 85.96L45.7856 77.6418C49.1499 76.1999 51.1093 73.3533 51.1093 69.4714C51.1093 63.6671 46.7838 60.081 39.8704 60.081H28.6685V85.96H34.6576V78.7509H39.8704H40.1662L45.1571 85.96H51.5899ZM45.0462 69.4714C45.0462 72.2811 43.1977 73.9817 39.5377 73.9817H34.6576V64.9611H39.5377C43.1977 64.9611 45.0462 66.6247 45.0462 69.4714ZM61.8066 81.1539V75.1648H73.8219V70.5066H61.8066V64.8871H75.4116V60.081H55.8544V85.96H75.8922V81.1539H61.8066ZM89.1607 86.4037C96.5546 86.4037 100.141 82.7067 100.141 78.3812C100.141 68.8799 85.0939 72.1702 85.0939 67.4011C85.0939 65.7744 86.4618 64.4435 90.011 64.4435C92.3031 64.4435 94.7801 65.1089 97.1831 66.4768L99.0316 61.9295C96.6286 60.4137 93.3013 59.6374 90.0479 59.6374C82.6909 59.6374 79.1418 63.2974 79.1418 67.6968C79.1418 77.309 94.1886 73.9817 94.1886 78.8248C94.1886 80.4145 92.7467 81.5976 89.1976 81.5976C86.0921 81.5976 82.8388 80.4885 80.6575 78.8988L78.6242 83.4091C80.9163 85.1837 85.057 86.4037 89.1607 86.4037ZM109.233 85.96H115.222V64.9611H123.503V60.081H100.951V64.9611H109.233V85.96Z" fill="#9DC9EC"/>
<path d="M51.5899 85.96V86.21H52.0692L51.7949 85.817L51.5899 85.96ZM45.7856 77.6418L45.6871 77.412L45.4048 77.533L45.5806 77.7848L45.7856 77.6418ZM28.6685 60.081V59.831H28.4185V60.081H28.6685ZM28.6685 85.96H28.4185V86.21H28.6685V85.96ZM34.6576 85.96V86.21H34.9076V85.96H34.6576ZM34.6576 78.7509V78.5009H34.4076V78.7509H34.6576ZM40.1662 78.7509L40.3717 78.6086L40.2971 78.5009H40.1662V78.7509ZM45.1571 85.96L44.9516 86.1023L45.0261 86.21H45.1571V85.96ZM34.6576 73.9817H34.4076V74.2317H34.6576V73.9817ZM34.6576 64.9611V64.7111H34.4076V64.9611H34.6576ZM51.7949 85.817L45.9906 77.4987L45.5806 77.7848L51.3849 86.1031L51.7949 85.817ZM45.8841 77.8716C49.3398 76.3905 51.3593 73.4537 51.3593 69.4714H50.8593C50.8593 73.2528 48.9599 76.0094 45.6871 77.412L45.8841 77.8716ZM51.3593 69.4714C51.3593 66.5021 50.2502 64.0815 48.2425 62.4076C46.24 60.7381 43.3679 59.831 39.8704 59.831V60.331C43.2863 60.331 46.0336 61.217 47.9223 62.7916C49.8057 64.3619 50.8593 66.6364 50.8593 69.4714H51.3593ZM39.8704 59.831H28.6685V60.331H39.8704V59.831ZM28.4185 60.081V85.96H28.9185V60.081H28.4185ZM28.6685 86.21H34.6576V85.71H28.6685V86.21ZM34.9076 85.96V78.7509H34.4076V85.96H34.9076ZM34.6576 79.0009H39.8704V78.5009H34.6576V79.0009ZM39.8704 79.0009H40.1662V78.5009H39.8704V79.0009ZM39.9606 78.8932L44.9516 86.1023L45.3627 85.8177L40.3717 78.6086L39.9606 78.8932ZM45.1571 86.21H51.5899V85.71H45.1571V86.21ZM44.7962 69.4714C44.7962 70.8183 44.3556 71.8696 43.5032 72.5892C42.6443 73.3143 41.333 73.7317 39.5377 73.7317V74.2317C41.4024 74.2317 42.8453 73.7989 43.8257 72.9712C44.8126 72.1381 45.2962 70.9342 45.2962 69.4714H44.7962ZM39.5377 73.7317H34.6576V74.2317H39.5377V73.7317ZM34.9076 73.9817V64.9611H34.4076V73.9817H34.9076ZM34.6576 65.2111H39.5377V64.7111H34.6576V65.2111ZM39.5377 65.2111C41.3342 65.2111 42.6453 65.6199 43.5037 66.3402C44.3551 67.0547 44.7962 68.1052 44.7962 69.4714H45.2962C45.2962 67.9909 44.8131 66.7863 43.8252 65.9572C42.8443 65.1341 41.4011 64.7111 39.5377 64.7111V65.2111ZM61.8066 81.1539H61.5566V81.4039H61.8066V81.1539ZM61.8066 75.1648V74.9148H61.5566V75.1648H61.8066ZM73.8219 75.1648V75.4148H74.0719V75.1648H73.8219ZM73.8219 70.5066H74.0719V70.2566H73.8219V70.5066ZM61.8066 70.5066H61.5566V70.7566H61.8066V70.5066ZM61.8066 64.8871V64.6371H61.5566V64.8871H61.8066ZM75.4116 64.8871V65.1371H75.6616V64.8871H75.4116ZM75.4116 60.081H75.6616V59.831H75.4116V60.081ZM55.8544 60.081V59.831H55.6044V60.081H55.8544ZM55.8544 85.96H55.6044V86.21H55.8544V85.96ZM75.8922 85.96V86.21H76.1422V85.96H75.8922ZM75.8922 81.1539H76.1422V80.9039H75.8922V81.1539ZM62.0566 81.1539V75.1648H61.5566V81.1539H62.0566ZM61.8066 75.4148H73.8219V74.9148H61.8066V75.4148ZM74.0719 75.1648V70.5066H73.5719V75.1648H74.0719ZM73.8219 70.2566H61.8066V70.7566H73.8219V70.2566ZM62.0566 70.5066V64.8871H61.5566V70.5066H62.0566ZM61.8066 65.1371H75.4116V64.6371H61.8066V65.1371ZM75.6616 64.8871V60.081H75.1616V64.8871H75.6616ZM75.4116 59.831H55.8544V60.331H75.4116V59.831ZM55.6044 60.081V85.96H56.1044V60.081H55.6044ZM55.8544 86.21H75.8922V85.71H55.8544V86.21ZM76.1422 85.96V81.1539H75.6422V85.96H76.1422ZM75.8922 80.9039H61.8066V81.4039H75.8922V80.9039ZM97.1831 66.4768L97.0595 66.6941L97.3073 66.8352L97.4147 66.571L97.1831 66.4768ZM99.0316 61.9295L99.2632 62.0237L99.3421 61.8297L99.165 61.7181L99.0316 61.9295ZM80.6576 78.8988L80.8048 78.6967L80.5561 78.5155L80.4296 78.796L80.6576 78.8988ZM78.6242 83.4091L78.3963 83.3063L78.3153 83.4861L78.4712 83.6068L78.6242 83.4091ZM89.1606 86.6537C92.8972 86.6537 95.703 85.7195 97.5802 84.2093C99.4613 82.6958 100.391 80.6179 100.391 78.3812H99.8907C99.8907 80.47 99.0272 82.4033 97.2667 83.8197C95.5023 85.2393 92.8181 86.1537 89.1606 86.1537V86.6537ZM100.391 78.3812C100.391 75.9263 99.4128 74.2788 97.9436 73.1308C96.4894 71.9946 94.5649 71.3562 92.6792 70.8743C90.7689 70.3862 88.9267 70.0631 87.5301 69.5575C86.8371 69.3066 86.2864 69.0209 85.9113 68.6699C85.5447 68.3269 85.3439 67.9206 85.3439 67.4011H84.8439C84.8439 68.0738 85.1134 68.608 85.5697 69.035C86.0175 69.454 86.6423 69.7679 87.3599 70.0276C88.7846 70.5434 90.7041 70.8857 92.5555 71.3588C94.4315 71.8382 96.2687 72.4567 97.6358 73.5248C98.9878 74.5813 99.8907 76.0854 99.8907 78.3812H100.391ZM85.3439 67.4011C85.3439 66.6678 85.6472 66.0068 86.3624 65.5188C87.0899 65.0224 88.2619 64.6935 90.011 64.6935V64.1935C88.2109 64.1935 86.9244 64.53 86.0806 65.1058C85.2247 65.6898 84.8439 66.5077 84.8439 67.4011H85.3439ZM90.011 64.6935C92.255 64.6935 94.6898 65.3452 97.0595 66.6941L97.3068 66.2596C94.8704 64.8727 92.3512 64.1935 90.011 64.1935V64.6935ZM97.4147 66.571L99.2632 62.0237L98.8 61.8354L96.9515 66.3827L97.4147 66.571ZM99.165 61.7181C96.7119 60.1707 93.3348 59.3874 90.0479 59.3874V59.8874C93.2678 59.8874 96.5453 60.6568 98.8983 62.141L99.165 61.7181ZM90.0479 59.3874C86.3302 59.3874 83.5423 60.3121 81.6785 61.8231C79.8105 63.3376 78.8918 65.4252 78.8918 67.6968H79.3918C79.3918 65.5691 80.2476 63.6269 81.9934 62.2115C83.7435 60.7927 86.4086 59.8874 90.0479 59.8874V59.3874ZM78.8918 67.6968C78.8918 70.1783 79.8687 71.8441 81.3378 73.0058C82.792 74.1557 84.7167 74.8024 86.6024 75.2913C87.5457 75.5357 88.4942 75.7442 89.3696 75.9532C90.2503 76.1634 91.0608 76.3751 91.7511 76.6292C92.4439 76.8842 92.9945 77.1747 93.3697 77.5316C93.7366 77.8805 93.9386 78.2946 93.9386 78.8248H94.4386C94.4386 78.1442 94.1703 77.6029 93.7143 77.1693C93.2667 76.7435 92.6418 76.4243 91.9239 76.16C91.2036 75.8949 90.3684 75.6776 89.4857 75.4669C88.5979 75.2549 87.6655 75.0503 86.7279 74.8072C84.852 74.321 83.015 73.6946 81.6479 72.6136C80.2957 71.5443 79.3918 70.0215 79.3918 67.6968H78.8918ZM93.9386 78.8248C93.9386 79.5297 93.6259 80.1437 92.8931 80.5944C92.1453 81.0542 90.951 81.3476 89.1976 81.3476V81.8476C90.9934 81.8476 92.2946 81.5494 93.155 81.0203C94.0303 80.482 94.4386 79.7097 94.4386 78.8248H93.9386ZM89.1976 81.3476C86.1441 81.3476 82.9425 80.2547 80.8048 78.6967L80.5103 79.1008C82.735 80.7222 86.0401 81.8476 89.1976 81.8476V81.3476ZM80.4296 78.796L78.3963 83.3063L78.8521 83.5118L80.8855 79.0015L80.4296 78.796ZM78.4712 83.6068C80.82 85.4252 85.0204 86.6537 89.1606 86.6537V86.1537C85.0936 86.1537 81.0127 84.9421 78.7772 83.2114L78.4712 83.6068ZM109.233 85.96H108.983V86.21H109.233V85.96ZM115.222 85.96V86.21H115.472V85.96H115.222ZM115.222 64.9611V64.7111H114.972V64.9611H115.222ZM123.503 64.9611V65.2111H123.753V64.9611H123.503ZM123.503 60.081H123.753V59.831H123.503V60.081ZM100.951 60.081V59.831H100.701V60.081H100.951ZM100.951 64.9611H100.701V65.2111H100.951V64.9611ZM109.233 64.9611H109.483V64.7111H109.233V64.9611ZM109.233 86.21H115.222V85.71H109.233V86.21ZM115.472 85.96V64.9611H114.972V85.96H115.472ZM115.222 65.2111H123.503V64.7111H115.222V65.2111ZM123.753 64.9611V60.081H123.253V64.9611H123.753ZM123.503 59.831H100.951V60.331H123.503V59.831ZM100.701 60.081V64.9611H101.201V60.081H100.701ZM100.951 65.2111H109.233V64.7111H100.951V65.2111ZM108.983 64.9611V85.96H109.483V64.9611H108.983Z" fill="#1C75BC"/>
</svg>
