<svg width="9" height="10" viewBox="0 0 9 10" fill="none" xmlns="http://www.w3.org/2000/svg">
<path d="M2.42308 0.25H4.59615V2.54571C4.59615 2.85524 4.74699 3.13902 4.99212 3.33933C5.23585 3.53849 5.5574 3.64428 5.88462 3.64428H8.75V7.07141C8.75 7.21199 8.68202 7.35988 8.53765 7.47785C8.39188 7.59697 8.18516 7.66998 7.96154 7.66998H2.42308C2.19946 7.66998 1.99273 7.59697 1.84696 7.47785C1.70259 7.35988 1.63462 7.21199 1.63462 7.07141V0.848569C1.63462 0.707989 1.70259 0.560097 1.84696 0.442128C1.99273 0.323015 2.19946 0.25 2.42308 0.25ZM5.79804 2.55213C5.79239 2.54752 5.78963 2.54388 5.78846 2.54205V0.668564L8.12588 2.57856H5.88462C5.84461 2.57856 5.81397 2.56515 5.79804 2.55213ZM0.25 1.69714C0.25 1.63158 0.281509 1.55563 0.360961 1.49071C0.384959 1.4711 0.41229 1.4535 0.442308 1.43845V7.07141C0.442308 7.53098 0.666086 7.95865 1.04105 8.26505C1.41461 8.5703 1.91225 8.73569 2.42308 8.73569H7.1896C7.1155 8.77654 7.02307 8.80141 6.92308 8.80141H2.45631C1.85665 8.80141 1.28929 8.60633 0.877625 8.26994C0.467359 7.93469 0.25 7.49211 0.25 7.04426V1.69714Z" fill="#98CCFD" stroke="#4788C7" stroke-width="0.5"/>
</svg>
