<svg width="82" height="87" viewBox="0 0 82 87" fill="none" xmlns="http://www.w3.org/2000/svg">
<path d="M80.6716 14.914C80.4475 13.0935 78.8511 11.7212 76.956 11.7118C74.0339 11.7118 58.3686 11.7118 58.3686 11.7118V7.27741C58.3686 3.30975 55.5959 0.546387 51.6376 0.546387H29.8388C25.7685 0.546387 23.0238 3.29107 23.0238 7.37076V11.7118H4.60452C3.46557 11.7118 2.44798 12.1133 1.72913 12.8321C1.05696 13.5136 0.692871 14.4472 0.692871 15.4648C0.702207 17.5933 2.33595 19.143 4.56717 19.1524H9.06697V34.9483C9.06697 48.3824 9.06697 61.8257 9.06697 75.2598C9.06697 81.3466 13.8468 86.1265 19.9337 86.1265C25.4231 86.1265 30.9124 86.1265 36.3925 86.1265H61.5241C62.1123 86.1265 62.5977 86.0891 63.0458 86.0331C68.4605 85.2676 72.3721 80.5904 72.3441 74.905C72.2881 61.4616 72.2975 47.7849 72.3068 34.5656C72.3068 29.4963 72.3068 19.1617 72.3068 19.1617H73.2684C74.3046 19.1617 75.3316 19.1617 76.3678 19.143H76.5452C76.984 19.143 77.4881 19.143 77.9922 19.003C79.7753 18.5176 80.8956 16.7905 80.6622 14.914H80.6716ZM30.5017 11.6465V8.0336H50.8534V11.6465H30.5017ZM16.5075 19.1617H64.8756V74.8677C64.8756 77.3603 63.5499 78.686 61.0386 78.686H20.2418C17.8705 78.686 16.5075 77.3229 16.5075 74.9517V19.1617Z" fill="#9DC9EC" stroke="#2698D3" stroke-miterlimit="10"/>
<path d="M28.392 67.7538C29.0175 68.7901 30.1378 69.4063 31.3888 69.4063C31.7809 69.4063 32.1636 69.3502 32.5277 69.2289C34.1521 68.7154 35.1604 67.3151 35.1604 65.5786C35.1604 60.5094 35.1604 55.4308 35.1604 50.3615V41.1752C35.1604 38.2345 35.1604 35.2937 35.1604 32.353C35.1604 30.7472 34.4322 29.5243 33.0599 28.8241C32.5277 28.5534 31.9676 28.4133 31.3888 28.4133C29.3349 28.4133 27.7199 30.1031 27.7105 32.2596C27.6919 36.1246 27.7012 39.9802 27.7012 43.8452V52.7141C27.7012 56.9151 27.7012 61.1162 27.7292 65.3172C27.7292 66.1855 27.9719 67.0723 28.392 67.7538Z" fill="#9DC9EC" stroke="#2698D3" stroke-miterlimit="10"/>
<path d="M46.9138 67.7725C47.5673 68.7901 48.6876 69.3969 49.9293 69.3969C50.312 69.3969 50.6854 69.3409 51.0495 69.2196C52.6553 68.7061 53.6635 67.3431 53.6635 65.6533C53.6729 61.555 53.6635 57.4566 53.6635 53.3583V44.312C53.6635 40.2603 53.6635 36.218 53.6635 32.1663C53.6635 30.0471 52.0578 28.4507 49.9012 28.4507C47.8474 28.4694 46.2323 30.1031 46.223 32.1663C46.2137 43.3317 46.2137 54.4972 46.2417 65.6533C46.2417 66.3348 46.4844 67.1004 46.9138 67.7632V67.7725Z" fill="#9DC9EC" stroke="#2698D3" stroke-miterlimit="10"/>
</svg>
