<svg width="110" height="142" viewBox="0 0 110 142" fill="none" xmlns="http://www.w3.org/2000/svg">
<path d="M27.3283 141.072L23.8995 136.158C25.8869 135.307 27.0444 133.625 27.0444 131.332C27.0444 127.903 24.4891 125.785 20.4051 125.785H13.7878V141.072H17.3258V136.814H20.4051H20.5799L23.5282 141.072H27.3283ZM23.4627 131.332C23.4627 132.992 22.3707 133.996 20.2086 133.996H17.3258V128.667H20.2086C22.3707 128.667 23.4627 129.65 23.4627 131.332ZM41.2695 141.072H44.9823L38.1465 125.785H34.6522L27.8383 141.072H31.4636L32.8177 137.796H39.9155L41.2695 141.072ZM33.9533 135.11L36.3775 129.257L38.8017 135.11H33.9533ZM60.1088 141.072L56.68 136.158C58.6674 135.307 59.8249 133.625 59.8249 131.332C59.8249 127.903 57.2697 125.785 53.1857 125.785H46.5684V141.072H50.1064V136.814H53.1857H53.3604L56.3088 141.072H60.1088ZM56.2433 131.332C56.2433 132.992 55.1513 133.996 52.9892 133.996H50.1064V128.667H52.9892C55.1513 128.667 56.2433 129.65 56.2433 131.332ZM66.1442 138.233V134.695H73.2421V131.943H66.1442V128.624H74.1812V125.785H62.6281V141.072H74.4651V138.233H66.1442ZM88.7022 141.072H92.4149L85.5792 125.785H82.0848L75.2709 141.072H78.8963L80.2503 137.796H87.3482L88.7022 141.072ZM81.386 135.11L83.8102 129.257L86.2344 135.11H81.386Z" fill="#98CCFD"/>
<path d="M27.3283 141.072V141.572H28.2868L27.7383 140.786L27.3283 141.072ZM23.8995 136.158L23.7025 135.699L23.1379 135.941L23.4894 136.444L23.8995 136.158ZM13.7878 125.785V125.285H13.2878V125.785H13.7878ZM13.7878 141.072H13.2878V141.572H13.7878V141.072ZM17.3258 141.072V141.572H17.8258V141.072H17.3258ZM17.3258 136.814V136.314H16.8258V136.814H17.3258ZM20.5799 136.814L20.991 136.529L20.8418 136.314H20.5799V136.814ZM23.5282 141.072L23.1171 141.357L23.2662 141.572H23.5282V141.072ZM17.3258 133.996H16.8258V134.496H17.3258V133.996ZM17.3258 128.667V128.167H16.8258V128.667H17.3258ZM27.7383 140.786L24.3095 135.872L23.4894 136.444L26.9182 141.358L27.7383 140.786ZM24.0964 136.618C26.2668 135.688 27.5444 133.826 27.5444 131.332H26.5444C26.5444 133.424 25.5069 134.925 23.7025 135.699L24.0964 136.618ZM27.5444 131.332C27.5444 129.483 26.85 127.95 25.5764 126.888C24.3133 125.835 22.5287 125.285 20.4051 125.285V126.285C22.3656 126.285 23.9006 126.793 24.9361 127.656C25.9611 128.511 26.5444 129.752 26.5444 131.332H27.5444ZM20.4051 125.285H13.7878V126.285H20.4051V125.285ZM13.2878 125.785V141.072H14.2878V125.785H13.2878ZM13.7878 141.572H17.3258V140.572H13.7878V141.572ZM17.8258 141.072V136.814H16.8258V141.072H17.8258ZM17.3258 137.314H20.4051V136.314H17.3258V137.314ZM20.4051 137.314H20.5799V136.314H20.4051V137.314ZM20.1688 137.098L23.1171 141.357L23.9393 140.788L20.991 136.529L20.1688 137.098ZM23.5282 141.572H27.3283V140.572H23.5282V141.572ZM22.9627 131.332C22.9627 132.046 22.7326 132.559 22.3239 132.904C21.9021 133.26 21.2203 133.496 20.2086 133.496V134.496C21.359 134.496 22.3042 134.23 22.969 133.669C23.6467 133.096 23.9627 132.278 23.9627 131.332H22.9627ZM20.2086 133.496H17.3258V134.496H20.2086V133.496ZM17.8258 133.996V128.667H16.8258V133.996H17.8258ZM17.3258 129.167H20.2086V128.167H17.3258V129.167ZM20.2086 129.167C21.2228 129.167 21.9042 129.399 22.325 129.752C22.7317 130.093 22.9627 130.605 22.9627 131.332H23.9627C23.9627 130.377 23.6477 129.557 22.9678 128.986C22.3021 128.427 21.3565 128.167 20.2086 128.167V129.167ZM41.2695 141.072L40.8075 141.263L40.9352 141.572H41.2695V141.072ZM44.9823 141.072V141.572H45.7535L45.4387 140.868L44.9823 141.072ZM38.1465 125.785L38.6029 125.581L38.4706 125.285H38.1465V125.785ZM34.6522 125.785V125.285H34.3276L34.1955 125.581L34.6522 125.785ZM27.8383 141.072L27.3816 140.869L27.068 141.572H27.8383V141.072ZM31.4636 141.072V141.572H31.798L31.9257 141.263L31.4636 141.072ZM32.8177 137.796V137.296H32.4833L32.3556 137.605L32.8177 137.796ZM39.9155 137.796L40.3776 137.605L40.2499 137.296H39.9155V137.796ZM33.9533 135.11L33.4914 134.919L33.205 135.61H33.9533V135.11ZM36.3775 129.257L36.8394 129.066L36.3775 127.95L35.9156 129.066L36.3775 129.257ZM38.8017 135.11V135.61H39.55L39.2636 134.919L38.8017 135.11ZM41.2695 141.572H44.9823V140.572H41.2695V141.572ZM45.4387 140.868L38.6029 125.581L37.6901 125.989L44.5258 141.276L45.4387 140.868ZM38.1465 125.285H34.6522V126.285H38.1465V125.285ZM34.1955 125.581L27.3816 140.869L28.2949 141.276L35.1089 125.988L34.1955 125.581ZM27.8383 141.572H31.4636V140.572H27.8383V141.572ZM31.9257 141.263L33.2797 137.987L32.3556 137.605L31.0015 140.881L31.9257 141.263ZM32.8177 138.296H39.9155V137.296H32.8177V138.296ZM39.4534 137.987L40.8075 141.263L41.7316 140.881L40.3776 137.605L39.4534 137.987ZM34.4153 135.301L36.8394 129.448L35.9156 129.066L33.4914 134.919L34.4153 135.301ZM35.9156 129.448L38.3397 135.301L39.2636 134.919L36.8394 129.066L35.9156 129.448ZM38.8017 134.61H33.9533V135.61H38.8017V134.61ZM60.1088 141.072V141.572H61.0674L60.5189 140.786L60.1088 141.072ZM56.68 136.158L56.4831 135.699L55.9185 135.941L56.27 136.444L56.68 136.158ZM46.5684 125.785V125.285H46.0684V125.785H46.5684ZM46.5684 141.072H46.0684V141.572H46.5684V141.072ZM50.1064 141.072V141.572H50.6064V141.072H50.1064ZM50.1064 136.814V136.314H49.6064V136.814H50.1064ZM53.3604 136.814L53.7715 136.529L53.6224 136.314H53.3604V136.814ZM56.3088 141.072L55.8977 141.357L56.0468 141.572H56.3088V141.072ZM50.1064 133.996H49.6064V134.496H50.1064V133.996ZM50.1064 128.667V128.167H49.6064V128.667H50.1064ZM60.5189 140.786L57.0901 135.872L56.27 136.444L59.6988 141.358L60.5189 140.786ZM56.877 136.618C59.0474 135.688 60.3249 133.826 60.3249 131.332H59.3249C59.3249 133.424 58.2875 134.925 56.4831 135.699L56.877 136.618ZM60.3249 131.332C60.3249 129.483 59.6306 127.95 58.357 126.888C57.0939 125.835 55.3092 125.285 53.1857 125.285V126.285C55.1462 126.285 56.6811 126.793 57.7166 127.656C58.7416 128.511 59.3249 129.752 59.3249 131.332H60.3249ZM53.1857 125.285H46.5684V126.285H53.1857V125.285ZM46.0684 125.785V141.072H47.0684V125.785H46.0684ZM46.5684 141.572H50.1064V140.572H46.5684V141.572ZM50.6064 141.072V136.814H49.6064V141.072H50.6064ZM50.1064 137.314H53.1857V136.314H50.1064V137.314ZM53.1857 137.314H53.3604V136.314H53.1857V137.314ZM52.9493 137.098L55.8977 141.357L56.7199 140.788L53.7715 136.529L52.9493 137.098ZM56.3088 141.572H60.1088V140.572H56.3088V141.572ZM55.7433 131.332C55.7433 132.046 55.5132 132.559 55.1045 132.904C54.6827 133.26 54.0009 133.496 52.9892 133.496V134.496C54.1396 134.496 55.0848 134.23 55.7495 133.669C56.4273 133.096 56.7433 132.278 56.7433 131.332H55.7433ZM52.9892 133.496H50.1064V134.496H52.9892V133.496ZM50.6064 133.996V128.667H49.6064V133.996H50.6064ZM50.1064 129.167H52.9892V128.167H50.1064V129.167ZM52.9892 129.167C54.0034 129.167 54.6848 129.399 55.1056 129.752C55.5123 130.093 55.7433 130.605 55.7433 131.332H56.7433C56.7433 130.377 56.4282 129.557 55.7484 128.986C55.0827 128.427 54.1371 128.167 52.9892 128.167V129.167ZM66.1442 138.233H65.6442V138.733H66.1442V138.233ZM66.1442 134.695V134.195H65.6442V134.695H66.1442ZM73.2421 134.695V135.195H73.7421V134.695H73.2421ZM73.2421 131.943H73.7421V131.443H73.2421V131.943ZM66.1442 131.943H65.6442V132.443H66.1442V131.943ZM66.1442 128.624V128.124H65.6442V128.624H66.1442ZM74.1812 128.624V129.124H74.6812V128.624H74.1812ZM74.1812 125.785H74.6812V125.285H74.1812V125.785ZM62.6281 125.785V125.285H62.1281V125.785H62.6281ZM62.6281 141.072H62.1281V141.572H62.6281V141.072ZM74.4651 141.072V141.572H74.9651V141.072H74.4651ZM74.4651 138.233H74.9651V137.733H74.4651V138.233ZM66.6442 138.233V134.695H65.6442V138.233H66.6442ZM66.1442 135.195H73.2421V134.195H66.1442V135.195ZM73.7421 134.695V131.943H72.7421V134.695H73.7421ZM73.2421 131.443H66.1442V132.443H73.2421V131.443ZM66.6442 131.943V128.624H65.6442V131.943H66.6442ZM66.1442 129.124H74.1812V128.124H66.1442V129.124ZM74.6812 128.624V125.785H73.6812V128.624H74.6812ZM74.1812 125.285H62.6281V126.285H74.1812V125.285ZM62.1281 125.785V141.072H63.1281V125.785H62.1281ZM62.6281 141.572H74.4651V140.572H62.6281V141.572ZM74.9651 141.072V138.233H73.9651V141.072H74.9651ZM74.4651 137.733H66.1442V138.733H74.4651V137.733ZM88.7022 141.072L88.2401 141.263L88.3679 141.572H88.7022V141.072ZM92.4149 141.072V141.572H93.1862L92.8714 140.868L92.4149 141.072ZM85.5792 125.785L86.0356 125.581L85.9033 125.285H85.5792V125.785ZM82.0848 125.785V125.285H81.7603L81.6282 125.581L82.0848 125.785ZM75.2709 141.072L74.8142 140.869L74.5006 141.572H75.2709V141.072ZM78.8963 141.072V141.572H79.2306L79.3584 141.263L78.8963 141.072ZM80.2503 137.796V137.296H79.916L79.7882 137.605L80.2503 137.796ZM87.3482 137.796L87.8102 137.605L87.6825 137.296H87.3482V137.796ZM81.386 135.11L80.924 134.919L80.6377 135.61H81.386V135.11ZM83.8102 129.257L84.2721 129.066L83.8102 127.95L83.3482 129.066L83.8102 129.257ZM86.2344 135.11V135.61H86.9826L86.6963 134.919L86.2344 135.11ZM88.7022 141.572H92.4149V140.572H88.7022V141.572ZM92.8714 140.868L86.0356 125.581L85.1227 125.989L91.9585 141.276L92.8714 140.868ZM85.5792 125.285H82.0848V126.285H85.5792V125.285ZM81.6282 125.581L74.8142 140.869L75.7276 141.276L82.5415 125.988L81.6282 125.581ZM75.2709 141.572H78.8963V140.572H75.2709V141.572ZM79.3584 141.263L80.7124 137.987L79.7882 137.605L78.4342 140.881L79.3584 141.263ZM80.2503 138.296H87.3482V137.296H80.2503V138.296ZM86.8861 137.987L88.2401 141.263L89.1643 140.881L87.8102 137.605L86.8861 137.987ZM81.8479 135.301L84.2721 129.448L83.3482 129.066L80.924 134.919L81.8479 135.301ZM83.3482 129.448L85.7724 135.301L86.6963 134.919L84.2721 129.066L83.3482 129.448ZM86.2344 134.61H81.386V135.61H86.2344V134.61Z" fill="#4788C7"/>
<path d="M63.5901 105.09C63.2601 105.09 62.9101 105.12 62.5601 105.15C61.6601 105.24 60.7701 105.34 59.8701 105.44C57.3601 105.72 54.7601 106.01 52.2401 106.11C50.7201 106.17 49.2101 106.2 47.7601 106.2C38.3801 106.2 30.1301 104.95 22.5401 102.38C19.3201 101.29 15.2001 99.66 11.8901 96.71C10.0201 95.05 9.25009 93.7401 9.23009 92.1901C9.20009 88.9901 9.20014 85.7801 9.21014 82.5801C12.8701 85.0601 17.1901 86.9801 22.6401 88.5701C30.4301 90.8401 38.7701 91.9501 48.1701 91.9501H48.7101C51.2301 91.9401 53.7101 91.79 55.5901 91.65C57.9001 91.49 59.5801 89.61 59.5001 87.28C59.4201 84.94 57.6401 83.21 55.2501 83.16H54.7601C53.9901 83.16 53.2101 83.19 52.4401 83.23C50.8501 83.3 49.2701 83.34 47.7301 83.34C38.6501 83.34 30.4701 82.1101 22.7201 79.5701C18.0101 78.0301 14.5601 76.2001 11.8701 73.8301C10.0201 72.2001 9.22014 70.82 9.21014 69.21C9.18014 66.04 9.19012 62.8601 9.19012 59.6901C9.36012 59.8001 9.52012 59.92 9.69012 60.03C14.0001 62.82 19.0801 64.88 25.6901 66.52C31.4901 67.96 37.6901 68.78 44.6401 69.03C45.8701 69.07 47.0901 69.1 48.3101 69.1C54.6401 69.1 61.0401 68.5001 67.3601 67.3201C68.6501 67.0801 69.7301 66.38 70.4101 65.35C71.0401 64.39 71.2401 63.24 70.9801 62.12C70.5101 60.09 68.8001 58.78 66.6301 58.78C66.3401 58.78 66.0401 58.8 65.7501 58.85L63.9301 59.13C61.8801 59.45 59.7601 59.79 57.7001 60C54.7301 60.31 51.6601 60.46 48.5501 60.46C46.4401 60.46 44.2701 60.39 42.0901 60.25C33.5101 59.69 26.2401 58.18 19.8701 55.62C16.4901 54.27 13.9901 52.81 11.9901 51.04C10.3701 49.6 9.29012 48.29 9.26012 46.55C9.21012 43.32 9.22009 40.02 9.23009 36.84C11.2001 38.18 13.4401 39.36 16.0701 40.47C22.7601 43.28 30.3201 45.02 39.2001 45.79C42.4001 46.07 45.5801 46.21 48.6801 46.21C55.4901 46.21 62.1801 45.5301 68.5601 44.1901C76.1601 42.6001 82.0301 40.35 87.0201 37.13C87.1801 37.03 87.3401 36.9201 87.5001 36.8101C87.5001 37.0201 87.5001 37.2401 87.5001 37.4501C87.4901 40.2001 87.4801 43.04 87.5301 45.84C87.5501 47.33 87.1201 48.5501 86.2001 49.5601C85.6201 50.2001 84.9401 50.8001 84.2201 51.4301C83.8801 51.7301 83.5301 52.04 83.1901 52.35C81.3501 54.05 81.0901 56.6001 82.5701 58.4301C83.3701 59.4101 84.5501 59.98 85.8101 59.98C86.8201 59.98 87.8101 59.63 88.6901 58.97C88.7101 58.95 88.7401 58.93 88.7601 58.92C88.7801 58.95 88.8001 58.97 88.8301 58.99C89.6201 59.84 90.6601 60.3101 91.7801 60.3101C92.3901 60.3101 92.9901 60.17 93.5801 59.91C94.7601 59.37 96.1701 58.1601 96.1701 55.4301V23.8C96.1701 20.98 95.2201 18.28 93.3601 15.77C91.2401 12.92 88.3701 10.59 84.3301 8.45996C78.2201 5.23996 71.2401 3.17006 62.3501 1.94006C57.8901 1.33006 53.2801 1.01001 48.6401 1.01001C46.4101 1.01001 44.1301 1.07997 41.8501 1.21997C35.4201 1.61997 29.7001 2.50004 24.3601 3.92004C17.0001 5.87004 11.7801 8.27006 7.40014 11.6901C2.76014 15.3201 0.520102 19.76 0.550102 25.25C0.700102 48.13 0.640131 71.33 0.580131 91.28C0.570131 95.52 2.12012 99.1301 5.32012 102.32C8.02012 105 11.3901 107.15 15.9301 109.06C22.5001 111.84 29.9901 113.58 38.8301 114.4C39.7401 114.48 40.6601 114.58 41.5701 114.67L43.0501 114.82H53.3301L54.8301 114.68C55.8901 114.58 56.9601 114.48 58.0201 114.37C59.9401 114.16 61.9901 113.93 64.0201 113.65C65.9801 113.39 67.3801 112.21 67.8801 110.44C68.3101 108.9 67.8701 107.36 66.6601 106.22C65.8401 105.47 64.8401 105.09 63.5901 105.09ZM11.8201 19.23C15.0901 16.27 19.0701 14.67 22.5401 13.49C30.1301 10.91 38.6001 9.66003 48.4101 9.66003H49.4001C57.3601 9.73003 64.3901 10.64 70.8901 12.46C75.6101 13.78 80.5401 15.49 84.5801 18.96C85.5601 19.8 86.4201 20.83 87.0101 21.86C87.9201 23.44 87.5801 25.14 86.0001 26.91C84.4001 28.72 82.2601 30.23 79.2601 31.67C74.0601 34.17 68.3601 35.79 61.8501 36.61C58.7401 37 55.5301 37.25 52.4301 37.48C51.0501 37.58 49.6701 37.6901 48.3001 37.8101C38.0301 37.5101 29.8401 36.22 22.5301 33.73C19.3101 32.63 15.1901 31 11.8801 28.05C10.2301 26.58 9.49011 25.45 9.31011 24.12C9.08011 22.46 9.78012 21.08 11.8201 19.23Z" fill="#98CCFD" stroke="#4788C7" stroke-miterlimit="10"/>
<path d="M108.92 84.59C108.82 84.11 108.73 83.64 108.62 83.17C106.31 72.99 97.5202 65.88 87.2202 65.88C85.8802 65.88 84.5302 66 83.2002 66.24C77.5302 67.25 72.3902 70.69 69.0802 75.67C65.8202 80.58 64.6702 86.54 65.9002 92.03C67.8602 100.71 73.2502 106.36 81.9202 108.82C82.5902 109.01 83.2502 109.15 83.8902 109.28C84.1702 109.34 84.4502 109.4 84.7302 109.46L84.9002 109.5H89.5602L89.7302 109.46C90.0302 109.39 90.3302 109.33 90.6202 109.27C91.3002 109.13 92.0102 108.98 92.7202 108.78C101.11 106.39 106.46 100.81 108.62 92.2001C108.74 91.7201 108.83 91.23 108.92 90.73L109.07 89.97V85.34L108.92 84.59ZM87.2602 71.1901L87.3202 72.79C95.5102 72.82 102.16 79.5001 102.16 87.6801C102.16 95.9001 95.4902 102.58 87.2502 102.58C79.0202 102.55 72.3502 95.85 72.3702 87.65C72.3902 79.46 79.0702 72.8 87.2602 72.8V71.1901Z" fill="#98CCFD" stroke="#4788C7" stroke-miterlimit="10"/>
<path d="M84.5902 78.53C84.5302 78.93 84.5202 79.31 84.5202 79.6C84.5202 82.78 84.5202 89.76 84.5202 89.76C84.1802 89.42 83.8402 89.08 83.5002 88.75C82.8802 88.15 82.1601 87.8301 81.4101 87.8301C80.7201 87.8301 80.0601 88.11 79.5401 88.62C79.0101 89.14 78.7202 89.81 78.7102 90.51C78.7002 91.26 79.0202 92 79.6202 92.6C81.6102 94.62 83.4401 96.46 85.2301 98.21C86.0001 98.96 86.7602 99.12 87.2602 99.12C87.7602 99.12 88.5302 98.9601 89.3002 98.2001C91.0802 96.4501 92.9201 94.61 94.9101 92.59C95.5001 91.99 95.8202 91.25 95.8102 90.49C95.8002 89.78 95.5101 89.11 94.9801 88.6C94.4701 88.1 93.8102 87.8301 93.1202 87.8301C92.3702 87.8301 91.6302 88.16 91.0202 88.75C90.6702 89.09 90.3301 89.43 89.9801 89.77V79.3201C89.9801 79.1001 89.9802 78.88 89.9602 78.66C89.8102 77.27 88.7102 76.2401 87.3302 76.2001H87.2602C85.8702 76.2101 84.8002 77.14 84.5902 78.53Z" fill="#98CCFD" stroke="#4788C7" stroke-miterlimit="10"/>
</svg>
