<svg width="112" height="145" viewBox="0 0 112 145" fill="none" xmlns="http://www.w3.org/2000/svg">
<path d="M23.6235 138.37L20.1947 133.456C22.1821 132.604 23.3396 130.923 23.3396 128.629C23.3396 125.2 20.7843 123.082 16.7003 123.082H10.0827V138.37H13.6208V134.111H16.7003H16.875L19.8234 138.37H23.6235ZM19.7579 128.629C19.7579 130.289 18.6659 131.294 16.5037 131.294H13.6208V125.965H16.5037C18.6659 125.965 19.7579 126.948 19.7579 128.629ZM37.5651 138.37H41.2779L34.442 123.082H30.9476L24.1335 138.37H27.759L29.1131 135.094H36.2111L37.5651 138.37ZM30.2487 132.408L32.673 126.555L35.0972 132.408H30.2487ZM56.4049 138.37L52.976 133.456C54.9634 132.604 56.1209 130.923 56.1209 128.629C56.1209 125.2 53.5657 123.082 49.4816 123.082H42.8641V138.37H46.4021V134.111H49.4816H49.6563L52.6047 138.37H56.4049ZM52.5392 128.629C52.5392 130.289 51.4472 131.294 49.285 131.294H46.4021V125.965H49.285C51.4472 125.965 52.5392 126.948 52.5392 128.629ZM62.4404 135.531V131.993H69.5384V129.241H62.4404V125.921H70.4775V123.082H58.9241V138.37H70.7614V135.531H62.4404ZM84.9989 138.37H88.7117L81.8758 123.082H78.3814L71.5673 138.37H75.1927L76.5468 135.094H83.6448L84.9989 138.37ZM77.6825 132.408L80.1067 126.555L82.531 132.408H77.6825Z" fill="#9DC9EC"/>
<path d="M23.6235 138.37V138.62H24.1028L23.8286 138.227L23.6235 138.37ZM20.1947 133.456L20.0962 133.226L19.8139 133.347L19.9896 133.599L20.1947 133.456ZM10.0827 123.082V122.832H9.83274V123.082H10.0827ZM10.0827 138.37H9.83274V138.62H10.0827V138.37ZM13.6208 138.37V138.62H13.8708V138.37H13.6208ZM13.6208 134.111V133.861H13.3708V134.111H13.6208ZM16.875 134.111L17.0805 133.969L17.006 133.861H16.875V134.111ZM19.8234 138.37L19.6178 138.512L19.6924 138.62H19.8234V138.37ZM13.6208 131.294H13.3708V131.544H13.6208V131.294ZM13.6208 125.965V125.715H13.3708V125.965H13.6208ZM23.8286 138.227L20.3997 133.313L19.9896 133.599L23.4185 138.513L23.8286 138.227ZM20.2931 133.686C22.3721 132.795 23.5896 131.023 23.5896 128.629H23.0896C23.0896 130.822 21.9921 132.414 20.0962 133.226L20.2931 133.686ZM23.5896 128.629C23.5896 126.848 22.923 125.388 21.7116 124.378C20.5053 123.372 18.7831 122.832 16.7003 122.832V123.332C18.7015 123.332 20.299 123.851 21.3914 124.762C22.4786 125.668 23.0896 126.982 23.0896 128.629H23.5896ZM16.7003 122.832H10.0827V123.332H16.7003V122.832ZM9.83274 123.082V138.37H10.3327V123.082H9.83274ZM10.0827 138.62H13.6208V138.12H10.0827V138.62ZM13.8708 138.37V134.111H13.3708V138.37H13.8708ZM13.6208 134.361H16.7003V133.861H13.6208V134.361ZM16.7003 134.361H16.875V133.861H16.7003V134.361ZM16.6694 134.253L19.6178 138.512L20.0289 138.228L17.0805 133.969L16.6694 134.253ZM19.8234 138.62H23.6235V138.12H19.8234V138.62ZM19.5079 128.629C19.5079 129.401 19.2563 129.991 18.7803 130.393C18.2978 130.8 17.5501 131.044 16.5037 131.044V131.544C17.6195 131.544 18.4988 131.285 19.1029 130.775C19.7134 130.26 20.0079 129.517 20.0079 128.629H19.5079ZM16.5037 131.044H13.6208V131.544H16.5037V131.044ZM13.8708 131.294V125.965H13.3708V131.294H13.8708ZM13.6208 126.215H16.5037V125.715H13.6208V126.215ZM16.5037 126.215C17.5513 126.215 18.2988 126.453 18.7809 126.858C19.2559 127.257 19.5079 127.846 19.5079 128.629H20.0079C20.0079 127.731 19.7139 126.988 19.1023 126.475C18.4978 125.968 17.6182 125.715 16.5037 125.715V126.215ZM37.5651 138.37L37.3341 138.465L37.398 138.62H37.5651V138.37ZM41.2779 138.37V138.62H41.6636L41.5062 138.268L41.2779 138.37ZM34.442 123.082L34.6702 122.98L34.6041 122.832H34.442V123.082ZM30.9476 123.082V122.832H30.7853L30.7193 122.98L30.9476 123.082ZM24.1335 138.37L23.9052 138.268L23.7484 138.62H24.1335V138.37ZM27.759 138.37V138.62H27.9262L27.99 138.465L27.759 138.37ZM29.1131 135.094V134.844H28.9459L28.882 134.998L29.1131 135.094ZM36.2111 135.094L36.4421 134.998L36.3782 134.844H36.2111V135.094ZM30.2487 132.408L30.0178 132.312L29.8746 132.658H30.2487V132.408ZM32.673 126.555L32.9039 126.459L32.673 125.901L32.442 126.459L32.673 126.555ZM35.0972 132.408V132.658H35.4714L35.3282 132.312L35.0972 132.408ZM37.5651 138.62H41.2779V138.12H37.5651V138.62ZM41.5062 138.268L34.6702 122.98L34.2138 123.184L41.0497 138.472L41.5062 138.268ZM34.442 122.832H30.9476V123.332H34.442V122.832ZM30.7193 122.98L23.9052 138.268L24.3619 138.472L31.176 123.184L30.7193 122.98ZM24.1335 138.62H27.759V138.12H24.1335V138.62ZM27.99 138.465L29.3441 135.189L28.882 134.998L27.5279 138.274L27.99 138.465ZM29.1131 135.344H36.2111V134.844H29.1131V135.344ZM35.98 135.189L37.3341 138.465L37.7962 138.274L36.4421 134.998L35.98 135.189ZM30.4797 132.503L32.9039 126.65L32.442 126.459L30.0178 132.312L30.4797 132.503ZM32.442 126.65L34.8662 132.503L35.3282 132.312L32.9039 126.459L32.442 126.65ZM35.0972 132.158H30.2487V132.658H35.0972V132.158ZM56.4049 138.37V138.62H56.8842L56.6099 138.227L56.4049 138.37ZM52.976 133.456L52.8775 133.226L52.5952 133.347L52.771 133.599L52.976 133.456ZM42.8641 123.082V122.832H42.6141V123.082H42.8641ZM42.8641 138.37H42.6141V138.62H42.8641V138.37ZM46.4021 138.37V138.62H46.6521V138.37H46.4021ZM46.4021 134.111V133.861H46.1521V134.111H46.4021ZM49.6563 134.111L49.8619 133.969L49.7873 133.861H49.6563V134.111ZM52.6047 138.37L52.3992 138.512L52.4737 138.62H52.6047V138.37ZM46.4021 131.294H46.1521V131.544H46.4021V131.294ZM46.4021 125.965V125.715H46.1521V125.965H46.4021ZM56.6099 138.227L53.181 133.313L52.771 133.599L56.1998 138.513L56.6099 138.227ZM53.0745 133.686C55.1534 132.795 56.3709 131.023 56.3709 128.629H55.8709C55.8709 130.822 54.7735 132.414 52.8775 133.226L53.0745 133.686ZM56.3709 128.629C56.3709 126.848 55.7044 125.388 54.4929 124.378C53.2867 123.372 51.5644 122.832 49.4816 122.832V123.332C51.4829 123.332 53.0803 123.851 54.1727 124.762C55.2599 125.668 55.8709 126.982 55.8709 128.629H56.3709ZM49.4816 122.832H42.8641V123.332H49.4816V122.832ZM42.6141 123.082V138.37H43.1141V123.082H42.6141ZM42.8641 138.62H46.4021V138.12H42.8641V138.62ZM46.6521 138.37V134.111H46.1521V138.37H46.6521ZM46.4021 134.361H49.4816V133.861H46.4021V134.361ZM49.4816 134.361H49.6563V133.861H49.4816V134.361ZM49.4508 134.253L52.3992 138.512L52.8103 138.228L49.8619 133.969L49.4508 134.253ZM52.6047 138.62H56.4049V138.12H52.6047V138.62ZM52.2892 128.629C52.2892 129.401 52.0377 129.991 51.5616 130.393C51.0791 130.8 50.3314 131.044 49.285 131.044V131.544C50.4008 131.544 51.2802 131.285 51.8842 130.775C52.4947 130.26 52.7892 129.517 52.7892 128.629H52.2892ZM49.285 131.044H46.4021V131.544H49.285V131.044ZM46.6521 131.294V125.965H46.1521V131.294H46.6521ZM46.4021 126.215H49.285V125.715H46.4021V126.215ZM49.285 126.215C50.3327 126.215 51.0802 126.453 51.5622 126.858C52.0372 127.257 52.2892 127.846 52.2892 128.629H52.7892C52.7892 127.731 52.4952 126.988 51.8836 126.475C51.2791 125.968 50.3995 125.715 49.285 125.715V126.215ZM62.4404 135.531H62.1904V135.781H62.4404V135.531ZM62.4404 131.993V131.743H62.1904V131.993H62.4404ZM69.5384 131.993V132.243H69.7884V131.993H69.5384ZM69.5384 129.241H69.7884V128.991H69.5384V129.241ZM62.4404 129.241H62.1904V129.491H62.4404V129.241ZM62.4404 125.921V125.671H62.1904V125.921H62.4404ZM70.4775 125.921V126.171H70.7275V125.921H70.4775ZM70.4775 123.082H70.7275V122.832H70.4775V123.082ZM58.9241 123.082V122.832H58.6741V123.082H58.9241ZM58.9241 138.37H58.6741V138.62H58.9241V138.37ZM70.7614 138.37V138.62H71.0114V138.37H70.7614ZM70.7614 135.531H71.0114V135.281H70.7614V135.531ZM62.6904 135.531V131.993H62.1904V135.531H62.6904ZM62.4404 132.243H69.5384V131.743H62.4404V132.243ZM69.7884 131.993V129.241H69.2884V131.993H69.7884ZM69.5384 128.991H62.4404V129.491H69.5384V128.991ZM62.6904 129.241V125.921H62.1904V129.241H62.6904ZM62.4404 126.171H70.4775V125.671H62.4404V126.171ZM70.7275 125.921V123.082H70.2275V125.921H70.7275ZM70.4775 122.832H58.9241V123.332H70.4775V122.832ZM58.6741 123.082V138.37H59.1741V123.082H58.6741ZM58.9241 138.62H70.7614V138.12H58.9241V138.62ZM71.0114 138.37V135.531H70.5114V138.37H71.0114ZM70.7614 135.281H62.4404V135.781H70.7614V135.281ZM84.9989 138.37L84.7678 138.465L84.8317 138.62H84.9989V138.37ZM88.7117 138.37V138.62H89.0973L88.9399 138.268L88.7117 138.37ZM81.8758 123.082L82.104 122.98L82.0378 122.832H81.8758V123.082ZM78.3814 123.082V122.832H78.2191L78.153 122.98L78.3814 123.082ZM71.5673 138.37L71.3389 138.268L71.1822 138.62H71.5673V138.37ZM75.1927 138.37V138.62H75.3599L75.4238 138.465L75.1927 138.37ZM76.5468 135.094V134.844H76.3796L76.3158 134.998L76.5468 135.094ZM83.6448 135.094L83.8758 134.998L83.812 134.844H83.6448V135.094ZM77.6825 132.408L77.4515 132.312L77.3083 132.658H77.6825V132.408ZM80.1067 126.555L80.3377 126.459L80.1067 125.901L79.8758 126.459L80.1067 126.555ZM82.531 132.408V132.658H82.9051L82.7619 132.312L82.531 132.408ZM84.9989 138.62H88.7117V138.12H84.9989V138.62ZM88.9399 138.268L82.104 122.98L81.6475 123.184L88.4835 138.472L88.9399 138.268ZM81.8758 122.832H78.3814V123.332H81.8758V122.832ZM78.153 122.98L71.3389 138.268L71.7956 138.472L78.6097 123.184L78.153 122.98ZM71.5673 138.62H75.1927V138.12H71.5673V138.62ZM75.4238 138.465L76.7778 135.189L76.3158 134.998L74.9617 138.274L75.4238 138.465ZM76.5468 135.344H83.6448V134.844H76.5468V135.344ZM83.4138 135.189L84.7678 138.465L85.2299 138.274L83.8758 134.998L83.4138 135.189ZM77.9135 132.503L80.3377 126.65L79.8758 126.459L77.4515 132.312L77.9135 132.503ZM79.8758 126.65L82.3 132.503L82.7619 132.312L80.3377 126.459L79.8758 126.65ZM82.531 132.158H77.6825V132.658H82.531V132.158Z" fill="#1C75BC"/>
<path d="M41.6003 110.15C40.2203 110.01 38.8503 109.86 37.4703 109.73C29.8003 109.02 22.3003 107.56 15.1603 104.54C11.4903 102.99 8.04032 101.06 5.18032 98.2199C2.52032 95.5799 1.0203 92.5099 1.0303 88.5999C1.1003 66.5799 1.1503 44.56 1.0003 22.55C0.970299 17.33 3.20032 13.6099 7.08032 10.5799C11.8903 6.8099 17.4903 4.70999 23.3203 3.16999C28.9203 1.67999 34.6403 0.889977 40.4203 0.529977C47.1503 0.109977 53.8503 0.309928 60.5203 1.22993C67.9403 2.24993 75.1603 4.00999 81.8403 7.53999C85.0603 9.23999 87.9903 11.31 90.2003 14.27C91.7103 16.3 92.6103 18.5499 92.6103 21.1099C92.6103 31.6499 92.6103 42.1999 92.6103 52.7399C92.6103 53.8799 92.3203 54.88 91.1903 55.4C90.2903 55.81 89.3803 55.6499 88.7303 54.9499C88.2903 54.4799 88.0903 53.8 87.7703 53.18C87.1903 53.66 86.5703 54.1999 85.9203 54.6899C84.7503 55.5699 83.3703 55.4799 82.5603 54.4899C81.7503 53.4899 81.9303 52.12 82.9903 51.14C84.0403 50.17 85.1703 49.2799 86.1203 48.2299C87.4103 46.8099 88.0003 45.1 87.9703 43.13C87.9103 39.2 87.9503 35.2699 87.9503 31.3299V30.18C86.6703 31.11 85.5603 31.99 84.3803 32.76C78.9303 36.28 72.8703 38.23 66.5903 39.55C57.0803 41.54 47.4803 41.9499 37.8103 41.1199C30.0603 40.4499 22.4903 38.9799 15.2803 35.9499C12.0103 34.5699 8.9203 32.88 6.2203 30.53C6.1003 30.42 5.94032 30.35 5.80032 30.26C5.73032 30.38 5.67031 30.4399 5.67031 30.4899C5.67031 34.9599 5.6303 39.42 5.6903 43.89C5.7303 46.46 7.30029 48.2499 9.09029 49.8399C11.5803 52.0499 14.5003 53.56 17.5503 54.78C24.8803 57.72 32.5403 59.04 40.3903 59.55C45.7203 59.9 51.0303 59.84 56.3403 59.29C59.0703 59.01 61.7803 58.5399 64.4903 58.1199C65.9903 57.8899 67.1703 58.5499 67.4703 59.8599C67.7603 61.1299 66.9203 62.36 65.4303 62.64C58.0703 64.02 50.6403 64.5899 43.1503 64.3199C36.8903 64.0899 30.7003 63.3799 24.6103 61.8599C19.1803 60.5099 13.9403 58.69 9.2203 55.63C8.0303 54.86 6.92031 53.9699 5.73031 53.0999C5.69031 53.2699 5.6303 53.4 5.6303 53.53C5.6303 57.85 5.60031 62.1799 5.64031 66.4999C5.66031 69.0999 7.14031 70.9799 8.98031 72.5999C12.3403 75.5599 16.3403 77.3699 20.5303 78.7399C30.4203 81.9799 40.6003 82.9699 50.9603 82.4999C51.8503 82.4599 52.7503 82.4199 53.6403 82.4399C54.9803 82.4699 55.8903 83.36 55.9303 84.63C55.9703 85.8299 55.1503 86.8499 53.8703 86.9399C51.6303 87.0999 49.3703 87.2199 47.1203 87.2299C38.4803 87.2699 29.9503 86.36 21.6203 83.93C16.5603 82.45 11.7203 80.47 7.46032 77.28C7.17032 77.07 6.90029 76.8299 6.62029 76.6099C6.35029 76.3999 6.07031 76.1799 5.76031 75.9399C5.69031 76.1099 5.6303 76.2 5.6303 76.29C5.6303 80.69 5.60029 85.0799 5.65029 89.4799C5.68029 92.0499 7.18031 93.8699 8.98031 95.4699C12.2703 98.3999 16.2103 100.15 20.3203 101.54C30.1903 104.89 40.4003 105.79 50.7403 105.38C54.2303 105.24 57.7003 104.76 61.1803 104.4C62.1003 104.3 62.9703 104.26 63.6903 104.95C64.3303 105.56 64.6003 106.31 64.3603 107.19C64.0503 108.3 63.2203 108.81 62.1603 108.95C60.1803 109.22 58.1903 109.44 56.2103 109.66C54.6903 109.83 53.1603 109.96 51.6403 110.1H41.5603L41.6003 110.15ZM46.8103 37.13C51.3903 36.74 56.0003 36.49 60.5603 35.91C66.8103 35.12 72.8803 33.53 78.5903 30.79C81.3403 29.47 83.9103 27.87 85.9603 25.55C88.0403 23.2 88.5903 20.59 87.2103 18.17C86.4803 16.9 85.4603 15.7099 84.3503 14.7499C80.1703 11.1599 75.1103 9.29991 69.8903 7.83991C62.7003 5.82991 55.3303 5.02992 47.8803 4.96992C38.5103 4.88992 29.2803 5.86997 20.3603 8.89997C16.2203 10.31 12.2303 12.07 8.9403 15.05C6.9903 16.82 5.39031 18.8299 5.79031 21.7199C6.09031 23.8999 7.45031 25.4799 9.01031 26.8699C12.3003 29.7999 16.2403 31.5499 20.3503 32.9499C28.9203 35.8699 37.7903 36.88 46.8203 37.13H46.8103Z" fill="#9DC9EC" stroke="#1C75BC" stroke-width="0.5" stroke-miterlimit="10"/>
<path d="M83.0004 110.15C81.8704 109.9 80.7204 109.7 79.6004 109.38C69.6104 106.54 63.3404 100.05 61.0604 89.9499C58.0404 76.5599 67.4604 62.6499 81.0004 60.2399C94.6204 57.8099 107.29 66.25 110.36 79.8C110.55 80.62 110.71 81.45 110.88 82.27V87.63C110.71 88.46 110.58 89.2899 110.38 90.1099C107.9 100.01 101.85 106.51 91.9704 109.33C90.7804 109.67 89.5604 109.88 88.3604 110.15H83.0004ZM85.6904 105.54C97.0104 105.58 106.26 96.3399 106.27 84.9899C106.27 73.6799 97.1104 64.4899 85.8004 64.4499C74.4404 64.4099 65.2104 73.5799 65.1804 84.9399C65.1504 96.2999 74.3204 105.5 85.7004 105.55L85.6904 105.54Z" fill="#9DC9EC" stroke="#1C75BC" stroke-width="0.5" stroke-miterlimit="10"/>
<path d="M83.4103 92.74V91.58C83.4103 85.15 83.4103 78.71 83.4103 72.28C83.4103 71.82 83.4303 71.35 83.5003 70.89C83.6803 69.67 84.5903 68.9099 85.7903 68.9399C86.9503 68.9699 87.8603 69.82 87.9903 71.02C88.0303 71.37 88.0102 71.73 88.0102 72.09C88.0102 78.63 88.0102 85.17 88.0102 91.71V93.0501C88.4302 92.6601 88.6903 92.44 88.9303 92.2C90.3003 90.84 91.6503 89.46 93.0303 88.11C94.1503 87.02 95.5103 86.95 96.4703 87.88C97.4303 88.81 97.4103 90.2001 96.3203 91.3101C93.4103 94.2601 90.4803 97.2 87.5203 100.1C86.3403 101.26 85.1003 101.27 83.9203 100.11C80.9603 97.21 78.0303 94.2701 75.1303 91.3101C74.0303 90.1901 74.0103 88.83 74.9803 87.88C75.9403 86.94 77.2803 86.98 78.4103 88.09C80.0203 89.66 81.5803 91.27 83.1603 92.86L83.4103 92.72V92.74Z" fill="#9DC9EC" stroke="#1C75BC" stroke-width="0.5" stroke-miterlimit="10"/>
</svg>
