<svg width="164" height="160" viewBox="0 0 164 160" fill="none" xmlns="http://www.w3.org/2000/svg">
<path d="M108.354 108.589H90.8193V149.098H100.194V137.929H108.354C119.176 137.929 125.946 132.316 125.946 123.288C125.946 114.203 119.176 108.589 108.354 108.589ZM107.833 130.29H100.194V116.228H107.833C113.562 116.228 116.456 118.832 116.456 123.288C116.456 127.686 113.562 130.29 107.833 130.29ZM163.252 116.112V108.589H132.639V149.098H142.014V134.341H160.764V126.818H142.014V116.112H163.252Z" fill="#98CCFD"/>
<path d="M90.8193 108.589V108.096H90.3265V108.589H90.8193ZM90.8193 149.098H90.3265V149.591H90.8193V149.098ZM100.194 149.098V149.591H100.687V149.098H100.194ZM100.194 137.929V137.436H99.7014V137.929H100.194ZM100.194 130.29H99.7014V130.783H100.194V130.29ZM100.194 116.228V115.735H99.7014V116.228H100.194ZM108.354 108.096H90.8193V109.082H108.354V108.096ZM90.3265 108.589V149.098H91.3122V108.589H90.3265ZM90.8193 149.591H100.194V148.605H90.8193V149.591ZM100.687 149.098V137.929H99.7014V149.098H100.687ZM100.194 138.422H108.354V137.436H100.194V138.422ZM108.354 138.422C113.845 138.422 118.366 136.998 121.523 134.373C124.691 131.74 126.439 127.935 126.439 123.288H125.453C125.453 127.669 123.816 131.185 120.893 133.615C117.96 136.054 113.684 137.436 108.354 137.436V138.422ZM126.439 123.288C126.439 118.613 124.692 114.794 121.524 112.153C118.366 109.521 113.845 108.096 108.354 108.096V109.082C113.684 109.082 117.959 110.465 120.893 112.91C123.815 115.347 125.453 118.878 125.453 123.288H126.439ZM107.833 129.798H100.194V130.783H107.833V129.798ZM100.687 130.29V116.228H99.7014V130.29H100.687ZM100.194 116.721H107.833V115.735H100.194V116.721ZM107.833 116.721C110.632 116.721 112.657 117.358 113.976 118.465C115.281 119.56 115.963 121.173 115.963 123.288H116.948C116.948 120.948 116.184 119.031 114.61 117.71C113.049 116.4 110.764 115.735 107.833 115.735V116.721ZM115.963 123.288C115.963 125.373 115.282 126.971 113.977 128.06C112.658 129.161 110.632 129.798 107.833 129.798V130.783C110.764 130.783 113.049 130.118 114.608 128.817C116.182 127.504 116.948 125.602 116.948 123.288H115.963ZM163.252 116.112V116.605H163.745V116.112H163.252ZM163.252 108.589H163.745V108.096H163.252V108.589ZM132.639 108.589V108.096H132.146V108.589H132.639ZM132.639 149.098H132.146V149.591H132.639V149.098ZM142.014 149.098V149.591H142.507V149.098H142.014ZM142.014 134.341V133.848H141.521V134.341H142.014ZM160.764 134.341V134.834H161.257V134.341H160.764ZM160.764 126.818H161.257V126.325H160.764V126.818ZM142.014 126.818H141.521V127.311H142.014V126.818ZM142.014 116.112V115.619H141.521V116.112H142.014ZM163.745 116.112V108.589H162.76V116.112H163.745ZM163.252 108.096H132.639V109.082H163.252V108.096ZM132.146 108.589V149.098H133.132V108.589H132.146ZM132.639 149.591H142.014V148.605H132.639V149.591ZM142.507 149.098V134.341H141.521V149.098H142.507ZM142.014 134.834H160.764V133.848H142.014V134.834ZM161.257 134.341V126.818H160.271V134.341H161.257ZM160.764 126.325H142.014V127.311H160.764V126.325ZM142.507 126.818V116.112H141.521V126.818H142.507ZM142.014 116.605H163.252V115.619H142.014V116.605Z" fill="#4788C7"/>
<path d="M35.2502 24.52C33.0302 24.52 30.8402 25.4501 29.2402 27.0801C27.6402 28.7001 26.7403 30.9001 26.7703 33.1001C26.8303 37.7701 30.5902 41.4299 35.3202 41.4299H35.4202C40.0802 41.3799 43.7102 37.6399 43.6802 32.9199C43.6502 28.2899 39.8702 24.52 35.2502 24.52Z" fill="#98CCFD" stroke="#4788C7" stroke-miterlimit="10"/>
<path d="M86.6601 24.52C84.4101 24.54 82.3101 25.42 80.7301 27.02C79.1301 28.65 78.2601 30.8201 78.2801 33.1301C78.3201 37.7801 82.0301 41.4299 86.7201 41.4299H86.7501C89.0401 41.4199 91.1901 40.5101 92.7901 38.8601C94.3801 37.2301 95.2301 35.0901 95.1801 32.8401C95.0901 28.3401 91.2101 24.52 86.6601 24.52Z" fill="#98CCFD" stroke="#4788C7" stroke-miterlimit="10"/>
<path d="M60.9402 24.52C56.3502 24.55 52.5801 28.3199 52.5401 32.9299C52.5201 35.2099 53.3801 37.3399 54.9701 38.9399C56.5601 40.5499 58.7001 41.4299 60.9901 41.4299H61.0102C65.6902 41.4199 69.3801 37.7501 69.4101 33.0601C69.4301 30.7901 68.5502 28.64 66.9302 27.01C65.3402 25.41 63.2202 24.52 60.9402 24.52Z" fill="#98CCFD" stroke="#4788C7" stroke-miterlimit="10"/>
<path d="M120.87 41.8999C120.87 34.7199 120.87 27.5301 120.86 20.3401C120.85 9.61009 112.13 0.870098 101.42 0.850098C87.9301 0.840098 74.4401 0.830078 60.9401 0.830078C47.4501 0.830078 33.9501 0.840098 20.4601 0.850098C9.9701 0.860098 1.1001 9.75008 1.0901 20.3301C1.0801 59.5001 1.07005 100 1.10005 139.84C1.11005 145.94 3.69009 151.1 8.76009 155.16C11.4801 157.34 14.6301 158.34 17.6201 159.17L17.8801 159.24H70.8201L71.2701 159C76.0301 156.42 76.3301 153.13 75.7401 150.83C74.8701 147.36 72.2301 145.59 67.8901 145.59H21.6101C17.1701 145.59 14.7201 143.13 14.7101 138.67V110.98H14.7401C26.3701 110.98 38.0001 110.98 49.6301 110.97H70.1101C73.8701 110.97 76.9301 107.91 76.9301 104.15C76.9301 100.39 73.8701 97.3301 70.1101 97.3301H14.8301V62.71H107.21V90.9399C107.21 94.6999 110.27 97.76 114.03 97.76C117.79 97.76 120.85 94.6999 120.85 90.9399V46.24L120.87 41.8999ZM100.29 14.48C104.76 14.48 107.22 16.9201 107.22 21.3601C107.23 27.6201 107.22 33.8799 107.22 40.1499V49.05H14.72V21.3999C14.73 16.9399 17.1801 14.49 21.6201 14.49H100.29V14.48Z" fill="#98CCFD" stroke="#4788C7" stroke-miterlimit="10"/>
</svg>
