<svg width="153" height="162" viewBox="0 0 153 162" fill="none" xmlns="http://www.w3.org/2000/svg">
<path d="M96.2397 106.924H78.7194V147.4H88.0867V136.24H96.2397C107.053 136.24 113.818 130.631 113.818 121.611C113.818 112.533 107.053 106.924 96.2397 106.924ZM95.7193 128.608H88.0867V114.557H95.7193C101.444 114.557 104.335 117.159 104.335 121.611C104.335 126.006 101.444 128.608 95.7193 128.608ZM151.094 114.441V106.924H120.505V147.4H129.873V132.655H148.607V125.138H129.873V114.441H151.094Z" fill="#9DC9EC"/>
<path d="M78.7194 106.924V106.678H78.4732V106.924H78.7194ZM78.7194 147.4H78.4732V147.646H78.7194V147.4ZM88.0867 147.4V147.646H88.3329V147.4H88.0867ZM88.0867 136.24V135.994H87.8405V136.24H88.0867ZM88.0867 128.608H87.8405V128.854H88.0867V128.608ZM88.0867 114.557V114.311H87.8405V114.557H88.0867ZM96.2397 106.678H78.7194V107.17H96.2397V106.678ZM78.4732 106.924V147.4H78.9657V106.924H78.4732ZM78.7194 147.646H88.0867V147.154H78.7194V147.646ZM88.3329 147.4V136.24H87.8405V147.4H88.3329ZM88.0867 136.486H96.2397V135.994H88.0867V136.486ZM96.2397 136.486C101.686 136.486 106.142 135.074 109.241 132.498C112.345 129.917 114.064 126.188 114.064 121.611H113.572C113.572 126.055 111.908 129.64 108.926 132.119C105.939 134.602 101.606 135.994 96.2397 135.994V136.486ZM114.064 121.611C114.064 117.006 112.345 113.262 109.241 110.674C106.142 108.091 101.686 106.678 96.2397 106.678V107.17C101.606 107.17 105.939 108.562 108.926 111.052C111.908 113.538 113.572 117.138 113.572 121.611H114.064ZM95.7193 128.361H88.0867V128.854H95.7193V128.361ZM88.3329 128.608V114.557H87.8405V128.608H88.3329ZM88.0867 114.803H95.7193V114.311H88.0867V114.803ZM95.7193 114.803C98.5486 114.803 100.637 115.446 102.015 116.603C103.387 117.754 104.089 119.441 104.089 121.611H104.581C104.581 119.329 103.838 117.489 102.332 116.226C100.833 114.968 98.6145 114.311 95.7193 114.311V114.803ZM104.089 121.611C104.089 123.751 103.387 125.424 102.016 126.568C100.638 127.718 98.5486 128.361 95.7193 128.361V128.854C98.6145 128.854 100.833 128.196 102.331 126.946C103.837 125.691 104.581 123.866 104.581 121.611H104.089ZM151.094 114.441V114.687H151.34V114.441H151.094ZM151.094 106.924H151.34V106.678H151.094V106.924ZM120.505 106.924V106.678H120.259V106.924H120.505ZM120.505 147.4H120.259V147.646H120.505V147.4ZM129.873 147.4V147.646H130.119V147.4H129.873ZM129.873 132.655V132.409H129.626V132.655H129.873ZM148.607 132.655V132.901H148.853V132.655H148.607ZM148.607 125.138H148.853V124.892H148.607V125.138ZM129.873 125.138H129.626V125.385H129.873V125.138ZM129.873 114.441V114.195H129.626V114.441H129.873ZM151.34 114.441V106.924H150.847V114.441H151.34ZM151.094 106.678H120.505V107.17H151.094V106.678ZM120.259 106.924V147.4H120.752V106.924H120.259ZM120.505 147.646H129.873V147.154H120.505V147.646ZM130.119 147.4V132.655H129.626V147.4H130.119ZM129.873 132.901H148.607V132.409H129.873V132.901ZM148.853 132.655V125.138H148.361V132.655H148.853ZM148.607 124.892H129.873V125.385H148.607V124.892ZM130.119 125.138V114.441H129.626V125.138H130.119ZM129.873 114.687H151.094V114.195H129.873V114.687Z" fill="#1C75BC"/>
<path d="M39.5801 33.24C39.5601 29.71 36.68 26.83 33.16 26.83C29.63 26.83 26.62 29.87 26.67 33.38C26.72 36.97 29.6501 39.78 33.3001 39.74C36.8301 39.7 39.6001 36.83 39.5801 33.24Z" fill="#9DC9EC" stroke="#1C75BC" stroke-width="0.5" stroke-miterlimit="10"/>
<path d="M78.1899 33.42C78.2199 36.96 81.0799 39.75 84.6599 39.74C88.2599 39.73 91.1799 36.7599 91.0999 33.1999C91.0199 29.7199 88.0399 26.8099 84.5799 26.8299C80.9999 26.8599 78.1599 29.79 78.1899 33.42Z" fill="#9DC9EC" stroke="#1C75BC" stroke-width="0.5" stroke-miterlimit="10"/>
<path d="M58.9102 39.74C62.4702 39.74 65.2902 36.92 65.3202 33.36C65.3502 29.78 62.4102 26.8099 58.8602 26.8299C55.3502 26.8499 52.4802 29.73 52.4502 33.26C52.4202 36.87 55.2902 39.75 58.9102 39.74Z" fill="#9DC9EC" stroke="#1C75BC" stroke-width="0.5" stroke-miterlimit="10"/>
<path d="M116.77 44.5C116.77 35.88 116.77 27.27 116.77 18.64C116.76 9.08 108.88 1.16001 99.33 1.15001C72.35 1.13001 45.36 1.13001 18.38 1.15001C8.93999 1.16001 1.02 9.11993 1.01 18.5699C0.999995 58.4299 0.990005 98.28 1.02 138.14C1.03 143.82 3.53001 148.37 7.93001 151.91C10.33 153.84 13.18 154.75 16.07 155.55H68.23C71.17 153.95 72.32 152 71.72 149.63C71.08 147.09 69.2 145.91 65.81 145.91H19.53C13.96 145.91 10.64 142.57 10.63 136.99V107.3H12.66C24.29 107.3 35.92 107.3 47.55 107.3H68.03C70.69 107.3 72.85 105.14 72.85 102.48C72.85 99.82 70.69 97.66 68.03 97.66H21.93C18.78 97.66 15.63 97.66 12.48 97.66H10.75V59.04H107.13V82.39V89.27C107.13 91.93 109.29 94.09 111.95 94.09C114.61 94.09 116.77 91.93 116.77 89.27V44.5699C116.77 44.5699 116.77 44.53 116.77 44.51V44.5ZM107.13 47.84V49.34H10.63V19.6899C10.64 14.1199 13.96 10.78 19.53 10.78H98.2C103.79 10.78 107.13 14.1 107.13 19.66C107.14 29.05 107.13 38.45 107.13 47.84Z" fill="#9DC9EC" stroke="#1C75BC" stroke-width="0.5" stroke-miterlimit="10"/>
</svg>
