<svg width="60" height="60" viewBox="0 0 60 60" fill="none" xmlns="http://www.w3.org/2000/svg">
<path d="M37.8861 21.9922L27.3133 34.6771L21.9443 29.3058L21.9443 29.3057L21.9412 29.3027C21.4225 28.8017 20.7279 28.5246 20.0068 28.5308C19.2858 28.5371 18.5961 28.8263 18.0862 29.3362C17.5763 29.8461 17.2871 30.5358 17.2808 31.2568C17.2746 31.9779 17.5517 32.6725 18.0527 33.1912L18.0527 33.1912L18.0557 33.1943L25.5557 40.6943L25.5558 40.6943C25.826 40.9644 26.1495 41.1752 26.5057 41.3132C26.8619 41.4513 27.2429 41.5137 27.6245 41.4964C28.0061 41.479 28.38 41.3824 28.7222 41.2126C29.0644 41.0428 29.3674 40.8035 29.612 40.5101L29.6121 40.51L42.1101 25.5124C42.3506 25.2369 42.5337 24.9162 42.6488 24.5691C42.7641 24.221 42.8087 23.8534 42.7799 23.4878C42.7511 23.1223 42.6495 22.7662 42.481 22.4405C42.3125 22.1148 42.0806 21.826 41.7989 21.5913C41.5172 21.3566 41.1914 21.1805 40.8407 21.0735C40.4899 20.9666 40.1213 20.9308 39.7566 20.9684C39.3918 21.006 39.0383 21.1161 38.7167 21.2924C38.396 21.4681 38.1136 21.706 37.8861 21.9922ZM2.75 30C2.75 14.9506 14.9506 2.75 30 2.75C45.0494 2.75 57.25 14.9506 57.25 30C57.25 45.0494 45.0494 57.25 30 57.25C14.9506 57.25 2.75 45.0494 2.75 30Z" fill="#98CCFD" stroke="#4788C7" stroke-width="0.5"/>
</svg>
