<svg width="56" height="55" viewBox="0 0 56 55" fill="none" xmlns="http://www.w3.org/2000/svg">
<path d="M2.38977 11.1721L11.3744 2.34761L53.6103 43.8279L44.6257 52.6524L2.38977 11.1721Z" fill="#98CCFD"/>
<path d="M11.375 3.31925L52.6204 43.8281L44.625 51.6807L3.37962 11.1719L11.375 3.31925ZM11.375 1.375L1.40002 11.1719L44.625 53.625L54.6 43.8281L11.375 1.375Z" fill="#4788C7"/>
<path d="M10.5238 38.1892L14.1484 34.628L21.2142 40.6725L17.15 44.6655L5.58179 49.5179L10.5238 38.1892Z" fill="#DFF0FE"/>
<path d="M14.182 35.5685L20.1894 40.7069L16.7496 44.0852L6.91177 48.2116L11.1132 38.5811L14.182 35.5685ZM14.1162 33.6889L9.93297 37.7974L4.25037 50.8241L17.549 45.2457L22.2404 40.6381L14.1162 33.6889Z" fill="#4788C7"/>
<path d="M7.47604 43.4445L4.25464 50.8283L11.7922 47.6658L7.47604 43.4445Z" fill="#4788C7"/>
<path d="M41.0774 8.162L43.071 6.20538C43.953 5.33913 45.1276 4.86063 46.3764 4.86063C47.6252 4.86063 48.7984 5.33775 49.6804 6.20538C51.5032 7.99563 51.5032 10.9065 49.6804 12.6968L47.6882 14.6548L41.0774 8.162Z" fill="#B6DCFE"/>
<path d="M46.3764 5.54675C47.4376 5.54675 48.4358 5.95238 49.1862 6.68938C49.9366 7.42638 50.3496 8.40675 50.3496 9.449C50.3496 10.4913 49.9366 11.4716 49.1862 12.2086L47.6882 13.6799L42.0686 8.16063L43.5666 6.68938C44.317 5.95375 45.3152 5.54675 46.3764 5.54675ZM46.3764 4.17175C45.0016 4.17175 43.6254 4.68738 42.5768 5.71725L40.089 8.16063L47.6896 15.6255L50.1774 13.1821C52.276 11.121 52.276 7.77838 50.1774 5.71725C49.1274 4.68738 47.7512 4.17175 46.3764 4.17175Z" fill="#4788C7"/>
<path d="M18.032 43.7979C17.9396 43.5875 17.8122 43.3744 17.6386 43.175C17.2046 42.6745 16.5886 42.3706 15.8032 42.2661C15.5232 40.524 14.1148 39.7856 13.0172 39.5643C12.8324 38.3776 12.1086 37.719 11.3358 37.389L38.2648 10.9244L44.8756 17.4171L18.032 43.7979Z" fill="#B6DCFE"/>
<path d="M38.2648 11.8965L43.8844 17.4158L18.1524 42.7075C17.8136 42.3252 17.2592 41.8963 16.387 41.679C15.9586 40.1968 14.7686 39.3621 13.6094 39.0074C13.398 38.2566 12.9836 37.6764 12.46 37.2584L38.2648 11.8965ZM38.2648 9.95226L9.93298 37.796C9.93298 37.796 9.94278 37.796 9.96238 37.796C10.2382 37.796 12.3634 37.8703 12.3634 40.1761C12.3634 40.1761 15.1536 40.2614 15.1536 42.9124C17.9284 42.9124 17.5476 45.2458 17.5476 45.2458L45.864 17.4158L38.2648 9.95226Z" fill="#4788C7"/>
<path d="M37.5782 11.5961L41.9611 7.29216L48.5705 13.7845L44.1877 18.0884L37.5782 11.5961Z" fill="#DFF0FE"/>
<path d="M41.9608 8.26649L47.5804 13.7857L44.1868 17.1187L38.5672 11.5995L41.9608 8.26649ZM41.9608 6.32087L36.5876 11.5981L44.1882 19.063L49.5614 13.7857L41.9608 6.32087ZM48.5044 39.3882L46.403 41.4521C46.1314 41.7189 46.1314 42.1575 46.403 42.4242C46.6746 42.691 47.1212 42.691 47.3928 42.4242L49.4942 40.3604L48.5044 39.3882ZM38.0044 29.0757L33.803 33.2021C33.5314 33.4689 33.5314 33.9075 33.803 34.1742C34.0746 34.441 34.5212 34.441 34.7928 34.1742L38.9942 30.0479L38.0044 29.0757ZM45.0044 35.9507L40.803 40.0771C40.5314 40.3439 40.5314 40.7825 40.803 41.0492C41.0746 41.316 41.5212 41.316 41.7928 41.0492L45.9942 36.9229L45.0044 35.9507ZM24.6806 15.9899L22.5554 18.0771C22.2838 18.3439 22.2838 18.7825 22.5554 19.0492C22.827 19.316 23.2736 19.316 23.5452 19.0492L25.6704 16.962L24.6806 15.9899ZM21.2296 12.6005L17.0044 16.7502C16.7328 17.017 16.7328 17.4556 17.0044 17.7224C17.276 17.9891 17.7226 17.9891 17.9942 17.7224L22.2194 13.5726L21.2296 12.6005ZM17.7296 9.16299L15.6044 11.2502C15.3328 11.517 15.3328 11.9556 15.6044 12.2224C15.876 12.4891 16.3226 12.4891 16.5942 12.2224L18.7194 10.1351L17.7296 9.16299ZM14.2296 5.72549L10.0044 9.87662C9.73276 10.1434 9.73276 10.582 10.0044 10.8487C10.276 11.1155 10.7226 11.1155 10.9942 10.8487L15.2194 6.69899L14.2296 5.72549ZM41.5044 32.5132L39.403 34.5771C39.1314 34.8439 39.1314 35.2825 39.403 35.5492C39.6746 35.816 40.1212 35.816 40.3928 35.5492L42.4942 33.4854L41.5044 32.5132Z" fill="#4788C7"/>
</svg>
