<svg width="155" height="155" viewBox="0 0 155 155" fill="none" xmlns="http://www.w3.org/2000/svg">
<path d="M92.9613 92.7905L92.8917 68.4126H88.2599L79.2748 83.5617L70.1505 68.4126H65.4839V92.7905H70.7774V78.4772L77.9166 90.2134H80.4589L87.633 78.1638L87.6678 92.7905H92.9613ZM116.959 92.7905H122.879L111.979 68.4126H106.407L95.5411 92.7905H101.322L103.481 87.5667H114.8L116.959 92.7905ZM105.292 83.2831L109.158 73.9499L113.024 83.2831H105.292ZM135.961 68.4126H125.408V92.7905H131.05V86.0692H135.961C142.473 86.0692 146.548 82.6911 146.548 77.2583C146.548 71.7907 142.473 68.4126 135.961 68.4126ZM135.647 81.4722H131.05V73.0096H135.647C139.095 73.0096 140.836 74.5767 140.836 77.2583C140.836 79.9051 139.095 81.4722 135.647 81.4722Z" fill="#98CCFD"/>
<path d="M92.9613 92.7905V93.2905H93.4627L93.4613 92.7891L92.9613 92.7905ZM92.8917 68.4126L93.3917 68.4112L93.3902 67.9126H92.8917V68.4126ZM88.2599 68.4126V67.9126H87.9751L87.8298 68.1575L88.2599 68.4126ZM79.2748 83.5617L78.8465 83.8197L79.2781 84.5363L79.7049 83.8168L79.2748 83.5617ZM70.1505 68.4126L70.5789 68.1546L70.4331 67.9126H70.1505V68.4126ZM65.4839 68.4126V67.9126H64.9839V68.4126H65.4839ZM65.4839 92.7905H64.9839V93.2905H65.4839V92.7905ZM70.7774 92.7905V93.2905H71.2774V92.7905H70.7774ZM70.7774 78.4772L71.2046 78.2174L70.2774 76.6932V78.4772H70.7774ZM77.9166 90.2134L77.4895 90.4733L77.6356 90.7134H77.9166V90.2134ZM80.4589 90.2134V90.7134H80.7431L80.8885 90.4692L80.4589 90.2134ZM87.633 78.1638L88.133 78.1626L88.1287 76.3538L87.2034 77.908L87.633 78.1638ZM87.6678 92.7905L87.1678 92.7917L87.169 93.2905H87.6678V92.7905ZM93.4613 92.7891L93.3917 68.4112L92.3917 68.414L92.4613 92.792L93.4613 92.7891ZM92.8917 67.9126H88.2599V68.9126H92.8917V67.9126ZM87.8298 68.1575L78.8448 83.3067L79.7049 83.8168L88.6899 68.6677L87.8298 68.1575ZM79.7032 83.3038L70.5789 68.1546L69.7222 68.6706L78.8465 83.8197L79.7032 83.3038ZM70.1505 67.9126H65.4839V68.9126H70.1505V67.9126ZM64.9839 68.4126V92.7905H65.9839V68.4126H64.9839ZM65.4839 93.2905H70.7774V92.2905H65.4839V93.2905ZM71.2774 92.7905V78.4772H70.2774V92.7905H71.2774ZM70.3502 78.7371L77.4895 90.4733L78.3438 89.9536L71.2046 78.2174L70.3502 78.7371ZM77.9166 90.7134H80.4589V89.7134H77.9166V90.7134ZM80.8885 90.4692L88.0626 78.4196L87.2034 77.908L80.0293 89.9576L80.8885 90.4692ZM87.133 78.165L87.1678 92.7917L88.1678 92.7893L88.133 78.1626L87.133 78.165ZM87.6678 93.2905H92.9613V92.2905H87.6678V93.2905ZM116.959 92.7905L116.497 92.9815L116.625 93.2905H116.959V92.7905ZM122.879 92.7905V93.2905H123.65L123.336 92.5864L122.879 92.7905ZM111.979 68.4126L112.435 68.2085L112.303 67.9126H111.979V68.4126ZM106.407 68.4126V67.9126H106.082L105.95 68.2091L106.407 68.4126ZM95.5411 92.7905L95.0844 92.587L94.7708 93.2905H95.5411V92.7905ZM101.322 92.7905V93.2905H101.657L101.784 92.9815L101.322 92.7905ZM103.481 87.5667V87.0667H103.147L103.019 87.3757L103.481 87.5667ZM114.8 87.5667L115.262 87.3757L115.134 87.0667H114.8V87.5667ZM105.292 83.2831L104.83 83.0918L104.544 83.7831H105.292V83.2831ZM109.158 73.9499L109.62 73.7585L109.158 72.6432L108.696 73.7585L109.158 73.9499ZM113.024 83.2831V83.7831H113.772L113.486 83.0918L113.024 83.2831ZM116.959 93.2905H122.879V92.2905H116.959V93.2905ZM123.336 92.5864L112.435 68.2085L111.522 68.6167L122.423 92.9946L123.336 92.5864ZM111.979 67.9126H106.407V68.9126H111.979V67.9126ZM105.95 68.2091L95.0844 92.587L95.9978 92.9941L106.863 68.6162L105.95 68.2091ZM95.5411 93.2905H101.322V92.2905H95.5411V93.2905ZM101.784 92.9815L103.943 87.7577L103.019 87.3757L100.86 92.5995L101.784 92.9815ZM103.481 88.0667H114.8V87.0667H103.481V88.0667ZM114.338 87.7577L116.497 92.9815L117.421 92.5995L115.262 87.3757L114.338 87.7577ZM105.754 83.4745L109.62 74.1412L108.696 73.7585L104.83 83.0918L105.754 83.4745ZM108.696 74.1412L112.562 83.4745L113.486 83.0918L109.62 73.7585L108.696 74.1412ZM113.024 82.7831H105.292V83.7831H113.024V82.7831ZM125.408 68.4126V67.9126H124.908V68.4126H125.408ZM125.408 92.7905H124.908V93.2905H125.408V92.7905ZM131.05 92.7905V93.2905H131.55V92.7905H131.05ZM131.05 86.0692V85.5692H130.55V86.0692H131.05ZM131.05 81.4722H130.55V81.9722H131.05V81.4722ZM131.05 73.0096V72.5096H130.55V73.0096H131.05ZM135.961 67.9126H125.408V68.9126H135.961V67.9126ZM124.908 68.4126V92.7905H125.908V68.4126H124.908ZM125.408 93.2905H131.05V92.2905H125.408V93.2905ZM131.55 92.7905V86.0692H130.55V92.7905H131.55ZM131.05 86.5692H135.961V85.5692H131.05V86.5692ZM135.961 86.5692C139.298 86.5692 142.07 85.7036 144.016 84.0855C145.973 82.4587 147.048 80.11 147.048 77.2583H146.048C146.048 79.8394 145.085 81.8961 143.377 83.3166C141.657 84.7457 139.135 85.5692 135.961 85.5692V86.5692ZM147.048 77.2583C147.048 74.3902 145.973 72.0327 144.016 70.4011C142.07 68.7782 139.298 67.9126 135.961 67.9126V68.9126C139.135 68.9126 141.657 69.736 143.376 71.1691C145.084 72.5935 146.048 74.6588 146.048 77.2583H147.048ZM135.647 80.9722H131.05V81.9722H135.647V80.9722ZM131.55 81.4722V73.0096H130.55V81.4722H131.55ZM131.05 73.5096H135.647V72.5096H131.05V73.5096ZM135.647 73.5096C137.304 73.5096 138.469 73.8871 139.213 74.5114C139.943 75.1237 140.336 76.0318 140.336 77.2583H141.336C141.336 75.8032 140.859 74.5869 139.856 73.7454C138.867 72.9156 137.438 72.5096 135.647 72.5096V73.5096ZM140.336 77.2583C140.336 78.4654 139.944 79.365 139.214 79.9738C138.47 80.5947 137.304 80.9722 135.647 80.9722V81.9722C137.438 81.9722 138.867 81.5662 139.855 80.7417C140.858 79.9054 141.336 78.698 141.336 77.2583H140.336Z" fill="#4788C7"/>
<path d="M123.75 135.12C123.75 135.08 123.76 135.04 123.76 135C124.41 135 125.05 135.04 125.7 134.99C129.03 134.77 131.58 132.16 131.67 128.9C131.76 125.54 129.52 122.81 126.17 122.44C124.56 122.26 122.89 122.27 121.28 122.46C118.27 122.81 116.06 125.29 115.87 128.29C115.68 131.27 117.59 133.99 120.53 134.74C121.56 135 122.67 135 123.75 135.12ZM101.44 135.14C101.45 135.09 101.45 135.04 101.46 134.98C102.2 134.98 102.95 135.04 103.69 134.97C106.91 134.66 109.35 132.03 109.46 128.8C109.57 125.65 107.2 122.8 103.96 122.44C102.3 122.26 100.58 122.27 98.9199 122.46C95.9399 122.81 93.7999 125.3 93.5899 128.37C93.3999 131.14 95.3099 133.91 98.0599 134.68C99.1499 134.98 100.32 135 101.44 135.14Z" fill="#98CCFD" stroke="#4788C7" stroke-miterlimit="10"/>
<path d="M153.97 29.52C153.07 32.44 152.49 35.51 151.21 38.25C146.93 47.38 136.96 53.01 126.92 52.27C116.42 51.5 107.54 44.6501 104.48 34.8301C104.09 33.5701 103.52 33.28 102.3 33.28C85.8698 33.32 69.4299 33.32 52.9999 33.28C51.8099 33.28 51.2799 33.6 50.8899 34.75C48.1699 42.87 42.6998 48.3 34.5998 51.02C33.5098 51.39 33.1899 51.9 33.1899 53.02C33.2299 69.56 33.2299 86.1001 33.1899 102.63C33.1899 103.68 33.4699 104.18 34.5199 104.53C42.7499 107.27 48.2498 112.79 50.9698 121.03C51.2898 122 51.7499 122.3 52.7699 122.29C61.8599 122.25 70.9399 122.26 80.0299 122.27C83.5499 122.27 85.9699 123.85 86.8899 126.67C88.2199 130.75 85.3098 134.87 80.9198 134.97C77.0998 135.06 73.2699 134.99 69.4499 135C63.8399 135 58.2299 135.01 52.6199 134.99C51.8599 134.99 51.4198 135.09 51.1098 135.97C47.6398 146.15 40.6399 152.18 29.9599 153.85C29.7699 153.88 29.5998 154 29.4198 154.08C27.6298 154.08 25.8399 154.08 24.0599 154.08C23.7399 153.98 23.4298 153.83 23.0998 153.78C11.4698 152.05 2.51986 142.5 1.49986 130.73C0.489856 119.07 7.82988 108.09 19.0899 104.53C20.1699 104.19 20.5199 103.74 20.5199 102.58C20.4799 86.0501 20.4898 69.51 20.4898 52.98C20.4898 52.54 20.4898 52.0901 20.4898 51.5901C20.0298 51.4201 19.6099 51.2701 19.1999 51.1301C7.33987 47.3101 0.0698686 35.83 1.69987 23.49C3.24987 11.75 12.8499 2.62008 24.7499 1.57008C36.3799 0.540078 47.4699 7.94015 50.9599 19.1401C51.3299 20.3401 51.8898 20.5901 53.0398 20.5901C69.4198 20.5501 85.7999 20.5401 102.18 20.6001C103.58 20.6001 104.1 20.1901 104.52 18.8801C107.59 9.23014 116.61 2.25006 126.76 1.55006C137 0.840058 146.98 6.49998 151.27 15.72C152.5 18.37 153.09 21.3301 153.98 24.1401C153.97 25.9501 153.97 27.74 153.97 29.52ZM141.2 27.1699C141.35 20.1899 135.8 14.44 128.76 14.28C121.84 14.12 116.06 19.69 115.85 26.73C115.64 33.58 121.29 39.4299 128.33 39.6499C135.19 39.8499 141.05 34.1799 141.2 27.1699ZM26.8399 14.27C19.8599 14.27 14.1598 19.97 14.1698 26.95C14.1698 33.91 19.8999 39.6499 26.8399 39.6499C33.7599 39.6499 39.5398 33.86 39.5398 26.94C39.5398 20 33.7899 14.27 26.8399 14.27ZM26.6399 141.33C33.5599 141.48 39.3398 135.89 39.5398 128.86C39.7298 122.01 34.0698 116.15 27.0498 115.96C20.1798 115.77 14.3398 121.44 14.1798 128.45C14.0198 135.4 19.6099 141.18 26.6399 141.33Z" fill="#98CCFD" stroke="#4788C7" stroke-miterlimit="10"/>
<path d="M153.97 129.96C152.06 135.61 147.1 135.76 142.16 134.51C139.33 133.79 137.84 130.85 138.17 127.82C138.47 125.08 140.66 122.8 143.51 122.46C144.97 122.28 146.47 122.29 147.95 122.37C151.13 122.53 152.84 124.57 153.97 127.29C153.97 128.17 153.97 129.06 153.97 129.96Z" fill="#98CCFD" stroke="#4788C7" stroke-miterlimit="10"/>
<path d="M123.75 135.12C122.67 135 121.56 135 120.52 134.73C117.58 133.98 115.67 131.26 115.86 128.28C116.05 125.29 118.26 122.8 121.27 122.45C122.88 122.26 124.55 122.25 126.16 122.43C129.52 122.8 131.76 125.53 131.66 128.89C131.57 132.15 129.03 134.76 125.69 134.98C125.05 135.02 124.4 134.99 123.75 134.99C123.76 135.04 123.75 135.08 123.75 135.12Z" fill="#98CCFD" stroke="#4788C7" stroke-miterlimit="10"/>
<path d="M101.44 135.14C100.31 135 99.15 134.98 98.07 134.68C95.31 133.92 93.41 131.14 93.6 128.37C93.81 125.3 95.95 122.82 98.93 122.46C100.59 122.26 102.31 122.25 103.97 122.44C107.21 122.8 109.57 125.65 109.47 128.8C109.36 132.03 106.92 134.66 103.7 134.97C102.96 135.04 102.21 134.98 101.47 134.98C101.45 135.04 101.45 135.09 101.44 135.14Z" fill="#98CCFD" stroke="#4788C7" stroke-miterlimit="10"/>
</svg>
