<svg width="154" height="154" viewBox="0 0 154 154" fill="none" xmlns="http://www.w3.org/2000/svg">
<path d="M123.343 134.42V134.3C124.003 134.3 124.643 134.34 125.293 134.3C128.623 134.08 131.173 131.47 131.263 128.21C131.353 124.85 129.113 122.12 125.763 121.75C124.153 121.57 122.483 121.58 120.873 121.77C117.863 122.12 115.653 124.6 115.463 127.6C115.273 130.58 117.183 133.3 120.123 134.05C121.163 134.32 122.273 134.32 123.353 134.44L123.343 134.42ZM101.033 134.44L101.053 134.28C101.793 134.28 102.543 134.34 103.283 134.27C106.503 133.96 108.943 131.33 109.053 128.1C109.163 124.95 106.793 122.1 103.553 121.74C101.893 121.56 100.173 121.57 98.5127 121.76C95.5327 122.11 93.3927 124.6 93.1827 127.67C92.9927 130.44 94.9027 133.21 97.6527 133.98C98.7327 134.28 99.8927 134.29 101.023 134.44H101.033Z" fill="#9DC9EC" stroke="#1C75BC" stroke-width="0.5" stroke-miterlimit="10"/>
<path d="M92.5544 92.0901L92.4847 67.7091H87.8523L78.8662 82.8601L69.7407 67.7091H65.0735V92.0901H70.3677V77.775L77.5078 89.5127H80.0504L87.2254 77.4615L87.2602 92.0901H92.5544ZM116.555 92.0901H122.476L111.574 67.7091H106.001L95.1345 92.0901H100.916L103.076 86.8656H114.396L116.555 92.0901ZM104.887 82.5815L108.753 73.2471L112.619 82.5815H104.887ZM135.559 67.7091H125.006V92.0901H130.648V85.3679H135.559C142.072 85.3679 146.147 81.9894 146.147 76.5559C146.147 71.0876 142.072 67.7091 135.559 67.7091ZM135.246 80.7703H130.648V72.3066H135.246C138.694 72.3066 140.435 73.874 140.435 76.5559C140.435 79.203 138.694 80.7703 135.246 80.7703Z" fill="#9DC9EC"/>
<path d="M92.5544 92.0901V92.3401H92.8051L92.8044 92.0894L92.5544 92.0901ZM92.4847 67.7091L92.7347 67.7084L92.734 67.4591H92.4847V67.7091ZM87.8523 67.7091V67.4591H87.7099L87.6373 67.5816L87.8523 67.7091ZM78.8662 82.8601L78.652 82.9891L78.8678 83.3474L79.0812 82.9877L78.8662 82.8601ZM69.7407 67.7091L69.9549 67.5801L69.882 67.4591H69.7407V67.7091ZM65.0735 67.7091V67.4591H64.8235V67.7091H65.0735ZM65.0735 92.0901H64.8235V92.3401H65.0735V92.0901ZM70.3677 92.0901V92.3401H70.6177V92.0901H70.3677ZM70.3677 77.775L70.5813 77.645L70.1177 76.8829V77.775H70.3677ZM77.5078 89.5127L77.2942 89.6426L77.3673 89.7627H77.5078V89.5127ZM80.0504 89.5127V89.7627H80.1925L80.2652 89.6406L80.0504 89.5127ZM87.2254 77.4615L87.4754 77.4609L87.4732 76.5565L87.0106 77.3336L87.2254 77.4615ZM87.2602 92.0901L87.0102 92.0907L87.0108 92.3401H87.2602V92.0901ZM92.8044 92.0894L92.7347 67.7084L92.2347 67.7098L92.3044 92.0908L92.8044 92.0894ZM92.4847 67.4591H87.8523V67.9591H92.4847V67.4591ZM87.6373 67.5816L78.6512 82.7326L79.0812 82.9877L88.0674 67.8366L87.6373 67.5816ZM79.0803 82.7312L69.9549 67.5801L69.5266 67.8381L78.652 82.9891L79.0803 82.7312ZM69.7407 67.4591H65.0735V67.9591H69.7407V67.4591ZM64.8235 67.7091V92.0901H65.3235V67.7091H64.8235ZM65.0735 92.3401H70.3677V91.8401H65.0735V92.3401ZM70.6177 92.0901V77.775H70.1177V92.0901H70.6177ZM70.1541 77.9049L77.2942 89.6426L77.7214 89.3827L70.5813 77.645L70.1541 77.9049ZM77.5078 89.7627H80.0504V89.2627H77.5078V89.7627ZM80.2652 89.6406L87.4402 77.5894L87.0106 77.3336L79.8356 89.3848L80.2652 89.6406ZM86.9754 77.4621L87.0102 92.0907L87.5102 92.0895L87.4754 77.4609L86.9754 77.4621ZM87.2602 92.3401H92.5544V91.8401H87.2602V92.3401ZM116.555 92.0901L116.324 92.1856L116.388 92.3401H116.555V92.0901ZM122.476 92.0901V92.3401H122.862L122.704 91.988L122.476 92.0901ZM111.574 67.7091L111.803 67.607L111.736 67.4591H111.574V67.7091ZM106.001 67.7091V67.4591H105.839L105.773 67.6073L106.001 67.7091ZM95.1345 92.0901L94.9062 91.9883L94.7494 92.3401H95.1345V92.0901ZM100.916 92.0901V92.3401H101.083L101.147 92.1856L100.916 92.0901ZM103.076 86.8656V86.6156H102.909L102.845 86.7701L103.076 86.8656ZM114.396 86.8656L114.627 86.7701L114.563 86.6156H114.396V86.8656ZM104.887 82.5815L104.656 82.4858L104.513 82.8315H104.887V82.5815ZM108.753 73.2471L108.984 73.1514L108.753 72.5937L108.522 73.1514L108.753 73.2471ZM112.619 82.5815V82.8315H112.993L112.85 82.4858L112.619 82.5815ZM116.555 92.3401H122.476V91.8401H116.555V92.3401ZM122.704 91.988L111.803 67.607L111.346 67.8111L122.248 92.1921L122.704 91.988ZM111.574 67.4591H106.001V67.9591H111.574V67.4591ZM105.773 67.6073L94.9062 91.9883L95.3629 92.1919L106.23 67.8109L105.773 67.6073ZM95.1345 92.3401H100.916V91.8401H95.1345V92.3401ZM101.147 92.1856L103.307 86.9611L102.845 86.7701L100.685 91.9946L101.147 92.1856ZM103.076 87.1156H114.396V86.6156H103.076V87.1156ZM114.164 86.9611L116.324 92.1856L116.786 91.9946L114.627 86.7701L114.164 86.9611ZM105.118 82.6772L108.984 73.3427L108.522 73.1514L104.656 82.4858L105.118 82.6772ZM108.522 73.3427L112.388 82.6772L112.85 82.4858L108.984 73.1514L108.522 73.3427ZM112.619 82.3315H104.887V82.8315H112.619V82.3315ZM125.006 67.7091V67.4591H124.756V67.7091H125.006ZM125.006 92.0901H124.756V92.3401H125.006V92.0901ZM130.648 92.0901V92.3401H130.898V92.0901H130.648ZM130.648 85.3679V85.1179H130.398V85.3679H130.648ZM130.648 80.7703H130.398V81.0203H130.648V80.7703ZM130.648 72.3066V72.0566H130.398V72.3066H130.648ZM135.559 67.4591H125.006V67.9591H135.559V67.4591ZM124.756 67.7091V92.0901H125.256V67.7091H124.756ZM125.006 92.3401H130.648V91.8401H125.006V92.3401ZM130.898 92.0901V85.3679H130.398V92.0901H130.898ZM130.648 85.6179H135.559V85.1179H130.648V85.6179ZM135.559 85.6179C138.856 85.6179 141.566 84.7627 143.456 83.1917C145.351 81.6163 146.397 79.3403 146.397 76.5559H145.897C145.897 79.205 144.907 81.335 143.136 82.8072C141.36 84.2838 138.775 85.1179 135.559 85.1179V85.6179ZM146.397 76.5559C146.397 73.7546 145.351 71.4698 143.456 69.8899C141.566 68.3143 138.856 67.4591 135.559 67.4591V67.9591C138.775 67.9591 141.36 68.7932 143.136 70.2739C144.906 71.7502 145.897 73.8889 145.897 76.5559H146.397ZM135.246 80.5203H130.648V81.0203H135.246V80.5203ZM130.898 80.7703V72.3066H130.398V80.7703H130.898ZM130.648 72.5566H135.246V72.0566H130.648V72.5566ZM135.246 72.5566C136.936 72.5566 138.168 72.9414 138.973 73.6171C139.771 74.2868 140.185 75.2721 140.185 76.5559H140.685C140.685 75.1578 140.229 74.0184 139.294 73.2341C138.367 72.4556 137.003 72.0566 135.246 72.0566V72.5566ZM140.185 76.5559C140.185 77.8213 139.772 78.798 138.973 79.4638C138.168 80.1356 136.936 80.5203 135.246 80.5203V81.0203C137.003 81.0203 138.366 80.6214 139.294 79.8478C140.228 79.0682 140.685 77.9376 140.685 76.5559H140.185Z" fill="#1C75BC"/>
<path d="M153.563 28.8201C152.663 31.7401 152.083 34.8101 150.803 37.5501C146.523 46.6801 136.553 52.3101 126.513 51.5701C116.013 50.8001 107.133 43.9499 104.073 34.1299C103.683 32.8699 103.113 32.5801 101.893 32.5801C85.4626 32.6201 69.0226 32.6201 52.5926 32.5801C51.4026 32.5801 50.8726 32.9001 50.4826 34.0501C47.7626 42.1701 42.2926 47.6001 34.1926 50.3201C33.1026 50.6901 32.7826 51.2001 32.7826 52.3201C32.8226 68.8601 32.8226 85.3999 32.7826 101.93C32.7826 102.98 33.0626 103.48 34.1126 103.83C42.3426 106.57 47.8426 112.09 50.5626 120.33C50.8826 121.3 51.3426 121.6 52.3626 121.59C61.4526 121.55 70.5326 121.56 79.6226 121.57C83.1426 121.57 85.5626 123.15 86.4826 125.97C87.8126 130.05 84.9026 134.17 80.5126 134.27C76.6926 134.36 72.8626 134.29 69.0426 134.3C63.4326 134.3 57.8226 134.3 52.2126 134.29C51.4526 134.29 51.0126 134.39 50.7026 135.27C47.2326 145.45 40.2326 151.48 29.5526 153.15C29.3626 153.18 29.1926 153.3 29.0126 153.38H23.6526C23.3326 153.28 23.0226 153.13 22.6926 153.08C11.0626 151.35 2.11263 141.8 1.09263 130.03C0.0826302 118.37 7.42263 107.39 18.6826 103.83C19.7626 103.49 20.1126 103.04 20.1126 101.88C20.0726 85.3499 20.0826 68.81 20.0826 52.28V50.8899C19.6226 50.7199 19.2026 50.5699 18.7926 50.4299C6.93261 46.6099 -0.337388 35.1301 1.29261 22.7901C2.84261 11.0501 12.4426 1.92013 24.3426 0.870129C35.9726 -0.159871 47.0626 7.23995 50.5526 18.44C50.9226 19.64 51.4826 19.8899 52.6326 19.8899C69.0126 19.8499 85.3926 19.8399 101.773 19.8999C103.173 19.8999 103.693 19.4899 104.113 18.1799C107.183 8.52994 116.203 1.55011 126.353 0.85011C136.593 0.14011 146.573 5.80003 150.863 15.02C152.093 17.67 152.683 20.63 153.573 23.44V28.8001L153.563 28.8201ZM140.793 26.46C140.943 19.48 135.393 13.7301 128.353 13.5701C121.433 13.4101 115.653 18.98 115.443 26.02C115.233 32.87 120.883 38.72 127.923 38.94C134.793 39.15 140.653 33.48 140.803 26.46H140.793ZM26.4326 13.5601C19.4526 13.5601 13.7526 19.26 13.7626 26.24C13.7626 33.2 19.4926 38.94 26.4326 38.94C33.3526 38.94 39.1326 33.15 39.1326 26.23C39.1326 19.29 33.3826 13.5501 26.4326 13.5501V13.5601ZM26.2326 140.63C33.1526 140.78 38.9326 135.19 39.1326 128.16C39.3226 121.31 33.6626 115.45 26.6426 115.26C19.7726 115.07 13.9326 120.74 13.7726 127.75C13.6126 134.7 19.2026 140.47 26.2326 140.63Z" fill="#9DC9EC" stroke="#1C75BC" stroke-width="0.5" stroke-miterlimit="10"/>
<path d="M153.563 129.26C151.653 134.91 146.693 135.06 141.753 133.81C138.923 133.09 137.433 130.15 137.763 127.12C138.063 124.38 140.253 122.1 143.103 121.75C144.563 121.57 146.063 121.58 147.543 121.66C150.723 121.82 152.433 123.86 153.563 126.58V129.26Z" fill="#9DC9EC" stroke="#1C75BC" stroke-width="0.5" stroke-miterlimit="10"/>
<path d="M123.343 134.42C122.263 134.3 121.153 134.3 120.113 134.03C117.173 133.28 115.263 130.56 115.453 127.58C115.643 124.59 117.853 122.1 120.863 121.75C122.473 121.56 124.143 121.55 125.753 121.73C129.113 122.1 131.353 124.83 131.253 128.19C131.163 131.45 128.623 134.06 125.283 134.28C124.643 134.32 123.993 134.28 123.343 134.28V134.4V134.42Z" fill="#9DC9EC" stroke="#1C75BC" stroke-width="0.5" stroke-miterlimit="10"/>
<path d="M101.033 134.44C99.9025 134.3 98.7425 134.28 97.6625 133.98C94.9025 133.22 93.0025 130.44 93.1925 127.67C93.4025 124.6 95.5425 122.12 98.5225 121.76C100.183 121.56 101.903 121.55 103.563 121.74C106.803 122.1 109.163 124.95 109.063 128.1C108.953 131.33 106.513 133.96 103.293 134.27C102.553 134.34 101.803 134.28 101.063 134.28L101.043 134.44H101.033Z" fill="#9DC9EC" stroke="#1C75BC" stroke-width="0.5" stroke-miterlimit="10"/>
</svg>
