<svg xmlns="http://www.w3.org/2000/svg"  viewBox="0 0 40 40" width="40px" height="40px"><path fill="#dff0fe" d="M8.511,29.5c0.263-6.11,5.316-11,11.489-11s11.227,4.89,11.489,11H8.511z"/><path fill="#4788c7" d="M20,19c5.729,0,10.448,4.401,10.955,10H9.045C9.552,23.401,14.271,19,20,19 M20,18 c-6.627,0-12,5.373-12,12h24C32,23.373,26.627,18,20,18L20,18z"/><path fill="#dff0fe" d="M20 1.5A7.5 7.5 0 1 0 20 16.5A7.5 7.5 0 1 0 20 1.5Z"/><path fill="#4788c7" d="M20,2c3.86,0,7,3.14,7,7s-3.14,7-7,7s-7-3.14-7-7S16.14,2,20,2 M20,1c-4.418,0-8,3.582-8,8 s3.582,8,8,8s8-3.582,8-8S24.418,1,20,1L20,1z"/><path fill="#98ccfd" d="M8.46,38.5L7.405,25.847c-0.051-0.611,0.15-1.196,0.565-1.647c0.415-0.451,0.981-0.7,1.594-0.7 h20.87c0.613,0,1.179,0.249,1.594,0.7c0.416,0.451,0.616,1.036,0.565,1.647L31.54,38.5H8.46z"/><path fill="#4788c7" d="M30.435,24c0.472,0,0.907,0.191,1.226,0.538c0.319,0.347,0.474,0.797,0.434,1.267L31.08,38H8.92 L7.904,25.805c-0.039-0.47,0.115-0.92,0.434-1.267C8.658,24.191,9.093,24,9.565,24H30.435 M30.435,23H9.565 c-1.56,0-2.787,1.333-2.657,2.888L8,39h24l1.093-13.112C33.222,24.333,31.995,23,30.435,23L30.435,23z"/><g><path fill="#4788c7" d="M29 26A1 1 0 1 0 29 28A1 1 0 1 0 29 26Z"/></g><g><path fill="#dff0fe" d="M31,38.5c-1.93,0-3.5-1.57-3.5-3.5s1.57-3.5,3.5-3.5h2c0.276,0,0.5,0.224,0.5,0.5v6 c0,0.276-0.224,0.5-0.5,0.5H31z"/><path fill="#4788c7" d="M33,32v6h-2c-1.654,0-3-1.346-3-3s1.346-3,3-3H33 M33,31h-2c-2.209,0-4,1.791-4,4v0 c0,2.209,1.791,4,4,4h2c0.552,0,1-0.448,1-1v-6C34,31.448,33.552,31,33,31L33,31z"/></g><g><path fill="#dff0fe" d="M7,38.5c-0.276,0-0.5-0.224-0.5-0.5v-6c0-0.276,0.224-0.5,0.5-0.5h2c1.93,0,3.5,1.57,3.5,3.5 s-1.57,3.5-3.5,3.5H7z"/><path fill="#4788c7" d="M9,32c1.654,0,3,1.346,3,3s-1.346,3-3,3H7v-6H9 M9,31H7c-0.552,0-1,0.448-1,1v6c0,0.552,0.448,1,1,1 h2c2.209,0,4-1.791,4-4v0C13,32.791,11.209,31,9,31L9,31z"/></g></svg>