<svg width="40" height="40" viewBox="0 0 40 40" fill="none" xmlns="http://www.w3.org/2000/svg">
<path d="M16.584 11.717L21.406 6.895C22.306 5.996 23.502 5.5 24.774 5.5C26.046 5.5 27.243 5.996 28.143 6.895L29.477 8.23L36 1.707L38.293 4L31.77 10.523L33.105 11.857C34.962 13.714 34.962 16.736 33.105 18.594L28.283 23.416L16.584 11.717Z" fill="#DFF0FE"/>
<path d="M36 2.414L37.586 4L31.77 9.816L31.063 10.523L31.77 11.23L32.751 12.211C34.413 13.873 34.413 16.578 32.751 18.241L28.283 22.709L17.291 11.717L21.759 7.249C22.565 6.443 23.635 6 24.774 6C25.913 6 26.983 6.443 27.789 7.249L28.77 8.23L29.477 8.937L30.184 8.23L36 2.414ZM36 1L29.477 7.523L28.496 6.542C27.468 5.514 26.121 5 24.774 5C23.427 5 22.08 5.514 21.052 6.542L15.877 11.717L28.283 24.123L33.458 18.948C35.513 16.892 35.513 13.56 33.458 11.504L32.477 10.523L39 4L36 1Z" fill="#4788C7"/>
<path d="M12.485 13.701L14.552 11.634C15.196 10.99 16.02 10.621 16.813 10.621C17.375 10.621 17.857 10.808 18.21 11.16L28.84 21.79C29.717 22.668 29.505 24.309 28.365 25.448L26.298 27.515L12.485 13.701Z" fill="#DFF0FE"/>
<path d="M16.813 11.121C17.11 11.121 17.533 11.189 17.857 11.513L28.487 22.143C29.158 22.814 28.941 24.166 28.012 25.094L26.3 26.807L13.193 13.701L14.906 11.988C15.448 11.445 16.162 11.121 16.813 11.121ZM16.813 10.121C15.926 10.121 14.961 10.518 14.198 11.281L11.778 13.701L26.3 28.221L28.72 25.801C30.057 24.464 30.269 22.51 29.195 21.436L18.565 10.806C18.103 10.345 17.48 10.121 16.813 10.121Z" fill="#4788C7"/>
<path d="M1.707 36L8.23 29.477L6.895 28.143C5.038 26.286 5.038 23.263 6.895 21.406L11.717 16.584L23.416 28.283L18.594 33.105C17.694 34.004 16.498 34.5 15.226 34.5C13.954 34.5 12.757 34.004 11.857 33.105L10.523 31.77L4 38.293L1.707 36Z" fill="#DFF0FE"/>
<path d="M11.717 17.291L22.709 28.283L18.241 32.751C17.435 33.556 16.365 34 15.226 34C14.087 34 13.017 33.557 12.211 32.751L11.23 31.77L10.523 31.063L9.816 31.77L4 37.586L2.414 36L8.23 30.184L8.937 29.477L8.23 28.77L7.249 27.789C5.587 26.127 5.587 23.422 7.249 21.76L11.717 17.291ZM11.717 15.877L6.542 21.052C4.487 23.107 4.487 26.44 6.542 28.496L7.523 29.477L1 36L4 39L10.523 32.477L11.504 33.458C12.532 34.486 13.879 35 15.226 35C16.573 35 17.92 34.486 18.948 33.458L24.123 28.283L11.717 15.877Z" fill="#4788C7"/>
<path d="M23.326 29.462C22.737 29.462 22.191 29.241 21.79 28.84L11.16 18.21C10.283 17.332 10.342 15.845 11.293 14.894L13.018 13.169L26.832 26.982L25.107 28.707C24.626 29.188 23.978 29.462 23.326 29.462Z" fill="#DFF0FE"/>
<path d="M13.017 13.876L26.124 26.983L24.753 28.354C24.366 28.741 23.846 28.962 23.326 28.962C22.87 28.962 22.45 28.793 22.143 28.486L11.513 17.856C10.83 17.173 10.89 16.003 11.646 15.247L13.017 13.876ZM13.017 12.462L10.939 14.54C9.79099 15.688 9.73199 17.489 10.806 18.564L21.436 29.194C21.95 29.708 22.63 29.962 23.326 29.962C24.085 29.962 24.861 29.659 25.46 29.061L27.538 26.983L13.017 12.462Z" fill="#4788C7"/>
</svg>
