<svg width="74" height="73" viewBox="0 0 74 73" fill="none" xmlns="http://www.w3.org/2000/svg">
<path d="M6.47501 13.6875H67.525V66.6125H6.47501V13.6875Z" fill="#DFF0FE"/>
<path d="M66.6 14.6V65.7H7.39999V14.6H66.6ZM68.45 12.775H5.54999V67.525H68.45V12.775Z" fill="#4788C7"/>
<path d="M4.625 6.3875H69.375V13.6875H4.625V6.3875Z" fill="#DFF0FE"/>
<path d="M68.45 7.30001V12.775H5.55001V7.30001H68.45ZM70.3 5.47501H3.70001V14.6H70.3V5.47501Z" fill="#4788C7"/>
<path d="M45.325 27.375H28.675C27.1432 27.375 25.9 26.1486 25.9 24.6375C25.9 23.1264 27.1432 21.9 28.675 21.9H45.325C46.8568 21.9 48.1 23.1264 48.1 24.6375C48.1 26.1486 46.8568 27.375 45.325 27.375Z" fill="#4788C7"/>
</svg>
