<svg width="40" height="40" viewBox="0 0 40 40" fill="none" xmlns="http://www.w3.org/2000/svg">
<path d="M20 38.5C9.799 38.5 1.5 30.201 1.5 20C1.5 14.625 3.85 9.522 7.948 6.001L8.357 5.65L4.207 1.5H16.5V13.793L12.626 9.919L12.277 10.193C9.241 12.583 7.5 16.157 7.5 20C7.5 26.893 13.107 32.5 20 32.5C26.893 32.5 32.5 26.893 32.5 20C32.5 14.847 29.3 10.211 24.5 8.353V2.059C32.648 4.099 38.5 11.546 38.5 20C38.5 30.201 30.201 38.5 20 38.5Z" fill="#DFF0FE"/>
<path d="M16 2V8.395V12.586L13.293 9.879L12.665 9.251L11.968 9.8C8.811 12.285 7 16.002 7 20C7 27.168 12.832 33 20 33C27.168 33 33 27.168 33 20C33 14.756 29.814 10.027 25 8.015V2.712C32.603 4.911 38 11.991 38 20C38 29.925 29.925 38 20 38C10.075 38 2 29.925 2 20C2 14.77 4.287 9.806 8.274 6.381L9.092 5.678L8.329 4.915L5.414 2H16ZM17 1H3L7.622 5.622C3.574 9.1 1 14.241 1 20C1 30.493 9.507 39 20 39C30.493 39 39 30.493 39 20C39 10.88 32.571 3.268 24 1.43V8.7C28.653 10.353 32 14.787 32 20C32 26.617 26.617 32 20 32C13.383 32 8 26.617 8 20C8 16.181 9.797 12.782 12.586 10.586L17 15V8.395V1.259V1Z" fill="#4788C7"/>
</svg>
