<svg width="20" height="20" viewBox="0 0 20 20" fill="none" xmlns="http://www.w3.org/2000/svg">
<path d="M1.75 18.75V1.25H10.8965L15.25 5.6035V18.75H1.75Z" fill="white"/>
<path d="M10.793 1.5L15 5.707V18.5H2V1.5H10.793ZM11 1H1.5V19H15.5V5.5L11 1Z" fill="#4788C7"/>
<path d="M10.75 5.75V1.25H10.8965L15.25 5.6035V5.75H10.75Z" fill="#DFF0FE"/>
<path d="M11 1.707L14.793 5.5H11V1.707ZM11 1H10.5V6H15.5V5.5L11 1Z" fill="#4788C7"/>
<path d="M3.5 4.5H5.5V3.5H3.5V4.5ZM7 3.5V4.5H10V3.5H7ZM3.5 6.5H5.5V5.5H3.5V6.5ZM7 6.5H10V5.5H7V6.5ZM3.5 15.5H5.5V14.5H3.5V15.5ZM11.5 14.5V15.5H13.5V14.5H11.5ZM7 15.5H10V14.5H7V15.5ZM3.5 17.5H5.5V16.5H3.5V17.5ZM11.5 16.5V17.5H13.5V16.5H11.5ZM7 17.5H10V16.5H7V17.5Z" fill="#B6DCFE"/>
<path d="M2 7H15V14H2V7Z" fill="#98CCFD"/>
<path d="M15.5 14H13L15 9.5H15.5V14Z" fill="#98CCFD"/>
<path d="M5.88101 9.201V9.4715H4.98101V9.2415C4.98101 8.8265 4.59601 8.7405 4.42501 8.7405C4.20151 8.7405 3.86951 8.7945 3.86951 9.3025V11.7655C3.86951 11.906 3.87451 12.26 4.41651 12.26C4.92751 12.26 4.98101 11.868 4.98101 11.773V11.536H5.88051V11.834C5.88051 12.23 5.48201 12.9505 4.45151 12.9505C4.28051 12.9505 2.96951 12.9325 2.96951 11.8135V9.16C2.96951 8.667 3.38901 8.0505 4.43401 8.0505C5.70401 8.05 5.88101 8.9325 5.88101 9.201ZM8.83801 8.05C7.34001 8.05 7.29451 9.189 7.29451 9.3695C7.29451 10.3055 7.88551 10.4865 8.27351 10.6085L8.91751 10.811C9.31901 10.953 9.43751 10.9795 9.43751 11.5415C9.43751 12.1245 9.26801 12.259 8.78501 12.259C8.27001 12.259 8.15001 11.974 8.15001 11.7645V11.5485H7.25051V11.8055C7.25051 12.641 8.20201 12.949 8.78501 12.949C9.99301 12.949 10.3375 12.288 10.3375 11.5345C10.3375 10.5665 9.91651 10.3895 9.39401 10.215L8.70601 10.005C8.18501 9.8465 8.21651 9.668 8.20801 9.6025C8.19951 9.537 8.19451 9.457 8.19451 9.3625C8.19451 8.734 8.67951 8.7395 8.80301 8.7395C9.36201 8.7395 9.43801 9.164 9.43801 9.322V9.477H10.3375V9.14C10.337 8.774 9.94151 8.05 8.83801 8.05ZM13.502 8.0905L12.7785 11.455H12.761L12.0465 8.0905H11.0945L12.373 12.9095H13.167L14.4545 8.0905H13.502V8.0905ZM15 13.5V18.5H13V19H15.5V13.5H15Z" fill="white"/>
<path d="M12.75 18.5H13.25C13.3875 18.5 13.5 18.6125 13.5 18.75C13.5 18.8875 13.3875 19 13.25 19H12.75C12.6125 19 12.5 18.8875 12.5 18.75C12.5 18.6125 12.6125 18.5 12.75 18.5ZM15.25 8.5C15.3875 8.5 15.5 8.6125 15.5 8.75V9.75C15.5 9.8875 15.3875 10 15.25 10C15.1125 10 15 9.8875 15 9.75V8.75C15 8.6125 15.1125 8.5 15.25 8.5Z" fill="#4788C7"/>
<path d="M12.5205 15.25H14.75V11.25H17.25V15.25H19.4795L16 19.5995L12.5205 15.25Z" fill="#98CCFD"/>
<path d="M17 11.5V15V15.5H17.5H18.9595L16 19.1995L13.0405 15.5H14.5H15V15V11.5H17ZM17.5 11H14.5V15H12L16 20L20 15H17.5V11Z" fill="#4788C7"/>
</svg>
