<svg width="50" height="50" viewBox="0 0 50 50" fill="none" xmlns="http://www.w3.org/2000/svg">
<path d="M21.8987 48.0938C21.16 48.0938 20.465 47.8062 19.9412 47.2837L2.68498 30.0275C1.60623 28.9487 1.60623 27.1912 2.68498 26.1125L25.675 3.155C26.5 2.33 27.5987 1.875 28.7662 1.875H43.75C46.1625 1.875 48.125 3.8375 48.125 6.25V21.26C48.125 22.4312 47.6687 23.53 46.84 24.3575L23.8562 47.2825C23.3325 47.8063 22.6375 48.0938 21.8987 48.0938ZM41.25 5.625C39.5275 5.625 38.125 7.0275 38.125 8.75C38.125 10.4725 39.5275 11.875 41.25 11.875C42.9725 11.875 44.375 10.4725 44.375 8.75C44.375 7.0275 42.9725 5.625 41.25 5.625Z" fill="#DFF0FE"/>
<path d="M43.75 2.5C45.8175 2.5 47.5 4.1825 47.5 6.25V21.26C47.5 22.2638 47.1087 23.2062 46.3988 23.915L23.4138 46.8412C23.0088 47.2463 22.4712 47.4688 21.8987 47.4688C21.3262 47.4688 20.7887 47.2463 20.3837 46.8412L3.1275 29.5863C2.2925 28.7513 2.2925 27.3913 3.1275 26.5563L26.1162 3.59625C26.8237 2.89 27.765 2.5 28.7663 2.5H43.75ZM41.25 12.5C43.3175 12.5 45 10.8175 45 8.75C45 6.6825 43.3175 5 41.25 5C39.1825 5 37.5 6.6825 37.5 8.75C37.5 10.8175 39.1825 12.5 41.25 12.5ZM43.75 1.25H28.7663C27.4412 1.25 26.17 1.77625 25.2325 2.7125L2.24375 25.6713C0.91875 26.9963 0.91875 29.145 2.24375 30.47L19.4988 47.725C20.1612 48.3875 21.03 48.7188 21.8975 48.7188C22.7662 48.7188 23.6338 48.3875 24.2962 47.725L47.28 24.8C48.2213 23.8625 48.75 22.5887 48.75 21.26V6.25C48.75 3.48875 46.5112 1.25 43.75 1.25ZM41.25 11.25C39.8688 11.25 38.75 10.13 38.75 8.75C38.75 7.36875 39.8688 6.25 41.25 6.25C42.6312 6.25 43.75 7.36875 43.75 8.75C43.75 10.13 42.6312 11.25 41.25 11.25Z" fill="#4788C7"/>
<path d="M38.75 28.125C35.9321 28.125 33.2296 29.2444 31.237 31.237C29.2444 33.2296 28.125 35.9321 28.125 38.75C28.125 41.5679 29.2444 44.2704 31.237 46.263C33.2296 48.2556 35.9321 49.375 38.75 49.375C41.5679 49.375 44.2704 48.2556 46.263 46.263C48.2556 44.2704 49.375 41.5679 49.375 38.75C49.375 35.9321 48.2556 33.2296 46.263 31.237C44.2704 29.2444 41.5679 28.125 38.75 28.125Z" fill="#98CCFD"/>
<path d="M38.75 28.75C44.2638 28.75 48.75 33.2363 48.75 38.75C48.75 44.2638 44.2638 48.75 38.75 48.75C33.2363 48.75 28.75 44.2638 28.75 38.75C28.75 33.2363 33.2363 28.75 38.75 28.75ZM38.75 27.5C32.5362 27.5 27.5 32.5362 27.5 38.75C27.5 44.9638 32.5362 50 38.75 50C44.9638 50 50 44.9638 50 38.75C50 32.5362 44.9638 27.5 38.75 27.5Z" fill="#4788C7"/>
<path d="M32.5 38.75H45M38.75 45V32.5V45Z" stroke="white" stroke-width="4" stroke-miterlimit="10"/>
</svg>
