<svg width="40" height="40" viewBox="0 0 40 40" fill="none" xmlns="http://www.w3.org/2000/svg">
<path d="M20 38.5C9.799 38.5 1.5 30.201 1.5 20C1.5 9.799 9.799 1.5 20 1.5C30.201 1.5 38.5 9.799 38.5 20C38.5 30.201 30.201 38.5 20 38.5Z" fill="#C4C4C4"/>
<path d="M20 2C29.925 2 38 10.075 38 20C38 29.925 29.925 38 20 38C10.075 38 2 29.925 2 20C2 10.075 10.075 2 20 2ZM20 1C9.507 1 1 9.507 1 20C1 30.493 9.507 39 20 39C30.493 39 39 30.493 39 20C39 9.507 30.493 1 20 1Z" fill="#444444"/>
<path d="M13.9895 28.1316L11.8682 26.0103L26.0106 11.8684L28.1319 13.9897L13.9895 28.1316Z" fill="white"/>
<path d="M11.8682 13.9897L13.9894 11.8684L28.1318 26.0103L26.0105 28.1316L11.8682 13.9897Z" fill="white"/>
<path d="M28.1319 13.99L26.0099 11.868L19.9999 17.879L13.9899 11.868L11.8679 13.99L17.8789 20L11.8679 26.01L13.9899 28.132L19.9999 22.121L26.0099 28.132L28.1319 26.01L22.1209 20L28.1319 13.99Z" fill="white"/>
</svg>
