<svg width="40" height="40" viewBox="0 0 40 40" fill="none" xmlns="http://www.w3.org/2000/svg">
<path d="M1.5 5C1.5 3.267 3.267 1.5 5 1.5H35C36.733 1.5 38.5 3.267 38.5 5V31C38.5 32.733 36.733 34.5 35 34.5H6.819L1.5 38.933V5Z" fill="#C4C4C4"/>
<path d="M35 2C36.458 2 38 3.542 38 5V31C38 32.458 36.458 34 35 34H7H6.638L6.36 34.232L2 37.865V5C2 3.542 3.542 2 5 2H35ZM35 1H5C3 1 1 3 1 5V40L7 35H35C37 35 39 33 39 31V5C39 3 37 1 35 1Z" fill="#444444"/>
<path d="M20 7.259C19.5502 7.259 19.1188 7.43769 18.8007 7.75575C18.4827 8.07381 18.304 8.5052 18.304 8.955C18.304 9.40481 18.4827 9.83619 18.8007 10.1543C19.1188 10.4723 19.5502 10.651 20 10.651C20.4498 10.651 20.8812 10.4723 21.1993 10.1543C21.5173 9.83619 21.696 9.40481 21.696 8.955C21.696 8.5052 21.5173 8.07381 21.1993 7.75575C20.8812 7.43769 20.4498 7.259 20 7.259ZM21 25V13H17V15H19V25H17V27H23V25H21Z" fill="white"/>
</svg>
