<svg width="40" height="40" viewBox="0 0 40 40" fill="none" xmlns="http://www.w3.org/2000/svg">
<path d="M20 38.5C9.799 38.5 1.5 30.201 1.5 20C1.5 9.799 9.799 1.5 20 1.5C30.201 1.5 38.5 9.799 38.5 20C38.5 30.201 30.201 38.5 20 38.5Z" fill="#C4C4C4"/>
<path d="M20 2C29.925 2 38 10.075 38 20C38 29.925 29.925 38 20 38C10.075 38 2 29.925 2 20C2 10.075 10.075 2 20 2ZM20 1C9.507 1 1 9.507 1 20C1 30.493 9.507 39 20 39C30.493 39 39 30.493 39 20C39 9.507 30.493 1 20 1Z" fill="#444444"/>
<path d="M18 10H22V22H18V10Z" fill="white"/>
<path d="M20 26C21.105 26 22 26.895 22 28C22 29.105 21.105 30 20 30C18.895 30 18 29.105 18 28C18 26.895 18.895 26 20 26Z" fill="white"/>
</svg>
