<svg xmlns="http://www.w3.org/2000/svg"  viewBox="0 0 40 40" width="40px" height="40px"><path fill="#fff" d="M1 1H39V31H1z"/><path fill="none" stroke="#4788c7" stroke-linecap="round" stroke-miterlimit="10" d="M25.5 30.5L38.5 30.5 38.5 1.5 1.5 1.5 1.5 30.5 16.5 30.5"/><path fill="#98ccfd" d="M2 2H38V9H2z"/><path fill="#fff" d="M14 4H36V7H14z"/><path fill="#dff0fe" d="M10.5 4A1.5 1.5 0 1 0 10.5 7 1.5 1.5 0 1 0 10.5 4zM5.5 4A1.5 1.5 0 1 0 5.5 7 1.5 1.5 0 1 0 5.5 4z"/><path fill="#98ccfd" d="M1.5,38.5v-3H17c1.379,0,2.5-1.121,2.5-2.5v-9.5h-4.398L21,16.76l5.898,6.74H22.5V33 c0,3.032-2.468,5.5-5.5,5.5H1.5z"/><path fill="#4788c7" d="M21,17.519L25.796,23H23h-1v1v9c0,2.757-2.243,5-5,5H2v-2h15c1.654,0,3-1.346,3-3v-9v-1h-1h-2.796 L21,17.519 M21,16l-7,8h5v9c0,1.105-0.895,2-2,2H1v4h16c3.314,0,6-2.686,6-6v-9h5L21,16L21,16z"/></svg>