<svg width="40" height="40" viewBox="0 0 40 40" fill="none" xmlns="http://www.w3.org/2000/svg">
<path d="M30 17.714C30 17.714 30 12.408 30 12C30 6.477 25.523 2 20 2C14.477 2 10 6.477 10 12C10 12.408 10 17.714 10 17.714" stroke="#4788C7" stroke-width="2" stroke-miterlimit="10"/>
<path d="M2.5 37.5V19C2.5 17.07 4.07 15.5 6 15.5H34C35.93 15.5 37.5 17.07 37.5 19V37.5H2.5Z" fill="#98CCFD"/>
<path d="M34 16C35.654 16 37 17.346 37 19V37H3V19C3 17.346 4.346 16 6 16H34ZM34 15H6C3.791 15 2 16.791 2 19V38H38V19C38 16.791 36.209 15 34 15Z" fill="#4788C7"/>
<path d="M14 27C14 28.133 13.133 29 12 29C10.867 29 10 28.133 10 27C10 25.867 10.867 25 12 25C13.133 25 14 25.867 14 27ZM28 25C26.867 25 26 25.867 26 27C26 28.133 26.867 29 28 29C29.133 29 30 28.133 30 27C30 25.867 29.133 25 28 25ZM20 25C18.867 25 18 25.867 18 27C18 28.133 18.867 29 20 29C21.133 29 22 28.133 22 27C22 25.867 21.133 25 20 25Z" fill="white"/>
</svg>
