<?xml version="1.0" encoding="iso-8859-1"?>
<!-- Generator: Adobe Illustrator 18.1.1, SVG Export Plug-In . SVG Version: 6.00 Build 0)  -->
<svg version="1.1" id="Capa_1" xmlns="http://www.w3.org/2000/svg" xmlns:xlink="http://www.w3.org/1999/xlink" x="0px" y="0px"
	 viewBox="0 0 290.761 290.761" style="enable-background:new 0 0 290.761 290.761;" xml:space="preserve">
<g>
	<g>
		<path style="fill:#4788C7;" d="M98.093,85.728c1.319,0,2.411-0.764,2.542-1.772c0.072-0.531-0.066-1.199-0.269-1.82
			c-0.31-0.973,0.919-0.43,2.924,1.146c2.005,1.575,3.634,3.807,3.634,4.976c0,1.175,0.835,2.124,1.862,2.124h1.862h14.559
			c0,0,1.014,0,2.267,0c1.253,0,7.602,0,14.195,0c2.423,0,4.97,0,7.393,0c6.587,0,12.948,0,14.201,0c1.128,0,2.267,0,2.267,0h14.571
			c0,0,0.835,0,1.862,0c1.032,0,1.862-0.949,1.862-2.118c0-1.169,1.629-3.395,3.634-4.976c2.005-1.581,3.234-2.118,2.924-1.146
			c-0.203,0.621-0.34,1.289-0.274,1.82c0.131,1.014,1.229,1.778,2.548,1.778c0.829,0,1.629-0.31,2.261-0.871
			c0.68-0.609,0.883-1.349,0.865-2.041c-0.036-1.265-0.668-3.825-0.668-5.859c0-2.041-0.167-3.622-0.388-3.538l-0.382,0.155
			c-0.024,0.012-2.709,1.056-7.184,1.056c-4.41,0-11.391-1.038-19.607-5.991c-5.692-3.425-9.469-7.381-11.976-11.015
			c-3.735-5.43-3.807-10.776-2.661-10.716c0.722,0.036,1.414,0.054,2.076,0.054c7.178,0,8.801-2.13,8.956-2.375
			c0,0,0.09-0.125,0.197-0.28c0.101-0.155,0.048-0.346-0.125-0.418l-0.316-0.137c-2.542-1.104-4.779-2.44-6.629-3.735
			c-3.455-2.417-5.806-5.155-5.871-5.394s-0.728-5.728-1.635-12.256c-0.764-5.49-1.689-11.993-2.476-17.483
			c-0.937-6.522-2.47-6.528-3.419-0.006l-2.542,17.507c-0.949,6.522-1.587,11.993-1.599,12.238s-2.381,2.972-5.842,5.388
			c-1.85,1.295-4.093,2.631-6.647,3.735c0,0-0.137,0.06-0.31,0.137c-0.173,0.078-0.227,0.263-0.125,0.418l0.191,0.286
			c0.161,0.239,1.796,2.369,8.974,2.369c0.662,0,1.354-0.018,2.076-0.054c1.146-0.06,1.074,5.293-2.661,10.722
			c-2.494,3.628-6.271,7.584-11.964,11.009c-8.216,4.953-15.198,5.991-19.607,5.991c-4.475,0-7.16-1.044-7.184-1.056
			c0,0-0.173-0.072-0.388-0.155c-0.215-0.084-0.388,1.498-0.388,3.532s-0.627,4.589-0.662,5.854
			c-0.018,0.722,0.191,1.468,0.847,2.047C96.458,85.417,97.263,85.728,98.093,85.728z"/>
		<path style="fill:#4788C7;" d="M57.434,142.353c0.841-0.072,1.891-0.692,2.554-1.51c0.585-0.722,0.829-1.545,0.716-2.363
			c-0.095-0.734-0.453-1.414-0.883-1.999c-0.722-0.985-1.522-1.79-1.51-2.053c0.018-0.263,2.524,1.933,6.14,4.123
			c3.616,2.19,7.113,3.335,7.113,4.147s0.776,1.468,1.736,1.468h1.736h132.214c6.587,0,11.934-0.656,11.934-1.468
			s3.491-1.951,7.101-4.147c3.616-2.19,6.116-4.38,6.134-4.123c0.018,0.257-0.782,1.074-1.504,2.053
			c-0.424,0.579-0.788,1.265-0.877,1.993c-0.113,0.829,0.137,1.647,0.722,2.369c0.656,0.823,1.712,1.444,2.554,1.51
			c1.921,0.012,4.475-0.853,4.636-3.222c0.06-0.817-0.119-1.492-0.394-2.029c-0.537-1.038-1.408-3.27-1.408-5.394
			c0-2.124-0.316-3.998-0.71-4.189c-0.394-0.191-1.76,0.388-3.049,1.289c-1.295,0.901-7.733,2.727-14.207,1.492
			c-3.479-0.662-7.5-1.951-11.767-4.308c-12.745-7.065-18.145-21.415-18.205-21.564c0,0-0.03-0.084-0.066-0.185
			c-0.036-0.101-0.579-0.185-1.205-0.185c-0.627,0-1.128-0.495-1.128-1.098s-0.442-1.098-0.99-1.098
			c-0.549,0-6.337-0.006-12.924-0.006c-21.6-0.006-64.973-0.006-64.973-0.006s-0.442,0-0.991,0c-0.549,0-0.991,0.495-0.991,1.098
			s-0.507,1.098-1.134,1.098c-0.627,0-1.164,0.084-1.205,0.185l-0.072,0.185c-0.054,0.143-5.454,14.494-18.199,21.564
			c-4.266,2.363-8.288,3.652-11.767,4.314c-6.474,1.235-12.912-0.591-14.207-1.498c-1.295-0.907-2.655-1.48-3.049-1.289
			c-0.394,0.191-0.71,2.065-0.71,4.189c0,2.124-0.877,4.356-1.408,5.394c-0.274,0.537-0.453,1.217-0.4,2.047
			C52.959,141.625,55.817,142.461,57.434,142.353z"/>
		<path style="fill:#4788C7;" d="M237.556,192.212c-0.537-1.032-1.408-3.27-1.408-5.394c0-2.124-0.316-3.998-0.71-4.189
			c-0.394-0.185-1.76,0.388-3.049,1.295c-1.295,0.895-7.733,2.727-14.207,1.492c-3.479-0.662-7.5-1.957-11.767-4.314
			c-12.745-7.065-18.145-21.415-18.205-21.558c0,0-0.03-0.089-0.066-0.185c-0.036-0.107-0.579-0.185-1.205-0.185
			c-0.627,0-1.128-0.495-1.128-1.098c0-0.609-0.442-1.104-0.99-1.104c-0.549,0-6.337-0.006-12.924-0.006
			c-21.6-0.006-64.973-0.006-64.973-0.006s-0.442,0-0.991,0c-0.549,0-0.991,0.495-0.991,1.104c0,0.603-0.507,1.098-1.134,1.098
			c-0.627,0-1.164,0.084-1.205,0.185l-0.072,0.185c-0.054,0.137-5.454,14.494-18.199,21.552c-4.266,2.363-8.288,3.652-11.767,4.32
			c-6.474,1.235-12.912-0.597-14.207-1.504c-1.295-0.901-2.655-1.48-3.049-1.283c-0.394,0.185-0.71,2.065-0.71,4.183
			c0,2.118-0.877,4.356-1.408,5.394c-0.274,0.537-0.453,1.217-0.4,2.047c0.167,2.488,3.025,3.33,4.642,3.216
			c0.841-0.072,1.891-0.692,2.554-1.51c0.585-0.722,0.829-1.545,0.716-2.363c-0.095-0.734-0.453-1.408-0.883-1.993
			c-0.722-0.991-1.522-1.796-1.51-2.059c0.018-0.263,2.524,1.933,6.14,4.123c3.616,2.184,7.113,3.335,7.113,4.141
			c0,0.817,0.776,1.468,1.736,1.468h1.736c0,0,1.253,0,2.804,0c1.545,0,2.804,0.794,2.804,1.772c0,0.967,2.548,1.76,5.686,1.76
			c3.139,0,5.597,0.662,5.49,1.468c-0.066,0.477-0.125,0.967-0.191,1.468c-0.644,4.72-1.426,10.233-2.071,16.134
			c-0.752,5.907-1.283,12.208-1.903,18.503c-0.519,6.307-2.041,12.596-2.166,18.509c0,0.489,0.018,0.967,0.036,1.45
			c0.036,0.8-1.032,1.45-2.405,1.45c-1.372,0-2.482,1.074-2.482,2.387s-2.208,2.393-4.929,2.393c-2.721,0-4.929,5.346-4.929,11.934
			v0.334c0,6.587,5.179,11.934,11.564,11.934H93.91h1.79h48.773h1.79h48.612h1.79c0,0,5.048,0,11.259,0
			c6.212,0,11.254-5.346,11.254-11.934v-0.334c0-6.587-2.071-11.934-4.618-11.934c-2.548,0-4.612-1.08-4.612-2.393
			s-1.116-2.387-2.482-2.387c-1.372,0-2.44-0.65-2.405-1.45c0.024-0.477,0.036-0.961,0.036-1.45
			c-0.125-5.907-1.635-12.202-2.16-18.509c-0.621-6.295-1.152-12.59-1.897-18.503c-0.65-5.901-1.426-11.415-2.076-16.134
			c-0.066-0.501-0.125-0.991-0.185-1.468c-0.113-0.812,2.351-1.468,5.49-1.468c3.133,0,5.686-0.794,5.686-1.76
			c0-0.979,2.065-1.772,4.612-1.772c2.548,0,4.618-0.65,4.618-1.468c0-0.812,3.491-1.945,7.101-4.141
			c3.616-2.19,6.116-4.38,6.134-4.123c0.018,0.257-0.782,1.08-1.504,2.059c-0.424,0.579-0.788,1.259-0.877,1.993
			c-0.113,0.829,0.137,1.641,0.722,2.363c0.656,0.817,1.707,1.444,2.554,1.51c1.945,0.018,4.499-0.847,4.66-3.21
			C238.01,193.424,237.837,192.749,237.556,192.212z M142.2,205.739c-0.644,4.732-1.426,10.233-2.071,16.14
			c-0.752,5.907-1.283,12.202-1.903,18.509c-0.519,6.301-2.041,12.596-2.166,18.503c0,0.489,0.018,0.967,0.036,1.45
			c0.036,0.8-1.032,1.45-2.405,1.45c-1.372,0-2.482,1.074-2.482,2.393c0,1.319-4.976,2.387-11.11,2.387s-11.11-1.074-11.11-2.387
			c0-1.325-1.11-2.393-2.482-2.393c-1.372,0-2.44-0.65-2.405-1.45c0.024-0.477,0.036-0.961,0.036-1.45
			c-0.119-5.901-1.641-12.202-2.166-18.503c-0.621-6.307-1.152-12.596-1.903-18.509c-0.65-5.907-1.426-11.409-2.071-16.14
			c-0.066-0.501-0.131-0.979-0.191-1.456c-0.107-0.817,2.351-1.468,5.49-1.468s5.686-0.794,5.686-1.772
			c0-0.967,4.976-1.76,11.11-1.76s11.11,0.794,11.11,1.76c0,0.979,2.548,1.772,5.686,1.772c3.139,0,5.597,0.656,5.49,1.468
			C142.325,204.761,142.259,205.238,142.2,205.739z M192.602,205.739c-0.644,4.732-1.426,10.233-2.071,16.14
			c-0.758,5.907-1.283,12.202-1.897,18.509c-0.519,6.301-2.041,12.596-2.166,18.503c0,0.489,0.024,0.967,0.036,1.45
			c0.036,0.8-1.032,1.45-2.399,1.45c-1.372,0-2.482,1.074-2.482,2.393c0,1.319-4.941,2.387-11.027,2.387
			c-6.092,0-11.039-1.074-11.039-2.387c0-1.325-1.11-2.393-2.482-2.393s-2.44-0.65-2.405-1.45c0.024-0.477,0.036-0.961,0.036-1.45
			c-0.119-5.901-1.641-12.202-2.166-18.503c-0.621-6.307-1.152-12.596-1.903-18.509c-0.65-5.907-1.426-11.409-2.071-16.14
			c-0.066-0.501-0.131-0.979-0.191-1.456c-0.107-0.817,2.351-1.468,5.49-1.468s5.686-0.794,5.686-1.772
			c0-0.967,4.941-1.76,11.033-1.76s11.027,0.794,11.027,1.76c0,0.979,2.554,1.772,5.686,1.772c3.139,0,5.597,0.656,5.49,1.468
			C192.727,204.761,192.662,205.238,192.602,205.739z"/>
	</g>
</g>
<g>
</g>
<g>
</g>
<g>
</g>
<g>
</g>
<g>
</g>
<g>
</g>
<g>
</g>
<g>
</g>
<g>
</g>
<g>
</g>
<g>
</g>
<g>
</g>
<g>
</g>
<g>
</g>
<g>
</g>
</svg>
