<svg width="25" height="25" viewBox="0 0 25 25" fill="none" xmlns="http://www.w3.org/2000/svg">
<path d="M20.8333 20.5H21.3333V20V19.0625C21.3333 17.4491 20.2524 15.91 18.6698 14.8004C17.0726 13.6806 14.8886 12.9375 12.5 12.9375C10.1114 12.9375 7.92744 13.6806 6.33016 14.8004C4.74755 15.91 3.66667 17.4491 3.66667 19.0625V20V20.5H4.16667H20.8333ZM22.2222 24.5H4.16667H2.77778C2.15766 24.5 1.57218 24.2778 1.14807 23.8961C0.725708 23.516 0.5 23.0124 0.5 22.5V2.5C0.5 1.98759 0.725709 1.48401 1.14807 1.10388C1.57218 0.722186 2.15766 0.5 2.77778 0.5H22.2222C22.8423 0.5 23.4278 0.722186 23.8519 1.10388C24.2743 1.48401 24.5 1.98759 24.5 2.5V22.5C24.5 23.0124 24.2743 23.516 23.8519 23.8961C23.4278 24.2778 22.8423 24.5 22.2222 24.5ZM17.1667 7.49875C17.1667 5.1129 15.0126 3.24875 12.5 3.24875C9.98744 3.24875 7.83333 5.1129 7.83333 7.49875C7.83333 9.88304 9.9871 11.75 12.5 11.75C15.0129 11.75 17.1667 9.88304 17.1667 7.49875Z" fill="#98CCFD" stroke="#4788C7"/>
</svg>
