<svg width="122" height="141" viewBox="0 0 122 141" fill="none" xmlns="http://www.w3.org/2000/svg">
<path d="M20.6641 140.785C23.3285 140.785 25.5343 139.824 26.9757 138.055L24.7044 135.958C23.6779 137.159 22.3894 137.771 20.8606 137.771C17.9996 137.771 15.9686 135.762 15.9686 132.879C15.9686 129.996 17.9996 127.987 20.8606 127.987C22.3894 127.987 23.6779 128.598 24.7044 129.777L26.9757 127.681C25.5343 125.934 23.3285 124.973 20.6859 124.973C15.9249 124.973 12.3869 128.271 12.3869 132.879C12.3869 137.487 15.9249 140.785 20.6641 140.785ZM40.4884 140.523H44.2011L37.3653 125.235H33.871L27.0571 140.523H30.6824L32.0365 137.247H39.1343L40.4884 140.523ZM33.1721 134.56L35.5963 128.707L38.0205 134.56H33.1721ZM59.3277 140.523L55.8989 135.609C57.8863 134.757 59.0437 133.075 59.0437 130.782C59.0437 127.353 56.4885 125.235 52.4045 125.235H45.7872V140.523H49.3252V136.264H52.4045H52.5793L55.5276 140.523H59.3277ZM55.4621 130.782C55.4621 132.442 54.3701 133.447 52.208 133.447H49.3252V128.118H52.208C54.3701 128.118 55.4621 129.1 55.4621 130.782ZM65.363 137.683V134.145H72.4609V131.394H65.363V128.074H73.4V125.235H61.8469V140.523H73.6839V137.683H65.363ZM87.921 140.523H91.6337L84.798 125.235H81.3037L74.4897 140.523H78.1151L79.4691 137.247H86.567L87.921 140.523ZM80.6048 134.56L83.029 128.707L85.4532 134.56H80.6048Z" fill="#98CCFD"/>
<path d="M26.9757 138.055L27.3633 138.37L27.6602 138.006L27.3148 137.687L26.9757 138.055ZM24.7044 135.958L25.0435 135.591L24.6618 135.238L24.3243 135.633L24.7044 135.958ZM24.7044 129.777L24.3272 130.106L24.6652 130.494L25.0435 130.145L24.7044 129.777ZM26.9757 127.681L27.3148 128.048L27.6623 127.728L27.3614 127.363L26.9757 127.681ZM20.6641 141.285C23.4523 141.285 25.8114 140.275 27.3633 138.37L26.5881 137.739C25.2572 139.372 23.2047 140.285 20.6641 140.285V141.285ZM27.3148 137.687L25.0435 135.591L24.3652 136.325L26.6365 138.422L27.3148 137.687ZM24.3243 135.633C23.3883 136.729 22.2363 137.271 20.8606 137.271V138.271C22.5425 138.271 23.9676 137.59 25.0845 136.283L24.3243 135.633ZM20.8606 137.271C19.5501 137.271 18.458 136.813 17.6947 136.052C16.9317 135.291 16.4686 134.199 16.4686 132.879H15.4686C15.4686 134.441 16.021 135.795 16.9887 136.76C17.9562 137.724 19.3101 138.271 20.8606 138.271V137.271ZM16.4686 132.879C16.4686 131.558 16.9317 130.466 17.6947 129.706C18.458 128.945 19.5501 128.487 20.8606 128.487V127.487C19.3101 127.487 17.9562 128.033 16.9887 128.998C16.021 129.962 15.4686 131.317 15.4686 132.879H16.4686ZM20.8606 128.487C22.2372 128.487 23.3906 129.03 24.3272 130.106L25.0815 129.449C23.9652 128.167 22.5416 127.487 20.8606 127.487V128.487ZM25.0435 130.145L27.3148 128.048L26.6365 127.313L24.3652 129.41L25.0435 130.145ZM27.3614 127.363C25.8101 125.482 23.4527 124.473 20.6859 124.473V125.473C23.2043 125.473 25.2584 126.385 26.59 127.999L27.3614 127.363ZM20.6859 124.473C15.675 124.473 11.8869 127.969 11.8869 132.879H12.8869C12.8869 128.572 16.1748 125.473 20.6859 125.473V124.473ZM11.8869 132.879C11.8869 137.788 15.6741 141.285 20.6641 141.285V140.285C16.1757 140.285 12.8869 137.186 12.8869 132.879H11.8869ZM40.4884 140.523L40.0263 140.714L40.154 141.023H40.4884V140.523ZM44.2011 140.523V141.023H44.9724L44.6575 140.318L44.2011 140.523ZM37.3653 125.235L37.8218 125.031L37.6895 124.735H37.3653V125.235ZM33.871 125.235V124.735H33.5464L33.4143 125.031L33.871 125.235ZM27.0571 140.523L26.6004 140.319L26.2868 141.023H27.0571V140.523ZM30.6824 140.523V141.023H31.0168L31.1445 140.714L30.6824 140.523ZM32.0365 137.247V136.747H31.7021L31.5744 137.056L32.0365 137.247ZM39.1343 137.247L39.5964 137.056L39.4687 136.747H39.1343V137.247ZM33.1721 134.56L32.7102 134.369L32.4239 135.06H33.1721V134.56ZM35.5963 128.707L36.0583 128.516L35.5963 127.401L35.1344 128.516L35.5963 128.707ZM38.0205 134.56V135.06H38.7688L38.4824 134.369L38.0205 134.56ZM40.4884 141.023H44.2011V140.023H40.4884V141.023ZM44.6575 140.318L37.8218 125.031L36.9089 125.439L43.7446 140.727L44.6575 140.318ZM37.3653 124.735H33.871V125.735H37.3653V124.735ZM33.4143 125.031L26.6004 140.319L27.5138 140.726L34.3277 125.438L33.4143 125.031ZM27.0571 141.023H30.6824V140.023H27.0571V141.023ZM31.1445 140.714L32.4986 137.438L31.5744 137.056L30.2203 140.332L31.1445 140.714ZM32.0365 137.747H39.1343V136.747H32.0365V137.747ZM38.6722 137.438L40.0263 140.714L40.9504 140.332L39.5964 137.056L38.6722 137.438ZM33.6341 134.752L36.0583 128.899L35.1344 128.516L32.7102 134.369L33.6341 134.752ZM35.1344 128.899L37.5586 134.752L38.4824 134.369L36.0583 128.516L35.1344 128.899ZM38.0205 134.06H33.1721V135.06H38.0205V134.06ZM59.3277 140.523V141.023H60.2862L59.7377 140.236L59.3277 140.523ZM55.8989 135.609L55.7019 135.149L55.1373 135.391L55.4888 135.895L55.8989 135.609ZM45.7872 125.235V124.735H45.2872V125.235H45.7872ZM45.7872 140.523H45.2872V141.023H45.7872V140.523ZM49.3252 140.523V141.023H49.8252V140.523H49.3252ZM49.3252 136.264V135.764H48.8252V136.264H49.3252ZM52.5793 136.264L52.9904 135.979L52.8412 135.764H52.5793V136.264ZM55.5276 140.523L55.1165 140.807L55.2656 141.023H55.5276V140.523ZM49.3252 133.447H48.8252V133.947H49.3252V133.447ZM49.3252 128.118V127.618H48.8252V128.118H49.3252ZM59.7377 140.236L56.3089 135.323L55.4888 135.895L58.9176 140.809L59.7377 140.236ZM56.0958 136.068C58.2662 135.138 59.5437 133.276 59.5437 130.782H58.5437C58.5437 132.874 57.5063 134.376 55.7019 135.149L56.0958 136.068ZM59.5437 130.782C59.5437 128.933 58.8494 127.401 57.5758 126.339C56.3127 125.286 54.5281 124.735 52.4045 124.735V125.735C54.365 125.735 55.9 126.243 56.9355 127.107C57.9604 127.961 58.5437 129.202 58.5437 130.782H59.5437ZM52.4045 124.735H45.7872V125.735H52.4045V124.735ZM45.2872 125.235V140.523H46.2872V125.235H45.2872ZM45.7872 141.023H49.3252V140.023H45.7872V141.023ZM49.8252 140.523V136.264H48.8252V140.523H49.8252ZM49.3252 136.764H52.4045V135.764H49.3252V136.764ZM52.4045 136.764H52.5793V135.764H52.4045V136.764ZM52.1682 136.548L55.1165 140.807L55.9387 140.238L52.9904 135.979L52.1682 136.548ZM55.5276 141.023H59.3277V140.023H55.5276V141.023ZM54.9621 130.782C54.9621 131.496 54.732 132.01 54.3233 132.355C53.9015 132.711 53.2197 132.947 52.208 132.947V133.947C53.3584 133.947 54.3036 133.68 54.9684 133.119C55.6461 132.547 55.9621 131.728 55.9621 130.782H54.9621ZM52.208 132.947H49.3252V133.947H52.208V132.947ZM49.8252 133.447V128.118H48.8252V133.447H49.8252ZM49.3252 128.618H52.208V127.618H49.3252V128.618ZM52.208 128.618C53.2222 128.618 53.9036 128.849 54.3244 129.202C54.7311 129.544 54.9621 130.056 54.9621 130.782H55.9621C55.9621 129.827 55.6471 129.007 54.9672 128.436C54.3015 127.878 53.3559 127.618 52.208 127.618V128.618ZM65.363 137.683H64.863V138.183H65.363V137.683ZM65.363 134.145V133.645H64.863V134.145H65.363ZM72.4609 134.145V134.645H72.9609V134.145H72.4609ZM72.4609 131.394H72.9609V130.894H72.4609V131.394ZM65.363 131.394H64.863V131.894H65.363V131.394ZM65.363 128.074V127.574H64.863V128.074H65.363ZM73.4 128.074V128.574H73.9V128.074H73.4ZM73.4 125.235H73.9V124.735H73.4V125.235ZM61.8469 125.235V124.735H61.3469V125.235H61.8469ZM61.8469 140.523H61.3469V141.023H61.8469V140.523ZM73.6839 140.523V141.023H74.1839V140.523H73.6839ZM73.6839 137.683H74.1839V137.183H73.6839V137.683ZM65.863 137.683V134.145H64.863V137.683H65.863ZM65.363 134.645H72.4609V133.645H65.363V134.645ZM72.9609 134.145V131.394H71.9609V134.145H72.9609ZM72.4609 130.894H65.363V131.894H72.4609V130.894ZM65.863 131.394V128.074H64.863V131.394H65.863ZM65.363 128.574H73.4V127.574H65.363V128.574ZM73.9 128.074V125.235H72.9V128.074H73.9ZM73.4 124.735H61.8469V125.735H73.4V124.735ZM61.3469 125.235V140.523H62.3469V125.235H61.3469ZM61.8469 141.023H73.6839V140.023H61.8469V141.023ZM74.1839 140.523V137.683H73.1839V140.523H74.1839ZM73.6839 137.183H65.363V138.183H73.6839V137.183ZM87.921 140.523L87.4589 140.714L87.5867 141.023H87.921V140.523ZM91.6337 140.523V141.023H92.405L92.0902 140.318L91.6337 140.523ZM84.798 125.235L85.2544 125.031L85.1221 124.735H84.798V125.235ZM81.3037 125.235V124.735H80.9791L80.847 125.031L81.3037 125.235ZM74.4897 140.523L74.033 140.319L73.7195 141.023H74.4897V140.523ZM78.1151 140.523V141.023H78.4495L78.5772 140.714L78.1151 140.523ZM79.4691 137.247V136.747H79.1348L79.0071 137.056L79.4691 137.247ZM86.567 137.247L87.0291 137.056L86.9013 136.747H86.567V137.247ZM80.6048 134.56L80.1429 134.369L79.8565 135.06H80.6048V134.56ZM83.029 128.707L83.4909 128.516L83.029 127.401L82.567 128.516L83.029 128.707ZM85.4532 134.56V135.06H86.2014L85.9151 134.369L85.4532 134.56ZM87.921 141.023H91.6337V140.023H87.921V141.023ZM92.0902 140.318L85.2544 125.031L84.3415 125.439L91.1773 140.727L92.0902 140.318ZM84.798 124.735H81.3037V125.735H84.798V124.735ZM80.847 125.031L74.033 140.319L74.9464 140.726L81.7604 125.438L80.847 125.031ZM74.4897 141.023H78.1151V140.023H74.4897V141.023ZM78.5772 140.714L79.9312 137.438L79.0071 137.056L77.653 140.332L78.5772 140.714ZM79.4691 137.747H86.567V136.747H79.4691V137.747ZM86.1049 137.438L87.4589 140.714L88.3831 140.332L87.0291 137.056L86.1049 137.438ZM81.0667 134.752L83.4909 128.899L82.567 128.516L80.1429 134.369L81.0667 134.752ZM82.567 128.899L84.9912 134.752L85.9151 134.369L83.4909 128.516L82.567 128.899ZM85.4532 134.06H80.6048V135.06H85.4532V134.06Z" fill="#4788C7"/>
<path d="M63.9 105.06C63.57 105.06 63.2199 105.09 62.8699 105.12C61.9699 105.21 61.0599 105.31 60.1599 105.42C57.6599 105.7 55.0699 105.99 52.5499 106.09C51.0299 106.15 49.5299 106.18 48.0799 106.18C38.6999 106.18 30.4499 104.93 22.8599 102.36C19.6399 101.27 15.52 99.64 12.21 96.69C10.34 95.03 9.56992 93.72 9.54992 92.17C9.50992 88.97 9.51996 85.76 9.52996 82.56C13.19 85.04 17.51 86.96 22.96 88.55C30.75 90.82 39.0899 91.93 48.4899 91.93H49.03C51.56 91.92 54.0299 91.76 55.9099 91.63C58.2199 91.47 59.8999 89.59 59.8199 87.26C59.7399 84.92 57.9599 83.19 55.5699 83.14H55.0799C54.3099 83.14 53.5299 83.17 52.7599 83.21C51.1699 83.28 49.5899 83.32 48.0499 83.32C38.9699 83.32 30.7899 82.09 23.0399 79.55C18.3299 78.01 14.8799 76.18 12.1899 73.81C10.3399 72.18 9.53996 70.8 9.52996 69.19C9.49996 66.02 9.50994 62.84 9.50994 59.67C9.67994 59.78 9.83994 59.9 10.0099 60.01C14.3199 62.8 19.3999 64.86 26.0099 66.5C31.8199 67.94 38.01 68.76 44.96 69.01C46.19 69.05 47.4099 69.08 48.6299 69.08C54.9499 69.08 61.3599 68.48 67.6799 67.3C68.9699 67.06 70.0499 66.36 70.7299 65.33C71.3599 64.37 71.5599 63.22 71.2999 62.1C70.8299 60.07 69.1199 58.76 66.9499 58.76C66.6599 58.76 66.3699 58.78 66.0699 58.83L64.27 59.11C62.2099 59.43 60.0899 59.77 58.0099 59.99C55.0399 60.3 51.9599 60.45 48.8599 60.45C46.7499 60.45 44.58 60.38 42.4 60.24C33.82 59.68 26.5499 58.17 20.1799 55.61C16.7999 54.26 14.2999 52.8 12.2999 51.03C10.6799 49.59 9.58994 48.28 9.56994 46.54C9.51994 43.31 9.52991 40.01 9.53991 36.83C11.5099 38.17 13.7499 39.35 16.3799 40.46C23.0699 43.27 30.6299 45.02 39.5099 45.78C42.7099 46.06 45.8999 46.2 48.9899 46.2C55.7899 46.2 62.4799 45.52 68.8699 44.18C76.4699 42.59 82.34 40.34 87.3299 37.12C87.49 37.02 87.6499 36.91 87.8099 36.8C87.8099 37.01 87.8099 37.23 87.8099 37.44C87.7999 40.19 87.79 43.03 87.84 45.83C87.86 47.32 87.4299 48.54 86.5099 49.55C85.9299 50.19 85.2499 50.79 84.5399 51.42C84.1899 51.72 83.8499 52.03 83.5099 52.34C81.6699 54.04 81.4099 56.59 82.8899 58.42C83.6899 59.41 84.8699 59.97 86.1299 59.97C87.1399 59.97 88.1299 59.62 89.0099 58.96C89.0299 58.94 89.06 58.92 89.0799 58.91C89.0999 58.93 89.12 58.96 89.15 58.98C89.94 59.83 90.9799 60.3 92.0999 60.3C92.7099 60.3 93.31 60.16 93.9 59.9C95.08 59.36 96.4899 58.15 96.4899 55.42V23.79C96.4899 20.97 95.5399 18.27 93.6799 15.76C91.5599 12.91 88.69 10.58 84.65 8.44998C78.54 5.22998 71.5599 3.14999 62.6699 1.92999C58.2199 1.31999 53.6 1 48.96 1C46.73 1 44.4499 1.06999 42.1699 1.20999C35.7399 1.60999 30.0199 2.49 24.6799 3.91C17.3199 5.86 12.0899 8.25999 7.7199 11.68C3.0799 15.31 0.839926 19.75 0.869926 25.24C1.01993 48.04 0.959956 71.28 0.899956 91.27C0.889956 95.51 2.43995 99.12 5.63995 102.31C8.33995 104.99 11.7099 107.14 16.2499 109.06C22.8199 111.84 30.31 113.58 39.15 114.4C40.08 114.49 41.0199 114.58 41.9499 114.68L43.3599 114.83H53.6399L55.1599 114.69C56.2199 114.59 57.28 114.49 58.34 114.38C60.15 114.18 62.26 113.94 64.34 113.66C66.3 113.39 67.6999 112.22 68.1999 110.45C68.6299 108.91 68.1799 107.37 66.9799 106.23C66.1499 105.44 65.15 105.06 63.9 105.06ZM12.1299 19.2C15.3899 16.24 19.3799 14.64 22.8499 13.46C30.4399 10.88 38.9099 9.62997 48.7199 9.62997H49.71C57.67 9.69997 64.6999 10.61 71.1999 12.43C75.9199 13.75 80.8499 15.45 84.8899 18.93C85.8699 19.77 86.7299 20.8 87.3199 21.83C88.2299 23.41 87.8899 25.11 86.3099 26.88C84.7099 28.69 82.5699 30.2 79.5699 31.64C74.3699 34.14 68.6699 35.76 62.1599 36.58C59.0499 36.97 55.8499 37.22 52.7499 37.45C51.3699 37.55 49.9899 37.66 48.6099 37.78C38.3399 37.48 30.15 36.19 22.84 33.71C19.62 32.61 15.4999 30.98 12.1899 28.03C10.5399 26.56 9.79993 25.43 9.61993 24.1C9.37993 22.42 10.0899 21.04 12.1299 19.2Z" fill="#98CCFD" stroke="#4788C7" stroke-miterlimit="10"/>
<path d="M120.54 86.22C120.42 85.63 120.3 85.04 120.16 84.45C117.29 71.77 106.33 62.91 93.5099 62.91C91.8499 62.91 90.1599 63.06 88.4999 63.36C81.4399 64.62 75.0299 68.9 70.9099 75.1C66.8499 81.21 65.4099 88.64 66.9499 95.48C69.3899 106.29 76.0999 113.33 86.8999 116.39C87.7299 116.63 88.5499 116.8 89.3499 116.96C89.6999 117.03 90.0499 117.11 90.3999 117.19L90.6199 117.24H96.4299L96.6499 117.19C97.0199 117.11 97.3999 117.03 97.7699 116.95C98.6199 116.77 99.4899 116.59 100.38 116.34C110.83 113.36 117.49 106.41 120.18 95.69C120.33 95.09 120.45 94.48 120.56 93.86L120.74 92.91V87.14L120.54 86.22ZM93.5599 69.53L93.6299 71.53C103.82 71.57 112.12 79.89 112.11 90.07C112.11 100.3 103.81 108.62 93.5399 108.62C83.2899 108.58 74.9799 100.24 75.0099 90.02C75.0399 79.82 83.3599 71.52 93.5499 71.52L93.5599 69.53Z" fill="#98CCFD" stroke="#4788C7" stroke-miterlimit="10"/>
<path d="M91.1199 79.25C84.6399 80.55 80.5 87.13 82.09 93.56C84.15 101.85 93.9599 105.29 100.72 100.08C103.22 98.15 104.71 95.6 105.16 92.47C105.27 91.73 104.74 91.08 103.98 90.94C103.29 90.82 102.59 91.31 102.43 92.02C102.39 92.2 102.37 92.38 102.34 92.56C101.32 97.35 96.8799 100.4 92.0499 99.62C87.0299 98.82 83.6499 93.89 84.7199 88.93C85.8099 83.85 90.7999 80.77 95.8199 82.08C96.5499 82.27 97.2399 82.55 97.9499 82.98C97.3399 83.08 96.7999 83.17 96.2599 83.26C95.4599 83.39 94.9199 84.1 95.0399 84.86C95.1599 85.62 95.89 86.15 96.65 86.02C98.22 85.75 99.7999 85.48 101.37 85.2C102.3 85.04 102.76 84.37 102.6 83.45C102.34 81.94 102.08 80.43 101.82 78.92C101.75 78.54 101.63 78.19 101.32 77.93C100.86 77.55 100.23 77.49 99.7199 77.79C99.1899 78.1 98.9499 78.67 99.0699 79.36C99.1299 79.71 99.1899 80.06 99.2699 80.47C99.1399 80.41 99.0599 80.37 98.9899 80.33C96.4899 79.05 93.8699 78.69 91.1199 79.25Z" fill="#98CCFD" stroke="#4788C7" stroke-miterlimit="10"/>
</svg>
