<svg width="112" height="145" viewBox="0 0 112 145" fill="none" xmlns="http://www.w3.org/2000/svg">
<path d="M15.5993 138.822C18.2638 138.822 20.4697 137.861 21.9111 136.092L19.6397 133.995C18.6133 135.197 17.3247 135.808 15.7959 135.808C12.9349 135.808 10.9037 133.799 10.9037 130.916C10.9037 128.033 12.9349 126.024 15.7959 126.024C17.3247 126.024 18.6133 126.635 19.6397 127.815L21.9111 125.718C20.4697 123.971 18.2638 123.01 15.6212 123.01C10.8601 123.01 7.32197 126.308 7.32197 130.916C7.32197 135.524 10.8601 138.822 15.5993 138.822ZM35.4241 138.56H39.1369L32.301 123.272H28.8066L21.9925 138.56H25.6179L26.972 135.284H34.07L35.4241 138.56ZM28.1077 132.598L30.5319 126.745L32.9562 132.598H28.1077ZM54.2638 138.56L50.8349 133.646C52.8224 132.794 53.9799 131.113 53.9799 128.819C53.9799 125.391 51.4246 123.272 47.3405 123.272H40.723V138.56H44.2611V134.301H47.3405H47.5153L50.4637 138.56H54.2638ZM50.3981 128.819C50.3981 130.479 49.3061 131.484 47.144 131.484H44.2611V126.155H47.144C49.3061 126.155 50.3981 127.138 50.3981 128.819ZM60.2993 135.721V132.183H67.3973V129.431H60.2993V126.111H68.3365V123.272H56.7831V138.56H68.6204V135.721H60.2993ZM82.8578 138.56H86.5706L79.7347 123.272H76.2403L69.4262 138.56H73.0517L74.4058 135.284H81.5038L82.8578 138.56ZM75.5414 132.598L77.9657 126.745L80.3899 132.598H75.5414Z" fill="#9DC9EC"/>
<path d="M21.9111 136.092L22.1049 136.25L22.2534 136.068L22.0807 135.908L21.9111 136.092ZM19.6397 133.995L19.8093 133.812L19.6184 133.636L19.4497 133.833L19.6397 133.995ZM19.6397 127.815L19.4512 127.979L19.6202 128.173L19.8093 127.998L19.6397 127.815ZM21.9111 125.718L22.0807 125.902L22.2544 125.741L22.1039 125.559L21.9111 125.718ZM15.5993 139.072C18.3257 139.072 20.6082 138.087 22.1049 136.25L21.7173 135.934C20.3311 137.635 18.2019 138.572 15.5993 138.572V139.072ZM22.0807 135.908L19.8093 133.812L19.4702 134.179L21.7415 136.276L22.0807 135.908ZM19.4497 133.833C18.4684 134.981 17.2482 135.558 15.7959 135.558V136.058C17.4012 136.058 18.7581 135.412 19.8298 134.158L19.4497 133.833ZM15.7959 135.558C14.4254 135.558 13.2678 135.078 12.4534 134.266C11.6392 133.454 11.1537 132.297 11.1537 130.916H10.6537C10.6537 132.418 11.1838 133.707 12.1004 134.62C13.0169 135.534 14.3054 136.058 15.7959 136.058V135.558ZM11.1537 130.916C11.1537 129.535 11.6392 128.378 12.4534 127.566C13.2678 126.754 14.4254 126.274 15.7959 126.274V125.774C14.3054 125.774 13.0169 126.298 12.1004 127.212C11.1838 128.126 10.6537 129.414 10.6537 130.916H11.1537ZM15.7959 126.274C17.2486 126.274 18.4696 126.851 19.4512 127.979L19.8283 127.651C18.7569 126.42 17.4008 125.774 15.7959 125.774V126.274ZM19.8093 127.998L22.0807 125.902L21.7415 125.534L19.4702 127.631L19.8093 127.998ZM22.1039 125.559C20.6076 123.745 18.3259 122.76 15.6212 122.76V123.26C18.2017 123.26 20.3317 124.197 21.7183 125.877L22.1039 125.559ZM15.6212 122.76C10.7351 122.76 7.07197 126.157 7.07197 130.916H7.57197C7.57197 126.459 10.985 123.26 15.6212 123.26V122.76ZM7.07197 130.916C7.07197 135.675 10.7347 139.072 15.5993 139.072V138.572C10.9854 138.572 7.57197 135.374 7.57197 130.916H7.07197ZM35.4241 138.56L35.193 138.656L35.2569 138.81H35.4241V138.56ZM39.1369 138.56V138.81H39.5225L39.3651 138.458L39.1369 138.56ZM32.301 123.272L32.5292 123.17L32.463 123.022H32.301V123.272ZM28.8066 123.272V123.022H28.6443L28.5782 123.17L28.8066 123.272ZM21.9925 138.56L21.7641 138.458L21.6073 138.81H21.9925V138.56ZM25.6179 138.56V138.81H25.7851L25.849 138.656L25.6179 138.56ZM26.972 135.284V135.034H26.8048L26.741 135.189L26.972 135.284ZM34.07 135.284L34.301 135.189L34.2372 135.034H34.07V135.284ZM28.1077 132.598L27.8767 132.502L27.7335 132.848H28.1077V132.598ZM30.5319 126.745L30.7629 126.649L30.5319 126.091L30.301 126.649L30.5319 126.745ZM32.9562 132.598V132.848H33.3303L33.1871 132.502L32.9562 132.598ZM35.4241 138.81H39.1369V138.31H35.4241V138.81ZM39.3651 138.458L32.5292 123.17L32.0727 123.374L38.9087 138.662L39.3651 138.458ZM32.301 123.022H28.8066V123.522H32.301V123.022ZM28.5782 123.17L21.7641 138.458L22.2208 138.662L29.0349 123.374L28.5782 123.17ZM21.9925 138.81H25.6179V138.31H21.9925V138.81ZM25.849 138.656L27.203 135.38L26.741 135.189L25.3869 138.465L25.849 138.656ZM26.972 135.534H34.07V135.034H26.972V135.534ZM33.839 135.38L35.193 138.656L35.6551 138.465L34.301 135.189L33.839 135.38ZM28.3387 132.693L30.7629 126.84L30.301 126.649L27.8767 132.502L28.3387 132.693ZM30.301 126.84L32.7252 132.693L33.1871 132.502L30.7629 126.649L30.301 126.84ZM32.9562 132.348H28.1077V132.848H32.9562V132.348ZM54.2638 138.56V138.81H54.7431L54.4688 138.417L54.2638 138.56ZM50.8349 133.646L50.7365 133.416L50.4542 133.537L50.6299 133.789L50.8349 133.646ZM40.723 123.272V123.022H40.473V123.272H40.723ZM40.723 138.56H40.473V138.81H40.723V138.56ZM44.2611 138.56V138.81H44.5111V138.56H44.2611ZM44.2611 134.301V134.051H44.0111V134.301H44.2611ZM47.5153 134.301L47.7208 134.159L47.6462 134.051H47.5153V134.301ZM50.4637 138.56L50.2581 138.702L50.3327 138.81H50.4637V138.56ZM44.2611 131.484H44.0111V131.734H44.2611V131.484ZM44.2611 126.155V125.905H44.0111V126.155H44.2611ZM54.4688 138.417L51.04 133.503L50.6299 133.789L54.0588 138.703L54.4688 138.417ZM50.9334 133.876C53.0123 132.985 54.2299 131.213 54.2299 128.819H53.7299C53.7299 131.012 52.6324 132.604 50.7365 133.416L50.9334 133.876ZM54.2299 128.819C54.2299 127.038 53.5633 125.578 52.3518 124.568C51.1456 123.562 49.4233 123.022 47.3405 123.022V123.522C49.3418 123.522 50.9392 124.041 52.0317 124.952C53.1188 125.858 53.7299 127.172 53.7299 128.819H54.2299ZM47.3405 123.022H40.723V123.522H47.3405V123.022ZM40.473 123.272V138.56H40.973V123.272H40.473ZM40.723 138.81H44.2611V138.31H40.723V138.81ZM44.5111 138.56V134.301H44.0111V138.56H44.5111ZM44.2611 134.551H47.3405V134.051H44.2611V134.551ZM47.3405 134.551H47.5153V134.051H47.3405V134.551ZM47.3097 134.444L50.2581 138.702L50.6692 138.418L47.7208 134.159L47.3097 134.444ZM50.4637 138.81H54.2638V138.31H50.4637V138.81ZM50.1481 128.819C50.1481 129.591 49.8966 130.181 49.4206 130.583C48.9381 130.99 48.1904 131.234 47.144 131.234V131.734C48.2597 131.734 49.1391 131.475 49.7431 130.965C50.3537 130.45 50.6481 129.707 50.6481 128.819H50.1481ZM47.144 131.234H44.2611V131.734H47.144V131.234ZM44.5111 131.484V126.155H44.0111V131.484H44.5111ZM44.2611 126.405H47.144V125.905H44.2611V126.405ZM47.144 126.405C48.1916 126.405 48.9391 126.644 49.4212 127.048C49.8961 127.447 50.1481 128.036 50.1481 128.819H50.6481C50.6481 127.921 50.3541 127.178 49.7426 126.665C49.1381 126.158 48.2585 125.905 47.144 125.905V126.405ZM60.2993 135.721H60.0493V135.971H60.2993V135.721ZM60.2993 132.183V131.933H60.0493V132.183H60.2993ZM67.3973 132.183V132.433H67.6473V132.183H67.3973ZM67.3973 129.431H67.6473V129.181H67.3973V129.431ZM60.2993 129.431H60.0493V129.681H60.2993V129.431ZM60.2993 126.111V125.861H60.0493V126.111H60.2993ZM68.3365 126.111V126.361H68.5865V126.111H68.3365ZM68.3365 123.272H68.5865V123.022H68.3365V123.272ZM56.7831 123.272V123.022H56.5331V123.272H56.7831ZM56.7831 138.56H56.5331V138.81H56.7831V138.56ZM68.6204 138.56V138.81H68.8704V138.56H68.6204ZM68.6204 135.721H68.8704V135.471H68.6204V135.721ZM60.5493 135.721V132.183H60.0493V135.721H60.5493ZM60.2993 132.433H67.3973V131.933H60.2993V132.433ZM67.6473 132.183V129.431H67.1473V132.183H67.6473ZM67.3973 129.181H60.2993V129.681H67.3973V129.181ZM60.5493 129.431V126.111H60.0493V129.431H60.5493ZM60.2993 126.361H68.3365V125.861H60.2993V126.361ZM68.5865 126.111V123.272H68.0865V126.111H68.5865ZM68.3365 123.022H56.7831V123.522H68.3365V123.022ZM56.5331 123.272V138.56H57.0331V123.272H56.5331ZM56.7831 138.81H68.6204V138.31H56.7831V138.81ZM68.8704 138.56V135.721H68.3704V138.56H68.8704ZM68.6204 135.471H60.2993V135.971H68.6204V135.471ZM82.8578 138.56L82.6268 138.656L82.6907 138.81H82.8578V138.56ZM86.5706 138.56V138.81H86.9563L86.7989 138.458L86.5706 138.56ZM79.7347 123.272L79.9629 123.17L79.8968 123.022H79.7347V123.272ZM76.2403 123.272V123.022H76.078L76.012 123.17L76.2403 123.272ZM69.4262 138.56L69.1979 138.458L69.0411 138.81H69.4262V138.56ZM73.0517 138.56V138.81H73.2189L73.2827 138.656L73.0517 138.56ZM74.4058 135.284V135.034H74.2386L74.1747 135.189L74.4058 135.284ZM81.5038 135.284L81.7348 135.189L81.6709 135.034H81.5038V135.284ZM75.5414 132.598L75.3105 132.502L75.1673 132.848H75.5414V132.598ZM77.9657 126.745L78.1966 126.649L77.9657 126.091L77.7347 126.649L77.9657 126.745ZM80.3899 132.598V132.848H80.7641L80.6209 132.502L80.3899 132.598ZM82.8578 138.81H86.5706V138.31H82.8578V138.81ZM86.7989 138.458L79.9629 123.17L79.5065 123.374L86.3424 138.662L86.7989 138.458ZM79.7347 123.022H76.2403V123.522H79.7347V123.022ZM76.012 123.17L69.1979 138.458L69.6546 138.662L76.4687 123.374L76.012 123.17ZM69.4262 138.81H73.0517V138.31H69.4262V138.81ZM73.2827 138.656L74.6368 135.38L74.1747 135.189L72.8206 138.465L73.2827 138.656ZM74.4058 135.534H81.5038V135.034H74.4058V135.534ZM81.2727 135.38L82.6268 138.656L83.0889 138.465L81.7348 135.189L81.2727 135.38ZM75.7724 132.693L78.1966 126.84L77.7347 126.649L75.3105 132.502L75.7724 132.693ZM77.7347 126.84L80.1589 132.693L80.6209 132.502L78.1966 126.649L77.7347 126.84ZM80.3899 132.348H75.5414V132.848H80.3899V132.348Z" fill="#1C75BC"/>
<path d="M41.6003 110.08C40.2203 109.94 38.8503 109.79 37.4703 109.66C29.8003 108.95 22.3003 107.49 15.1603 104.47C11.4903 102.92 8.04029 100.99 5.18029 98.15C2.52029 95.51 1.0203 92.44 1.0303 88.53C1.1003 66.51 1.1503 44.49 1.0003 22.48C0.970299 17.26 3.20029 13.54 7.08029 10.51C11.8903 6.74002 17.4903 4.64002 23.3203 3.10002C28.9203 1.61002 34.6403 0.820019 40.4203 0.460019C47.1503 0.0400185 53.8503 0.240018 60.5203 1.16002C67.9403 2.18002 75.1603 3.94002 81.8403 7.47002C85.0603 9.17002 87.9903 11.24 90.2003 14.2C91.7103 16.23 92.6103 18.48 92.6103 21.04C92.6103 31.58 92.6103 42.13 92.6103 52.67C92.6103 53.81 92.3203 54.81 91.1903 55.33C90.2903 55.74 89.3803 55.58 88.7303 54.88C88.2903 54.41 88.0903 53.73 87.7703 53.11C87.1903 53.59 86.5703 54.13 85.9203 54.62C84.7503 55.5 83.3703 55.41 82.5603 54.42C81.7503 53.42 81.9303 52.05 82.9903 51.07C84.0403 50.1 85.1703 49.21 86.1203 48.16C87.4103 46.74 88.0003 45.03 87.9703 43.06C87.9103 39.13 87.9503 35.2 87.9503 31.26V30.11C86.6703 31.04 85.5603 31.92 84.3803 32.69C78.9303 36.21 72.8703 38.16 66.5903 39.48C57.0803 41.47 47.4803 41.88 37.8103 41.05C30.0603 40.38 22.4903 38.91 15.2803 35.88C12.0103 34.5 8.9203 32.81 6.2203 30.46C6.1003 30.35 5.94029 30.28 5.80029 30.19C5.73029 30.31 5.67028 30.37 5.67028 30.42C5.67028 34.89 5.6303 39.35 5.6903 43.82C5.7303 46.39 7.30029 48.18 9.09029 49.77C11.5803 51.98 14.5003 53.49 17.5503 54.71C24.8803 57.65 32.5403 58.97 40.3903 59.48C45.7203 59.83 51.0303 59.77 56.3403 59.22C59.0703 58.94 61.7803 58.47 64.4903 58.05C65.9903 57.82 67.1703 58.48 67.4703 59.79C67.7603 61.06 66.9203 62.29 65.4303 62.57C58.0703 63.95 50.6403 64.52 43.1503 64.25C36.8903 64.02 30.7003 63.31 24.6103 61.79C19.1803 60.44 13.9403 58.62 9.2203 55.56C8.0303 54.79 6.92028 53.9 5.73028 53.03C5.69028 53.2 5.6303 53.33 5.6303 53.46C5.6303 57.78 5.60028 62.11 5.64028 66.43C5.66028 69.03 7.14028 70.91 8.98028 72.53C12.3403 75.49 16.3403 77.3 20.5303 78.67C30.4203 81.91 40.6003 82.9 50.9603 82.43C51.8503 82.39 52.7503 82.35 53.6403 82.37C54.9803 82.4 55.8903 83.29 55.9303 84.56C55.9703 85.76 55.1503 86.78 53.8703 86.87C51.6303 87.03 49.3703 87.15 47.1203 87.16C38.4803 87.2 29.9503 86.29 21.6203 83.86C16.5603 82.38 11.7203 80.4 7.46029 77.21C7.17029 77 6.90029 76.76 6.62029 76.54C6.35029 76.33 6.07028 76.11 5.76028 75.87C5.69028 76.04 5.6303 76.13 5.6303 76.22C5.6303 80.62 5.60029 85.01 5.65029 89.41C5.68029 91.98 7.18028 93.8 8.98028 95.4C12.2703 98.33 16.2103 100.08 20.3203 101.47C30.1903 104.82 40.4003 105.72 50.7403 105.31C54.2303 105.17 57.7003 104.69 61.1803 104.33C62.1003 104.23 62.9703 104.19 63.6903 104.88C64.3303 105.49 64.6003 106.24 64.3603 107.12C64.0503 108.23 63.2203 108.74 62.1603 108.88C60.1803 109.15 58.1903 109.37 56.2103 109.59C54.6903 109.76 53.1603 109.89 51.6403 110.03H41.5603L41.6003 110.08ZM46.8103 37.06C51.3903 36.67 56.0003 36.42 60.5603 35.84C66.8103 35.05 72.8803 33.46 78.5903 30.72C81.3403 29.4 83.9103 27.8 85.9603 25.48C88.0403 23.13 88.5903 20.52 87.2103 18.1C86.4803 16.83 85.4603 15.64 84.3503 14.68C80.1703 11.09 75.1103 9.23002 69.8903 7.77002C62.7003 5.76002 55.3303 4.96002 47.8803 4.90002C38.5103 4.82002 29.2803 5.80002 20.3603 8.83002C16.2203 10.24 12.2303 12 8.9403 14.98C6.9903 16.75 5.39028 18.76 5.79028 21.65C6.09028 23.83 7.45028 25.41 9.01028 26.8C12.3003 29.73 16.2403 31.48 20.3503 32.88C28.9203 35.8 37.7903 36.81 46.8203 37.06H46.8103Z" fill="#9DC9EC" stroke="#1C75BC" stroke-width="0.5" stroke-miterlimit="10"/>
<path d="M82.9904 110.08C81.8604 109.83 80.7103 109.63 79.5903 109.31C69.6003 106.47 63.3303 99.98 61.0503 89.88C58.0303 76.49 67.4504 62.58 80.9904 60.17C94.6104 57.74 107.28 66.18 110.35 79.73C110.54 80.55 110.7 81.38 110.87 82.2V87.56C110.7 88.39 110.57 89.22 110.37 90.04C107.89 99.94 101.84 106.44 91.9603 109.26C90.7703 109.6 89.5503 109.81 88.3503 110.08H82.9904ZM85.6804 105.47C97.0004 105.51 106.25 96.27 106.26 84.92C106.26 73.61 97.1003 64.42 85.7903 64.38C74.4303 64.34 65.2003 73.51 65.1703 84.87C65.1403 96.23 74.3104 105.43 85.6904 105.48L85.6804 105.47Z" fill="#9DC9EC" stroke="#1C75BC" stroke-width="0.5" stroke-miterlimit="10"/>
<path d="M91.6004 76.31C91.5304 75.9 91.4604 75.55 91.4004 75.2C91.2804 74.52 91.5204 73.95 92.0504 73.63C92.5604 73.33 93.2004 73.39 93.6504 73.77C93.9604 74.03 94.0904 74.38 94.1504 74.76C94.4104 76.27 94.6704 77.78 94.9304 79.29C95.0904 80.22 94.6304 80.88 93.7004 81.04C92.1304 81.32 90.5504 81.59 88.9804 81.86C88.2204 81.99 87.4904 81.46 87.3704 80.7C87.2504 79.94 87.7804 79.23 88.5904 79.1C89.1304 79.01 89.6704 78.92 90.2804 78.82C89.5804 78.4 88.8804 78.11 88.1504 77.92C83.1204 76.61 78.1404 79.69 77.0504 84.77C75.9804 89.73 79.3604 94.66 84.3804 95.46C89.2004 96.23 93.6504 93.18 94.6704 88.4C94.7104 88.22 94.7304 88.04 94.7604 87.86C94.9104 87.15 95.6204 86.66 96.3104 86.78C97.0704 86.91 97.6004 87.56 97.4904 88.31C97.0404 91.44 95.5404 93.99 93.0504 95.92C86.3004 101.13 76.4804 97.69 74.4204 89.4C72.8204 82.97 76.9704 76.39 83.4504 75.09C86.2004 74.54 88.8204 74.9 91.3104 76.18C91.3904 76.22 91.4604 76.25 91.5904 76.32L91.6004 76.31Z" fill="#9DC9EC" stroke="#1C75BC" stroke-width="0.5" stroke-miterlimit="10"/>
</svg>
