<svg width="60" height="60" viewBox="0 0 60 60" fill="none" xmlns="http://www.w3.org/2000/svg">
<path d="M17.5 37.5H35V42.5H17.5V37.5ZM17.5 27.5H42.5V32.5H17.5V27.5ZM17.5 17.5H42.5V22.5H17.5V17.5ZM47.5 7.5H37.05C36 4.6 33.25 2.5 30 2.5C26.75 2.5 24 4.6 22.95 7.5H12.5C12.15 7.5 11.825 7.525 11.5 7.6C10.7038 7.76706 9.9601 8.12512 9.33298 8.64337C8.70585 9.16162 8.21408 9.82452 7.9 10.575C7.65 11.15 7.5 11.8 7.5 12.5V47.5C7.5 48.175 7.65 48.85 7.9 49.45C8.15 50.05 8.525 50.575 8.975 51.05C9.65 51.725 10.525 52.225 11.5 52.425C11.825 52.475 12.15 52.5 12.5 52.5H47.5C50.25 52.5 52.5 50.25 52.5 47.5V12.5C52.5 9.75 50.25 7.5 47.5 7.5ZM30 6.875C31.025 6.875 31.875 7.725 31.875 8.75C31.875 9.775 31.025 10.625 30 10.625C28.975 10.625 28.125 9.775 28.125 8.75C28.125 7.725 28.975 6.875 30 6.875ZM47.5 47.5H12.5V12.5H47.5V47.5Z" fill="#98CCFD" stroke="#4788C7" stroke-width="0.5"/>
</svg>
