<svg width="40" height="40" viewBox="0 0 40 40" fill="none" xmlns="http://www.w3.org/2000/svg">
<path d="M2.5 3.5H37.5V36.5H2.5V3.5Z" fill="white"/>
<path d="M37 4V36H3V4H37ZM38 3H2V37H38V3Z" fill="#4788C7"/>
<path d="M3 4H37V9H3V4Z" fill="#98CCFD"/>
<path d="M11.527 15.5C10.875 17.453 10.5 19.658 10.5 22C10.5 24.342 10.875 26.547 11.527 28.5M14.592 24.571C15.076 25.735 15.877 26.5 16.786 26.5C18.901 26.5 20 24.485 20 22C20 19.515 18.809 17.5 16.786 17.5C15.877 17.5 15.076 18.265 14.592 19.429V24.571ZM25.408 24.571C24.924 25.735 24.123 26.5 23.214 26.5C21.099 26.5 20 24.485 20 22C20 19.515 21.191 17.5 23.214 17.5C24.123 17.5 24.924 18.265 25.408 19.429V24.571ZM28.473 28.5C29.125 26.547 29.5 24.342 29.5 22C29.5 19.658 29.125 17.453 28.473 15.5V28.5Z" stroke="#4788C7" stroke-miterlimit="10" stroke-linecap="round"/>
</svg>
