<svg width="183" height="130" viewBox="0 0 183 130" fill="none" xmlns="http://www.w3.org/2000/svg">
<path d="M20 45.379L23.7758 36.9625C27.8375 39.9241 33.8849 42.0095 39.6615 42.0095C46.2655 42.0095 48.9432 39.8031 48.9432 36.8264C48.9432 27.7753 20.9627 34.0008 20.9627 16.0498C20.9627 7.82978 27.5668 1 41.2411 1C47.2885 1 53.4712 2.4507 57.9391 5.27632L54.5093 13.7681C50.0414 11.2145 45.4381 9.97541 41.1658 9.97541C34.5618 9.97541 32.0196 12.4688 32.0196 15.506C32.0196 24.4059 60 18.2709 60 36.0104C60 44.0944 53.3358 51 39.5863 51C31.9593 50.9698 24.2723 48.6882 20 45.379Z" fill="#1C75BC" stroke="#1C75BC" stroke-width="0.5" stroke-miterlimit="10"/>
<path d="M66 28.9777V2H77.2392V28.571C77.2392 37.7293 81.264 41.5102 88.0683 41.5102C94.9334 41.5102 98.8975 37.7293 98.8975 28.571V2H110V28.9777C110 43.152 101.814 51 87.9924 51C74.1712 51 66 43.1671 66 28.9777Z" fill="#1C75BC" stroke="#1C75BC" stroke-width="0.5" stroke-miterlimit="10"/>
<path d="M163 36.9009C163 45.1985 156.414 50 143.813 50H119V2H142.448C154.449 2 160.615 7.01167 160.615 14.484C160.615 19.2855 158.139 22.9917 154.239 25.0474C159.565 26.7579 163 30.869 163 36.9009ZM130.026 10.3727V21.686H141.068C146.483 21.686 149.423 19.7657 149.423 15.9995C149.423 12.2333 146.468 10.3727 141.068 10.3727H130.026ZM151.824 35.7305C151.824 31.6793 148.733 29.7587 142.973 29.7587H130.011V41.6273H142.973C148.733 41.6273 151.824 39.8568 151.824 35.7305Z" fill="#1C75BC" stroke="#1C75BC" stroke-width="0.5" stroke-miterlimit="10"/>
<path d="M5 105V125H178V105" stroke="#1C75BC" stroke-width="9" stroke-miterlimit="10"/>
<path d="M20 105.379L23.7758 96.9625C27.8375 99.9241 33.8849 102.009 39.6615 102.009C46.2655 102.009 48.9432 99.8031 48.9432 96.8264C48.9432 87.7753 20.9627 94.0008 20.9627 76.0498C20.9627 67.8298 27.5668 61 41.2411 61C47.2885 61 53.4712 62.4507 57.9391 65.2763L54.5093 73.7681C50.0414 71.2145 45.4381 69.9754 41.1658 69.9754C34.5618 69.9754 32.0196 72.4688 32.0196 75.506C32.0196 84.4059 60 78.2709 60 96.0104C60 104.094 53.3358 111 39.5863 111C31.9593 110.97 24.2723 108.688 20 105.379Z" fill="#98CCFD" stroke="#1C75BC" stroke-width="0.5" stroke-miterlimit="10"/>
<path d="M83.4317 71.0479H68V62H110V71.0479H94.5683V110H83.4166V71.0479H83.4317Z" fill="#98CCFD" stroke="#1C75BC" stroke-width="0.5" stroke-miterlimit="10"/>
<path d="M149.933 110L140.568 96.631H140.007H130.232V110H119V62H140.022C152.984 62 161.105 68.6469 161.105 79.4202C161.105 86.6225 157.431 91.9043 151.117 94.5751L162 110H149.933ZM139.4 71.0629H130.247V87.793H139.4C146.26 87.793 149.736 84.6419 149.736 79.4353C149.721 74.1386 146.26 71.0629 139.4 71.0629Z" fill="#98CCFD" stroke="#1C75BC" stroke-width="0.5" stroke-miterlimit="10"/>
</svg>
