<svg width="161" height="45" viewBox="0 0 161 45" fill="none" xmlns="http://www.w3.org/2000/svg">
<path d="M10.9018 34.1079C17.8678 34.1079 21.2463 30.6249 21.2463 26.5498C21.2463 17.5985 7.07049 20.6983 7.07049 16.2053C7.07049 14.6728 8.3592 13.4189 11.7029 13.4189C13.8623 13.4189 16.196 14.0458 18.4599 15.3345L20.2014 11.0504C17.9375 9.62241 14.8028 8.89098 11.7377 8.89098C4.80654 8.89098 1.46286 12.3391 1.46286 16.4839C1.46286 25.5397 15.6387 22.405 15.6387 26.9678C15.6387 28.4654 14.2803 29.58 10.9366 29.58C8.0109 29.58 4.94586 28.5351 2.89089 27.0374L0.97524 31.2867C3.1347 32.9585 7.03566 34.1079 10.9018 34.1079ZM35.9339 34.1079C42.8651 34.1079 46.9751 30.1373 46.9751 22.9623V9.30894H41.4023V22.7533C41.4023 27.3857 39.4169 29.3014 35.9688 29.3014C32.5554 29.3014 30.5353 27.3857 30.5353 22.7533V9.30894H24.8928V22.9623C24.8928 30.1373 29.0028 34.1079 35.9339 34.1079ZM70.4535 21.0118C72.4388 19.9669 73.6927 18.0861 73.6927 15.648C73.6927 11.8515 70.558 9.30894 64.4627 9.30894H52.5509V33.6899H65.1593C71.568 33.6899 74.9117 31.2518 74.9117 27.0374C74.9117 23.9724 73.1702 21.8826 70.4535 21.0118ZM63.7661 13.5582C66.5177 13.5582 68.0154 14.4986 68.0154 16.4143C68.0154 18.3299 66.5177 19.3052 63.7661 19.3052H58.1585V13.5582H63.7661ZM64.7414 29.4407H58.1585V23.4151H64.7414C67.6671 23.4151 69.2344 24.3903 69.2344 26.4453C69.2344 28.5351 67.6671 29.4407 64.7414 29.4407Z" fill="#1C75BC"/>
<path d="M97.0584 34.1079C104.024 34.1079 107.403 30.6249 107.403 26.5498C107.403 17.5985 93.2271 20.6983 93.2271 16.2053C93.2271 14.6728 94.5158 13.4189 97.8595 13.4189C100.019 13.4189 102.353 14.0458 104.617 15.3345L106.358 11.0504C104.094 9.62241 100.959 8.89098 97.8943 8.89098C90.9632 8.89098 87.6195 12.3391 87.6195 16.4839C87.6195 25.5397 101.795 22.405 101.795 26.9678C101.795 28.4654 100.437 29.58 97.0933 29.58C94.1675 29.58 91.1025 28.5351 89.0475 27.0374L87.1319 31.2867C89.2913 32.9585 93.1923 34.1079 97.0584 34.1079ZM115.969 33.6899H121.611V13.9065H129.413V9.30894H108.167V13.9065H115.969V33.6899ZM154.044 33.6899L148.575 25.8532C151.745 24.4948 153.591 21.8129 153.591 18.1558C153.591 12.6874 149.516 9.30894 143.002 9.30894H132.449V33.6899H138.091V26.8981H143.002H143.281L147.983 33.6899H154.044ZM147.879 18.1558C147.879 20.8028 146.137 22.405 142.689 22.405H138.091V13.9065H142.689C146.137 13.9065 147.879 15.4739 147.879 18.1558Z" fill="#9DC9EC"/>
<path d="M18.4599 15.3345L18.3362 15.5518L18.5841 15.6929L18.6915 15.4287L18.4599 15.3345ZM20.2014 11.0504L20.433 11.1446L20.5118 10.9507L20.3348 10.839L20.2014 11.0504ZM2.89089 27.0374L3.03814 26.8354L2.78945 26.6541L2.66298 26.9347L2.89089 27.0374ZM0.97524 31.2867L0.74733 31.1839L0.666302 31.3637L0.822197 31.4844L0.97524 31.2867ZM10.9018 34.3579C14.4243 34.3579 17.0713 33.4773 18.843 32.0518C20.6187 30.6231 21.4963 28.6613 21.4963 26.5498H20.9963C20.9963 28.5134 20.1846 30.3306 18.5296 31.6622C16.8705 32.997 14.3452 33.8579 10.9018 33.8579V34.3579ZM21.4963 26.5498C21.4963 24.2324 20.5728 22.6761 19.1853 21.592C17.8127 20.5196 15.9971 19.9175 14.2203 19.4635C12.4188 19.0031 10.6855 18.6993 9.37056 18.2233C8.71839 17.9872 8.20169 17.7188 7.85042 17.3901C7.50765 17.0693 7.32049 16.6903 7.32049 16.2053H6.82049C6.82049 16.8435 7.07633 17.3505 7.50879 17.7552C7.93277 18.1519 8.52355 18.4484 9.20037 18.6934C10.5434 19.1796 12.3541 19.5027 14.0965 19.9479C15.8637 20.3995 17.592 20.9816 18.8774 21.986C20.1478 22.9786 20.9963 24.3915 20.9963 26.5498H21.4963ZM7.32049 16.2053C7.32049 15.5191 7.60394 14.9009 8.27372 14.4439C8.95571 13.9785 10.0565 13.6689 11.7029 13.6689V13.1689C10.0056 13.1689 8.79017 13.4862 7.9919 14.0309C7.1814 14.5839 6.82049 15.359 6.82049 16.2053H7.32049ZM11.7029 13.6689C13.8143 13.6689 16.1057 14.2821 18.3362 15.5518L18.5836 15.1173C16.2862 13.8095 13.9104 13.1689 11.7029 13.1689V13.6689ZM18.6915 15.4287L20.433 11.1446L19.9698 10.9563L18.2283 15.2404L18.6915 15.4287ZM20.3348 10.839C18.0207 9.37935 14.8363 8.64098 11.7377 8.64098V9.14098C14.7692 9.14098 17.8542 9.86547 20.068 11.2619L20.3348 10.839ZM11.7377 8.64098C8.23294 8.64098 5.6028 9.51275 3.84365 10.939C2.08019 12.3687 1.21286 14.3396 1.21286 16.4839H1.71286C1.71286 14.4835 2.51737 12.6579 4.15854 11.3274C5.80403 9.99329 8.31132 9.14098 11.7377 9.14098V8.64098ZM1.21286 16.4839C1.21286 18.8263 2.13539 20.3998 3.52277 21.4969C4.89532 22.5822 6.71116 23.1921 8.48804 23.6527C9.37683 23.8831 10.2709 24.0796 11.0953 24.2764C11.9249 24.4745 12.6878 24.6737 13.3373 24.9128C13.9892 25.1528 14.5059 25.4257 14.8573 25.7599C15.2004 26.0861 15.3887 26.4726 15.3887 26.9678H15.8887C15.8887 26.3222 15.634 25.8085 15.2018 25.3975C14.778 24.9945 14.1872 24.6929 13.5101 24.4436C12.8306 24.1935 12.043 23.9886 11.2114 23.7901C10.3746 23.5903 9.49668 23.3977 8.6135 23.1687C6.84642 22.7107 5.11831 22.1211 3.8329 21.1047C2.56231 20.1 1.71286 18.6695 1.71286 16.4839H1.21286ZM15.3887 26.9678C15.3887 27.6266 15.0969 28.2005 14.4106 28.6226C13.7093 29.0538 12.5872 29.33 10.9366 29.33V29.83C12.6297 29.83 13.8586 29.5489 14.6725 29.0485C15.5013 28.5388 15.8887 27.8066 15.8887 26.9678H15.3887ZM10.9366 29.33C8.06291 29.33 5.04961 28.3014 3.03814 26.8354L2.74364 27.2394C4.84211 28.7688 7.95889 29.83 10.9366 29.83V29.33ZM2.66298 26.9347L0.74733 31.1839L1.20315 31.3894L3.1188 27.1402L2.66298 26.9347ZM0.822197 31.4844C3.03831 33.2001 6.99906 34.3579 10.9018 34.3579V33.8579C7.07226 33.8579 3.23109 32.717 1.12828 31.089L0.822197 31.4844ZM46.9751 9.30894H47.2251V9.05894H46.9751V9.30894ZM41.4023 9.30894V9.05894H41.1523V9.30894H41.4023ZM30.5353 9.30894H30.7853V9.05894H30.5353V9.30894ZM24.8928 9.30894V9.05894H24.6428V9.30894H24.8928ZM35.9339 34.3579C39.4466 34.3579 42.2775 33.3509 44.2303 31.4027C46.1832 29.4543 47.2251 26.597 47.2251 22.9623H46.7251C46.7251 26.5025 45.712 29.2181 43.8771 31.0487C42.0421 32.8795 39.3524 33.8579 35.9339 33.8579V34.3579ZM47.2251 22.9623V9.30894H46.7251V22.9623H47.2251ZM46.9751 9.05894H41.4023V9.55894H46.9751V9.05894ZM41.1523 9.30894V22.7533H41.6523V9.30894H41.1523ZM41.1523 22.7533C41.1523 25.0398 40.6614 26.6062 39.7906 27.5997C38.9255 28.5866 37.6469 29.0514 35.9688 29.0514V29.5514C37.7388 29.5514 39.1769 29.0583 40.1666 27.9293C41.1504 26.8069 41.6523 25.0992 41.6523 22.7533H41.1523ZM35.9688 29.0514C34.3087 29.0514 33.0295 28.5869 32.1597 27.5993C31.2844 26.6054 30.7853 25.0388 30.7853 22.7533H30.2853C30.2853 25.1002 30.7963 26.8077 31.7844 27.9297C32.778 29.058 34.2155 29.5514 35.9688 29.5514V29.0514ZM30.7853 22.7533V9.30894H30.2853V22.7533H30.7853ZM30.5353 9.05894H24.8928V9.55894H30.5353V9.05894ZM24.6428 9.30894V22.9623H25.1428V9.30894H24.6428ZM24.6428 22.9623C24.6428 26.597 25.6847 29.4543 27.6376 31.4027C29.5904 33.3509 32.4213 34.3579 35.9339 34.3579V33.8579C32.5155 33.8579 29.8258 32.8795 27.9908 31.0487C26.1559 29.2181 25.1428 26.5025 25.1428 22.9623H24.6428ZM70.4535 21.0118L70.337 20.7906L69.8098 21.0681L70.3772 21.2499L70.4535 21.0118ZM52.5509 9.30894V9.05894H52.3009V9.30894H52.5509ZM52.5509 33.6899H52.3009V33.9399H52.5509V33.6899ZM58.1585 19.3052H57.9085V19.5552H58.1585V19.3052ZM58.1585 13.5582V13.3082H57.9085V13.5582H58.1585ZM58.1585 29.4407H57.9085V29.6907H58.1585V29.4407ZM58.1585 23.4151V23.1651H57.9085V23.4151H58.1585ZM70.5699 21.233C72.6332 20.1471 73.9427 18.1835 73.9427 15.648H73.4427C73.4427 17.9887 72.2444 19.7867 70.337 20.7906L70.5699 21.233ZM73.9427 15.648C73.9427 13.672 73.1224 12.0105 71.5093 10.8517C69.9061 9.70017 67.5404 9.05894 64.4627 9.05894V9.55894C67.4803 9.55894 69.7296 10.189 71.2176 11.2578C72.6956 12.3195 73.4427 13.8276 73.4427 15.648H73.9427ZM64.4627 9.05894H52.5509V9.55894H64.4627V9.05894ZM52.3009 9.30894V33.6899H52.8009V9.30894H52.3009ZM52.5509 33.9399H65.1593V33.4399H52.5509V33.9399ZM65.1593 33.9399C68.3893 33.9399 70.8856 33.3265 72.5813 32.1495C74.2904 30.9631 75.1617 29.2207 75.1617 27.0374H74.6617C74.6617 29.0686 73.8612 30.6524 72.2962 31.7387C70.7179 32.8343 68.338 33.4399 65.1593 33.4399V33.9399ZM75.1617 27.0374C75.1617 25.4556 74.7115 24.1122 73.9 23.05C73.0894 21.9889 71.9289 21.2222 70.5298 20.7738L70.3772 21.2499C71.6948 21.6722 72.7634 22.3858 73.5027 23.3535C74.2412 24.3201 74.6617 25.5542 74.6617 27.0374H75.1617ZM63.7661 13.8082C65.1208 13.8082 66.1256 14.041 66.7848 14.4765C67.427 14.9007 67.7654 15.5329 67.7654 16.4143H68.2654C68.2654 15.38 67.8549 14.5841 67.0604 14.0593C66.2828 13.5456 65.163 13.3082 63.7661 13.3082V13.8082ZM67.7654 16.4143C67.7654 17.2962 67.4265 17.9378 66.783 18.3706C66.1238 18.8141 65.1193 19.0552 63.7661 19.0552V19.5552C65.1645 19.5552 66.2846 19.3085 67.0621 18.7855C67.8554 18.2518 68.2654 17.448 68.2654 16.4143H67.7654ZM63.7661 19.0552H58.1585V19.5552H63.7661V19.0552ZM58.4085 19.3052V13.5582H57.9085V19.3052H58.4085ZM58.1585 13.8082H63.7661V13.3082H58.1585V13.8082ZM64.7414 29.1907H58.1585V29.6907H64.7414V29.1907ZM58.4085 29.4407V23.4151H57.9085V29.4407H58.4085ZM58.1585 23.6651H64.7414V23.1651H58.1585V23.6651ZM64.7414 23.6651C66.1842 23.6651 67.2494 23.907 67.9472 24.3681C68.6271 24.8175 68.9844 25.4922 68.9844 26.4453H69.4844C69.4844 25.3434 69.0581 24.503 68.2229 23.951C67.4055 23.4108 66.2242 23.1651 64.7414 23.1651V23.6651ZM68.9844 26.4453C68.9844 27.4165 68.6268 28.0806 67.9497 28.5164C67.2524 28.9653 66.1871 29.1907 64.7414 29.1907V29.6907C66.2213 29.6907 67.4026 29.4632 68.2203 28.9369C69.0584 28.3975 69.4844 27.5639 69.4844 26.4453H68.9844ZM104.617 15.3345L104.493 15.5518L104.741 15.6929L104.848 15.4287L104.617 15.3345ZM106.358 11.0504L106.59 11.1446L106.668 10.9507L106.491 10.839L106.358 11.0504ZM89.0475 27.0374L89.1948 26.8354L88.9461 26.6541L88.8196 26.9347L89.0475 27.0374ZM87.1319 31.2867L86.904 31.1839L86.8229 31.3637L86.9788 31.4844L87.1319 31.2867ZM97.0584 34.3579C100.581 34.3579 103.228 33.4773 105 32.0518C106.775 30.6231 107.653 28.6613 107.653 26.5498H107.153C107.153 28.5134 106.341 30.3306 104.686 31.6622C103.027 32.997 100.502 33.8579 97.0584 33.8579V34.3579ZM107.653 26.5498C107.653 24.2324 106.729 22.6761 105.342 21.592C103.969 20.5196 102.154 19.9175 100.377 19.4635C98.5754 19.0031 96.8422 18.6993 95.5272 18.2233C94.875 17.9872 94.3583 17.7188 94.0071 17.3901C93.6643 17.0693 93.4771 16.6903 93.4771 16.2053H92.9771C92.9771 16.8435 93.233 17.3505 93.6654 17.7552C94.0894 18.1519 94.6802 18.4484 95.357 18.6934C96.7 19.1796 98.5107 19.5027 100.253 19.9479C102.02 20.3995 103.749 20.9816 105.034 21.986C106.304 22.9786 107.153 24.3915 107.153 26.5498H107.653ZM93.4771 16.2053C93.4771 15.5191 93.7606 14.9009 94.4303 14.4439C95.1123 13.9785 96.2132 13.6689 97.8595 13.6689V13.1689C96.1622 13.1689 94.9468 13.4862 94.1485 14.0309C93.338 14.5839 92.9771 15.359 92.9771 16.2053H93.4771ZM97.8595 13.6689C99.9709 13.6689 102.262 14.2821 104.493 15.5518L104.74 15.1173C102.443 13.8095 100.067 13.1689 97.8595 13.1689V13.6689ZM104.848 15.4287L106.59 11.1446L106.126 10.9563L104.385 15.2404L104.848 15.4287ZM106.491 10.839C104.177 9.37935 100.993 8.64098 97.8943 8.64098V9.14098C100.926 9.14098 104.011 9.86547 106.225 11.2619L106.491 10.839ZM97.8943 8.64098C94.3896 8.64098 91.7594 9.51275 90.0003 10.939C88.2368 12.3687 87.3695 14.3396 87.3695 16.4839H87.8695C87.8695 14.4835 88.674 12.6579 90.3152 11.3274C91.9607 9.99329 94.4679 9.14098 97.8943 9.14098V8.64098ZM87.3695 16.4839C87.3695 18.8263 88.292 20.3998 89.6794 21.4969C91.0519 22.5822 92.8678 23.1921 94.6447 23.6527C95.5335 23.8831 96.4275 24.0796 97.2519 24.2764C98.0816 24.4745 98.8444 24.6737 99.494 24.9128C100.146 25.1528 100.662 25.4257 101.014 25.7599C101.357 26.0861 101.545 26.4726 101.545 26.9678H102.045C102.045 26.3222 101.791 25.8085 101.358 25.3975C100.935 24.9945 100.344 24.6929 99.6667 24.4436C98.9873 24.1935 98.1997 23.9886 97.368 23.7901C96.5312 23.5903 95.6533 23.3977 94.7701 23.1687C93.0031 22.7107 91.2749 22.1211 89.9895 21.1047C88.7189 20.1 87.8695 18.6695 87.8695 16.4839H87.3695ZM101.545 26.9678C101.545 27.6266 101.254 28.2005 100.567 28.6226C99.866 29.0538 98.7439 29.33 97.0933 29.33V29.83C98.7863 29.83 100.015 29.5489 100.829 29.0485C101.658 28.5388 102.045 27.8066 102.045 26.9678H101.545ZM97.0933 29.33C94.2195 29.33 91.2062 28.3014 89.1948 26.8354L88.9003 27.2394C90.9987 28.7688 94.1155 29.83 97.0933 29.83V29.33ZM88.8196 26.9347L86.904 31.1839L87.3598 31.3894L89.2754 27.1402L88.8196 26.9347ZM86.9788 31.4844C89.1949 33.2001 93.1557 34.3579 97.0584 34.3579V33.8579C93.2289 33.8579 89.3877 32.717 87.2849 31.089L86.9788 31.4844ZM115.969 33.6899H115.719V33.9399H115.969V33.6899ZM121.611 33.6899V33.9399H121.861V33.6899H121.611ZM121.611 13.9065V13.6565H121.361V13.9065H121.611ZM129.413 13.9065V14.1565H129.663V13.9065H129.413ZM129.413 9.30894H129.663V9.05894H129.413V9.30894ZM108.167 9.30894V9.05894H107.917V9.30894H108.167ZM108.167 13.9065H107.917V14.1565H108.167V13.9065ZM115.969 13.9065H116.219V13.6565H115.969V13.9065ZM115.969 33.9399H121.611V33.4399H115.969V33.9399ZM121.861 33.6899V13.9065H121.361V33.6899H121.861ZM121.611 14.1565H129.413V13.6565H121.611V14.1565ZM129.663 13.9065V9.30894H129.163V13.9065H129.663ZM129.413 9.05894H108.167V9.55894H129.413V9.05894ZM107.917 9.30894V13.9065H108.417V9.30894H107.917ZM108.167 14.1565H115.969V13.6565H108.167V14.1565ZM115.719 13.9065V33.6899H116.219V13.9065H115.719ZM154.044 33.6899V33.9399H154.523L154.249 33.5469L154.044 33.6899ZM148.575 25.8532L148.477 25.6234L148.194 25.7444L148.37 25.9963L148.575 25.8532ZM132.449 9.30894V9.05894H132.199V9.30894H132.449ZM132.449 33.6899H132.199V33.9399H132.449V33.6899ZM138.091 33.6899V33.9399H138.341V33.6899H138.091ZM138.091 26.8981V26.6481H137.841V26.8981H138.091ZM143.281 26.8981L143.487 26.7558L143.412 26.6481H143.281V26.8981ZM147.983 33.6899L147.778 33.8322L147.852 33.9399H147.983V33.6899ZM138.091 22.405H137.841V22.655H138.091V22.405ZM138.091 13.9065V13.6565H137.841V13.9065H138.091ZM154.249 33.5469L148.78 25.7101L148.37 25.9963L153.839 33.833L154.249 33.5469ZM148.674 26.083C151.935 24.6854 153.841 21.9134 153.841 18.1558H153.341C153.341 21.7124 151.555 24.3042 148.477 25.6234L148.674 26.083ZM153.841 18.1558C153.841 15.3545 152.794 13.0697 150.899 11.4897C149.009 9.91411 146.3 9.05894 143.002 9.05894V9.55894C146.218 9.55894 148.803 10.393 150.579 11.8738C152.35 13.3501 153.341 15.4888 153.341 18.1558H153.841ZM143.002 9.05894H132.449V9.55894H143.002V9.05894ZM132.199 9.30894V33.6899H132.699V9.30894H132.199ZM132.449 33.9399H138.091V33.4399H132.449V33.9399ZM138.341 33.6899V26.8981H137.841V33.6899H138.341ZM138.091 27.1481H143.002V26.6481H138.091V27.1481ZM143.002 27.1481H143.281V26.6481H143.002V27.1481ZM143.076 27.0404L147.778 33.8322L148.189 33.5476L143.487 26.7558L143.076 27.0404ZM147.983 33.9399H154.044V33.4399H147.983V33.9399ZM147.629 18.1558C147.629 19.4214 147.215 20.4074 146.416 21.082C145.61 21.7622 144.378 22.155 142.689 22.155V22.655C144.448 22.655 145.811 22.2468 146.738 21.4641C147.672 20.6759 148.129 19.5372 148.129 18.1558H147.629ZM142.689 22.155H138.091V22.655H142.689V22.155ZM138.341 22.405V13.9065H137.841V22.405H138.341ZM138.091 14.1565H142.689V13.6565H138.091V14.1565ZM142.689 14.1565C144.38 14.1565 145.611 14.5412 146.416 15.2169C147.214 15.8867 147.629 16.872 147.629 18.1558H148.129C148.129 16.7577 147.672 15.6183 146.738 14.8339C145.81 14.0555 144.447 13.6565 142.689 13.6565V14.1565Z" fill="#1C75BC"/>
<path d="M81.4801 33.8701V43.72H159.07V33.8701" stroke="#1C75BC" stroke-width="2" stroke-miterlimit="10"/>
</svg>
