<svg width="60" height="60" viewBox="0 0 60 60" fill="none" xmlns="http://www.w3.org/2000/svg">
<path d="M47.2803 41.1089L47.4571 40.9321L47.2803 40.7554L36.525 30L47.2839 19.2447L47.4607 19.0679L47.2839 18.8911L41.1089 12.7161L40.9321 12.5393L40.7554 12.7161L30 23.4714L19.2482 12.7197L19.0715 12.5429L18.8947 12.7196L12.7197 18.891L12.5428 19.0678L12.7197 19.2446L23.475 29.9999L12.7161 40.7517L12.5392 40.9285L12.7161 41.1054L18.8911 47.2803L19.0678 47.4571L19.2446 47.2804L29.9999 36.5286L40.7518 47.2839L40.9285 47.4607L41.1054 47.2839L47.2803 41.1089ZM8.96358 8.96358C14.5428 3.38437 22.1098 0.25 30 0.25C37.8902 0.25 45.4572 3.38437 51.0364 8.96358C56.6156 14.5428 59.75 22.1098 59.75 30C59.75 37.8902 56.6156 45.4572 51.0364 51.0364C45.4572 56.6156 37.8902 59.75 30 59.75C22.1098 59.75 14.5428 56.6156 8.96358 51.0364C3.38437 45.4572 0.25 37.8902 0.25 30C0.25 22.1098 3.38437 14.5428 8.96358 8.96358Z" fill="#98CCFD" stroke="#4788C7" stroke-width="0.5"/>
</svg>
