<svg width="40" height="40" viewBox="0 0 40 40" fill="none" xmlns="http://www.w3.org/2000/svg">
<path d="M3.5 36.5V14.286L19.998 4.57999L36.5 14.286V36.5H3.5Z" fill="#DFF0FE"/>
<path d="M19.998 5.16L36 14.572V36H4V14.572L19.998 5.16ZM19.998 4L3 14V37H37V14L19.998 4Z" fill="#4788C7"/>
<path d="M19.998 6.645L1.5 17.954V13.896L19.998 2.586L38.5 13.896V17.954L19.998 6.645Z" fill="#B6DCFE"/>
<path d="M19.998 3.172L38 14.176V17.063L20.519 6.378L19.997 6.059L19.475 6.378L2 17.063V14.176L19.998 3.172ZM19.998 2L1 13.615V18.846L19.998 7.231L39 18.846V13.615L19.998 2Z" fill="#4788C7"/>
<path d="M12.5 36.5V27C12.5 22.864 15.864 19.5 20 19.5C24.136 19.5 27.5 22.864 27.5 27V36.5H12.5Z" fill="#98CCFD"/>
<path d="M20 20C23.86 20 27 23.14 27 27V36H13V27C13 23.14 16.14 20 20 20ZM20 19C15.582 19 12 22.582 12 27V37H28V27C28 22.582 24.418 19 20 19Z" fill="#4788C7"/>
</svg>
