<svg width="26" height="30" viewBox="0 0 26 30" fill="none" xmlns="http://www.w3.org/2000/svg">
<path d="M5.33114 18.6433L5.33125 18.6432L11.8594 13.036L5.33114 18.6433ZM5.33114 18.6433C4.81192 19.0895 4.71714 19.7353 4.9671 20.2603C5.21064 20.7717 5.75548 21.1256 6.4201 21.1256H10.3333V25.3131C10.3333 26.1726 11.1123 26.7506 11.9167 26.7506H14.0833C14.8877 26.7506 15.6667 26.1726 15.6667 25.3131V21.1256M5.33114 18.6433L15.6667 21.1256M15.6667 21.1256H19.5799C20.2445 21.1256 20.7894 20.7717 21.0326 20.26C21.2823 19.7348 21.1868 19.0891 20.6674 18.6432C20.6674 18.6431 20.6673 18.6431 20.6673 18.6431L14.1392 13.036L15.6667 21.1256ZM25.1987 6.53026L25.1989 6.53043C25.3577 6.66789 25.4516 6.83346 25.4855 7H17.8333V0.50266C18.1226 0.520417 18.3828 0.626045 18.5702 0.788241L25.1987 6.53026ZM14.6667 0.5V7.96875C14.6667 9.08375 15.6921 9.875 16.7917 9.875H25.5V28.5938C25.5 29.0315 25.0697 29.5 24.375 29.5H1.625C0.930315 29.5 0.5 29.0315 0.5 28.5938V1.40625C0.5 0.968511 0.930315 0.5 1.625 0.5H14.6667ZM14.139 13.0357C13.5013 12.4875 12.4973 12.4875 11.8597 13.0357H14.139Z" fill="#98CCFD" stroke="#4788C7"/>
</svg>
