<svg width="22" height="28" viewBox="0 0 22 28" fill="none" xmlns="http://www.w3.org/2000/svg">
<path d="M5.92308 0.25H11.5962V7.875C11.5962 8.63484 11.888 9.36518 12.4099 9.90495C12.9322 10.445 13.6423 10.75 14.3846 10.75H21.75V21.875C21.75 22.5075 21.5069 23.1126 21.0768 23.5574C20.6469 24.0019 20.0657 24.25 19.4615 24.25H5.92308C5.31889 24.25 4.73769 24.0019 4.30783 23.5574C3.87769 23.1126 3.63462 22.5075 3.63462 21.875V2.625C3.63462 1.99246 3.87769 1.38744 4.30783 0.942634C4.73769 0.498115 5.31889 0.25 5.92308 0.25ZM13.7885 7.875V1.05565L20.9874 8.5H14.3846C14.2293 8.5 14.0785 8.43626 13.966 8.31993C13.8532 8.20331 13.7885 8.04341 13.7885 7.875ZM0.25 5.25C0.25 4.84952 0.403924 4.46706 0.67538 4.18635C0.886359 3.96818 1.15472 3.82537 1.44231 3.77271V21.875C1.44231 23.099 1.91242 24.2744 2.75176 25.1424C3.59137 26.0106 4.73195 26.5 5.92308 26.5H18.3452C18.2953 26.8072 18.1543 27.0921 17.94 27.3136C17.6688 27.5941 17.3028 27.75 16.9231 27.75H6.00431C4.48093 27.75 3.01817 27.1243 1.93834 26.0076C0.858222 24.8907 0.25 23.3741 0.25 21.791V5.25Z" fill="#98CCFD" stroke="#4788C7" stroke-width="0.5"/>
</svg>
