<svg width="18" height="18" viewBox="0 0 18 18" fill="none" xmlns="http://www.w3.org/2000/svg">
<path d="M7.33317 4.00008H10.6665C10.6665 3.55805 10.4909 3.13413 10.1783 2.82157C9.86579 2.50901 9.44186 2.33341 8.99984 2.33341C8.55781 2.33341 8.13389 2.50901 7.82133 2.82157C7.50877 3.13413 7.33317 3.55805 7.33317 4.00008ZM5.6665 4.00008C5.6665 3.11603 6.01769 2.26818 6.64281 1.64306C7.26794 1.01794 8.11578 0.666748 8.99984 0.666748C9.88389 0.666748 10.7317 1.01794 11.3569 1.64306C11.982 2.26818 12.3332 3.11603 12.3332 4.00008H16.4998C16.7208 4.00008 16.9328 4.08788 17.0891 4.24416C17.2454 4.40044 17.3332 4.6124 17.3332 4.83341C17.3332 5.05443 17.2454 5.26639 17.0891 5.42267C16.9328 5.57895 16.7208 5.66675 16.4998 5.66675H15.7648L15.0265 14.2834C14.9555 15.1155 14.5748 15.8906 13.9597 16.4554C13.3446 17.0202 12.5399 17.3335 11.7048 17.3334H6.29484C5.45976 17.3335 4.65507 17.0202 4.03996 16.4554C3.42486 15.8906 3.04415 15.1155 2.97317 14.2834L2.23484 5.66675H1.49984C1.27882 5.66675 1.06686 5.57895 0.910582 5.42267C0.754301 5.26639 0.666504 5.05443 0.666504 4.83341C0.666504 4.6124 0.754301 4.40044 0.910582 4.24416C1.06686 4.08788 1.27882 4.00008 1.49984 4.00008H5.6665ZM11.4998 9.00008C11.4998 8.77907 11.412 8.56711 11.2558 8.41083C11.0995 8.25455 10.8875 8.16675 10.6665 8.16675C10.4455 8.16675 10.2335 8.25455 10.0772 8.41083C9.92097 8.56711 9.83317 8.77907 9.83317 9.00008V12.3334C9.83317 12.5544 9.92097 12.7664 10.0772 12.9227C10.2335 13.079 10.4455 13.1667 10.6665 13.1667C10.8875 13.1667 11.0995 13.079 11.2558 12.9227C11.412 12.7664 11.4998 12.5544 11.4998 12.3334V9.00008ZM7.33317 8.16675C7.55418 8.16675 7.76615 8.25455 7.92243 8.41083C8.07871 8.56711 8.1665 8.77907 8.1665 9.00008V12.3334C8.1665 12.5544 8.07871 12.7664 7.92243 12.9227C7.76615 13.079 7.55418 13.1667 7.33317 13.1667C7.11216 13.1667 6.9002 13.079 6.74392 12.9227C6.58763 12.7664 6.49984 12.5544 6.49984 12.3334V9.00008C6.49984 8.77907 6.58763 8.56711 6.74392 8.41083C6.9002 8.25455 7.11216 8.16675 7.33317 8.16675ZM4.63317 14.1417C4.66867 14.5579 4.85914 14.9456 5.16687 15.228C5.4746 15.5104 5.87716 15.667 6.29484 15.6667H11.7048C12.1222 15.6666 12.5244 15.5098 12.8317 15.2274C13.1391 14.9451 13.3294 14.5576 13.3648 14.1417L14.0915 5.66675H3.90817L4.63484 14.1417H4.63317Z" fill="#FF0000" fill-opacity="0.71"/>
</svg>
