<svg width="20" height="16" viewBox="0 0 20 16" fill="none" xmlns="http://www.w3.org/2000/svg">
<path d="M12.0834 1.33337H5.00004C4.55801 1.33337 4.13409 1.47385 3.82153 1.7239C3.50897 1.97395 3.33337 2.31309 3.33337 2.66671V13.3334C3.33337 13.687 3.50897 14.0261 3.82153 14.2762C4.13409 14.5262 4.55801 14.6667 5.00004 14.6667H15C15.4421 14.6667 15.866 14.5262 16.1785 14.2762C16.4911 14.0261 16.6667 13.687 16.6667 13.3334V5.00004L12.0834 1.33337Z" stroke="#4788C7" stroke-linecap="round" stroke-linejoin="round"/>
<path d="M11.6667 1.33337V5.33337H16.6667M8.33341 8.00004C8.1124 8.00004 7.90044 8.07028 7.74416 8.1953C7.58788 8.32033 7.50008 8.4899 7.50008 8.66671V9.33337C7.50008 9.51018 7.41228 9.67975 7.256 9.80478C7.09972 9.9298 6.88776 10 6.66675 10C6.88776 10 7.09972 10.0703 7.256 10.1953C7.41228 10.3203 7.50008 10.4899 7.50008 10.6667V11.3334C7.50008 11.5102 7.58788 11.6798 7.74416 11.8048C7.90044 11.9298 8.1124 12 8.33341 12M11.6667 12C11.8878 12 12.0997 11.9298 12.256 11.8048C12.4123 11.6798 12.5001 11.5102 12.5001 11.3334V10.6667C12.5001 10.4899 12.5879 10.3203 12.7442 10.1953C12.9004 10.0703 13.1124 10 13.3334 10C13.1124 10 12.9004 9.9298 12.7442 9.80478C12.5879 9.67975 12.5001 9.51018 12.5001 9.33337V8.66671C12.5001 8.4899 12.4123 8.32033 12.256 8.1953C12.0997 8.07028 11.8878 8.00004 11.6667 8.00004" stroke="#4788C7" stroke-linecap="round" stroke-linejoin="round"/>
</svg>
