<svg width="21" height="18" viewBox="0 0 21 18" fill="none" xmlns="http://www.w3.org/2000/svg">
<path d="M19.6458 9.71654C19.7583 9.66837 19.8541 9.58826 19.9215 9.48614C19.9888 9.38401 20.0247 9.26436 20.0247 9.14202C20.0247 9.01968 19.9888 8.90003 19.9215 8.7979C19.8541 8.69577 19.7583 8.61566 19.6458 8.56749L1.64463 0.852957L1.64374 0.852073L1.08513 0.611657C0.979276 0.566171 0.86291 0.55083 0.748886 0.567327C0.634861 0.583824 0.527616 0.631517 0.438995 0.705139C0.350375 0.778761 0.283829 0.875445 0.246708 0.984512C0.209587 1.09358 0.203336 1.21079 0.228645 1.32318L0.361227 1.91539L0.360344 1.91804L1.96636 9.14202L0.360342 16.366L0.360343 16.3695L0.22776 16.9617C0.202858 17.074 0.209414 17.191 0.246708 17.2998C0.284002 17.4085 0.350588 17.5049 0.439137 17.5783C0.527686 17.6517 0.634761 17.6992 0.748581 17.7157C0.862402 17.7321 0.978549 17.7168 1.08424 17.6715L19.6458 9.71654ZM16.3551 9.76692H3.10745L3.21617 9.27813C3.23617 9.18849 3.23617 9.09554 3.21617 9.0059L3.10745 8.51711H16.3551L17.8126 9.14202L16.356 9.76781L16.3551 9.76692Z" fill="#98CCFD"/>
</svg>
