<svg width="186" height="127" viewBox="0 0 186 127" fill="none" xmlns="http://www.w3.org/2000/svg">
<path d="M1 17.32C1.77 14.23 2.69 11.21 4.69 8.64003C8.48 3.76003 13.41 1.05005 19.61 1.04005C60.74 1.01005 101.86 1.00005 142.99 1.04005C153.17 1.04005 161.48 9.43002 161.54 19.63C161.58 27.47 161.56 35.31 161.53 43.15C161.53 43.77 161.34 44.53 160.96 44.97C157.31 49.14 153.6 53.25 149.9 57.37C149.71 57.58 149.48 57.77 149.08 58.15V23.6701C126.34 40.5901 103.87 57.3 81.29 74.1C58.81 57.38 36.33 40.65 13.65 23.78C13.61 24.44 13.55 24.8801 13.55 25.3101C13.55 49.9301 13.55 74.54 13.55 99.16C13.55 103.89 16.07 106.39 20.84 106.39C31.97 106.39 43.1 106.41 54.23 106.37C55.31 106.37 56.07 106.69 56.83 107.43C60.35 110.85 63.93 114.22 67.5 117.6C67.86 117.95 68.27 118.25 68.65 118.58L68.46 118.93H66.97C51.4 118.93 35.82 118.93 20.25 118.93C10.53 118.93 3.13999 112.77 1.26999 103.18C1.22999 102.99 1.10001 102.81 1.01001 102.63C1.01001 74.19 1.01001 45.76 1.01001 17.32H1ZM141.27 13.6701H21.3C21.71 14.0301 21.93 14.2501 22.17 14.4301C41.52 28.8301 60.89 43.21 80.21 57.64C81.16 58.35 81.67 58.12 82.47 57.52C101.68 43.2 120.91 28.9 140.14 14.59C140.46 14.35 140.76 14.0801 141.26 13.6701H141.27Z" fill="#9DC9EC" stroke="#1C75BC" stroke-width="0.5" stroke-miterlimit="10"/>
<path d="M85.2306 114.94H109.277V108.753H92.8242V82.1281H85.2306V114.94ZM128.861 115.502C139.173 115.502 146.814 108.331 146.814 98.534C146.814 88.7373 139.173 81.5656 128.861 81.5656C118.502 81.5656 110.908 88.7842 110.908 98.534C110.908 108.284 118.502 115.502 128.861 115.502ZM128.861 109.034C123.002 109.034 118.595 104.768 118.595 98.534C118.595 92.2997 123.002 88.0342 128.861 88.0342C134.72 88.0342 139.126 92.2997 139.126 98.534C139.126 104.768 134.72 109.034 128.861 109.034ZM174.692 107.628C172.77 108.659 170.848 109.034 168.786 109.034C162.505 109.034 158.146 104.675 158.146 98.534C158.146 92.2997 162.505 88.0342 168.88 88.0342C172.208 88.0342 174.973 89.2061 177.364 91.7373L182.239 87.2373C179.051 83.5343 174.27 81.5656 168.505 81.5656C158.052 81.5656 150.458 88.6436 150.458 98.534C150.458 108.424 158.052 115.502 168.364 115.502C173.051 115.502 178.02 114.049 181.629 111.331V98.0184H174.692V107.628Z" fill="#9DC9EC"/>
<path d="M85.2306 114.94H84.9832V115.187H85.2306V114.94ZM109.277 114.94V115.187H109.525V114.94H109.277ZM109.277 108.753H109.525V108.505H109.277V108.753ZM92.8242 108.753H92.5768V109H92.8242V108.753ZM92.8242 82.1281H93.0717V81.8806H92.8242V82.1281ZM85.2306 82.1281V81.8806H84.9832V82.1281H85.2306ZM85.2306 115.187H109.277V114.692H85.2306V115.187ZM109.525 114.94V108.753H109.03V114.94H109.525ZM109.277 108.505H92.8242V109H109.277V108.505ZM93.0717 108.753V82.1281H92.5768V108.753H93.0717ZM92.8242 81.8806H85.2306V82.3756H92.8242V81.8806ZM84.9832 82.1281V114.94H85.4781V82.1281H84.9832ZM128.861 115.75C139.296 115.75 147.061 108.481 147.061 98.534H146.566C146.566 108.181 139.05 115.255 128.861 115.255V115.75ZM147.061 98.534C147.061 88.5872 139.296 81.3181 128.861 81.3181V81.8131C139.05 81.8131 146.566 88.8874 146.566 98.534H147.061ZM128.861 81.3181C118.378 81.3181 110.661 88.6349 110.661 98.534H111.156C111.156 88.9334 118.625 81.8131 128.861 81.8131V81.3181ZM110.661 98.534C110.661 108.433 118.378 115.75 128.861 115.75V115.255C118.625 115.255 111.156 108.135 111.156 98.534H110.661ZM128.861 108.786C123.14 108.786 118.843 104.633 118.843 98.534H118.348C118.348 104.903 122.863 109.281 128.861 109.281V108.786ZM118.843 98.534C118.843 92.4349 123.14 88.2817 128.861 88.2817V87.7867C122.863 87.7867 118.348 92.1646 118.348 98.534H118.843ZM128.861 88.2817C134.582 88.2817 138.879 92.4349 138.879 98.534H139.374C139.374 92.1646 134.858 87.7867 128.861 87.7867V88.2817ZM138.879 98.534C138.879 104.633 134.582 108.786 128.861 108.786V109.281C134.858 109.281 139.374 104.903 139.374 98.534H138.879ZM174.692 107.628L174.809 107.846L174.94 107.776V107.628H174.692ZM177.364 91.7373L177.184 91.9072L177.352 92.0851L177.532 91.9191L177.364 91.7373ZM182.239 87.2373L182.407 87.4192L182.582 87.2571L182.426 87.0759L182.239 87.2373ZM181.629 111.331L181.778 111.528L181.877 111.454V111.331H181.629ZM181.629 98.0184H181.877V97.7709H181.629V98.0184ZM174.692 98.0184V97.7709H174.445V98.0184H174.692ZM174.575 107.41C172.696 108.418 170.816 108.786 168.786 108.786V109.281C170.881 109.281 172.845 108.9 174.809 107.846L174.575 107.41ZM168.786 108.786C165.704 108.786 163.109 107.718 161.284 105.911C159.46 104.104 158.393 101.544 158.393 98.534H157.898C157.898 101.664 159.01 104.355 160.936 106.262C162.862 108.17 165.587 109.281 168.786 109.281V108.786ZM158.393 98.534C158.393 95.4764 159.461 92.9176 161.295 91.1232C163.13 89.3284 165.748 88.2817 168.88 88.2817V87.7867C165.636 87.7867 162.888 88.8728 160.949 90.7693C159.01 92.6663 157.898 95.3574 157.898 98.534H158.393ZM168.88 88.2817C172.139 88.2817 174.84 89.425 177.184 91.9072L177.544 91.5673C175.107 88.9871 172.277 87.7867 168.88 87.7867V88.2817ZM177.532 91.9191L182.407 87.4192L182.071 87.0555L177.196 91.5554L177.532 91.9191ZM182.426 87.0759C179.183 83.308 174.328 81.3181 168.505 81.3181V81.8131C174.213 81.8131 178.92 83.7606 182.051 87.3988L182.426 87.0759ZM168.505 81.3181C157.93 81.3181 150.211 88.4922 150.211 98.534H150.706C150.706 88.795 158.173 81.8131 168.505 81.8131V81.3181ZM150.211 98.534C150.211 108.575 157.929 115.75 168.364 115.75V115.255C158.175 115.255 150.706 108.274 150.706 98.534H150.211ZM168.364 115.75C173.097 115.75 178.12 114.284 181.778 111.528L181.481 111.133C177.92 113.815 173.006 115.255 168.364 115.255V115.75ZM181.877 111.331V98.0184H181.382V111.331H181.877ZM181.629 97.7709H174.692V98.2659H181.629V97.7709ZM174.445 98.0184V107.628H174.94V98.0184H174.445Z" fill="#1C75BC"/>
</svg>
