<svg width="186" height="127" viewBox="0 0 186 127" fill="none" xmlns="http://www.w3.org/2000/svg">
<path d="M1 17.02C1.77 13.93 2.69 10.91 4.69 8.33998C8.48 3.45998 13.41 0.750006 19.61 0.740006C60.74 0.710006 101.86 0.700006 142.99 0.740006C153.17 0.750006 161.48 9.13009 161.54 19.3301C161.58 27.1701 161.56 35.01 161.53 42.85C161.53 43.47 161.34 44.2301 160.96 44.6701C157.31 48.8401 153.6 52.9501 149.9 57.0701C149.71 57.2801 149.48 57.47 149.08 57.85C149.08 46.32 149.08 35.06 149.08 23.37C126.34 40.29 103.87 57.0001 81.29 73.8001C58.81 57.0801 36.33 40.35 13.65 23.48C13.61 24.14 13.55 24.58 13.55 25.01C13.55 49.63 13.54 74.24 13.55 98.86C13.55 103.59 16.07 106.09 20.84 106.09C31.97 106.1 43.1 106.11 54.23 106.07C55.31 106.07 56.07 106.39 56.83 107.13C60.35 110.55 63.93 113.92 67.5 117.3C67.86 117.65 68.27 117.95 68.65 118.28C68.59 118.4 68.53 118.51 68.46 118.63C67.96 118.63 67.47 118.63 66.97 118.63C51.4 118.63 35.82 118.64 20.25 118.63C10.53 118.62 3.14002 112.47 1.27002 102.88C1.23002 102.69 1.10001 102.51 1.01001 102.33C1.00001 73.9001 1 45.46 1 17.02ZM141.27 13.37C101.15 13.37 61.34 13.37 21.3 13.37C21.71 13.73 21.93 13.95 22.17 14.13C41.52 28.53 60.89 42.91 80.21 57.34C81.16 58.05 81.67 57.82 82.47 57.22C101.68 42.9 120.91 28.6001 140.14 14.2901C140.47 14.0601 140.77 13.79 141.27 13.37Z" fill="#98CCFD" stroke="#4788C7" stroke-miterlimit="10"/>
<path d="M85.2319 114.635H109.235V108.459H92.8119V81.8821H85.2319V114.635ZM128.784 115.196C139.077 115.196 146.704 108.038 146.704 98.2585C146.704 88.4794 139.077 81.3206 128.784 81.3206C118.443 81.3206 110.863 88.5262 110.863 98.2585C110.863 107.991 118.443 115.196 128.784 115.196ZM128.784 108.739C122.935 108.739 118.537 104.482 118.537 98.2585C118.537 92.0355 122.935 87.7776 128.784 87.7776C134.632 87.7776 139.031 92.0355 139.031 98.2585C139.031 104.482 134.632 108.739 128.784 108.739ZM174.532 107.336C172.614 108.365 170.696 108.739 168.637 108.739C162.367 108.739 158.016 104.388 158.016 98.2585C158.016 92.0355 162.367 87.7776 168.73 87.7776C172.052 87.7776 174.813 88.9473 177.199 91.474L182.065 86.9822C178.884 83.2858 174.111 81.3206 168.356 81.3206C157.922 81.3206 150.342 88.3859 150.342 98.2585C150.342 108.131 157.922 115.196 168.216 115.196C172.895 115.196 177.854 113.746 181.457 111.032V97.7438H174.532V107.336Z" fill="#98CCFD"/>
<path d="M85.2319 114.635H84.7379V115.129H85.2319V114.635ZM109.235 114.635V115.129H109.729V114.635H109.235ZM109.235 108.459H109.729V107.965H109.235V108.459ZM92.8119 108.459H92.3178V108.953H92.8119V108.459ZM92.8119 81.8821H93.3059V81.388H92.8119V81.8821ZM85.2319 81.8821V81.388H84.7379V81.8821H85.2319ZM85.2319 115.129H109.235V114.141H85.2319V115.129ZM109.729 114.635V108.459H108.741V114.635H109.729ZM109.235 107.965H92.8119V108.953H109.235V107.965ZM93.3059 108.459V81.8821H92.3178V108.459H93.3059ZM92.8119 81.388H85.2319V82.3762H92.8119V81.388ZM84.7379 81.8821V114.635H85.726V81.8821H84.7379ZM128.784 115.69C139.323 115.69 147.198 108.337 147.198 98.2585H146.21C146.21 107.738 138.832 114.702 128.784 114.702V115.69ZM147.198 98.2585C147.198 88.1798 139.323 80.8265 128.784 80.8265V81.8147C138.832 81.8147 146.21 88.7791 146.21 98.2585H147.198ZM128.784 80.8265C118.196 80.8265 110.369 88.2283 110.369 98.2585H111.357C111.357 88.8242 118.69 81.8147 128.784 81.8147V80.8265ZM110.369 98.2585C110.369 108.289 118.196 115.69 128.784 115.69V114.702C118.69 114.702 111.357 107.693 111.357 98.2585H110.369ZM128.784 108.245C123.211 108.245 119.031 104.212 119.031 98.2585H118.043C118.043 104.751 122.659 109.233 128.784 109.233V108.245ZM119.031 98.2585C119.031 92.3053 123.211 88.2717 128.784 88.2717V87.2835C122.659 87.2835 118.043 91.7656 118.043 98.2585H119.031ZM128.784 88.2717C134.357 88.2717 138.537 92.3053 138.537 98.2585H139.525C139.525 91.7656 134.908 87.2835 128.784 87.2835V88.2717ZM138.537 98.2585C138.537 104.212 134.357 108.245 128.784 108.245V109.233C134.908 109.233 139.525 104.751 139.525 98.2585H138.537ZM174.532 107.336L174.766 107.771L175.026 107.631V107.336H174.532ZM177.199 91.474L176.84 91.8132L177.175 92.1683L177.534 91.837L177.199 91.474ZM182.065 86.9822L182.401 87.3452L182.751 87.0215L182.44 86.6599L182.065 86.9822ZM181.457 111.032L181.754 111.427L181.951 111.278V111.032H181.457ZM181.457 97.7438H181.951V97.2497H181.457V97.7438ZM174.532 97.7438V97.2497H174.038V97.7438H174.532ZM174.299 106.9C172.465 107.884 170.63 108.245 168.637 108.245V109.233C170.761 109.233 172.763 108.846 174.766 107.771L174.299 106.9ZM168.637 108.245C165.619 108.245 163.093 107.2 161.323 105.446C159.553 103.693 158.51 101.203 158.51 98.2585H157.521C157.521 101.443 158.654 104.194 160.627 106.148C162.6 108.103 165.385 109.233 168.637 109.233V108.245ZM158.51 98.2585C158.51 95.2658 159.554 92.7776 161.332 91.0376C163.112 89.2967 165.661 88.2717 168.73 88.2717V87.2835C165.436 87.2835 162.628 88.3874 160.641 90.3312C158.653 92.2759 157.521 95.0281 157.521 98.2585H158.51ZM168.73 88.2717C171.915 88.2717 174.546 89.3844 176.84 91.8132L177.558 91.1347C175.08 88.5103 172.19 87.2835 168.73 87.2835V88.2717ZM177.534 91.837L182.401 87.3452L181.73 86.6191L176.864 91.1109L177.534 91.837ZM182.44 86.6599C179.147 82.8341 174.226 80.8265 168.356 80.8265V81.8147C173.997 81.8147 178.621 83.7375 181.691 87.3045L182.44 86.6599ZM168.356 80.8265C157.679 80.8265 149.848 88.0836 149.848 98.2585H150.836C150.836 88.6881 158.164 81.8147 168.356 81.8147V80.8265ZM149.848 98.2585C149.848 108.431 157.677 115.69 168.216 115.69V114.702C158.167 114.702 150.836 107.831 150.836 98.2585H149.848ZM168.216 115.69C172.985 115.69 178.053 114.215 181.754 111.427L181.16 110.637C177.655 113.277 172.804 114.702 168.216 114.702V115.69ZM181.951 111.032V97.7438H180.963V111.032H181.951ZM181.457 97.2497H174.532V98.2379H181.457V97.2497ZM174.038 97.7438V107.336H175.026V97.7438H174.038Z" fill="#4788C7"/>
</svg>
