<svg width="60" height="60" viewBox="0 0 60 60" fill="none" xmlns="http://www.w3.org/2000/svg">
<path fill-rule="evenodd" clip-rule="evenodd" d="M55 19.2127V47.1063C55 48.6637 54.2324 50.1574 52.8661 51.2587C51.4997 52.3599 49.6466 52.9786 47.7143 52.9786H33.1429V50.0425H47.7143C48.6804 50.0425 49.607 49.7331 50.2902 49.1825C50.9733 48.6318 51.3571 47.885 51.3571 47.1063V19.2127H44.0714C42.6222 19.2127 41.2324 18.7487 40.2076 17.9228C39.1829 17.0968 38.6072 15.9766 38.6072 14.8085V8.93616H18.5715C17.6053 8.93616 16.6788 9.24551 15.9956 9.79615C15.3124 10.3468 14.9286 11.0936 14.9286 11.8723V38.2978H11.2858V11.8723C11.2858 10.3149 12.0534 8.82124 13.4197 7.71997C14.7861 6.61869 16.6392 6 18.5715 6H38.6072L55 19.2127ZM15.6062 50.894C15.3645 50.4804 15.227 50.0323 15.2019 49.5756H17.9886C18.0392 49.8049 18.1478 50.0233 18.3076 50.2172C18.4674 50.4112 18.675 50.5766 18.9176 50.7031C19.1726 50.847 19.4749 50.9586 19.8246 51.0378C20.1707 51.12 20.5605 51.1582 20.9867 51.1582C21.5841 51.1582 22.0868 51.0907 22.4912 50.9527C22.8627 50.8407 23.1856 50.6438 23.4201 50.386C23.6283 50.1341 23.7363 49.8371 23.7298 49.5345C23.7401 49.3505 23.6947 49.1672 23.5976 49.0005C23.5005 48.8337 23.3546 48.6885 23.1724 48.5773C22.8045 48.3424 22.2435 48.1545 21.4894 48.0106L19.2345 47.5908C18.5406 47.4724 17.8766 47.2599 17.271 46.9624C16.7369 46.6978 16.2966 46.3267 15.9924 45.8849C15.6825 45.4113 15.5282 44.8816 15.5443 44.3463C15.5443 43.6299 15.7738 43.0045 16.2364 42.4701C16.6991 41.9387 17.3402 41.5247 18.1598 41.231C18.9758 40.9374 19.9193 40.7936 20.9867 40.7936C22.0978 40.7936 23.0413 40.9404 23.8281 41.2398C24.615 41.5393 25.2233 41.9416 25.6495 42.4437C26.0867 42.9428 26.3271 43.4978 26.3781 44.1055H23.646C23.5836 43.8269 23.433 43.566 23.2088 43.348C22.9683 43.1134 22.6591 42.9307 22.3091 42.8166C21.8827 42.6765 21.4251 42.6086 20.9648 42.6169C20.1743 42.6169 19.5514 42.7637 19.0961 43.0632C18.8825 43.1957 18.7106 43.3667 18.5942 43.5626C18.4778 43.7584 18.4201 43.9736 18.4258 44.1907C18.4258 44.546 18.6006 44.8367 18.9467 45.0715C19.383 45.3319 19.8878 45.5077 20.4221 45.5854L22.6806 46.0052C23.4748 46.1521 24.1596 46.3576 24.7425 46.6248C25.3253 46.889 25.7807 47.2414 26.1085 47.6759C26.4364 48.1105 26.6003 48.6595 26.6003 49.3202C26.6003 50.0454 26.3708 50.6884 25.9155 51.2463C25.4305 51.8208 24.7482 52.2688 23.952 52.5353C23.0996 52.8436 22.0577 52.9992 20.8264 52.9992C19.9011 52.9992 19.0924 52.9111 18.4039 52.7349C17.7695 52.5815 17.1781 52.3302 16.6626 51.995C16.2179 51.6923 15.8578 51.3171 15.6062 50.894ZM4.2988 50.7971C4.0978 50.3592 3.9966 49.8957 4.00009 49.4288H6.78687C6.79335 49.7067 6.88469 49.9789 7.0528 50.2216C7.22053 50.4521 7.46329 50.6412 7.7548 50.7686C8.04631 50.8959 8.37547 50.9565 8.70665 50.9439C9.39879 50.9439 9.90879 50.7824 10.2439 50.4623C10.5791 50.1394 10.7466 49.6843 10.7466 49.0941V41.0343H13.6245V49.0354C13.6245 50.3273 13.191 51.308 12.324 51.9862C11.4643 52.6615 10.2694 52.9992 8.73944 52.9992C8.03341 53.0098 7.33093 52.9163 6.66665 52.7232C6.10877 52.5514 5.60316 52.2851 5.18401 51.9422C4.79557 51.6129 4.49438 51.2232 4.2988 50.7971Z" fill="#98CCFD" stroke="#4788C7" stroke-width="0.5"/>
</svg>
