<svg width="40" height="40" viewBox="0 0 40 40" fill="none" xmlns="http://www.w3.org/2000/svg">
<path d="M5.07792 38.5C3.74892 38.5 2.57592 37.803 1.94092 36.635C1.30592 35.468 1.35792 34.104 2.07992 32.988L14.4999 18.381V4.5H13.9999C13.1729 4.5 12.4999 3.827 12.4999 3C12.4999 2.173 13.1729 1.5 13.9999 1.5H25.9999C26.8269 1.5 27.4999 2.173 27.4999 3C27.4999 3.827 26.8269 4.5 25.9999 4.5H25.4999V18.381L37.9589 33.04C38.6419 34.104 38.6939 35.467 38.0589 36.635C37.4239 37.803 36.2509 38.5 34.9219 38.5H5.07792Z" fill="#DFF0FE"/>
<path d="M26.0001 2C26.5511 2 27.0001 2.449 27.0001 3C27.0001 3.551 26.5511 4 26.0001 4H25.0001V5V18.198V18.566L25.2381 18.846L37.5331 33.312C38.1231 34.262 38.1561 35.411 37.6201 36.397C37.0741 37.401 36.0651 38 34.9221 38H5.07812C3.93512 38 2.92612 37.401 2.38012 36.396C1.84312 35.41 1.87712 34.261 2.46712 33.311L14.7621 18.845L15.0001 18.565V18.197V5V4H14.0001C13.4491 4 13.0001 3.551 13.0001 3C13.0001 2.449 13.4491 2 14.0001 2H26.0001ZM26.0001 1H14.0001C12.9001 1 12.0001 1.9 12.0001 3C12.0001 4.1 12.9001 5 14.0001 5V18.198L1.66012 32.717C-0.0928785 35.426 1.85212 39 5.07812 39H34.9221C38.1491 39 40.0931 35.426 38.3401 32.717L26.0001 18.198V5C27.1001 5 28.0001 4.1 28.0001 3C28.0001 1.9 27.1001 1 26.0001 1Z" fill="#4788C7"/>
<path d="M18 10C17.7348 10 17.4804 10.1054 17.2929 10.2929C17.1054 10.4804 17 10.7348 17 11C17 11.2652 17.1054 11.5196 17.2929 11.7071C17.4804 11.8946 17.7348 12 18 12C18.2652 12 18.5196 11.8946 18.7071 11.7071C18.8946 11.5196 19 11.2652 19 11C19 10.7348 18.8946 10.4804 18.7071 10.2929C18.5196 10.1054 18.2652 10 18 10ZM21 17C20.4696 17 19.9609 17.2107 19.5858 17.5858C19.2107 17.9609 19 18.4696 19 19C19 19.5304 19.2107 20.0391 19.5858 20.4142C19.9609 20.7893 20.4696 21 21 21C21.5304 21 22.0391 20.7893 22.4142 20.4142C22.7893 20.0391 23 19.5304 23 19C23 18.4696 22.7893 17.9609 22.4142 17.5858C22.0391 17.2107 21.5304 17 21 17Z" fill="#4788C7"/>
<path d="M5.07792 38.5C3.74892 38.5 2.57592 37.803 1.94092 36.635C1.30592 35.468 1.35792 34.104 2.07992 32.988L9.29992 24.5H30.6999L37.9589 33.041C38.6419 34.105 38.6939 35.468 38.0589 36.636C37.4239 37.804 36.2509 38.501 34.9219 38.501H5.07792V38.5Z" fill="#98CCFD"/>
<path d="M30.4691 25L37.5331 33.311C38.1231 34.261 38.1561 35.41 37.6201 36.396C37.0741 37.401 36.0651 38 34.9221 38H5.07812C3.93512 38 2.92612 37.401 2.38012 36.396C1.84312 35.41 1.87712 34.261 2.46712 33.311L9.53112 25H30.4691ZM30.9321 24H9.06812L1.66012 32.717C-0.0928785 35.426 1.85212 39 5.07812 39H34.9221C38.1491 39 40.0931 35.426 38.3401 32.717L30.9321 24Z" fill="#4788C7"/>
<path d="M24.5 32C24.1022 32 23.7206 32.158 23.4393 32.4393C23.158 32.7206 23 33.1022 23 33.5C23 33.8978 23.158 34.2794 23.4393 34.5607C23.7206 34.842 24.1022 35 24.5 35C24.8978 35 25.2794 34.842 25.5607 34.5607C25.842 34.2794 26 33.8978 26 33.5C26 33.1022 25.842 32.7206 25.5607 32.4393C25.2794 32.158 24.8978 32 24.5 32ZM15.5 28C14.837 28 14.2011 28.2634 13.7322 28.7322C13.2634 29.2011 13 29.837 13 30.5C13 31.163 13.2634 31.7989 13.7322 32.2678C14.2011 32.7366 14.837 33 15.5 33C16.163 33 16.7989 32.7366 17.2678 32.2678C17.7366 31.7989 18 31.163 18 30.5C18 29.837 17.7366 29.2011 17.2678 28.7322C16.7989 28.2634 16.163 28 15.5 28V28Z" fill="#4788C7"/>
</svg>
