<svg width="60" height="60" viewBox="0 0 60 60" fill="none" xmlns="http://www.w3.org/2000/svg">
<path d="M26.7944 27.4885H26.2944V27.9885V43.5115C26.2944 43.7291 26.185 43.9707 25.9301 44.1707C25.6723 44.3729 25.3018 44.5 24.8972 44.5C24.4926 44.5 24.1221 44.3729 23.8643 44.1707C23.6094 43.9707 23.5 43.7291 23.5 43.5115V9.48851C23.5 9.27091 23.6094 9.02932 23.8643 8.82935C24.1219 8.62726 24.492 8.50022 24.8961 8.5C24.9311 8.50017 24.966 8.50129 25.0008 8.50337L25.0305 8.50514L25.0602 8.50337C25.0964 8.50122 25.1326 8.5001 25.1689 8.5H50.1028C50.5074 8.5 50.8779 8.62708 51.1357 8.82935C51.3906 9.02932 51.5 9.2709 51.5 9.48851V26.5C51.5 26.7176 51.3906 26.9592 51.1357 27.1592C50.8779 27.3614 50.5074 27.4885 50.1028 27.4885H26.7944Z" fill="#98CCFD" stroke="#4788C7"/>
<path d="M18.9022 42C13.0755 42.71 9 44.4078 9 46.9061C9 50.2713 15.8096 53 25.5 53C35.1904 53 42 50.2718 42 46.9061C42 44.4073 37.9245 42.71 32.0984 42.0005L31.291 43.1849C35.6827 43.7096 38.7 44.8135 38.7 46.0937C38.7 47.8887 32.7903 49.3438 25.5 49.3438C18.2097 49.3438 12.3 47.8887 12.3 46.0937C12.2995 44.8178 15.2975 43.7153 19.7024 43.1883C19.4362 42.792 19.169 42.3967 18.9022 42Z" fill="#98CCFD" stroke="#4788C7" stroke-width="0.5"/>
</svg>
