<svg width="40" height="40" viewBox="0 0 40 40" fill="none" xmlns="http://www.w3.org/2000/svg">
<path d="M6.5 37.5V2.5H24.793L33.5 11.207V37.5H6.5Z" fill="white"/>
<path d="M24.586 3L33 11.414V37H7V3H24.586ZM25 2H6V38H34V11L25 2Z" fill="#4788C7"/>
<path d="M24.5 11.5V2.5H24.793L33.5 11.207V11.5H24.5Z" fill="#DFF0FE"/>
<path d="M25 3.414L32.586 11H25V3.414ZM25 2H24V12H34V11L25 2Z" fill="#4788C7"/>
<path d="M22.5 16.5L17.5 30.5M25.5 19.5L27.5 23.5L25.5 27.5V19.5ZM14.5 19.5L12.5 23.5L14.5 27.5V19.5Z" stroke="#4788C7" stroke-miterlimit="10" stroke-linecap="round"/>
<path d="M38.96 31.5H34.5V39.5H29.5V31.5H25.04L32 22.8L38.96 31.5Z" fill="#98CCFD"/>
<path d="M30 39V31H26.08L32 23.6L37.92 31H34V39H30ZM29 40H35V32H40L32 22L24 32H29V40Z" fill="#4788C7"/>
</svg>
